<svg width="78" height="78" viewBox="0 0 78 78" fill="none" xmlns="http://www.w3.org/2000/svg">
<path fill-rule="evenodd" clip-rule="evenodd" d="M11.1613 53.4832C11.1613 51.0938 11.1665 48.8721 11.1522 46.6478C11.1496 46.458 11.0729 46.2006 10.9377 46.081C9.78331 45.0423 9.77681 45.0501 11.1158 44.4664C11.1158 43.2015 11.1158 41.9249 11.1158 40.5612C10.7843 40.5378 10.4996 40.5235 10.2149 40.4923C9.46351 40.413 9.19961 40.0126 9.59221 39.3574C10.3774 38.0483 11.2224 36.8341 11.4018 35.1922C11.5435 33.8896 12.7525 33.536 14.6947 33.8831C15.5709 32.1814 17.0165 31.2155 18.6129 30.9451C19.1017 30.3419 19.4345 29.9324 19.7673 29.5216C20.0377 29.9051 20.3068 30.2899 20.7475 30.9165C22.3036 31.2233 23.8714 32.0917 24.7229 33.8727C25.46 33.8051 26.1243 33.744 26.8744 33.6751C26.8744 33.1967 26.8744 32.6637 26.8744 32.1359C26.7821 32.0865 26.7119 32.0332 26.6313 32.0098C26.0879 31.8551 25.5419 31.7082 24.9959 31.5587C25.226 31.0309 25.4496 30.5031 25.6849 29.9779C26.1295 28.986 26.6872 28.0292 27.0031 26.9983C27.4386 25.5813 28.8634 24.722 30.2089 25.3707C30.829 25.6697 31.2437 25.4825 31.8209 25.398C32.7114 25.2667 33.7423 25.8335 34.5717 25.6021C35.5077 25.3421 36.2669 25.2329 37.2588 25.4162C38.6914 25.6814 40.2098 25.4877 41.6892 25.4747C41.8062 25.4747 41.9271 25.3148 42.0376 25.3252C43.7744 25.4994 45.5138 25.2953 47.2519 25.3746C47.703 25.3954 48.2035 25.5059 48.6 25.3577C50.0729 24.8065 51.4899 25.5462 51.9228 27.0308C52.201 27.9837 52.5975 28.9418 53.1331 29.7712C54.4227 31.7641 54.4318 31.82 52.0606 32.0735C52.0606 32.5935 52.0606 33.1265 52.0606 33.6621C52.734 33.7258 53.3957 33.7895 54.1588 33.861C55.0389 32.2503 56.4455 31.2272 58.4189 30.9061C58.4748 30.6357 58.4748 30.3224 58.6087 30.0858C58.74 29.8518 59.0013 29.5567 59.2171 29.5463C59.4134 29.5372 59.8008 29.8752 59.7995 30.0598C59.7982 30.8034 60.2389 30.9295 60.8291 31.092C62.3449 31.5106 63.5045 32.4232 64.1805 33.8428C66.8208 33.5074 67.3499 33.9637 67.7841 36.5156C67.9063 37.2293 68.425 37.8936 68.8319 38.5358C69.9005 40.2284 69.8472 40.3662 67.8218 40.582C67.8218 41.8495 67.8218 43.1261 67.8218 44.3403C68.1962 44.7004 68.555 45.0462 68.9138 45.392C68.594 45.6741 68.2742 45.9562 67.8088 46.3618C67.8088 48.5276 67.8088 50.917 67.8088 53.4793C68.6135 53.4793 69.3805 53.4104 70.1228 53.5092C70.4647 53.5547 70.7611 53.9252 71.0796 54.1514C70.7533 54.4049 70.453 54.7104 70.0916 54.895C69.8888 55.0016 69.5859 54.9158 69.3285 54.9158C49.4528 54.9132 29.5745 54.9132 9.69881 54.9132C9.39981 54.9132 9.05531 55.0042 8.80831 54.8898C8.44301 54.7195 8.14661 54.4049 7.82031 54.1514C8.13881 53.9252 8.43521 53.5573 8.77451 53.5092C9.49081 53.4117 10.2292 53.4832 11.1613 53.4832ZM43.3103 53.4091C43.3103 50.228 43.3025 47.1886 43.3129 44.1492C43.3233 41.128 41.6281 39.0857 39.5416 37.241C37.4512 38.8686 35.8184 40.9122 35.7222 42.8323C35.548 46.3267 35.6728 49.8354 35.6728 53.4104C38.2039 53.4091 40.6713 53.4091 43.3103 53.4091ZM33.182 44.4976C33.3432 44.599 33.5044 44.7004 33.6643 44.7992C33.8697 44.4846 34.2389 44.1752 34.2519 43.8502C34.3845 40.4 36.406 38.0743 38.8825 36.0385C39.1334 35.8305 39.8406 35.8201 40.0902 36.0216C42.5485 38.0262 44.4712 40.3675 44.6441 43.7436C44.6597 44.0582 44.9873 44.3611 45.1693 44.6679C45.3513 44.3559 45.6841 44.0478 45.6867 43.7332C45.7218 40.3896 45.7062 37.0421 45.7049 33.6959C45.7036 33.1512 45.7049 32.6078 45.7049 32.0644C45.5554 31.9968 45.4072 31.9305 45.2603 31.8629C45.0367 32.1684 44.8313 32.4869 44.5856 32.7742C44.4101 32.9809 44.1852 33.2851 43.9811 33.2851C43.7692 33.2864 43.4962 33.0134 43.3584 32.7911C43.2206 32.5714 43.2193 32.2659 43.1634 32.0254C42.633 32.0254 42.2105 32.0254 42.0441 32.0254C41.5865 32.5584 41.2615 32.9393 40.9365 33.3189C40.6206 32.9289 40.3047 32.5402 39.9004 32.0436C39.6365 32.0436 39.1776 32.0436 38.9592 32.0436C38.5575 32.5753 38.2767 32.9471 37.9933 33.3189C37.6449 32.9133 37.2991 32.5064 36.8831 32.0215C36.601 32.0215 36.1798 32.0215 35.9666 32.0215C35.561 32.5402 35.2555 32.9315 34.9513 33.3228C34.7173 32.9822 34.5288 32.5922 34.2337 32.3179C34.0192 32.119 33.6617 32.0748 33.1196 31.8655C33.4901 33.6907 32.5801 35.3482 33.7592 36.8029C33.1352 37.8988 33.1716 38.9973 33.7514 40.0945C32.6295 41.4647 33.4602 43.039 33.182 44.4976ZM23.0329 53.4065C23.0329 51.5891 22.9276 49.8367 23.0589 48.0999C23.263 45.3673 21.7433 43.7384 19.7946 42.3032C16.269 44.6549 15.2732 48.0817 16.5225 53.4065C18.635 53.4065 20.7592 53.4065 23.0329 53.4065ZM58.8583 42.0614C57.8768 43.4329 56.4065 44.6289 56.1413 46.0498C55.6954 48.4288 56.0191 50.9521 56.0191 53.3727C58.2278 53.3727 60.3507 53.3727 62.5815 53.3727C62.5815 51.6892 62.4554 50.0967 62.6088 48.5328C62.8922 45.6572 61.4206 43.8398 58.8583 42.0614ZM26.8757 40.5638C22.0514 40.5638 17.3506 40.5638 12.5718 40.5638C12.5718 41.9353 12.5718 43.2405 12.5718 44.5938C14.1942 44.7485 15.7061 45.0657 16.7188 43.2613C17.1556 42.4813 18.0695 41.9743 18.7637 41.3386C19.4566 40.7068 20.1404 40.7497 20.7878 41.3919C21.6653 42.2629 22.5103 43.1664 23.3995 44.0244C23.6777 44.2935 24.03 44.6107 24.3784 44.651C25.174 44.7446 25.9878 44.6783 26.8757 44.6783C26.8757 43.2704 26.8757 41.9626 26.8757 40.5638ZM51.9371 30.5993C51.5172 29.7556 51.2299 29.1394 50.1548 29.1472C43.0373 29.1966 35.9198 29.1888 28.7997 29.1537C27.7168 29.1485 27.319 29.675 27.0993 30.5993C35.3946 30.5993 43.6002 30.5993 51.9371 30.5993ZM66.3801 40.5768C61.5805 40.5768 56.8485 40.5768 52.0411 40.5768C52.0411 41.9405 52.0411 43.2431 52.0411 44.6237C53.6466 44.6796 54.9089 44.8577 56.2297 43.3055C59.0585 39.9814 59.2353 39.9437 62.2526 43.3822C63.589 44.9032 64.837 44.703 66.3814 44.5782C66.3801 43.1924 66.3801 41.9249 66.3801 40.5768ZM26.8692 37.748C26.5455 37.7285 26.2985 37.6986 26.0502 37.6986C21.7615 37.696 17.4715 37.7272 13.1841 37.6739C12.0804 37.6609 11.719 38.216 11.4954 39.1104C16.6577 39.1104 21.742 39.1104 26.8692 39.1104C26.8692 38.6229 26.8692 38.216 26.8692 37.748ZM52.0541 39.0896C57.2242 39.0896 62.3189 39.0896 67.4435 39.0896C67.1653 37.9378 66.4997 37.6414 65.4454 37.6726C63.0053 37.7454 60.5613 37.6973 58.1199 37.6973C56.1153 37.6973 54.112 37.6973 52.0541 37.6973C52.0541 38.2368 52.0541 38.6437 52.0541 39.0896ZM24.4239 46.107C24.4239 48.5874 24.4239 50.969 24.4239 53.3922C25.3014 53.3922 26.0853 53.3922 26.8666 53.3922C26.8666 50.917 26.8666 48.5354 26.8666 46.107C25.9761 46.107 25.187 46.107 24.4239 46.107ZM54.5163 53.3987C54.5163 50.9404 54.5163 48.5614 54.5163 46.0966C53.7116 46.0966 52.9225 46.0966 52.071 46.0966C52.071 48.5744 52.071 50.9846 52.071 53.3987C52.929 53.3987 53.6804 53.3987 54.5163 53.3987ZM14.9768 53.4247C14.9768 50.9157 14.9768 48.5393 14.9768 46.1304C14.1435 46.1304 13.3687 46.1304 12.5913 46.1304C12.5913 48.6238 12.5913 50.9976 12.5913 53.4247C13.4051 53.4247 14.1201 53.4247 14.9768 53.4247ZM66.3372 53.4091C66.3372 50.865 66.3372 48.4938 66.3372 46.094C65.4766 46.094 64.7252 46.094 63.9621 46.094C63.9621 48.564 63.9621 50.9482 63.9621 53.4091C64.7837 53.4091 65.5338 53.4091 66.3372 53.4091ZM31.7689 44.6367C31.7689 43.1846 31.7689 41.882 31.7689 40.5898C30.5781 40.5898 29.4874 40.5898 28.4032 40.5898C28.4032 41.9886 28.4032 43.2886 28.4032 44.6367C29.5563 44.6367 30.6158 44.6367 31.7689 44.6367ZM31.7819 36.344C31.7819 34.8425 31.7819 33.4619 31.7819 32.0813C31.6844 32.0059 31.5869 31.9305 31.4894 31.8551C31.2294 32.0904 30.9577 32.314 30.712 32.5636C30.4754 32.8028 30.2661 33.0693 30.0451 33.3228C29.8319 33.0537 29.6304 32.7768 29.4029 32.5194C29.2391 32.3322 29.0402 32.0306 28.8634 32.0358C28.6749 32.0423 28.346 32.3426 28.3395 32.5233C28.2927 33.7804 28.3148 35.0414 28.3148 36.3427C29.5563 36.344 30.6132 36.344 31.7819 36.344ZM47.183 40.5417C47.183 41.9782 47.183 43.2808 47.183 44.5886C48.3712 44.5886 49.4606 44.5886 50.5448 44.5886C50.5448 43.1846 50.5448 41.8794 50.5448 40.5417C49.393 40.5417 48.3348 40.5417 47.183 40.5417ZM28.3876 46.0862C28.3876 47.277 28.3876 48.369 28.3876 49.5065C29.555 49.5065 30.6418 49.5065 31.7767 49.5065C31.7767 48.3365 31.7767 47.2471 31.7767 46.0862C30.6366 46.0862 29.5875 46.0862 28.3876 46.0862ZM50.6319 36.3362C50.6319 35.0882 50.654 33.9767 50.6124 32.8665C50.6046 32.6325 50.3667 32.4076 50.2328 32.1775C49.9923 32.34 49.7375 32.4843 49.5165 32.6702C49.2799 32.8678 49.0771 33.1057 48.8613 33.3254C48.6429 33.107 48.431 32.8821 48.2035 32.6741C48.0137 32.4986 47.794 32.2048 47.6094 32.2204C47.4222 32.236 47.1258 32.5649 47.1167 32.7651C47.0712 33.9442 47.0946 35.1259 47.0946 36.3362C48.3361 36.3362 49.3917 36.3362 50.6319 36.3362ZM50.5747 46.1096C49.3709 46.1096 48.288 46.1096 47.1726 46.1096C47.1726 47.2952 47.1726 48.3794 47.1726 49.5013C48.3478 49.5013 49.432 49.5013 50.5747 49.5013C50.5747 48.3612 50.5747 47.3082 50.5747 46.1096ZM28.3655 53.4221C29.5745 53.4221 30.634 53.4221 31.7572 53.4221C31.7572 52.5797 31.7572 51.7997 31.7572 51.0327C30.5625 51.0327 29.4796 51.0327 28.3655 51.0327C28.3655 51.8673 28.3655 52.5836 28.3655 53.4221ZM50.5513 51.0015C49.3826 51.0015 48.2984 51.0015 47.1986 51.0015C47.1986 51.8647 47.1986 52.6395 47.1986 53.3857C48.3959 53.3857 49.4788 53.3857 50.5513 53.3857C50.5513 52.5433 50.5513 51.7971 50.5513 51.0015ZM22.6884 33.9351C22.7118 33.7869 22.7326 33.6387 22.7547 33.4892C20.9802 31.6757 18.0669 31.7238 16.7279 33.5594C17.5326 34.0326 18.3425 34.3667 19.2785 33.783C19.5203 33.6309 19.9402 33.7505 20.2782 33.77C21.0816 33.8168 21.885 33.8792 22.6884 33.9351ZM62.3241 33.4866C60.2948 31.6926 57.7221 31.7355 56.1686 33.5737C56.9668 33.8896 57.6727 34.4499 58.5944 33.8116C58.8531 33.6335 59.4095 33.6348 59.6955 33.7934C60.6354 34.3173 61.4271 34.0209 62.3241 33.4866ZM34.2792 49.6898C34.2792 48.7525 34.3169 47.8139 34.2558 46.8818C34.2363 46.5893 33.9425 46.3176 33.7748 46.0368C33.5837 46.2929 33.2301 46.5477 33.2236 46.809C33.1742 48.7668 33.1729 50.7298 33.2171 52.6863C33.2236 52.9476 33.5694 53.1998 33.7592 53.4559C33.9308 53.1816 34.2337 52.9151 34.2532 52.6304C34.3156 51.6515 34.2779 50.67 34.2792 49.6898ZM44.6207 49.7834C44.6207 49.7834 44.6233 49.7834 44.6259 49.7834C44.6259 50.8039 44.5921 51.8296 44.6532 52.8475C44.6662 53.0581 45.0289 53.2518 45.2317 53.452C45.3864 53.2518 45.6763 53.0503 45.6789 52.8475C45.714 50.8039 45.7192 48.7577 45.6789 46.7128C45.6737 46.484 45.3422 46.263 45.1615 46.0368C44.9821 46.263 44.6597 46.4814 44.6467 46.7141C44.5882 47.7372 44.6207 48.7603 44.6207 49.7834ZM31.7806 39.1494C31.7806 38.6073 31.7806 38.2043 31.7806 37.7623C30.6132 37.7623 29.5316 37.7623 28.4214 37.7623C28.4214 38.2589 28.4214 38.6866 28.4214 39.1494C29.5771 39.1494 30.6249 39.1494 31.7806 39.1494ZM47.1687 39.1182C48.3322 39.1182 49.4216 39.1182 50.5487 39.1182C50.5487 38.6333 50.5487 38.2251 50.5487 37.7675C49.3813 37.7675 48.2906 37.7675 47.1687 37.7675C47.1687 38.2485 47.1687 38.658 47.1687 39.1182ZM40.384 27.8043C40.4659 27.6691 40.5491 27.5339 40.6323 27.3987C40.228 27.0984 39.8133 26.5524 39.4233 26.568C39.0359 26.5836 38.6719 27.166 38.2975 27.5014C38.3716 27.6028 38.4444 27.7042 38.5185 27.8043C39.1412 27.8043 39.7626 27.8043 40.384 27.8043ZM34.9266 27.4546C35.028 27.5612 35.1294 27.6678 35.2321 27.7731C35.8392 27.7731 36.4463 27.7731 37.0521 27.7731C37.1171 27.6613 37.1834 27.5469 37.2497 27.4325C36.8532 27.1205 36.4606 26.5693 36.0628 26.5654C35.6871 26.5628 35.3062 27.1348 34.9266 27.4546ZM31.5427 27.3909C31.6233 27.5248 31.7052 27.6587 31.7858 27.7939C32.402 27.7939 33.0156 27.7939 33.6318 27.7939C33.7072 27.6912 33.7813 27.5898 33.858 27.4884C33.4849 27.1595 33.1222 26.5862 32.7374 26.5693C32.35 26.5524 31.9405 27.0945 31.5427 27.3909ZM43.7666 27.7991C43.8472 27.7055 43.9291 27.6106 44.0097 27.517C43.6535 27.1777 43.283 26.5576 42.9398 26.5693C42.5082 26.5849 42.0961 27.1218 41.6736 27.4338C41.7542 27.556 41.8361 27.6782 41.918 27.7991C42.5342 27.7991 43.1491 27.7991 43.7666 27.7991ZM30.3311 27.816C30.2843 26.9307 29.9502 26.3834 29.1949 26.5472C28.8062 26.6317 28.5228 27.2037 28.1926 27.5547C28.2771 27.6418 28.3629 27.7289 28.4474 27.8147C29.0233 27.816 29.5992 27.816 30.3311 27.816ZM47.1011 27.8108C47.1921 27.6717 47.2857 27.5326 47.3767 27.3922C46.9789 27.0958 46.5668 26.5524 46.1846 26.5732C45.8089 26.5927 45.4618 27.1829 45.103 27.5222C45.1849 27.6184 45.2668 27.7146 45.3474 27.8108C45.9324 27.8108 46.5174 27.8108 47.1011 27.8108ZM50.4876 27.8056C50.5734 27.6691 50.6605 27.5326 50.7463 27.3961C50.3537 27.0958 49.9559 26.5563 49.5711 26.5641C49.211 26.5719 48.8639 27.1634 48.5129 27.4988C48.5935 27.6015 48.6741 27.7042 48.7547 27.8069C49.3306 27.8056 49.9091 27.8056 50.4876 27.8056ZM18.6909 36.0307C18.7676 36.1477 18.843 36.2647 18.9184 36.3817C19.4891 36.3492 20.0598 36.3167 20.6305 36.2842C20.6838 36.1347 20.7371 35.9865 20.7891 35.8383C20.4108 35.5757 20.013 35.0843 19.6607 35.1142C19.3136 35.1454 19.012 35.7044 18.6909 36.0307ZM54.9908 35.9709C55.087 36.0879 55.1832 36.2036 55.2794 36.3206C55.8111 36.3206 56.3402 36.3206 56.8719 36.3206C56.9499 36.2127 57.0266 36.1074 57.1033 36.0008C56.7406 35.6797 56.3974 35.1454 56.0061 35.1077C55.6993 35.0791 55.3314 35.6615 54.9908 35.9709ZM17.4299 36.3102C17.5079 36.2023 17.5846 36.0931 17.6626 35.9852C17.2869 35.6745 16.9255 35.1428 16.5342 35.122C16.2313 35.1064 15.8933 35.7278 15.5709 36.0658C15.6645 36.1464 15.7594 36.2283 15.8517 36.3102C16.3769 36.3102 16.9034 36.3102 17.4299 36.3102ZM23.6946 36.3193C23.7752 36.2062 23.8519 36.0944 23.9312 35.9826C23.5724 35.6693 23.2058 35.1051 22.8561 35.1142C22.5142 35.1233 22.1866 35.7174 21.8538 36.0541C21.9409 36.1425 22.0306 36.2309 22.1164 36.3206C22.6429 36.3193 23.1681 36.3193 23.6946 36.3193ZM24.9803 35.9683C25.057 36.0801 25.1311 36.1919 25.2078 36.305C25.7616 36.305 26.3167 36.305 26.8705 36.305C26.942 36.2062 27.0135 36.11 27.085 36.0125C26.7535 35.6888 26.409 35.0973 26.097 35.1142C25.7096 35.1337 25.3508 35.6615 24.9803 35.9683ZM53.8156 36.331C53.7714 35.4262 53.4607 34.8815 52.6651 35.1142C52.3375 35.2104 52.1555 35.8019 51.7967 36.331C52.6911 36.331 53.1851 36.331 53.8156 36.331ZM58.1238 35.8903C58.1979 36.0268 58.2694 36.1633 58.3435 36.2998C58.9038 36.2998 59.4628 36.2998 60.0231 36.2998C60.0946 36.1971 60.1661 36.0957 60.2389 35.9943C59.9035 35.6784 59.5772 35.1246 59.234 35.1129C58.8713 35.0999 58.493 35.6095 58.1238 35.8903ZM66.306 36.3219C66.3931 36.1698 66.4802 36.019 66.5673 35.8669C66.1604 35.5965 65.7535 35.1246 65.3453 35.1233C65.0554 35.1207 64.7642 35.7538 64.2897 36.3219C65.2491 36.3219 65.7782 36.3219 66.306 36.3219ZM61.2763 36.0216C61.3517 36.1386 61.4271 36.2556 61.5025 36.3726C62.0732 36.3453 62.6452 36.318 63.2146 36.292C63.2692 36.1477 63.3238 36.0021 63.3784 35.8578C63.0092 35.5887 62.6153 35.0856 62.2721 35.1168C61.9159 35.1493 61.6065 35.6992 61.2763 36.0216ZM14.1981 36.3154C14.2982 36.1854 14.3983 36.058 14.4984 35.928C14.1123 35.6329 13.7392 35.1324 13.3375 35.1103C13.0437 35.0947 12.7148 35.7057 12.4015 36.0372C12.4769 36.1295 12.551 36.2231 12.6264 36.3154C13.1503 36.3154 13.6755 36.3154 14.1981 36.3154Z" fill="#D7000C"/>
<path fill-rule="evenodd" clip-rule="evenodd" d="M43.31 53.4091C40.671 53.4091 38.2023 53.4091 35.6712 53.4091C35.6712 49.8341 35.5464 46.3254 35.7206 42.831C35.8168 40.9109 37.4496 38.8673 39.54 37.2397C41.6265 39.0857 43.3217 41.1267 43.3113 44.1479C43.3035 47.1886 43.31 50.228 43.31 53.4091Z" fill="white"/>
<path fill-rule="evenodd" clip-rule="evenodd" d="M33.1815 44.4975C33.4597 43.0402 32.6277 41.4659 33.7509 40.0944C33.1711 38.9959 33.1334 37.8987 33.7587 36.8028C32.5796 35.3481 33.4896 33.6906 33.1191 31.8654C33.6612 32.0747 34.0187 32.1189 34.2332 32.3178C34.5283 32.5921 34.7168 32.9821 34.9508 33.3227C35.255 32.9314 35.5605 32.5388 35.9661 32.0214C36.1793 32.0214 36.6005 32.0214 36.8826 32.0214C37.2986 32.5076 37.6457 32.9132 37.9928 33.3188C38.2762 32.9457 38.5583 32.5739 38.9587 32.0435C39.1771 32.0435 39.636 32.0435 39.8999 32.0435C40.3042 32.5401 40.6201 32.9301 40.936 33.3188C41.261 32.9392 41.586 32.5583 42.0436 32.0253C42.21 32.0253 42.6325 32.0253 43.1629 32.0253C43.2188 32.2658 43.2201 32.5713 43.3579 32.791C43.4944 33.0133 43.7674 33.2863 43.9806 33.285C44.1847 33.285 44.4096 32.9808 44.5851 32.7741C44.8295 32.4881 45.0362 32.1696 45.2598 31.8628C45.4067 31.9304 45.5549 31.9967 45.7044 32.0643C45.7044 32.6077 45.7031 33.1511 45.7044 33.6958C45.7057 37.042 45.7226 40.3895 45.6862 43.7331C45.6836 44.0477 45.3495 44.3558 45.1688 44.6678C44.9855 44.361 44.6579 44.0581 44.6436 43.7435C44.4707 40.3661 42.548 38.0261 40.0897 36.0215C39.8414 35.82 39.1342 35.8317 38.882 36.0384C36.4068 38.0742 34.384 40.3999 34.2514 43.8501C34.2384 44.1751 33.8692 44.4845 33.6638 44.7991C33.5039 44.7003 33.3427 44.5989 33.1815 44.4975ZM36.0896 36.2451C35.6164 35.9032 35.3317 35.5379 35.0678 35.5509C34.8026 35.5652 34.5582 35.9578 34.306 36.1853C34.54 36.4297 34.7558 36.8431 35.0158 36.873C35.281 36.9042 35.5891 36.5584 36.0896 36.2451ZM44.9153 36.2594C44.4278 35.8967 44.1431 35.521 43.8922 35.5418C43.6153 35.5652 43.3696 35.9539 43.1096 36.184C43.3527 36.4284 43.5685 36.8275 43.8415 36.8717C44.0924 36.912 44.4057 36.5701 44.9153 36.2594Z" fill="white"/>
<path fill-rule="evenodd" clip-rule="evenodd" d="M23.0326 53.4065C20.7589 53.4065 18.6347 53.4065 16.5222 53.4065C15.2729 48.0817 16.2687 44.6549 19.7943 42.3032C21.743 43.7384 23.2627 45.3673 23.0586 48.0999C22.9273 49.8367 23.0326 51.5891 23.0326 53.4065Z" fill="white"/>
<path fill-rule="evenodd" clip-rule="evenodd" d="M58.8586 42.0615C61.4209 43.8386 62.8925 45.6573 62.6104 48.5342C62.457 50.0981 62.5831 51.6906 62.5831 53.3741C60.3523 53.3741 58.2294 53.3741 56.0207 53.3741C56.0207 50.9548 55.697 48.4302 56.1429 46.0512C56.4081 44.629 57.8771 43.433 58.8586 42.0615Z" fill="white"/>
<path fill-rule="evenodd" clip-rule="evenodd" d="M26.8762 40.564C26.8762 41.9628 26.8762 43.2706 26.8762 44.6798C25.9883 44.6798 25.1745 44.7461 24.3789 44.6525C24.0305 44.6122 23.6782 44.295 23.4 44.0259C22.5108 43.1679 21.6658 42.2644 20.7883 41.3934C20.1409 40.7512 19.4584 40.7083 18.7642 41.3401C18.07 41.9745 17.1561 42.4828 16.7193 43.2628C15.7066 45.0685 14.1947 44.7513 12.5723 44.5953C12.5723 43.242 12.5723 41.9368 12.5723 40.5653C17.3511 40.564 22.0519 40.564 26.8762 40.564ZM15.9718 41.9836C15.4999 41.6742 15.1957 41.3154 14.9383 41.3492C14.6757 41.3791 14.4586 41.7938 14.222 42.0395C14.4703 42.2787 14.7095 42.6921 14.9734 42.7103C15.2321 42.7272 15.5168 42.3385 15.9718 41.9836ZM25.4709 41.9784C25.0055 41.6742 24.6974 41.318 24.4361 41.3518C24.18 41.3791 23.777 41.8159 23.7913 42.0499C23.8082 42.2956 24.2359 42.6921 24.4959 42.6999C24.7559 42.7103 25.0315 42.3268 25.4709 41.9784Z" fill="white"/>
<path fill-rule="evenodd" clip-rule="evenodd" d="M51.9371 30.5991C43.6002 30.5991 35.3933 30.5991 27.1006 30.5991C27.3203 29.6748 27.7181 29.1483 28.801 29.1535C35.9211 29.1886 43.0386 29.1951 50.1561 29.147C51.2299 29.1392 51.5172 29.7554 51.9371 30.5991Z" fill="white"/>
<path fill-rule="evenodd" clip-rule="evenodd" d="M66.3803 40.5767C66.3803 41.9248 66.3803 43.1923 66.3803 44.5781C64.8359 44.7029 63.5892 44.9031 62.2515 43.3821C59.2355 39.9436 59.0574 39.9826 56.2286 43.3054C54.9078 44.8563 53.6468 44.6795 52.04 44.6236C52.04 43.243 52.04 41.9404 52.04 40.5767C56.8474 40.5767 61.5794 40.5767 66.3803 40.5767ZM54.5399 43.0389C54.835 42.528 55.1431 42.2264 55.1366 41.9313C55.1314 41.7155 54.653 41.2995 54.4918 41.345C54.1993 41.4282 53.8106 41.7818 53.7937 42.0405C53.7781 42.2979 54.1746 42.58 54.5399 43.0389ZM64.9984 42.0574C64.5382 41.7064 64.2548 41.3268 64.0039 41.3463C63.7322 41.3671 63.4904 41.7597 63.2343 41.9911C63.4748 42.2446 63.6867 42.6567 63.961 42.7022C64.2054 42.7425 64.5161 42.3772 64.9984 42.0574Z" fill="white"/>
<path fill-rule="evenodd" clip-rule="evenodd" d="M26.8689 37.7478C26.8689 38.2171 26.8689 38.6227 26.8689 39.1115C21.7417 39.1115 16.6574 39.1115 11.4951 39.1115C11.7187 38.2158 12.0801 37.662 13.1838 37.675C17.4725 37.7283 21.7625 37.6958 26.0499 37.6997C26.2969 37.6984 26.5452 37.727 26.8689 37.7478Z" fill="white"/>
<path fill-rule="evenodd" clip-rule="evenodd" d="M52.0537 39.0896C52.0537 38.6437 52.0537 38.2368 52.0537 37.6973C54.1116 37.6973 56.1149 37.6973 58.1195 37.6973C60.5609 37.6973 63.0049 37.7467 65.445 37.6726C66.5006 37.6414 67.1649 37.9378 67.4431 39.0896C62.3185 39.0896 57.2238 39.0896 52.0537 39.0896Z" fill="white"/>
<path fill-rule="evenodd" clip-rule="evenodd" d="M24.4238 46.1069C25.1869 46.1069 25.976 46.1069 26.8665 46.1069C26.8665 48.534 26.8665 50.9156 26.8665 53.3921C26.0852 53.3921 25.3013 53.3921 24.4238 53.3921C24.4238 50.9689 24.4238 48.5873 24.4238 46.1069Z" fill="white"/>
<path fill-rule="evenodd" clip-rule="evenodd" d="M54.5166 53.3988C53.6807 53.3988 52.9293 53.3988 52.0713 53.3988C52.0713 50.9847 52.0713 48.5745 52.0713 46.0967C52.9228 46.0967 53.7119 46.0967 54.5166 46.0967C54.5166 48.5615 54.5166 50.9418 54.5166 53.3988Z" fill="white"/>
<path fill-rule="evenodd" clip-rule="evenodd" d="M14.9773 53.4247C14.1206 53.4247 13.4043 53.4247 12.5918 53.4247C12.5918 50.9976 12.5918 48.6238 12.5918 46.1304C13.3692 46.1304 14.144 46.1304 14.9773 46.1304C14.9773 48.5393 14.9773 50.9157 14.9773 53.4247Z" fill="white"/>
<path fill-rule="evenodd" clip-rule="evenodd" d="M66.337 53.4093C65.5336 53.4093 64.7835 53.4093 63.9619 53.4093C63.9619 50.9484 63.9619 48.5642 63.9619 46.0942C64.725 46.0942 65.4764 46.0942 66.337 46.0942C66.337 48.494 66.337 50.8652 66.337 53.4093Z" fill="white"/>
<path fill-rule="evenodd" clip-rule="evenodd" d="M31.769 44.6367C30.6159 44.6367 29.5577 44.6367 28.4033 44.6367C28.4033 43.2886 28.4033 41.9886 28.4033 40.5898C29.4875 40.5898 30.5782 40.5898 31.769 40.5898C31.769 41.882 31.769 43.1846 31.769 44.6367Z" fill="white"/>
<path fill-rule="evenodd" clip-rule="evenodd" d="M31.782 36.344C30.6133 36.344 29.5564 36.344 28.3162 36.344C28.3162 35.0414 28.2928 33.7804 28.3409 32.5246C28.3474 32.3439 28.6776 32.0436 28.8648 32.0371C29.0416 32.0319 29.2405 32.3335 29.4043 32.5207C29.6318 32.7781 29.8333 33.055 30.0465 33.3241C30.2675 33.0693 30.4768 32.8041 30.7134 32.5649C30.9578 32.3153 31.2295 32.0904 31.4908 31.8564C31.587 31.9318 31.6845 32.0072 31.7833 32.0826C31.782 33.4619 31.782 34.8425 31.782 36.344Z" fill="white"/>
<path fill-rule="evenodd" clip-rule="evenodd" d="M47.1826 40.5415C48.3344 40.5415 49.3926 40.5415 50.5444 40.5415C50.5444 41.8792 50.5444 43.1844 50.5444 44.5884C49.4602 44.5884 48.3708 44.5884 47.1826 44.5884C47.1826 43.2806 47.1826 41.978 47.1826 40.5415Z" fill="white"/>
<path fill-rule="evenodd" clip-rule="evenodd" d="M28.3877 46.0864C29.5876 46.0864 30.6367 46.0864 31.7768 46.0864C31.7768 47.2473 31.7768 48.3354 31.7768 49.5067C30.6419 49.5067 29.5551 49.5067 28.3877 49.5067C28.3877 48.3692 28.3877 47.2772 28.3877 46.0864Z" fill="white"/>
<path fill-rule="evenodd" clip-rule="evenodd" d="M50.6324 36.3364C49.3922 36.3364 48.3353 36.3364 47.0964 36.3364C47.0964 35.1261 47.0717 33.9444 47.1185 32.7653C47.1276 32.5651 47.424 32.2362 47.6112 32.2206C47.7958 32.2037 48.0155 32.4988 48.2053 32.6743C48.4328 32.8823 48.6447 33.1072 48.8631 33.3256C49.0789 33.1059 49.2817 32.868 49.5183 32.6704C49.7393 32.4845 49.9941 32.3402 50.2346 32.1777C50.3685 32.4078 50.6064 32.6327 50.6142 32.8667C50.6545 33.9769 50.6324 35.0884 50.6324 36.3364Z" fill="white"/>
<path fill-rule="evenodd" clip-rule="evenodd" d="M50.575 46.1099C50.575 47.3085 50.575 48.3615 50.575 49.5016C49.4323 49.5016 48.3481 49.5016 47.1729 49.5016C47.1729 48.3797 47.1729 47.2955 47.1729 46.1099C48.2896 46.1099 49.3725 46.1099 50.575 46.1099Z" fill="white"/>
<path fill-rule="evenodd" clip-rule="evenodd" d="M28.3652 53.4221C28.3652 52.5836 28.3652 51.8686 28.3652 51.0327C29.4793 51.0327 30.5622 51.0327 31.7569 51.0327C31.7569 51.7997 31.7569 52.5784 31.7569 53.4221C30.6337 53.4221 29.5742 53.4221 28.3652 53.4221Z" fill="white"/>
<path fill-rule="evenodd" clip-rule="evenodd" d="M50.5509 51.0015C50.5509 51.7958 50.5509 52.5433 50.5509 53.3857C49.4784 53.3857 48.3955 53.3857 47.1982 53.3857C47.1982 52.6395 47.1982 51.8647 47.1982 51.0015C48.2967 51.0015 49.3809 51.0015 50.5509 51.0015Z" fill="white"/>
<path fill-rule="evenodd" clip-rule="evenodd" d="M22.688 33.9353C21.8846 33.8807 21.0812 33.8183 20.2778 33.7702C19.9398 33.7507 19.5199 33.6324 19.2781 33.7832C18.3421 34.3669 17.5322 34.0315 16.7275 33.5596C18.0652 31.724 20.9798 31.6759 22.7543 33.4894C22.7322 33.6376 22.7114 33.7871 22.688 33.9353Z" fill="white"/>
<path fill-rule="evenodd" clip-rule="evenodd" d="M62.3244 33.4868C61.4274 34.0211 60.6344 34.3175 59.6958 33.7949C59.4098 33.6363 58.8547 33.635 58.5947 33.8131C57.673 34.4514 56.9671 33.8911 56.1689 33.5752C57.7224 31.7357 60.2964 31.6915 62.3244 33.4868Z" fill="white"/>
<path fill-rule="evenodd" clip-rule="evenodd" d="M34.2783 49.6896C34.2783 50.6698 34.316 51.6526 34.2536 52.6302C34.2341 52.9149 33.9312 53.1814 33.7596 53.4557C33.5698 53.1996 33.224 52.9474 33.2175 52.6861C33.1733 50.7283 33.1746 48.7653 33.224 46.8088C33.2305 46.5475 33.5828 46.294 33.7752 46.0366C33.9429 46.3187 34.2367 46.5904 34.2562 46.8816C34.3173 47.8124 34.2796 48.7523 34.2783 49.6896Z" fill="white"/>
<path fill-rule="evenodd" clip-rule="evenodd" d="M44.6205 49.7835C44.6205 48.7604 44.588 47.7374 44.6452 46.7169C44.6595 46.4829 44.9819 46.2645 45.16 46.0396C45.342 46.2658 45.6735 46.4868 45.6774 46.7156C45.7177 48.7592 45.7125 50.8053 45.6774 52.8502C45.6748 53.053 45.3849 53.2545 45.2302 53.4547C45.0274 53.2545 44.6634 53.0608 44.6517 52.8502C44.5906 51.8323 44.6244 50.8067 44.6244 49.7862C44.6231 49.7836 44.6205 49.7835 44.6205 49.7835Z" fill="white"/>
<path fill-rule="evenodd" clip-rule="evenodd" d="M31.7811 39.1493C30.6241 39.1493 29.5776 39.1493 28.4219 39.1493C28.4219 38.6865 28.4219 38.2575 28.4219 37.7622C29.5321 37.7622 30.6137 37.7622 31.7811 37.7622C31.7811 38.2055 31.7811 38.6072 31.7811 39.1493Z" fill="white"/>
<path fill-rule="evenodd" clip-rule="evenodd" d="M47.1689 39.1183C47.1689 38.6581 47.1689 38.2499 47.1689 37.7676C48.2895 37.7676 49.3802 37.7676 50.5489 37.7676C50.5489 38.2252 50.5489 38.6334 50.5489 39.1183C49.4231 39.1183 48.3324 39.1183 47.1689 39.1183Z" fill="white"/>
<path fill-rule="evenodd" clip-rule="evenodd" d="M40.3844 27.8046C39.7617 27.8046 39.1416 27.8046 38.5189 27.8046C38.4448 27.7032 38.372 27.6018 38.2979 27.5017C38.6723 27.1676 39.0363 26.5839 39.4237 26.5683C39.8137 26.5514 40.2284 27.0987 40.6327 27.399C40.5495 27.5342 40.4676 27.6694 40.3844 27.8046Z" fill="white"/>
<path fill-rule="evenodd" clip-rule="evenodd" d="M34.9268 27.4548C35.3064 27.135 35.6873 26.563 36.0643 26.5669C36.4621 26.5695 36.8547 27.1207 37.2512 27.434C37.1836 27.5471 37.1173 27.6615 37.0536 27.7746C36.4465 27.7746 35.8394 27.7746 35.2336 27.7746C35.1296 27.6667 35.0282 27.5601 34.9268 27.4548Z" fill="white"/>
<path fill-rule="evenodd" clip-rule="evenodd" d="M31.543 27.3908C31.9421 27.0931 32.3503 26.5523 32.7364 26.5692C33.1212 26.5848 33.4839 27.1581 33.857 27.4883C33.7803 27.591 33.7062 27.6924 33.6308 27.7938C33.0146 27.7938 32.401 27.7938 31.7848 27.7938C31.7055 27.6586 31.6236 27.5247 31.543 27.3908Z" fill="white"/>
<path fill-rule="evenodd" clip-rule="evenodd" d="M43.7668 27.7993C43.1493 27.7993 42.5344 27.7993 41.9182 27.7993C41.8363 27.6771 41.7544 27.5549 41.6738 27.434C42.095 27.122 42.5084 26.5864 42.94 26.5695C43.2845 26.5565 43.6537 27.1779 44.0099 27.5172C43.9293 27.6121 43.8474 27.7057 43.7668 27.7993Z" fill="white"/>
<path fill-rule="evenodd" clip-rule="evenodd" d="M30.3315 27.8158C29.5996 27.8158 29.0237 27.8158 28.4491 27.8158C28.3646 27.73 28.2788 27.643 28.1943 27.5559C28.5245 27.2036 28.8079 26.6329 29.1966 26.5484C29.9506 26.3833 30.2847 26.9305 30.3315 27.8158Z" fill="white"/>
<path fill-rule="evenodd" clip-rule="evenodd" d="M47.1006 27.8109C46.5169 27.8109 45.9319 27.8109 45.3469 27.8109C45.2663 27.716 45.1844 27.6185 45.1025 27.5223C45.4613 27.1817 45.8084 26.5915 46.1841 26.5733C46.5663 26.5538 46.9784 27.0959 47.3762 27.3923C47.2852 27.5314 47.1929 27.6718 47.1006 27.8109Z" fill="white"/>
<path fill-rule="evenodd" clip-rule="evenodd" d="M50.4877 27.8059C49.9092 27.8059 49.3307 27.8059 48.7535 27.8059C48.6729 27.7032 48.5936 27.6005 48.5117 27.4978C48.864 27.1637 49.2098 26.5722 49.5699 26.5631C49.9547 26.5553 50.3538 27.0948 50.7451 27.3951C50.6606 27.5316 50.5735 27.6694 50.4877 27.8059Z" fill="white"/>
<path fill-rule="evenodd" clip-rule="evenodd" d="M18.6904 36.0306C19.0115 35.7043 19.3131 35.144 19.6602 35.1141C20.0125 35.0842 20.4103 35.5743 20.7886 35.8382C20.7366 35.9864 20.6833 36.1346 20.63 36.2841C20.0593 36.3166 19.4886 36.3491 18.9179 36.3816C18.8425 36.2646 18.7671 36.1489 18.6904 36.0306Z" fill="white"/>
<path fill-rule="evenodd" clip-rule="evenodd" d="M54.9912 35.9711C55.3331 35.6617 55.6997 35.0793 56.0052 35.1079C56.3965 35.1456 56.7384 35.6799 57.1024 36.001C57.0257 36.1076 56.949 36.2142 56.871 36.3208C56.3406 36.3208 55.8115 36.3208 55.2785 36.3208C55.1836 36.2038 55.0874 36.0881 54.9912 35.9711Z" fill="white"/>
<path fill-rule="evenodd" clip-rule="evenodd" d="M17.4296 36.3101C16.9031 36.3101 16.3753 36.3101 15.8501 36.3101C15.7578 36.2282 15.6629 36.1463 15.5693 36.0657C15.8917 35.7277 16.2297 35.1063 16.5326 35.1219C16.9239 35.1427 17.2853 35.6744 17.661 35.9851C17.5843 36.093 17.5076 36.2022 17.4296 36.3101Z" fill="white"/>
<path fill-rule="evenodd" clip-rule="evenodd" d="M23.6946 36.3193C23.1694 36.3193 22.6429 36.3193 22.1151 36.3193C22.0293 36.2309 21.9396 36.1412 21.8525 36.0528C22.1866 35.7161 22.5142 35.122 22.8548 35.1129C23.2058 35.1051 23.5711 35.668 23.9299 35.9813C23.8519 36.0957 23.7739 36.2075 23.6946 36.3193Z" fill="white"/>
<path fill-rule="evenodd" clip-rule="evenodd" d="M24.9805 35.9685C25.351 35.6617 25.7111 35.1339 26.0972 35.1131C26.4092 35.0975 26.7537 35.689 27.0852 36.0114C27.0137 36.1089 26.9422 36.2051 26.8707 36.3039C26.3156 36.3039 25.7605 36.3039 25.208 36.3039C25.1313 36.1921 25.0559 36.0816 24.9805 35.9685Z" fill="white"/>
<path fill-rule="evenodd" clip-rule="evenodd" d="M53.8158 36.3311C53.1853 36.3311 52.6913 36.3311 51.7969 36.3311C52.1557 35.8033 52.3377 35.2105 52.6653 35.1143C53.4609 34.8829 53.7716 35.4263 53.8158 36.3311Z" fill="white"/>
<path fill-rule="evenodd" clip-rule="evenodd" d="M58.124 35.8904C58.4932 35.6096 58.8715 35.1 59.2342 35.113C59.5787 35.1247 59.905 35.6785 60.2391 35.9944C60.1663 36.0958 60.0948 36.1972 60.0233 36.2999C59.463 36.2999 58.904 36.2999 58.3437 36.2999C58.2696 36.1634 58.1981 36.0269 58.124 35.8904Z" fill="white"/>
<path fill-rule="evenodd" clip-rule="evenodd" d="M66.3063 36.3221C65.7785 36.3221 65.2507 36.3221 64.29 36.3221C64.7632 35.7527 65.0557 35.1209 65.3456 35.1235C65.7538 35.1248 66.1607 35.5967 66.5676 35.8671C66.4805 36.0192 66.3934 36.17 66.3063 36.3221Z" fill="white"/>
<path fill-rule="evenodd" clip-rule="evenodd" d="M61.2764 36.0214C61.6066 35.6977 61.916 35.1478 62.2735 35.1166C62.6167 35.0854 63.0093 35.5885 63.3798 35.8576C63.3252 36.0019 63.2706 36.1475 63.216 36.2918C62.6466 36.3191 62.0746 36.3464 61.5039 36.3724C61.4272 36.2554 61.3505 36.1384 61.2764 36.0214Z" fill="white"/>
<path fill-rule="evenodd" clip-rule="evenodd" d="M14.1976 36.3153C13.675 36.3153 13.1498 36.3153 12.6272 36.3153C12.5518 36.223 12.4777 36.1294 12.4023 36.0371C12.7156 35.7056 13.0445 35.0933 13.3383 35.1102C13.74 35.1323 14.1131 35.6341 14.4992 35.9279C14.3978 36.0579 14.2977 36.1853 14.1976 36.3153Z" fill="white"/>
<path fill-rule="evenodd" clip-rule="evenodd" d="M36.0902 36.2454C35.5897 36.5587 35.2816 36.9045 35.0164 36.8733C34.7564 36.8447 34.5406 36.4313 34.3066 36.1856C34.5588 35.9594 34.8032 35.5655 35.0684 35.5512C35.3323 35.5369 35.6157 35.9035 36.0902 36.2454Z" fill="#D7000C"/>
<path fill-rule="evenodd" clip-rule="evenodd" d="M44.9157 36.2594C44.4061 36.5701 44.0928 36.912 43.8432 36.8717C43.5689 36.8275 43.3531 36.4284 43.1113 36.184C43.37 35.9539 43.617 35.5652 43.8939 35.5418C44.1435 35.521 44.4282 35.8967 44.9157 36.2594Z" fill="#D7000C"/>
<path fill-rule="evenodd" clip-rule="evenodd" d="M15.9715 41.9833C15.5152 42.3382 15.2318 42.7269 14.9731 42.71C14.7092 42.6918 14.47 42.2784 14.2217 42.0392C14.4583 41.7935 14.6754 41.3788 14.938 41.3489C15.1954 41.3151 15.4996 41.6739 15.9715 41.9833Z" fill="#D7000C"/>
<path fill-rule="evenodd" clip-rule="evenodd" d="M25.47 41.9784C25.0306 42.3268 24.755 42.709 24.495 42.6999C24.235 42.6921 23.8073 42.2956 23.7904 42.0499C23.7761 41.8159 24.1791 41.3791 24.4352 41.3518C24.6965 41.318 25.0033 41.6742 25.47 41.9784Z" fill="#D7000C"/>
<path fill-rule="evenodd" clip-rule="evenodd" d="M54.5396 43.0391C54.1743 42.5789 53.7778 42.2981 53.7934 42.0407C53.8103 41.782 54.199 41.4284 54.4915 41.3452C54.6527 41.2997 55.1311 41.7157 55.1363 41.9315C55.1428 42.2266 54.8347 42.5295 54.5396 43.0391Z" fill="#D7000C"/>
<path fill-rule="evenodd" clip-rule="evenodd" d="M64.9985 42.0576C64.5162 42.3774 64.2055 42.7427 63.9611 42.7024C63.6868 42.6569 63.4749 42.2448 63.2344 41.9913C63.4905 41.7599 63.7323 41.3673 64.004 41.3465C64.2549 41.3257 64.5383 41.7066 64.9985 42.0576Z" fill="#D7000C"/>
</svg>
