<svg width="64" height="63" viewBox="0 0 64 63" fill="none" xmlns="http://www.w3.org/2000/svg">
<path fill-rule="evenodd" clip-rule="evenodd" d="M41.4396 22.1576C42.6369 22.1576 43.66 22.1186 44.6766 22.1797C45.0341 22.2018 45.5736 22.3955 45.6737 22.6503C45.7777 22.9194 45.5463 23.4394 45.3032 23.7007C44.3191 24.7576 43.218 25.7079 42.2781 26.7999C41.8569 27.2887 41.5072 28.0076 41.4786 28.6381C41.3798 30.7415 41.4409 32.854 41.4409 35.0666C43.3974 35.0666 45.2655 35.0666 47.7017 35.0666C46.5486 34.011 45.6711 33.257 44.8625 32.4354C44.6116 32.1806 44.3321 31.5761 44.4504 31.4188C44.6753 31.1159 45.1667 30.8936 45.5645 30.8611C46.5278 30.7844 47.5015 30.8364 48.6689 30.8364C48.6689 29.643 48.6481 28.577 48.6728 27.5123C48.7443 24.3546 50.9322 22.1004 53.8533 22.1576C56.751 22.2135 58.9766 24.4326 58.753 27.5409C58.558 30.2527 59.2678 32.295 61.4388 33.9473C62.1512 34.4894 62.5568 35.4345 63.1028 36.195C62.2006 36.3692 61.301 36.5707 60.3923 36.7059C59.9451 36.7722 59.481 36.7176 58.9181 36.7176C58.9181 42.0125 58.9181 47.1995 58.9181 52.4125C59.8463 53.316 61.9354 51.7768 62.5581 53.4252C62.4775 53.6514 62.3943 53.875 62.3137 54.1012C58.311 54.1012 54.307 54.1012 50.2146 54.1012C50.2146 55.0918 50.2146 55.9472 50.2146 57.047C52.4623 57.047 54.7126 57.0678 56.9616 57.0366C57.8833 57.0236 58.3565 57.2706 57.9522 58.3522C40.6479 58.3522 23.3358 58.3522 6.02761 58.3522C5.62461 57.2914 6.07181 57.0249 7.00521 57.0366C9.21521 57.0665 11.4265 57.047 13.7444 57.047C13.7444 56.059 13.7444 55.2088 13.7444 54.1623C9.75211 54.1623 5.71171 54.1623 1.70121 54.1623C1.55821 53.0963 1.55821 53.0963 5.07081 52.4853C5.07081 47.3191 5.07081 42.1347 5.07081 36.7163C4.06461 36.7163 3.05191 36.7644 2.04831 36.6929C1.64791 36.6656 1.15261 36.4641 0.925108 36.1703C0.802908 36.013 1.14741 35.48 1.31121 35.129C1.37361 34.9964 1.51011 34.8898 1.63231 34.7988C4.31421 32.7877 5.67531 30.3294 5.25541 26.7726C4.97201 24.3715 7.42121 22.2967 9.94581 22.1602C12.3833 22.0276 14.7363 23.7514 15.1133 26.12C15.3473 27.5864 15.3135 29.0957 15.4136 30.8351C16.0311 30.8351 16.6837 30.7662 17.3142 30.852C18.0747 30.956 18.8157 31.1913 19.5658 31.3694C19.1355 32.0194 18.7611 32.7201 18.2554 33.3051C17.7887 33.8459 17.1803 34.2658 16.633 34.7403C16.6798 34.882 16.7266 35.0276 16.7734 35.1706C17.7029 35.1706 18.6324 35.1706 19.5606 35.1706C20.4836 35.1706 21.4066 35.1706 22.5272 35.1706C22.5272 32.6837 22.5987 30.2761 22.47 27.8802C22.4427 27.3511 21.7355 26.8298 21.287 26.3579C20.4355 25.4609 19.5177 24.6237 18.6831 23.7111C18.44 23.4459 18.2008 22.9402 18.2996 22.6685C18.3932 22.4137 18.9275 22.2044 19.2811 22.181C20.299 22.1173 21.3234 22.1589 22.5376 22.1589C22.5376 20.8758 22.5142 19.7058 22.5428 18.5358C22.6338 14.7463 24.3784 11.911 27.7246 10.2106C28.7737 9.67763 29.1117 9.16283 29.0766 8.03833C29.0116 5.95703 30.2466 4.72723 32.1199 4.79093C33.702 4.84423 34.963 5.98433 34.8759 7.69513C34.7992 9.17583 35.431 9.77123 36.6257 10.4251C39.7704 12.145 41.307 14.9491 41.4331 18.5176C41.4721 19.646 41.4396 20.7796 41.4396 22.1576ZM39.8848 22.0965C39.8848 20.6678 39.9459 19.3821 39.8731 18.1055C39.6872 14.8087 38.0063 12.4622 35.0007 11.2129C31.9925 9.96363 29.1689 10.4901 26.6768 12.6286C23.6946 15.187 23.9026 18.58 24.1561 22.0679C25.7863 22.0679 27.3502 22.0679 28.8868 22.0679C28.9544 21.8898 29.0194 21.7988 29.0207 21.7065C29.035 20.2635 29.0454 18.8218 29.048 17.3788C29.0532 14.784 30.0035 13.4996 31.9457 13.4749C33.9477 13.4489 34.9305 14.7593 34.9318 17.4581C34.9331 18.9856 34.9318 20.5144 34.9318 22.0952C36.6452 22.0965 38.174 22.0965 39.8848 22.0965ZM51.1961 36.7982C52.2868 37.8499 53.15 38.6338 53.9469 39.4788C54.1952 39.7414 54.4864 40.342 54.3707 40.4928C54.1445 40.7905 53.6557 41.0037 53.2605 41.0323C52.2543 41.1051 51.239 41.057 50.2042 41.057C50.2042 45.0116 50.2042 48.7517 50.2042 52.5425C52.6222 52.5425 54.9596 52.5425 57.3308 52.5425C57.3308 47.2268 57.3308 42.0385 57.3308 36.7982C55.3652 36.7982 53.4932 36.7982 51.1961 36.7982ZM6.63601 36.7709C6.63601 42.0931 6.63601 47.2775 6.63601 52.5659C9.06181 52.5659 11.4031 52.5659 13.7743 52.5659C13.7743 48.7153 13.7743 44.9687 13.7743 41.057C13.1477 41.057 12.5887 41.1103 12.044 41.0453C11.2159 40.9465 10.3969 40.7645 9.57531 40.6189C10.0628 39.8896 10.4866 39.1044 11.0599 38.4492C11.5084 37.937 12.1415 37.5873 12.6927 37.1648C12.5718 37.0322 12.4509 36.9009 12.3313 36.7696C10.4879 36.7709 8.64711 36.7709 6.63601 36.7709ZM24.0937 35.0978C25.9098 35.2369 27.5036 35.4319 28.7763 33.7965C29.6421 32.6837 30.8875 31.0444 31.9041 31.086C33.0494 31.1328 34.2883 32.6733 35.1983 33.7952C36.5347 35.4436 38.1155 35.3175 39.8315 35.0211C39.8315 32.6798 39.8315 30.4334 39.8315 28.1688C34.5379 28.1688 29.3275 28.1688 24.0937 28.1688C24.0937 30.5049 24.0937 32.7162 24.0937 35.0978ZM28.4786 41.122C28.4786 44.9947 28.4786 48.7348 28.4786 52.575C30.8173 52.575 33.1079 52.575 35.4635 52.575C35.4635 48.7335 35.4635 44.9596 35.4635 41.122C33.1326 41.122 30.8875 41.122 28.4786 41.122ZM21.0933 23.7384C22.4271 26.0056 24.2406 26.6842 26.7002 26.5542C30.5989 26.3462 34.5275 26.3332 38.4236 26.5607C40.7779 26.6985 41.619 25.1372 43.0555 23.7397C35.5662 23.7384 28.3811 23.7384 21.0933 23.7384ZM6.65161 30.7337C9.07221 30.7337 11.407 30.7337 13.8419 30.7337C13.8419 29.4584 13.9056 28.2793 13.8276 27.1093C13.7002 25.1957 12.2741 23.7904 10.4814 23.6994C8.50801 23.5993 6.94931 24.7485 6.68411 26.7362C6.51251 28.0336 6.65161 29.3726 6.65161 30.7337ZM50.1262 30.7272C52.6287 30.7272 54.9583 30.7272 57.3022 30.7272C57.3022 29.344 57.4348 28.0518 57.2736 26.7986C57.0045 24.7212 55.4432 23.5629 53.3892 23.7072C51.603 23.832 50.2185 25.2867 50.1353 27.1964C50.0859 28.3235 50.1262 29.4545 50.1262 30.7272ZM26.812 36.7163C23.4632 36.7163 20.1664 36.8775 16.8956 36.6617C14.5777 36.5083 13.604 37.9396 12.3534 39.4177C17.2817 39.4177 22.0449 39.4177 26.812 39.4177C26.812 38.4947 26.812 37.6874 26.812 36.7163ZM37.1626 39.4164C42.0363 39.4164 46.7839 39.4164 51.5315 39.4164C50.6644 38.3166 49.6894 36.91 48.6169 36.8294C44.8378 36.5473 41.0249 36.7202 37.1626 36.7202C37.1626 37.6913 37.1626 38.4999 37.1626 39.4164ZM24.1197 41.1207C24.1197 44.9934 24.1197 48.7335 24.1197 52.5724C25.0245 52.5724 25.8734 52.5724 26.7899 52.5724C26.7899 48.7322 26.7899 44.9583 26.7899 41.1207C25.8968 41.1207 25.0921 41.1207 24.1197 41.1207ZM37.1925 41.135C37.1925 44.9843 37.1925 48.7556 37.1925 52.5555C38.1337 52.5555 38.9761 52.5555 39.7886 52.5555C39.7886 48.6633 39.7886 44.8881 39.7886 41.135C38.8578 41.135 38.0518 41.135 37.1925 41.135ZM15.3863 41.1181C15.3863 44.9856 15.3863 48.7296 15.3863 52.536C16.3509 52.536 17.2375 52.536 18.0994 52.536C18.0994 48.6607 18.0994 44.9167 18.0994 41.1181C17.192 41.1181 16.3821 41.1181 15.3863 41.1181ZM22.4232 52.5711C22.4232 48.6919 22.4232 44.9128 22.4232 41.1727C21.4599 41.1727 20.611 41.1727 19.7803 41.1727C19.7803 45.0298 19.7803 48.7699 19.7803 52.5711C20.7228 52.5711 21.573 52.5711 22.4232 52.5711ZM41.5085 41.1129C41.5085 45.0103 41.5085 48.7504 41.5085 52.5789C42.4289 52.5789 43.2778 52.5789 44.1813 52.5789C44.1813 48.7153 44.1813 44.9401 44.1813 41.1129C43.2648 41.1129 42.4575 41.1129 41.5085 41.1129ZM45.8479 41.1181C45.8479 44.9947 45.8479 48.7361 45.8479 52.5737C46.7644 52.5737 47.6146 52.5737 48.5506 52.5737C48.5506 48.727 48.5506 44.9518 48.5506 41.1181C47.6289 41.1181 46.819 41.1181 45.8479 41.1181ZM31.9938 32.7123C30.1803 34.7052 27.3216 36.0468 28.6502 39.4567C30.9083 39.4567 33.1534 39.4567 35.3491 39.4567C36.5802 36.0325 33.7917 34.7091 31.9938 32.7123ZM3.53161 35.1693C6.49691 35.1693 9.23731 34.9717 11.9322 35.2291C14.3268 35.4579 15.5137 34.1241 16.9424 32.3808C14.0317 32.3808 11.3576 32.5745 8.72771 32.3223C6.31751 32.0922 4.93041 33.257 3.53161 35.1693ZM47.2883 32.3847C47.2376 32.5212 47.1869 32.659 47.1349 32.7942C48.1099 33.5833 49.0342 34.9652 50.0703 35.0536C53.4516 35.3435 56.8732 35.1615 60.2805 35.1615C60.3299 35.0354 60.3806 34.9119 60.43 34.7845C59.4186 33.985 58.4592 32.5901 57.3841 32.4939C54.0418 32.1923 50.6566 32.3847 47.2883 32.3847ZM35.4856 54.1961C33.0611 54.1961 30.7822 54.1961 28.4994 54.1961C28.4994 55.1633 28.4994 56.0187 28.4994 56.9534C30.855 56.9534 33.1365 56.9534 35.4856 56.9534C35.4856 56.0096 35.4856 55.1516 35.4856 54.1961ZM33.3796 22.0939C33.3796 20.0698 33.4732 18.2147 33.3172 16.3791C33.2756 15.8773 32.4969 15.0895 32.0315 15.0713C31.5713 15.0531 30.7042 15.811 30.6652 16.2816C30.5092 18.2043 30.6002 20.1465 30.6002 22.0939C31.6051 22.0939 32.4098 22.0939 33.3796 22.0939ZM22.4284 56.9508C22.4284 55.968 22.4284 55.0801 22.4284 54.1961C21.4742 54.1961 20.6292 54.1961 19.7751 54.1961C19.7751 55.1633 19.7751 56.0161 19.7751 56.9508C20.7072 56.9508 21.5535 56.9508 22.4284 56.9508ZM18.1111 56.9742C18.1111 55.9563 18.1111 55.1009 18.1111 54.1714C17.179 54.1714 16.334 54.1714 15.4357 54.1714C15.4357 55.1438 15.4357 56.0278 15.4357 56.9742C16.3704 56.9742 17.1751 56.9742 18.1111 56.9742ZM24.1288 54.1506C24.1288 55.1464 24.1288 55.9992 24.1288 56.9482C25.0362 56.9482 25.8786 56.9482 26.7834 56.9482C26.7834 55.9862 26.7834 55.0996 26.7834 54.1506C25.889 54.1506 25.0882 54.1506 24.1288 54.1506ZM39.8029 56.9482C39.8029 55.9602 39.8029 55.0749 39.8029 54.2013C38.8487 54.2013 38.0102 54.2013 37.1756 54.2013C37.1756 55.1711 37.1756 56.0239 37.1756 56.9482C38.0973 56.9482 38.9384 56.9482 39.8029 56.9482ZM41.5774 54.1233C41.5774 55.0606 41.5774 55.9823 41.5774 56.9339C42.4835 56.9339 43.3272 56.9339 44.1501 56.9339C44.1501 55.9316 44.1501 55.0424 44.1501 54.1233C43.2466 54.1233 42.4809 54.1233 41.5774 54.1233ZM45.9012 54.161C45.9012 55.1568 45.9012 56.0421 45.9012 56.9131C46.8658 56.9131 47.7043 56.9131 48.5636 56.9131C48.5636 55.9303 48.5636 55.0827 48.5636 54.161C47.6562 54.161 46.8489 54.161 45.9012 54.161ZM33.7046 9.09133C33.3224 8.06303 33.1287 7.19723 32.6685 6.50823C32.5177 6.28073 31.3594 6.32363 31.2138 6.56933C30.7952 7.27523 30.6587 8.14883 30.3714 9.09133C31.5713 9.09133 32.3747 9.09133 33.7046 9.09133Z" fill="#D7000C"/>
<path fill-rule="evenodd" clip-rule="evenodd" d="M49.2216 62.7175C37.7075 62.7175 26.2688 62.7175 14.8184 62.7175C14.2945 61.4838 14.9965 61.3993 15.8883 61.4019C20.2745 61.4149 24.6607 61.4071 29.0469 61.4071C35.3428 61.4071 41.6387 61.4071 47.9333 61.4097C48.6886 61.4097 49.6207 61.229 49.2216 62.7175Z" fill="#D7000C"/>
<path fill-rule="evenodd" clip-rule="evenodd" d="M10.1147 17.0566C10.6386 17.7274 11.1703 18.1174 11.1235 18.419C11.0585 18.8376 10.558 19.1873 10.2447 19.5669C9.90152 19.2588 9.30871 18.9728 9.28011 18.6374C9.24631 18.2396 9.69611 17.7976 10.1147 17.0566Z" fill="#D7000C"/>
<path fill-rule="evenodd" clip-rule="evenodd" d="M53.7689 17.0645C54.2291 17.7704 54.7075 18.1838 54.6997 18.5868C54.6932 18.9183 54.1108 19.2381 53.7845 19.5631C53.4491 19.2043 52.9265 18.8845 52.8394 18.4724C52.7757 18.1721 53.2892 17.7522 53.7689 17.0645Z" fill="#D7000C"/>
<path fill-rule="evenodd" clip-rule="evenodd" d="M31.9588 2.42375C31.5103 1.88555 30.924 1.45525 30.9929 1.20435C31.1073 0.788348 31.6442 0.488048 32.0017 0.139648C32.3501 0.499748 32.8792 0.816948 32.9793 1.23685C33.0391 1.48775 32.432 1.89985 31.9588 2.42375Z" fill="#D7000C"/>
<path fill-rule="evenodd" clip-rule="evenodd" d="M39.8845 22.0966C38.1737 22.0966 36.6449 22.0966 34.9289 22.0966C34.9289 20.5158 34.9302 18.987 34.9289 17.4595C34.9276 14.7594 33.9448 13.4503 31.9428 13.4763C30.0019 13.501 29.0503 14.7854 29.0451 17.3802C29.0425 18.8232 29.0321 20.2649 29.0178 21.7079C29.0165 21.8002 28.9515 21.8912 28.8839 22.0693C27.3473 22.0693 25.7834 22.0693 24.1532 22.0693C23.901 18.5814 23.693 15.1884 26.6739 12.63C29.166 10.4915 31.9896 9.96503 34.9978 11.2143C38.0034 12.4623 39.6843 14.8101 39.8702 18.1069C39.9456 19.3822 39.8845 20.6679 39.8845 22.0966Z" fill="white"/>
<path fill-rule="evenodd" clip-rule="evenodd" d="M51.1957 36.7983C53.4941 36.7983 55.3648 36.7983 57.3317 36.7983C57.3317 42.0386 57.3317 47.2269 57.3317 52.5426C54.9605 52.5426 52.6231 52.5426 50.2051 52.5426C50.2051 48.7518 50.2051 45.0117 50.2051 41.0571C51.2399 41.0571 52.2539 41.1052 53.2614 41.0324C53.6579 41.0038 54.1467 40.7893 54.3716 40.4929C54.4873 40.3421 54.1961 39.7415 53.9478 39.4789C53.1496 38.6352 52.2851 37.85 51.1957 36.7983ZM55.2634 44.7816C54.5315 44.2265 54.1506 43.7221 53.7424 43.6987C53.4382 43.6818 52.8649 44.2681 52.8402 44.6191C52.8142 44.9545 53.3147 45.5954 53.628 45.624C54.0284 45.6604 54.473 45.2184 55.2634 44.7816Z" fill="white"/>
<path fill-rule="evenodd" clip-rule="evenodd" d="M6.63607 36.771C8.64717 36.771 10.488 36.771 12.3301 36.771C12.451 36.9023 12.5719 37.0336 12.6915 37.1662C12.1403 37.5887 11.5072 37.9397 11.0587 38.4506C10.4867 39.1058 10.0616 39.891 9.57407 40.6203C10.397 40.7659 11.216 40.9479 12.0428 41.0467C12.5875 41.1117 13.1465 41.0584 13.7731 41.0584C13.7731 44.9701 13.7731 48.7167 13.7731 52.5673C11.4019 52.5673 9.06057 52.5673 6.63477 52.5673C6.63607 47.2776 6.63607 42.0932 6.63607 36.771ZM11.5475 44.727C11.0002 44.246 10.6063 43.6623 10.3307 43.7143C9.91467 43.7923 9.58057 44.3123 9.21007 44.6451C9.55977 44.9961 9.86137 45.5291 10.2722 45.6357C10.5439 45.7046 10.9729 45.1586 11.5475 44.727Z" fill="white"/>
<path fill-rule="evenodd" clip-rule="evenodd" d="M24.0938 35.0979C24.0938 32.7163 24.0938 30.505 24.0938 28.1689C29.3275 28.1689 34.5379 28.1689 39.8315 28.1689C39.8315 30.4335 39.8315 32.6799 39.8315 35.0212C38.1155 35.3176 36.5347 35.4424 35.1983 33.7953C34.2883 32.6734 33.0495 31.1329 31.9042 31.0861C30.8876 31.0445 29.6422 32.6838 28.7764 33.7966C27.5037 35.432 25.9098 35.237 24.0938 35.0979Z" fill="white"/>
<path fill-rule="evenodd" clip-rule="evenodd" d="M28.4785 41.1221C30.8874 41.1221 33.1325 41.1221 35.4634 41.1221C35.4634 44.9584 35.4634 48.7323 35.4634 52.5751C33.1078 52.5751 30.8172 52.5751 28.4785 52.5751C28.4785 48.7349 28.4785 44.9935 28.4785 41.1221Z" fill="white"/>
<path fill-rule="evenodd" clip-rule="evenodd" d="M21.0938 23.7388C28.3803 23.7388 35.5667 23.7388 43.0573 23.7388C41.6208 25.1363 40.7784 26.6989 38.4254 26.5598C34.5293 26.3323 30.6006 26.3453 26.7019 26.5533C24.241 26.6846 22.4289 26.006 21.0938 23.7388Z" fill="white"/>
<path fill-rule="evenodd" clip-rule="evenodd" d="M6.65184 30.7337C6.65184 29.3739 6.51274 28.0336 6.68434 26.7362C6.94954 24.7485 8.50824 23.5993 10.4816 23.6994C12.2743 23.7904 13.7017 25.1957 13.8278 27.1093C13.9058 28.2793 13.8421 29.4584 13.8421 30.7337C11.4072 30.7337 9.07244 30.7337 6.65184 30.7337Z" fill="white"/>
<path fill-rule="evenodd" clip-rule="evenodd" d="M50.1262 30.7274C50.1262 29.456 50.0859 28.3237 50.134 27.1966C50.2159 25.2869 51.6017 23.8322 53.3879 23.7074C55.4419 23.5631 57.0032 24.7214 57.2723 26.7988C57.4335 28.052 57.3009 29.3442 57.3009 30.7274C54.9583 30.7274 52.6287 30.7274 50.1262 30.7274Z" fill="white"/>
<path fill-rule="evenodd" clip-rule="evenodd" d="M26.8121 36.7163C26.8121 37.6874 26.8121 38.4947 26.8121 39.4177C22.045 39.4177 17.2818 39.4177 12.3535 39.4177C13.6041 37.9396 14.5778 36.5083 16.8957 36.6617C20.1652 36.8775 23.4633 36.7163 26.8121 36.7163Z" fill="white"/>
<path fill-rule="evenodd" clip-rule="evenodd" d="M37.1631 39.4166C37.1631 38.5001 37.1631 37.6915 37.1631 36.7204C41.0254 36.7204 44.837 36.5475 48.6174 36.8296C49.6899 36.9102 50.6649 38.3181 51.532 39.4166C46.7844 39.4166 42.0368 39.4166 37.1631 39.4166Z" fill="white"/>
<path fill-rule="evenodd" clip-rule="evenodd" d="M24.1201 41.1206C25.0912 41.1206 25.8959 41.1206 26.7903 41.1206C26.7903 44.9569 26.7903 48.7308 26.7903 52.5723C25.8738 52.5723 25.0262 52.5723 24.1201 52.5723C24.1201 48.7334 24.1201 44.9933 24.1201 41.1206Z" fill="white"/>
<path fill-rule="evenodd" clip-rule="evenodd" d="M37.1924 41.1353C38.0517 41.1353 38.8577 41.1353 39.7885 41.1353C39.7885 44.8884 39.7885 48.6636 39.7885 52.5558C38.976 52.5558 38.1336 52.5558 37.1924 52.5558C37.1924 48.7572 37.1924 44.9846 37.1924 41.1353Z" fill="white"/>
<path fill-rule="evenodd" clip-rule="evenodd" d="M15.3867 41.1182C16.3838 41.1182 17.1937 41.1182 18.0998 41.1182C18.0998 44.9168 18.0998 48.6608 18.0998 52.5361C17.2379 52.5361 16.3513 52.5361 15.3867 52.5361C15.3867 48.7297 15.3867 44.9844 15.3867 41.1182Z" fill="white"/>
<path fill-rule="evenodd" clip-rule="evenodd" d="M22.4232 52.5713C21.573 52.5713 20.7228 52.5713 19.7803 52.5713C19.7803 48.7701 19.7803 45.03 19.7803 41.1729C20.6123 41.1729 21.4599 41.1729 22.4232 41.1729C22.4232 44.9143 22.4232 48.6921 22.4232 52.5713Z" fill="white"/>
<path fill-rule="evenodd" clip-rule="evenodd" d="M41.5088 41.1133C42.4565 41.1133 43.2651 41.1133 44.1816 41.1133C44.1816 44.9405 44.1816 48.717 44.1816 52.5793C43.2794 52.5793 42.4292 52.5793 41.5088 52.5793C41.5088 48.7508 41.5088 45.0107 41.5088 41.1133Z" fill="white"/>
<path fill-rule="evenodd" clip-rule="evenodd" d="M45.8477 41.1182C46.8188 41.1182 47.6287 41.1182 48.5504 41.1182C48.5504 44.9519 48.5504 48.7284 48.5504 52.5738C47.6144 52.5738 46.7642 52.5738 45.8477 52.5738C45.8477 48.7362 45.8477 44.9948 45.8477 41.1182Z" fill="white"/>
<path fill-rule="evenodd" clip-rule="evenodd" d="M31.994 32.7124C33.7919 34.7092 36.5804 36.0326 35.3493 39.4568C33.1536 39.4568 30.9085 39.4568 28.6504 39.4568C27.3218 36.0469 30.1818 34.7053 31.994 32.7124ZM31.9537 35.5841C31.4688 36.3251 30.9943 36.7424 30.9969 37.1545C30.9995 37.447 31.6508 37.9644 32.0057 37.9592C32.3567 37.9527 32.9859 37.4054 32.9755 37.1142C32.9612 36.7021 32.4711 36.3082 31.9537 35.5841Z" fill="white"/>
<path fill-rule="evenodd" clip-rule="evenodd" d="M3.53125 35.1693C4.93005 33.2557 6.31845 32.0922 8.72735 32.3223C11.3572 32.5745 14.0313 32.3808 16.942 32.3808C15.512 34.1254 14.3251 35.4579 11.9318 35.2291C9.23565 34.9717 6.49655 35.1693 3.53125 35.1693Z" fill="white"/>
<path fill-rule="evenodd" clip-rule="evenodd" d="M47.2882 32.3849C50.6565 32.3849 54.0417 32.1938 57.384 32.4954C58.4591 32.5916 59.4172 33.9852 60.4299 34.786C60.3805 34.9134 60.3298 35.0369 60.2804 35.163C56.8744 35.163 53.4515 35.345 50.0702 35.0551C49.0341 34.9667 48.1098 33.5848 47.1348 32.7957C47.1868 32.6592 47.2375 32.5214 47.2882 32.3849Z" fill="white"/>
<path fill-rule="evenodd" clip-rule="evenodd" d="M35.4852 54.1963C35.4852 55.1505 35.4852 56.0098 35.4852 56.9536C33.1361 56.9536 30.8546 56.9536 28.499 56.9536C28.499 56.0189 28.499 55.1635 28.499 54.1963C30.7805 54.1963 33.0594 54.1963 35.4852 54.1963Z" fill="white"/>
<path fill-rule="evenodd" clip-rule="evenodd" d="M33.38 22.0942C32.4115 22.0942 31.6068 22.0942 30.6006 22.0942C30.6006 20.1455 30.5096 18.2033 30.6656 16.2819C30.7046 15.8113 31.5704 15.0534 32.0319 15.0716C32.4973 15.0898 33.276 15.8776 33.3176 16.3794C33.4736 18.215 33.38 20.0714 33.38 22.0942Z" fill="white"/>
<path fill-rule="evenodd" clip-rule="evenodd" d="M22.4287 56.951C21.5538 56.951 20.7088 56.951 19.7754 56.951C19.7754 56.0163 19.7754 55.1635 19.7754 54.1963C20.6295 54.1963 21.4745 54.1963 22.4287 54.1963C22.4287 55.0803 22.4287 55.9695 22.4287 56.951Z" fill="white"/>
<path fill-rule="evenodd" clip-rule="evenodd" d="M18.1109 56.9742C17.1736 56.9742 16.3689 56.9742 15.4355 56.9742C15.4355 56.0265 15.4355 55.1438 15.4355 54.1714C16.3325 54.1714 17.1788 54.1714 18.1109 54.1714C18.1109 55.1009 18.1109 55.9563 18.1109 56.9742Z" fill="white"/>
<path fill-rule="evenodd" clip-rule="evenodd" d="M24.1289 54.1509C25.087 54.1509 25.8891 54.1509 26.7835 54.1509C26.7835 55.0999 26.7835 55.9865 26.7835 56.9485C25.8787 56.9485 25.0363 56.9485 24.1289 56.9485C24.1289 55.9995 24.1289 55.1467 24.1289 54.1509Z" fill="white"/>
<path fill-rule="evenodd" clip-rule="evenodd" d="M39.8031 56.9486C38.9386 56.9486 38.0975 56.9486 37.1758 56.9486C37.1758 56.0243 37.1758 55.1715 37.1758 54.2017C38.0104 54.2017 38.8476 54.2017 39.8031 54.2017C39.8031 55.0753 39.8031 55.9619 39.8031 56.9486Z" fill="white"/>
<path fill-rule="evenodd" clip-rule="evenodd" d="M41.5771 54.1235C42.4806 54.1235 43.2463 54.1235 44.1498 54.1235C44.1498 55.0426 44.1498 55.9318 44.1498 56.9341C43.3256 56.9341 42.4832 56.9341 41.5771 56.9341C41.5771 55.9812 41.5771 55.0595 41.5771 54.1235Z" fill="white"/>
<path fill-rule="evenodd" clip-rule="evenodd" d="M45.9014 54.1611C46.8491 54.1611 47.6564 54.1611 48.5638 54.1611C48.5638 55.0828 48.5638 55.9304 48.5638 56.9132C47.7045 56.9132 46.866 56.9132 45.9014 56.9132C45.9014 56.0422 45.9014 55.1556 45.9014 54.1611Z" fill="white"/>
<path fill-rule="evenodd" clip-rule="evenodd" d="M33.7043 9.09151C32.3757 9.09151 31.571 9.09151 30.3711 9.09151C30.6597 8.14901 30.7949 7.27541 31.2135 6.56951C31.3591 6.32381 32.5174 6.28091 32.6682 6.50841C33.1271 7.19741 33.3221 8.06321 33.7043 9.09151Z" fill="white"/>
<path fill-rule="evenodd" clip-rule="evenodd" d="M55.264 44.7815C54.4749 45.2183 54.0303 45.6603 53.6286 45.6239C53.3153 45.5953 52.8148 44.9531 52.8408 44.619C52.8668 44.268 53.4388 43.6817 53.743 43.6986C54.1499 43.722 54.5308 44.2264 55.264 44.7815Z" fill="#D7000C"/>
<path fill-rule="evenodd" clip-rule="evenodd" d="M11.547 44.7271C10.9737 45.1587 10.5447 45.7046 10.273 45.6344C9.86224 45.5278 9.55934 44.9949 9.21094 44.6439C9.58144 44.3111 9.91554 43.791 10.3315 43.713C10.6058 43.6623 10.9997 44.2461 11.547 44.7271Z" fill="#D7000C"/>
<path fill-rule="evenodd" clip-rule="evenodd" d="M31.9539 35.584C32.4713 36.3094 32.9614 36.702 32.9757 37.1141C32.9861 37.4066 32.3556 37.9539 32.0059 37.9591C31.651 37.9643 30.9997 37.4456 30.9971 37.1544C30.9945 36.741 31.469 36.325 31.9539 35.584Z" fill="#D7000C"/>
</svg>
