<svg width="66" height="60" viewBox="0 0 66 60" fill="none" xmlns="http://www.w3.org/2000/svg">
<path d="M65.274 59.9276H0.726C0.33 59.9276 0 59.5976 0 59.2016V54.1196C0 53.7236 0.33 53.3936 0.726 53.3936H65.274C65.67 53.3936 66 53.7236 66 54.1196V59.2016C66 59.5976 65.67 59.9276 65.274 59.9276ZM1.452 58.4756H64.548V54.8456H1.452V58.4756Z" fill="#D7000C"/>
<path d="M59.2026 54.5818C58.8066 54.5818 58.4766 54.2518 58.4766 53.8558L58.8726 29.5018C58.8726 29.3038 58.9386 29.1058 59.0706 28.9738L60.2586 27.8518C60.5226 27.5878 60.9846 27.5878 61.2486 27.8518L62.4366 28.9738C62.5686 29.1058 62.6346 29.3038 62.6346 29.5018L63.0306 53.8558C63.0306 54.2518 62.7006 54.5818 62.3046 54.5818C61.8426 54.5158 61.5786 54.2518 61.5786 53.8558L61.1826 29.8318L60.7206 29.4358L60.2586 29.8318L59.8626 53.8558C59.9286 54.2518 59.5986 54.5818 59.2026 54.5818Z" fill="#D7000C"/>
<path d="M60.7875 29.1057C60.3915 29.1057 60.0615 28.7757 60.0615 28.3797V26.9277C60.0615 26.5317 60.3915 26.2017 60.7875 26.2017C61.1835 26.2017 61.5135 26.5317 61.5135 26.9277V28.3797C61.5135 28.7757 61.1835 29.1057 60.7875 29.1057Z" fill="#D7000C"/>
<path d="M63.3615 33.5936H58.0815C57.6855 33.5936 57.3555 33.2636 57.3555 32.8676C57.3555 32.4716 57.6855 32.1416 58.0815 32.1416H63.3615C63.7575 32.1416 64.0875 32.4716 64.0875 32.8676C64.0875 33.2636 63.7575 33.5936 63.3615 33.5936Z" fill="#D7000C"/>
<path d="M63.3615 41.4471H58.0815C57.6855 41.4471 57.3555 41.1171 57.3555 40.7211C57.3555 40.3251 57.6855 39.9951 58.0815 39.9951H63.3615C63.7575 39.9951 64.0875 40.3251 64.0875 40.7211C64.0875 41.1171 63.7575 41.4471 63.3615 41.4471Z" fill="#D7000C"/>
<path d="M63.3615 48.2455H58.0815C57.6855 48.2455 57.3555 47.9155 57.3555 47.5195C57.3555 47.1235 57.6855 46.7935 58.0815 46.7935H63.3615C63.7575 46.7935 64.0875 47.1235 64.0875 47.5195C64.0875 47.9155 63.7575 48.2455 63.3615 48.2455Z" fill="#D7000C"/>
<path d="M56.4311 54.78H46.5971C46.2011 54.78 45.8711 54.45 45.8711 54.054V31.35C45.8711 30.954 46.2011 30.624 46.5971 30.624H56.4311C56.8271 30.624 57.1571 30.954 57.1571 31.35V54.054C57.1571 54.45 56.8271 54.78 56.4311 54.78ZM47.3231 53.328H55.7051V32.076H47.3231V53.328Z" fill="#D7000C"/>
<path d="M56.4311 44.6815H46.5971C46.2011 44.6815 45.8711 44.3515 45.8711 43.9555C45.8711 43.5595 46.2011 43.2295 46.5971 43.2295H56.4311C56.8271 43.2295 57.1571 43.5595 57.1571 43.9555C57.1571 44.3515 56.8271 44.6815 56.4311 44.6815Z" fill="#D7000C"/>
<path d="M54.319 44.6817C53.923 44.6817 53.593 44.3517 53.593 43.9557V37.6197C53.593 36.8937 52.603 36.2997 51.481 36.2997C50.359 36.2997 49.369 36.8937 49.369 37.6197V43.9557C49.369 44.3517 49.039 44.6817 48.643 44.6817C48.247 44.6817 47.917 44.3517 47.917 43.9557V37.6197C47.917 36.1017 49.501 34.8477 51.481 34.8477C53.461 34.8477 55.045 36.0357 55.045 37.6197V43.9557C55.111 44.3517 54.781 44.6817 54.319 44.6817Z" fill="#D7000C"/>
<path d="M52.8015 32.0756C52.4055 32.0756 52.0755 31.7456 52.0755 31.3496V29.0396C52.0755 28.9736 51.8775 28.8416 51.4815 28.8416C51.1515 28.8416 50.9535 28.9736 50.8875 29.0396V31.3496C50.8875 31.7456 50.5575 32.0756 50.1615 32.0756C49.7655 32.0756 49.4355 31.7456 49.4355 31.3496V29.0396C49.4355 28.1156 50.2935 27.3896 51.4815 27.3896C52.6695 27.3896 53.5275 28.1156 53.5275 29.0396V31.3496C53.5275 31.7456 53.1975 32.0756 52.8015 32.0756Z" fill="#D7000C"/>
<path d="M54.319 54.5816C53.923 54.5816 53.593 54.2516 53.593 53.8556V47.5196C53.593 46.8596 52.603 46.1996 51.481 46.1996C50.359 46.1996 49.369 46.7936 49.369 47.5196V53.8556C49.369 54.2516 49.039 54.5816 48.643 54.5816C48.247 54.5816 47.917 54.2516 47.917 53.8556V47.5196C47.917 46.0016 49.501 44.7476 51.481 44.7476C53.461 44.7476 55.045 45.9356 55.045 47.5196V53.8556C55.111 54.2516 54.781 54.5816 54.319 54.5816Z" fill="#D7000C"/>
<path d="M55.2432 32.0756H48.0492C47.6532 32.0756 47.3232 31.7456 47.3232 31.3496V26.9936C47.3232 26.5976 47.6532 26.2676 48.0492 26.2676H55.2432C55.6392 26.2676 55.9692 26.5976 55.9692 26.9936V31.3496C55.9692 31.7456 55.6392 32.0756 55.2432 32.0756ZM48.7752 30.6236H54.5172V27.7196H48.7752V30.6236Z" fill="#D7000C"/>
<path d="M54.121 27.7197C53.725 27.7197 53.395 27.3897 53.395 26.9937C53.395 26.5977 53.725 26.2677 54.121 26.2677C54.451 26.2677 54.979 26.2677 54.979 24.6177C54.979 23.5617 52.735 21.8457 51.151 20.9877C50.821 20.7897 50.689 20.3277 50.887 19.9977C51.085 19.6677 51.547 19.5357 51.877 19.7337C52.669 20.1297 56.497 22.3737 56.497 24.6837C56.497 27.1257 55.177 27.7197 54.121 27.7197Z" fill="#D7000C"/>
<path d="M48.9067 27.7197C47.8507 27.7197 46.5967 27.1917 46.5967 24.6177C46.5967 22.3077 50.4247 20.1297 51.2167 19.6677C51.5467 19.4697 52.0087 19.6017 52.2067 19.9317C52.4047 20.2617 52.2727 20.7237 51.9427 20.9217C50.3587 21.7797 48.1147 23.4957 48.1147 24.5517C48.1147 26.2017 48.6427 26.2017 48.9727 26.2017C49.3687 26.2017 49.6987 26.5317 49.6987 26.9277C49.6987 27.3237 49.3027 27.7197 48.9067 27.7197Z" fill="#D7000C"/>
<path d="M51.5473 21.0536C51.1513 21.0536 50.8213 20.7236 50.8213 20.3276V18.7436C50.8213 18.3476 51.1513 18.0176 51.5473 18.0176C51.9433 18.0176 52.2733 18.3476 52.2733 18.7436V20.3276C52.2733 20.7236 51.9433 21.0536 51.5473 21.0536Z" fill="#D7000C"/>
<path d="M4.09221 54.5823C3.69621 54.5823 3.36621 54.2523 3.36621 53.8563L3.76221 29.5023C3.76221 29.3043 3.82821 29.1063 3.96021 28.9743L5.14821 27.8523C5.41221 27.5883 5.87421 27.5883 6.13821 27.8523L7.32621 28.9743C7.45821 29.1063 7.52421 29.3043 7.52421 29.5023L7.92021 53.8563C7.92021 54.2523 7.59021 54.5823 7.19421 54.5823C6.79821 54.5163 6.46821 54.2523 6.46821 53.8563L6.07221 29.8323L5.61021 29.4363L5.14821 29.8323L4.81821 53.8563C4.81821 54.2523 4.48821 54.5823 4.09221 54.5823Z" fill="#D7000C"/>
<path d="M5.6762 29.1057C5.2802 29.1057 4.9502 28.7757 4.9502 28.3797V26.9277C4.9502 26.5317 5.2802 26.2017 5.6762 26.2017C6.0722 26.2017 6.4022 26.5317 6.4022 26.9277V28.3797C6.4022 28.7757 6.0722 29.1057 5.6762 29.1057Z" fill="#D7000C"/>
<path d="M8.38198 33.5936H3.10198C2.70598 33.5936 2.37598 33.2636 2.37598 32.8676C2.37598 32.4716 2.70598 32.1416 3.10198 32.1416H8.38198C8.77798 32.1416 9.10798 32.4716 9.10798 32.8676C9.10798 33.2636 8.77798 33.5936 8.38198 33.5936Z" fill="#D7000C"/>
<path d="M8.38198 41.4476H3.10198C2.70598 41.4476 2.37598 41.1176 2.37598 40.7216C2.37598 40.3256 2.70598 39.9956 3.10198 39.9956H8.38198C8.77798 39.9956 9.10798 40.3256 9.10798 40.7216C9.10798 41.1176 8.77798 41.4476 8.38198 41.4476Z" fill="#D7000C"/>
<path d="M8.38198 48.2459H3.10198C2.70598 48.2459 2.37598 47.9159 2.37598 47.5199C2.37598 47.1239 2.70598 46.7939 3.10198 46.7939H8.38198C8.77798 46.7939 9.10798 47.1239 9.10798 47.5199C9.10798 47.9159 8.77798 48.2459 8.38198 48.2459Z" fill="#D7000C"/>
<path d="M19.8002 54.7795H9.96623C9.57023 54.7795 9.24023 54.4495 9.24023 54.0535V31.3495C9.24023 30.9535 9.57023 30.6235 9.96623 30.6235H19.8002C20.1962 30.6235 20.5262 30.9535 20.5262 31.3495V54.0535C20.5262 54.4495 20.2622 54.7795 19.8002 54.7795ZM10.7582 53.3275H19.1402V32.0755H10.7582V53.3275Z" fill="#D7000C"/>
<path d="M19.8002 44.682H9.96623C9.57023 44.682 9.24023 44.352 9.24023 43.956C9.24023 43.56 9.57023 43.23 9.96623 43.23H19.8002C20.1962 43.23 20.5262 43.56 20.5262 43.956C20.5262 44.352 20.2622 44.682 19.8002 44.682Z" fill="#D7000C"/>
<path d="M17.7536 44.6817C17.3576 44.6817 17.0276 44.3517 17.0276 43.9557V37.6197C17.0276 36.9597 16.0376 36.2997 14.9156 36.2997C13.7936 36.2997 12.8036 36.8937 12.8036 37.6197V43.9557C12.8036 44.3517 12.4736 44.6817 12.0776 44.6817C11.6816 44.6817 11.3516 44.3517 11.3516 43.9557V37.6197C11.3516 36.1017 12.9356 34.8477 14.9156 34.8477C16.8956 34.8477 18.4796 36.0357 18.4796 37.6197V43.9557C18.4796 44.3517 18.1496 44.6817 17.7536 44.6817Z" fill="#D7000C"/>
<path d="M16.2361 32.0756C15.8401 32.0756 15.5101 31.7456 15.5101 31.3496V29.0396C15.5101 28.9736 15.3121 28.8416 14.9161 28.8416C14.5861 28.8416 14.3881 28.9736 14.3221 29.0396V31.3496C14.3221 31.7456 13.9921 32.0756 13.5961 32.0756C13.2001 32.0756 12.8701 31.7456 12.8701 31.3496V29.0396C12.8701 28.1156 13.7941 27.3896 14.9161 27.3896C16.0381 27.3896 16.9621 28.1156 16.9621 29.0396V31.3496C16.9621 31.7456 16.6321 32.0756 16.2361 32.0756Z" fill="#D7000C"/>
<path d="M17.7536 54.582C17.3576 54.582 17.0276 54.252 17.0276 53.856V47.52C17.0276 46.86 16.0376 46.2 14.9156 46.2C13.7936 46.2 12.8036 46.794 12.8036 47.52V53.856C12.8036 54.252 12.4736 54.582 12.0776 54.582C11.6816 54.582 11.3516 54.252 11.3516 53.856V47.52C11.3516 46.002 12.9356 44.748 14.9156 44.748C16.8956 44.748 18.4796 45.936 18.4796 47.52V53.856C18.4796 54.252 18.1496 54.582 17.7536 54.582Z" fill="#D7000C"/>
<path d="M18.4141 32.0761H11.2201C10.8241 32.0761 10.4941 31.7461 10.4941 31.3501V26.9941C10.4941 26.5981 10.8241 26.2681 11.2201 26.2681H18.4141C18.8101 26.2681 19.1401 26.5981 19.1401 26.9941V31.3501C19.1401 31.7461 18.8101 32.0761 18.4141 32.0761ZM11.9461 30.6241H17.6881V27.7201H11.9461V30.6241Z" fill="#D7000C"/>
<path d="M12.2758 27.7197C11.2198 27.7197 9.96582 27.1917 9.96582 24.6177C9.96582 22.3077 13.7938 20.1297 14.5858 19.6677C14.9158 19.4697 15.3778 19.6017 15.5758 19.9317C15.7738 20.2617 15.6418 20.7237 15.3118 20.9217C13.7278 21.7797 11.4838 23.4957 11.4838 24.5517C11.4838 26.2017 12.0118 26.2017 12.3418 26.2017C12.7378 26.2017 13.0678 26.5317 13.0678 26.9277C13.0678 27.3237 12.6718 27.7197 12.2758 27.7197Z" fill="#D7000C"/>
<path d="M17.5555 27.7201C17.1595 27.7201 16.8295 27.3901 16.8295 26.9941C16.8295 26.5981 17.1595 26.2681 17.5555 26.2681C17.8855 26.2681 18.4135 26.2681 18.4135 24.6181C18.4135 23.5621 16.1695 21.8461 14.5855 20.9881C14.2555 20.7901 14.1235 20.3281 14.3215 19.9981C14.5195 19.6681 14.9815 19.5361 15.3115 19.7341C16.1035 20.1301 19.9315 22.3741 19.9315 24.6841C19.8655 27.1261 18.6115 27.7201 17.5555 27.7201Z" fill="#D7000C"/>
<path d="M14.9164 21.0541C14.5204 21.0541 14.1904 20.7241 14.1904 20.3281V18.7441C14.1904 18.3481 14.5204 18.0181 14.9164 18.0181C15.3124 18.0181 15.6424 18.3481 15.6424 18.7441V20.3281C15.6424 20.7241 15.3124 21.0541 14.9164 21.0541Z" fill="#D7000C"/>
<path d="M43.4937 54.5822H22.5717C22.1757 54.5822 21.8457 54.2522 21.8457 53.8562V25.2782C21.8457 24.8822 22.1757 24.5522 22.5717 24.5522H43.4937C43.8897 24.5522 44.2197 24.8822 44.2197 25.2782V53.8562C44.2197 54.2522 43.8897 54.5822 43.4937 54.5822ZM23.2977 53.1302H42.7677V26.0042H23.2977V53.1302Z" fill="#D7000C"/>
<path d="M24.3543 26.0038C20.8563 26.0038 19.4043 23.6278 19.4043 18.0178C19.4043 11.5498 32.1423 4.61981 32.6703 4.28981C33.0003 4.09181 33.4623 4.22381 33.6603 4.55381C33.8583 4.88381 33.7263 5.34581 33.3963 5.54381C29.8983 7.45781 20.9223 13.3318 20.9223 17.9518C20.9223 23.9578 22.6383 24.4858 24.4203 24.4858C24.8163 24.4858 25.1463 24.8158 25.1463 25.2118C25.0803 25.6738 24.7503 26.0038 24.3543 26.0038Z" fill="#D7000C"/>
<path d="M41.5795 26.0037C41.1835 26.0037 40.8535 25.6737 40.8535 25.2777C40.8535 24.8817 41.1835 24.5517 41.5795 24.5517C43.2955 24.5517 45.1435 24.0237 45.1435 18.0177C45.1435 13.3977 36.1015 7.45773 32.6695 5.60973C32.3395 5.41173 32.2075 4.94973 32.4055 4.61973C32.6035 4.28973 33.0655 4.15772 33.3955 4.35572C33.9235 4.61972 46.6615 11.6157 46.6615 18.0837C46.6615 23.4957 45.0775 26.0037 41.5795 26.0037Z" fill="#D7000C"/>
<path d="M33.0004 5.676C32.6044 5.676 32.2744 5.346 32.2744 4.95V0.726C32.2744 0.33 32.6044 0 33.0004 0C33.3964 0 33.7264 0.33 33.7264 0.726V4.884C33.7264 5.346 33.4624 5.676 33.0004 5.676Z" fill="#D7000C"/>
<path d="M41.9107 28.1161H24.1567C23.7607 28.1161 23.4307 27.7861 23.4307 27.3901C23.4307 26.9941 23.7607 26.6641 24.1567 26.6641H41.9107C42.3067 26.6641 42.6367 26.9941 42.6367 27.3901C42.6367 27.7861 42.3067 28.1161 41.9107 28.1161Z" fill="#D7000C"/>
<path d="M41.7119 54.7801H24.3539C23.9579 54.7801 23.6279 54.4501 23.6279 54.0541V30.0961C23.6279 29.7001 23.9579 29.3701 24.3539 29.3701H41.7119C42.1079 29.3701 42.4379 29.7001 42.4379 30.0961V54.0541C42.4379 54.4501 42.1079 54.7801 41.7119 54.7801ZM25.0799 53.3281H40.9859V30.8221H25.0799V53.3281Z" fill="#D7000C"/>
<path d="M39.7976 54.5823C39.4016 54.5823 39.0716 54.2523 39.0716 53.8563V37.6863C39.0716 34.9143 36.3656 32.6043 32.9996 32.6043C29.6336 32.6043 26.9276 34.9143 26.9276 37.6863V53.8563C26.9276 54.2523 26.5976 54.5823 26.2016 54.5823C25.8056 54.5823 25.4756 54.2523 25.4756 53.8563V37.6863C25.4756 34.0563 28.8416 31.1523 32.9996 31.1523C37.1576 31.1523 40.5236 34.0563 40.5236 37.6863V53.8563C40.5236 54.2523 40.1936 54.5823 39.7976 54.5823Z" fill="#D7000C"/>
<path d="M34.9798 43.098C34.5838 43.098 34.2538 42.768 34.2538 42.372V37.752C34.2538 37.224 33.7258 36.828 33.0658 36.828C32.4058 36.828 31.8778 37.224 31.8778 37.752V42.372C31.8778 42.768 31.5478 43.098 31.1518 43.098C30.7558 43.098 30.4258 42.768 30.4258 42.372V37.752C30.4258 36.432 31.6138 35.376 33.0658 35.376C34.5178 35.376 35.7058 36.432 35.7058 37.752V42.372C35.7058 42.768 35.3758 43.098 34.9798 43.098Z" fill="#D7000C"/>
<path d="M34.9798 54.7801C34.5838 54.7801 34.2538 54.4501 34.2538 54.0541V49.4341C34.2538 48.9061 33.7258 48.5101 33.0658 48.5101C32.4058 48.5101 31.8778 48.9061 31.8778 49.4341V54.0541C31.8778 54.4501 31.5478 54.7801 31.1518 54.7801C30.7558 54.7801 30.4258 54.4501 30.4258 54.0541V49.4341C30.4258 48.1141 31.6138 47.0581 33.0658 47.0581C34.5178 47.0581 35.7058 48.1141 35.7058 49.4341V54.0541C35.7058 54.4501 35.3758 54.7801 34.9798 54.7801Z" fill="#D7000C"/>
<path d="M36.4322 43.098H29.6342C29.2382 43.098 28.9082 42.768 28.9082 42.372C28.9082 41.976 29.2382 41.646 29.6342 41.646H36.4322C36.8282 41.646 37.1582 41.976 37.1582 42.372C37.1582 42.768 36.8282 43.098 36.4322 43.098Z" fill="#D7000C"/>
</svg>
