<svg width="49" height="70" viewBox="0 0 49 70" fill="none" xmlns="http://www.w3.org/2000/svg">
<path d="M18.9811 48.6909C18.9811 49.3167 18.4724 49.8262 17.8474 49.8262C17.2224 49.8262 16.7136 49.3167 16.7136 48.6909C16.7136 48.065 17.2224 47.5555 17.8474 47.5555C18.4724 47.5701 18.9811 48.065 18.9811 48.6909ZM30.9002 47.5701C30.2751 47.5701 29.7664 48.0795 29.7664 48.7054C29.7664 49.3313 30.2751 49.8407 30.9002 49.8407C31.5252 49.8407 32.0339 49.3313 32.0339 48.7054C32.0339 48.065 31.5252 47.5701 30.9002 47.5701ZM48.9822 44.9501C48.9386 45.1684 48.7642 45.3431 48.5461 45.4159C47.8484 45.6197 47.5723 46.0272 47.4705 46.2892C47.4705 46.2892 47.4705 46.2892 47.4705 46.3038V69.2722C47.4705 69.6216 47.1943 69.8981 46.8455 69.8981H40.0284C39.9412 69.9563 39.8249 70 39.7086 70H9.25697C9.14069 70 9.0244 69.9709 8.93719 69.8981H2.14916C1.80032 69.8981 1.52414 69.6216 1.52414 69.2722V46.3038C1.42239 46.0418 1.16076 45.6342 0.448525 45.4304C0.230494 45.3722 0.0706045 45.1976 0.0124629 44.9647C-0.0311433 44.7463 0.0415341 44.5135 0.201423 44.3679C0.215959 44.3533 0.2741 44.3097 0.346777 44.2514V40.1177C0.346777 40.0304 0.361312 39.943 0.404918 39.8703C0.46306 39.7393 0.593878 39.5792 0.84098 39.4045V35.6637C0.84098 35.5764 0.855516 35.4891 0.899123 35.4163C0.928193 35.3581 0.957262 35.2999 1.0154 35.2416C1.16076 34.8195 1.50961 34.2082 2.30906 33.6405V27.9494L1.90206 27.3817C1.82939 27.2798 1.78578 27.1488 1.78578 27.0324V21.8215C1.78578 21.6905 1.82939 21.5595 1.9166 21.4431C1.96021 21.3849 2.07649 21.2539 2.30906 21.0938V16.4797L1.90206 15.912C1.75671 15.7083 1.75671 15.4608 1.87299 15.257C1.87299 15.2279 1.85846 15.2134 1.85846 15.1843V11.1087C1.85846 10.9632 1.9166 10.8322 2.01835 10.7303C2.07649 10.6575 2.29452 10.4829 2.77419 10.2936V6.48012C2.77419 6.26179 2.75965 4.15125 5.09985 3.03048C5.23067 2.76848 5.56498 2.02616 5.8993 0.439614C5.95744 0.163061 6.20454 -0.0116043 6.48071 0.00295111C6.75688 0.032062 6.97491 0.264948 6.97491 0.541502C6.98945 1.29838 7.16387 2.6957 7.55633 3.16148C7.59994 3.20514 7.75983 3.29248 7.89064 3.3507C8.5302 3.65636 9.57675 4.18036 9.38779 6.23267V10.6575C9.51861 10.7594 9.60582 10.8467 9.63489 10.8904C9.70757 10.9923 9.75117 11.1087 9.75117 11.2252V12.4624C9.91106 12.0548 10.1436 11.3562 10.3907 10.25C10.4489 9.97342 10.7105 9.79875 10.9721 9.81331C11.2483 9.84242 11.4663 10.0753 11.4663 10.3519C11.4809 11.1087 11.6553 12.5061 12.0478 12.9718C12.0914 13.0155 12.2513 13.1028 12.3821 13.1611C13.0216 13.4667 14.0682 13.9907 13.8792 16.043V19.9584C14.417 20.1913 14.6205 20.4242 14.6932 20.5115C14.7659 20.6134 14.8095 20.7299 14.8095 20.8463V24.8636C14.8095 24.9218 14.795 24.9801 14.7804 25.0383C14.795 25.1838 14.7513 25.3294 14.6787 25.4458L14.1263 26.2464V28.7354H34.5922V25.9698L34.0398 25.1693C33.9526 25.0528 33.9235 24.9073 33.9381 24.7617C33.9235 24.7035 33.909 24.6453 33.909 24.5871V20.5698C33.909 20.4533 33.9526 20.3369 34.0253 20.235C34.0834 20.1477 34.316 19.9148 34.8393 19.6819V15.7665C34.6503 13.7142 35.6968 13.2047 36.3364 12.8845C36.4672 12.8263 36.6271 12.7389 36.6707 12.6953C37.0777 12.215 37.2376 10.8322 37.2521 10.0753C37.2521 9.79875 37.4702 9.56587 37.7463 9.53676C38.0225 9.50764 38.2696 9.69687 38.3278 9.97342C38.6766 11.6473 39.04 12.3896 39.1563 12.6079C39.1708 12.6225 39.1999 12.6371 39.2144 12.6516V11.2252C39.2144 11.1087 39.258 10.9923 39.3307 10.8904C39.3598 10.8467 39.447 10.7594 39.5778 10.6575V6.23267C39.3888 4.18036 40.4354 3.67092 41.0749 3.3507C41.2058 3.29248 41.3656 3.20514 41.4093 3.16148C41.8162 2.68115 41.9761 1.29838 41.9907 0.541502C41.9907 0.264948 42.2087 0.032062 42.4849 0.00295111C42.761 -0.0261597 43.0081 0.163061 43.0663 0.439614C43.4006 2.0116 43.7349 2.75393 43.8657 3.03048C46.2059 4.15125 46.2059 6.26179 46.1914 6.48012V10.2936C46.6711 10.4829 46.8891 10.6721 46.9472 10.7303C47.049 10.8322 47.1071 10.9632 47.1071 11.1087V15.1843C47.1071 15.2134 47.1071 15.2279 47.0926 15.257C47.2089 15.4608 47.1943 15.7083 47.0635 15.912L46.6565 16.4797V21.0938C46.8891 21.2539 47.0054 21.3849 47.049 21.4431C47.1362 21.545 47.1798 21.676 47.1798 21.8215V27.0324C47.1798 27.1488 47.1507 27.2798 47.0635 27.3817L46.6565 27.9494V33.6405C47.4705 34.2082 47.8048 34.8195 47.9502 35.2416C47.9938 35.2999 48.0374 35.3581 48.0665 35.4163C48.0955 35.4891 48.1246 35.5764 48.1246 35.6637V39.4045C48.3717 39.5646 48.5025 39.7393 48.5607 39.8703C48.5897 39.943 48.6188 40.0304 48.6188 40.1177V44.2514C48.6915 44.3097 48.7351 44.3388 48.7642 44.3533C48.9531 44.4989 49.0403 44.7318 48.9822 44.9501ZM47.4124 43.6692V40.3943C47.1507 40.2487 46.3658 39.943 44.3454 39.8557C43.4878 39.812 42.6884 39.8557 41.9471 39.9722C40.8714 40.1323 40.0429 40.3943 39.6069 40.6999V43.742C40.3772 43.4946 41.5255 43.3345 43.0663 43.2617C45.1158 43.1452 46.5112 43.3927 47.4124 43.6692ZM47.0199 44.8482C46.2641 44.6153 45.0286 44.3825 43.1244 44.4843C41.6273 44.5571 40.7406 44.7027 40.2174 44.8482C40.4354 45.0666 40.6098 45.3431 40.697 45.6779H46.4094C46.5257 45.4159 46.7147 45.1248 47.0199 44.8482ZM18.3271 59.5346V68.7773H30.6385V59.8694C30.6385 59.7239 30.7548 57.1621 28.7199 56.085C27.528 55.4591 25.2168 54.1637 24.3883 53.6979C23.8505 54.0327 22.6005 54.7459 20.4201 55.7357C17.9055 56.871 18.298 59.3309 18.3125 59.4473C18.3271 59.4619 18.3271 59.5055 18.3271 59.5346ZM31.8159 68.7773H32.1502V57.8026C32.1502 57.7298 32.3101 54.4257 29.7519 53.072C28.2693 52.286 25.3622 50.6558 24.4028 50.1173C23.7924 50.4957 22.2661 51.3982 19.5044 52.6354C16.3357 54.0618 16.8444 57.1621 16.859 57.2931C16.859 57.3222 16.8735 57.3659 16.8735 57.395V68.7773H17.1497V59.5929C16.9462 58.3848 17.2805 55.8667 19.9405 54.6586C22.833 53.3486 24.0249 52.5335 24.0395 52.5189C24.2284 52.3879 24.461 52.3734 24.6645 52.4898C24.6936 52.5044 27.8332 54.2656 29.2867 55.037C31.9903 56.478 31.8304 59.753 31.8159 59.8985V68.7773ZM33.3276 68.7773H34.1125V46.1291H15.1729V68.7773H15.7107V57.4387C15.638 56.9147 15.2892 53.2613 19.0393 51.5728C22.5714 49.9717 24.0395 48.9674 24.054 48.9529C24.243 48.8219 24.4755 48.8073 24.679 48.9237C24.7226 48.9383 28.5454 51.0925 30.3042 52.0386C33.5311 53.7561 33.3421 57.6716 33.3276 57.8462V68.7773ZM8.31217 45.6779C8.39938 45.3431 8.57381 45.0666 8.79184 44.8482C8.26856 44.7172 7.38191 44.5717 5.88476 44.4843C3.98062 44.3825 2.74512 44.6153 1.98928 44.8482C2.29452 45.1102 2.48348 45.4159 2.6143 45.6779H8.31217ZM3.5591 27.731V33.9462C3.5591 34.0918 3.50096 34.2228 3.41374 34.3392C3.79166 34.2955 4.21319 34.2519 4.70739 34.2373C5.53591 34.2082 6.33536 34.2373 7.07666 34.3538C7.41098 34.412 7.71622 34.4702 8.00693 34.5284C7.99239 34.4848 7.99239 34.4265 7.99239 34.3829V27.7165C7.99239 27.5564 8.05053 27.3963 8.16682 27.2798L8.25403 27.1779C7.8325 27.0178 7.12027 26.8286 5.98651 26.7558C4.63472 26.6831 3.77713 26.9305 3.312 27.1488L3.45735 27.3526C3.51549 27.469 3.5591 27.6 3.5591 27.731ZM3.03582 22.0544V25.9407C3.68992 25.6933 4.66379 25.4749 6.04465 25.5477C7.22202 25.6205 8.036 25.8097 8.60288 26.0135V22.1854C8.35578 21.9816 7.5854 21.4722 5.65219 21.5159C4.06784 21.5159 3.32653 21.8798 3.03582 22.0544ZM8.37031 14.4419C8.44299 14.4565 8.51567 14.471 8.58834 14.4856C8.61741 14.3983 8.64649 14.3255 8.67556 14.2382V11.4435C8.39938 11.2689 7.5854 10.905 5.65219 10.905C4.0533 10.9195 3.28293 11.1961 2.96315 11.3562V14.4856C3.61724 14.2236 4.62018 13.9762 6.04465 14.0635C7.07666 14.1072 7.8325 14.2673 8.37031 14.4419ZM9.2279 21.0938C9.57675 21.3412 9.7221 21.5595 9.76571 21.6178C9.82385 21.7196 9.85292 21.8215 9.85292 21.938V23.8302C10.2163 23.8011 10.5942 23.8011 10.9721 23.8302C11.4082 23.8593 11.7861 23.8884 12.1204 23.9321C12.6582 23.9612 13.1961 24.034 13.7339 24.1359V21.0792C13.6031 21.0064 13.385 20.89 12.9926 20.7735H12.8036V20.7299C12.3239 20.6134 11.6553 20.5407 10.7105 20.5407C10.1582 20.5407 9.66396 20.5843 9.21337 20.6571L9.2279 21.0938ZM36.6416 23.641C36.976 23.5973 37.3539 23.5682 37.7899 23.5391C38.2696 23.51 38.7347 23.5245 39.1708 23.5682V21.938C39.1708 21.8215 39.1999 21.7196 39.258 21.6178C39.2871 21.5595 39.4324 21.3412 39.7958 21.0938V20.4097C39.3016 20.3078 38.7202 20.2641 38.0516 20.2495C37.1068 20.2495 36.4381 20.3223 35.9585 20.4388V20.4824H35.7841C35.3916 20.5843 35.159 20.7008 35.0282 20.7881V23.8447C35.5515 23.7429 36.1038 23.6701 36.6416 23.641ZM40.6243 14.4419C41.1767 14.2673 41.9325 14.1072 42.9645 14.0489C44.389 13.9616 45.392 14.209 46.046 14.471V11.3416C45.7408 11.1961 44.9704 10.905 43.357 10.8904C41.4819 10.8759 40.6243 11.2397 40.3336 11.429V14.4856C40.4354 14.471 40.5226 14.4565 40.6243 14.4419ZM43.357 21.5013C41.4674 21.4577 40.6679 21.9671 40.4063 22.1854V26.0135C40.9732 25.8097 41.7872 25.6205 42.9645 25.5477C44.3309 25.4749 45.3193 25.6933 45.9734 25.9407V22.0544C45.6972 21.8798 44.9559 21.5159 43.357 21.5013ZM45.4501 33.9462V27.731C45.4501 27.6 45.4937 27.4836 45.5664 27.3817L45.6972 27.1925C45.2175 26.9742 44.3599 26.7267 43.0227 26.7995C41.8889 26.8577 41.1767 27.0469 40.7552 27.2216L40.8424 27.3235C40.9587 27.4399 41.0168 27.6 41.0168 27.7602V34.3829C41.0168 34.4265 41.0168 34.4848 41.0023 34.5284C41.293 34.4556 41.5982 34.3974 41.9325 34.3538C42.6738 34.2373 43.4587 34.2082 44.3018 34.2373C44.796 34.2519 45.2175 34.2955 45.5954 34.3392C45.5082 34.2373 45.4501 34.0918 45.4501 33.9462ZM10.1582 35.8966V36.377H38.851V35.8966C38.851 35.8821 38.851 35.8675 38.851 35.853H10.1582C10.1582 35.8675 10.1582 35.8821 10.1582 35.8966ZM39.7813 33.0147H9.2279V34.1209C9.35872 34.2519 9.51861 34.4265 9.66396 34.6449H39.3307H39.3598C39.5051 34.4265 39.6795 34.2519 39.7958 34.1209V33.0147H39.7813ZM39.7813 29.8998H9.2279V31.8066H39.7958V29.8998H39.7813ZM10.1582 39.6956C10.2744 39.7829 10.3762 39.8703 10.4634 39.9576C10.5797 40.074 10.6378 40.2341 10.6378 40.3943V42.7522H11.4082V41.3986C11.3355 40.9037 11.4373 40.0449 12.2367 39.7102L12.8327 39.4627C12.9926 39.3899 13.167 39.4045 13.3269 39.4773L13.8065 39.7102C14.1554 39.8266 14.7223 40.2196 14.6932 41.0493C14.6787 41.4568 14.6787 42.2574 14.6787 42.7668H15.2455V41.4131C15.1729 40.9183 15.2746 40.0595 16.0741 39.7247L16.67 39.4773C16.8299 39.4045 17.0043 39.419 17.1642 39.4918L17.6439 39.7247C17.9927 39.8412 18.5596 40.2341 18.5305 41.0638C18.516 41.4714 18.516 42.2719 18.516 42.7814H19.0974V41.4277C19.0247 40.9328 19.1265 40.074 19.9259 39.7393L20.5219 39.4918C20.6818 39.419 20.8562 39.4336 21.0161 39.5064L21.4958 39.7393C21.8446 39.8557 22.4115 40.2487 22.3824 41.0784C22.3679 41.4859 22.3679 42.2865 22.3679 42.7959H22.8621V41.4423C22.7894 40.9474 22.8912 40.0886 23.6906 39.7538L24.2866 39.5064C24.4465 39.4336 24.6209 39.4482 24.7808 39.5209L25.2604 39.7538C25.6093 39.8703 26.1762 40.2633 26.1471 41.0929C26.1326 41.5005 26.1326 42.301 26.1326 42.8105H26.7576V41.4568C26.6849 40.9619 26.7867 40.1032 27.5861 39.7684L28.182 39.5209C28.3419 39.4627 28.5164 39.4627 28.6763 39.5355L29.1559 39.7684C29.5048 39.8848 30.0716 40.2778 30.0426 41.1075C30.028 41.515 30.028 42.3156 30.028 42.825H30.5659V41.4714C30.4932 40.9765 30.5949 40.1177 31.3944 39.7829L31.9903 39.5355C32.1502 39.4627 32.3246 39.4773 32.4845 39.55L32.9642 39.7829C33.313 39.8994 33.8799 40.2924 33.8508 41.122C33.8363 41.5296 33.8363 42.3301 33.8363 42.8396H34.3741V41.4859C34.3014 40.991 34.4032 40.1323 35.2026 39.7975L35.7986 39.55C35.9585 39.4773 36.1329 39.4918 36.2928 39.5646L36.7725 39.7975C37.1213 39.9139 37.6882 40.3069 37.6591 41.1366C37.6446 41.5441 37.6446 42.3447 37.6446 42.8541H38.4295V40.4962C38.4295 40.336 38.4876 40.1759 38.6039 40.0595C38.6911 39.9722 38.7929 39.8848 38.9092 39.7975V37.6578H10.1582V39.6956ZM35.5224 41.3404V42.4902L36.38 42.5485C36.38 42.039 36.38 41.3549 36.3945 40.991C36.3945 40.8746 36.3655 40.86 36.3364 40.8455C36.2928 40.8309 36.2783 40.8309 36.2492 40.8164L35.973 40.6854L35.6242 40.8309C35.5079 40.8746 35.5224 41.1803 35.537 41.253C35.5224 41.2821 35.5224 41.3113 35.5224 41.3404ZM31.7287 41.3404V42.4902L32.5717 42.5485C32.5717 42.039 32.5717 41.3549 32.5863 40.991C32.5863 40.8746 32.5572 40.86 32.5281 40.8455C32.4845 40.8309 32.47 40.8309 32.4409 40.8164L32.1647 40.6854L31.8159 40.8309C31.6996 40.8746 31.7141 41.1803 31.7287 41.253C31.7287 41.2821 31.7287 41.3113 31.7287 41.3404ZM27.9349 41.3404V42.4902L28.778 42.5485C28.778 42.039 28.778 41.3549 28.7925 40.991C28.7925 40.8746 28.7635 40.86 28.7344 40.8455C28.6908 40.8309 28.6763 40.8309 28.6472 40.8164L28.371 40.6854L28.0222 40.8309C27.9059 40.8746 27.9204 41.1803 27.9349 41.253C27.9349 41.2821 27.9349 41.3113 27.9349 41.3404ZM24.054 41.3404V42.4902L24.8971 42.5485C24.8971 42.039 24.897 41.3549 24.9116 40.991C24.9116 40.8746 24.8825 40.86 24.8534 40.8455C24.8098 40.8309 24.7953 40.8309 24.7662 40.8164L24.4901 40.6854L24.1412 40.8309C24.0249 40.8746 24.0395 41.1803 24.054 41.253C24.0395 41.2821 24.054 41.3113 24.054 41.3404ZM20.2893 41.3404V42.4902L21.1469 42.5485C21.1469 42.039 21.1469 41.3549 21.1615 40.991C21.1615 40.8746 21.1324 40.86 21.1033 40.8455C21.0597 40.8309 21.0452 40.8309 21.0161 40.8164L20.7399 40.6854L20.3911 40.8309C20.2748 40.8746 20.2893 41.1803 20.3039 41.253C20.2893 41.2821 20.2893 41.3113 20.2893 41.3404ZM16.452 41.3404V42.4902L17.295 42.5485C17.295 42.039 17.295 41.3549 17.3096 40.991C17.3096 40.8746 17.2805 40.86 17.2514 40.8455C17.2078 40.8309 17.1933 40.8309 17.1642 40.8164L16.8881 40.6854L16.5392 40.8309C16.4229 40.8746 16.4375 41.1803 16.452 41.253C16.4375 41.2821 16.452 41.3113 16.452 41.3404ZM12.6292 41.3404V42.4902L13.4868 42.5485C13.4868 42.039 13.4868 41.3549 13.5013 40.991C13.5013 40.8746 13.4722 40.86 13.4432 40.8455C13.3996 40.8309 13.385 40.8309 13.3559 40.8164L13.0798 40.6854L12.7309 40.8309C12.6146 40.8746 12.6292 41.1803 12.6437 41.253C12.6146 41.2821 12.6292 41.3113 12.6292 41.3404ZM10.6088 44.921H38.4004C38.3859 44.8919 38.3859 44.8482 38.3859 44.8191H38.3568V43.9603H10.6524V44.8191H10.6233C10.6233 44.8482 10.6233 44.8919 10.6088 44.921ZM13.9228 50.8596H9.85292V54.906H13.9228V50.8596ZM13.9228 46.1291H9.85292V49.6515H13.9228V46.1291ZM9.86746 60.5972H13.9374V56.1141H9.86746V60.5972ZM35.348 60.5972H39.1272V56.1141H35.348V60.5972ZM39.1127 54.906V50.8596H35.3335V54.906H39.1127ZM39.1127 49.6515V46.1291H35.3335V49.6515H39.1127ZM46.9182 38.9096V35.9403C46.6711 35.8093 45.9588 35.5619 44.2582 35.4891C43.5023 35.46 42.7901 35.4891 42.136 35.591C41.2058 35.7365 40.4935 35.9549 40.1011 36.2023V39.1279C40.5807 38.9678 41.1331 38.8514 41.7726 38.7495C42.5866 38.6185 43.4733 38.5748 44.4181 38.6185C45.4937 38.6476 46.3077 38.7641 46.9182 38.9096ZM45.4501 20.5115V16.2323C45.4501 16.1013 45.4937 15.9848 45.5664 15.8829L45.6972 15.6937C45.5228 15.6209 45.3193 15.5336 45.0431 15.4608C44.2582 15.3735 43.2407 15.3153 42.1796 15.3735C41.511 15.4608 41.0604 15.5918 40.7406 15.7228L40.8278 15.8247C40.9441 15.9411 41.0023 16.1013 41.0023 16.2614V20.5552C41.5837 20.3951 42.3541 20.2641 43.3425 20.2787C44.2437 20.2641 44.9268 20.366 45.4501 20.5115ZM40.7116 5.22835C41.1912 5.05368 41.8744 4.89357 42.8337 4.86446C42.8773 4.86446 42.9355 4.86446 42.9791 4.86446C43.7349 4.86446 44.3309 5.01002 44.796 5.18468C44.5344 4.73346 44.0838 4.25314 43.2989 3.90381C43.2116 3.86014 43.1244 3.80192 43.0663 3.71459C43.0372 3.67092 42.9064 3.46714 42.7029 3.00137C42.5866 3.32159 42.4413 3.6127 42.2523 3.83103C42.0633 4.04936 41.8017 4.18036 41.5546 4.2968C41.1767 4.48602 40.8278 4.66069 40.7116 5.22835ZM40.697 10.1044C41.3075 9.92975 42.1651 9.7842 43.3715 9.79875C44.0838 9.79875 44.6652 9.85698 45.1449 9.94431V6.62567C44.8832 6.40734 44.1855 5.92701 42.8628 5.95612C41.6273 5.98523 40.9732 6.27634 40.697 6.43645V10.1044ZM35.973 14.7622C36.4527 14.5875 37.1358 14.4274 38.0952 14.3983C38.4586 14.3983 38.8074 14.471 39.1417 14.5875C38.9818 14.0489 38.7638 13.5832 38.4876 13.3939C38.4295 13.3503 38.3714 13.3066 38.3423 13.2484C38.3132 13.2047 38.1824 13.0009 37.9789 12.5352C37.8626 12.8554 37.7173 13.1465 37.5283 13.3648C37.3393 13.5832 37.0777 13.7142 36.8306 13.8306C36.4381 14.0198 36.0893 14.1945 35.973 14.7622ZM35.9439 19.3326C36.4672 19.2307 37.1068 19.1724 37.9208 19.1724C37.9644 19.1724 38.008 19.1724 38.037 19.1724C38.6766 19.1724 39.258 19.2307 39.7668 19.3034V16.4797L39.4906 16.1886H39.3888C39.3888 16.1449 39.3888 16.1158 39.3743 16.0721L39.3016 15.9994C39.2435 15.9411 39.1999 15.8684 39.1708 15.7956C38.8074 15.6064 38.415 15.4754 38.0807 15.4899C36.8451 15.519 36.191 15.8101 35.9149 15.9703V19.3326H35.9439ZM35.8567 25.7224V28.6771H39.7958V27.9785L39.3307 27.4982C39.1853 27.3526 39.1272 27.1343 39.1708 26.945V24.82C38.7638 24.7763 38.3278 24.7617 37.8626 24.7908C36.7434 24.8491 36.0021 24.9801 35.5515 25.0965L35.755 25.3876C35.8131 25.475 35.8567 25.6059 35.8567 25.7224ZM12.9054 28.6917V26.0135C12.9054 25.8825 12.949 25.7661 13.0071 25.6642L13.2106 25.3731C12.76 25.2566 12.0187 25.1402 10.8995 25.0674C10.5361 25.0528 10.1727 25.0528 9.83839 25.082V26.9596C9.88199 27.1488 9.82385 27.3672 9.6785 27.5127L9.21337 27.993V28.7063L12.9054 28.6917ZM12.8036 19.6091V16.2614C12.542 16.1013 11.8879 15.8101 10.6378 15.781C10.6233 15.781 10.6233 15.781 10.6088 15.781C10.3035 15.781 9.9692 15.8829 9.64943 16.043L9.34418 16.3633C9.34418 16.4069 9.34418 16.4506 9.32965 16.4943H9.21337L9.19883 16.5088V19.5654C9.64943 19.5072 10.1436 19.4781 10.6814 19.4636C11.5681 19.4344 12.2658 19.4927 12.8036 19.6091ZM9.76571 14.4274V14.8058C10.0564 14.7185 10.3617 14.6748 10.6669 14.6748C11.6117 14.7039 12.2949 14.8495 12.7891 15.0387C12.6728 14.471 12.3239 14.2964 11.9315 14.1072C11.6844 13.9907 11.4227 13.8597 11.2338 13.6414C11.0448 13.4231 10.8995 13.1319 10.7832 12.8117C10.5942 13.2921 10.4489 13.4958 10.4198 13.5249C10.3762 13.5832 10.3326 13.6268 10.2744 13.6705C10.0855 13.8015 9.91106 14.078 9.76571 14.4274ZM4.21319 5.18468C4.70739 4.99546 5.36149 4.84991 6.17547 4.86446C7.12027 4.89357 7.80343 5.03913 8.29764 5.22835C8.18135 4.66069 7.8325 4.48602 7.44005 4.2968C7.19295 4.18036 6.93131 4.04936 6.74235 3.83103C6.55339 3.6127 6.40803 3.32159 6.29175 3.00137C6.10279 3.4817 5.95744 3.68547 5.92837 3.71459C5.87022 3.80192 5.79755 3.86014 5.6958 3.90381C4.92543 4.23858 4.47483 4.73346 4.21319 5.18468ZM3.87888 9.94431C4.34401 9.85698 4.92543 9.81331 5.65219 9.79875C6.85863 9.7842 7.71622 9.9152 8.32671 10.0899V6.43645C8.06507 6.27634 7.41098 5.98523 6.16093 5.95612C4.85275 5.91245 4.14051 6.39278 3.87888 6.62567V9.94431ZM3.5591 16.2323V20.5115C4.08237 20.366 4.76554 20.2641 5.65219 20.2641C6.6406 20.2641 7.41098 20.3805 7.99239 20.5407V16.2468C7.99239 16.1013 8.05053 15.9557 8.15228 15.8393L8.10868 15.7956C8.13775 15.7665 8.18135 15.7374 8.21042 15.7083C7.90518 15.5918 7.45458 15.4754 6.82956 15.388C5.76848 15.3298 4.751 15.388 3.96609 15.4754C3.70445 15.5481 3.48642 15.6209 3.312 15.7083L3.44282 15.8975C3.51549 15.9848 3.5591 16.1158 3.5591 16.2323ZM2.09102 38.9096C2.70151 38.7641 3.51549 38.6476 4.60565 38.6039C5.53591 38.5603 6.42257 38.6039 7.25109 38.7349C7.89065 38.8368 8.44299 38.9533 8.92266 39.1134V36.1877C8.5302 35.9403 7.81797 35.722 6.8877 35.5764C6.23361 35.4745 5.52138 35.4454 4.76553 35.4745C3.06489 35.5473 2.35266 35.8093 2.10556 35.9257L2.09102 38.9096ZM1.59682 43.6692C2.49801 43.3781 3.89341 43.1452 5.9429 43.2471C7.48365 43.3199 8.63195 43.48 9.40233 43.7275V40.6854C8.96626 40.3797 8.12321 40.1323 7.06213 39.9576C6.32082 39.8412 5.52138 39.7975 4.66379 39.8412C2.6579 39.9285 1.87299 40.2342 1.59682 40.3797V43.6692ZM2.77419 68.6463H8.66102V46.9151H2.77419V68.6463ZM9.86746 68.7773H13.9374V61.8199H9.86746V68.7773ZM39.1127 68.7773V61.8199H35.3335V68.7773H39.1127ZM46.235 46.9151H40.3191V68.6318H46.235V46.9151Z" fill="#D7000C"/>
</svg>
