<svg width="39" height="39" viewBox="0 0 39 39" fill="none" xmlns="http://www.w3.org/2000/svg">
<path fill-rule="evenodd" clip-rule="evenodd" d="M0 16.0235C0.166677 15.4717 0.578982 15.1962 1.09217 14.9927C4.88801 13.4856 8.67946 11.9697 12.4683 10.4433C12.9508 10.2486 13.3894 10.2433 13.8728 10.4407C16.1325 11.3609 18.4011 12.2592 20.6653 13.1689C21.3627 13.4496 21.6855 14.0128 21.5188 14.6278C21.3127 15.3822 20.5854 15.7112 19.788 15.3945C18.1098 14.7286 16.4352 14.0549 14.7588 13.3847C14.6456 13.3391 14.5298 13.2996 14.3702 13.2408C14.3702 13.4101 14.3702 13.5426 14.3702 13.6742C14.3702 19.7105 14.3737 25.7477 14.3614 31.784C14.3605 32.1183 14.4719 32.2481 14.7719 32.3665C17.7019 33.5227 20.624 34.6983 23.5488 35.8676C23.6628 35.9132 23.7786 35.9562 23.9506 36.0229C23.9506 35.8457 23.9506 35.7036 23.9506 35.5623C23.9506 31.6077 23.9506 27.654 23.9514 23.7011C23.9514 23.5388 23.9444 23.3739 23.9734 23.216C24.0795 22.6388 24.5944 22.2256 25.1734 22.2387C25.7673 22.2519 26.263 22.7037 26.3323 23.3055C26.3507 23.4537 26.3437 23.6046 26.3437 23.7546C26.3446 27.6952 26.3446 31.6367 26.3446 35.579C26.3446 35.7123 26.3446 35.8466 26.3446 36.015C26.4849 35.9659 26.5893 35.9352 26.6911 35.8939C29.6623 34.707 32.6318 33.5157 35.6074 32.3393C35.8627 32.2385 35.9311 32.1086 35.9302 31.8472C35.9223 27.5075 35.9276 23.166 35.9214 18.8263C35.9206 18.2482 36.1065 17.7937 36.6487 17.5507C37.3847 17.22 38.2181 17.7157 38.3084 18.5271C38.3233 18.6622 38.3181 18.8008 38.3181 18.9385C38.3181 23.5151 38.3181 28.0935 38.3181 32.6701C38.3181 33.6043 38.1172 33.9035 37.2522 34.25C33.3573 35.808 29.4605 37.3651 25.5656 38.9239C25.5226 38.9415 25.4866 38.9748 25.4471 39.0003C25.2471 39.0003 25.048 39.0003 24.848 39.0003C24.8208 38.9783 24.7971 38.9459 24.7664 38.9336C21.0012 37.4291 17.237 35.9229 13.4666 34.4316C13.2955 34.364 13.049 34.3649 12.8771 34.4324C10.2629 35.4632 7.65309 36.508 5.04416 37.5554C3.859 38.0309 2.67998 38.5187 1.49746 39.0003C1.32289 39.0003 1.14831 39.0003 0.972865 39.0003C0.505293 38.8573 0.205275 38.5318 0 38.1028C0 30.7436 0 23.3835 0 16.0235ZM2.39576 36.0159C2.54313 35.9615 2.65805 35.9229 2.77122 35.8773C5.71876 34.7 8.66543 33.5175 11.6174 32.3499C11.8946 32.2402 11.984 32.1121 11.9832 31.813C11.9726 25.7521 11.9753 19.6921 11.9753 13.6303C11.9753 13.5119 11.9639 13.3935 11.9569 13.2426C11.8086 13.2979 11.6937 13.3391 11.5805 13.3847C8.64437 14.5593 5.71174 15.7392 2.77034 16.9007C2.47997 17.0156 2.38611 17.1525 2.38698 17.463C2.39751 23.5125 2.39488 29.5602 2.39488 35.6088C2.39576 35.7316 2.39576 35.8545 2.39576 36.0159Z" fill="#D7000C"/>
<path fill-rule="evenodd" clip-rule="evenodd" d="M30.6854 0.682029C31.4539 0.877655 32.2452 1.011 32.9873 1.28031C36.1305 2.42336 38.3692 5.70514 38.3105 9.0527C38.2876 10.4431 37.7762 11.7055 37.1621 12.924C35.7226 15.7821 33.797 18.3059 31.753 20.7473C31.4574 21.1008 31.1644 21.4596 30.853 21.7982C30.317 22.3816 29.5398 22.3939 29.0196 21.7956C26.6361 19.0533 24.3824 16.2145 22.7262 12.9547C22.1955 11.909 21.7375 10.8291 21.6147 9.64572C21.4112 7.67455 21.9463 5.88409 23.0701 4.284C24.4974 2.25054 26.4685 1.07328 28.9388 0.7487C29.0239 0.738173 29.1038 0.703961 29.1871 0.681152C29.6871 0.68203 30.1863 0.682029 30.6854 0.682029ZM29.9398 19.2226C30.467 18.5577 30.9697 17.9427 31.453 17.312C32.8961 15.4312 34.2585 13.4977 35.2708 11.3423C35.6375 10.5607 35.9472 9.75889 35.9182 8.87374C35.8033 5.26037 32.5785 2.60846 28.9467 3.16463C25.3562 3.71467 22.7499 7.79824 24.5877 11.3599C26.0457 14.1837 27.9002 16.7119 29.9398 19.2226Z" fill="#D7000C"/>
<path fill-rule="evenodd" clip-rule="evenodd" d="M29.9435 12.6527C27.989 12.6597 26.3442 11.0166 26.3477 9.06038C26.3512 7.10061 27.9969 5.46104 29.9479 5.4742C31.8989 5.48736 33.5077 7.09359 33.5253 9.04722C33.5437 10.9956 31.9033 12.6457 29.9435 12.6527ZM31.1313 9.05862C31.1286 8.40771 30.5909 7.87083 29.9409 7.8682C29.275 7.86645 28.7294 8.41911 28.7417 9.08582C28.7539 9.73498 29.3005 10.2657 29.9505 10.2578C30.5997 10.2508 31.1348 9.70778 31.1313 9.05862Z" fill="#D7000C"/>
</svg>
