<svg width="40" height="54" viewBox="0 0 40 54" fill="none" xmlns="http://www.w3.org/2000/svg">
<path d="M25.6133 0C25.7863 0 25.9593 0 26.1333 0C26.5463 0.31 26.6383 0.735 26.6273 1.227C26.6063 2.193 26.6213 3.161 26.6213 4.107C27.3383 4.394 27.4483 4.553 27.4513 5.291C27.4553 6.289 27.4523 7.286 27.4523 8.325C27.6583 8.325 27.7933 8.324 27.9283 8.325C28.8943 8.336 29.1173 8.561 29.1193 9.528C29.1203 10.48 29.1193 11.433 29.1193 12.385C29.1193 12.688 29.1193 12.991 29.1193 13.321C29.6723 13.321 30.1383 13.314 30.6033 13.323C31.3223 13.337 31.6103 13.62 31.6173 14.34C31.6283 15.326 31.6203 16.314 31.6203 17.3C31.6203 17.902 31.6203 18.503 31.6203 19.125C31.8133 19.137 31.9473 19.151 32.0823 19.154C33.0763 19.173 33.2863 19.387 33.2863 20.4C33.2863 21.819 33.2863 23.239 33.2863 24.659C33.2863 25.035 33.2863 25.412 33.2863 25.792C33.4533 25.808 33.5563 25.823 33.6583 25.825C34.7803 25.856 34.9513 26.028 34.9513 27.132C34.9523 29.002 34.9513 30.871 34.9533 32.741C34.9533 32.925 34.9693 33.108 34.9793 33.334C35.1793 33.334 35.3323 33.333 35.4853 33.335C36.3863 33.346 36.6143 33.574 36.6173 34.479C36.6183 35.311 36.5983 36.142 36.6243 36.972C36.6433 37.607 36.5183 38.116 35.8273 38.246C35.8273 39.123 35.8273 39.961 35.8273 40.786C35.9023 40.806 35.9343 40.822 35.9683 40.823C36.3843 40.826 36.7983 40.827 37.2143 40.83C38.0163 40.837 38.2763 41.09 38.2813 41.882C38.2863 42.625 38.2823 43.367 38.2823 44.13C38.7433 44.206 39.0653 44.433 39.0913 44.894C39.1193 45.419 38.7353 45.633 38.2813 45.765C38.2813 46.563 38.2933 47.342 38.2783 48.12C38.2653 48.748 37.9713 49.026 37.3413 49.047C37.1083 49.055 36.8743 49.049 36.6433 49.049C36.6433 49.955 36.6433 50.779 36.6433 51.653C36.8393 51.653 37.0073 51.656 37.1763 51.652C37.6113 51.639 38.0153 51.684 38.2063 52.163C38.4023 52.653 38.0883 52.933 37.7713 53.212C25.9233 53.212 14.0773 53.212 2.22934 53.212C1.93334 52.943 1.61334 52.684 1.77934 52.213C2.06134 51.416 2.78934 51.745 3.35434 51.617C3.35434 50.766 3.35434 49.929 3.35434 49.065C3.20834 49.059 3.08934 49.05 2.97134 49.049C1.90734 49.033 1.71834 48.84 1.71834 47.756C1.71834 47.085 1.71834 46.415 1.71834 45.736C1.23734 45.641 0.913344 45.409 0.906344 44.943C0.899344 44.433 1.28634 44.218 1.71834 44.104C1.71834 43.299 1.71034 42.538 1.72234 41.776C1.73334 41.113 2.01634 40.84 2.68334 40.831C3.17934 40.823 3.67634 40.829 4.19434 40.829C4.19434 39.935 4.19434 39.11 4.19434 38.26C3.75234 38.137 3.39734 37.902 3.39134 37.386C3.37934 36.314 3.37034 35.24 3.39434 34.166C3.40634 33.621 3.70334 33.364 4.25734 33.338C4.50834 33.326 4.76234 33.336 5.04934 33.336C5.04934 33.066 5.04934 32.878 5.04934 32.689C5.04934 30.75 5.04534 28.811 5.05134 26.872C5.05334 26.109 5.32134 25.85 6.08334 25.827C6.28134 25.821 6.48034 25.809 6.71534 25.799C6.71534 25.556 6.71534 25.368 6.71534 25.179C6.71534 23.586 6.71434 21.993 6.71534 20.401C6.71534 19.388 6.92534 19.173 7.91834 19.155C8.05434 19.153 8.18834 19.138 8.38034 19.126C8.38034 18.919 8.38034 18.734 8.38034 18.548C8.38034 17.146 8.37434 15.743 8.38434 14.341C8.38834 13.621 8.67934 13.338 9.39734 13.324C9.87634 13.315 10.3563 13.322 10.8563 13.322C10.8673 13.123 10.8813 12.989 10.8813 12.854C10.8823 11.694 10.8753 10.534 10.8843 9.374C10.8903 8.613 11.1693 8.341 11.9173 8.327C12.1173 8.324 12.3163 8.327 12.5483 8.327C12.5483 7.316 12.5633 6.382 12.5433 5.45C12.5293 4.811 12.6223 4.267 13.3803 4.118C13.3803 3.132 13.3943 2.18 13.3743 1.23C13.3623 0.738 13.4553 0.313 13.8673 0.00300002C14.0413 0.00300002 14.2143 0.00300002 14.3873 0.00300002C14.8233 0.232 14.9553 0.597 14.9463 1.076C14.9223 2.091 14.9383 3.106 14.9383 4.139C15.1363 4.151 15.2723 4.165 15.4083 4.164C15.5573 4.164 15.7073 4.148 15.8873 4.136C15.8873 3.853 15.8733 3.611 15.8913 3.371C15.9283 2.839 16.2383 2.508 16.6733 2.511C17.1103 2.514 17.4093 2.85 17.4373 3.382C17.4503 3.639 17.4393 3.897 17.4393 4.154C17.5013 4.165 17.5623 4.176 17.6243 4.187C17.6973 4.066 17.7533 3.93 17.8473 3.827C18.1583 3.488 18.4483 3.115 18.8143 2.845C19.0473 2.672 19.1903 2.525 19.2953 2.245C19.3833 2.016 19.6723 1.751 19.9013 1.72C20.1303 1.688 20.5853 1.894 20.6133 2.054C20.7163 2.623 21.1843 2.77 21.5293 3.078C21.7923 3.313 21.9763 3.637 22.1983 3.919C22.2693 4.01 22.3473 4.097 22.4223 4.185C22.4703 4.169 22.5173 4.153 22.5643 4.137C22.5643 3.868 22.5513 3.598 22.5683 3.331C22.5993 2.837 22.9073 2.516 23.3283 2.511C23.7423 2.507 24.0613 2.824 24.1043 3.318C24.1273 3.586 24.1083 3.858 24.1083 4.144C24.4583 4.144 24.7273 4.144 25.0633 4.144C25.0633 3.107 25.0783 2.092 25.0563 1.078C25.0473 0.596 25.1783 0.229 25.6133 0ZM22.5603 51.631C22.5603 51.41 22.5603 51.207 22.5603 51.004C22.5603 47.838 22.5303 44.671 22.5793 41.505C22.5933 40.577 22.3613 39.824 21.8503 39.054C21.4253 38.413 20.9763 38.241 20.2313 38.186C19.0993 38.103 18.3983 38.459 17.8923 39.462C17.6383 39.965 17.4273 40.415 17.4313 41.001C17.4563 44.341 17.4443 47.681 17.4443 51.02C17.4443 51.22 17.4443 51.421 17.4443 51.631C19.1783 51.631 20.8353 51.631 22.5603 51.631ZM4.98934 34.916C4.98934 35.52 4.98934 36.077 4.98934 36.622C15.0323 36.622 25.0303 36.622 35.0243 36.622C35.0243 36.031 35.0243 35.484 35.0243 34.916C25.0043 34.916 15.0163 34.916 4.98934 34.916ZM24.1473 47.446C28.3493 47.446 32.5243 47.446 36.6923 47.446C36.6923 46.854 36.6923 46.307 36.6923 45.752C36.0593 45.63 35.1123 45.971 35.0963 44.951C35.0783 43.877 36.0673 44.258 36.6873 44.126C36.6873 43.542 36.6873 42.983 36.6873 42.422C32.4883 42.422 28.3253 42.422 24.1663 42.422C24.1663 43.015 24.1663 43.572 24.1663 44.16C24.4023 44.16 24.5913 44.16 24.7803 44.16C27.2033 44.16 29.6273 44.16 32.0503 44.16C32.2053 44.16 32.3623 44.154 32.5173 44.167C32.9623 44.204 33.2313 44.463 33.2573 44.893C33.2843 45.331 33.0263 45.605 32.5973 45.69C32.4293 45.724 32.2523 45.717 32.0793 45.717C29.6223 45.718 27.1643 45.718 24.7063 45.718C24.5223 45.718 24.3383 45.718 24.1473 45.718C24.1473 46.337 24.1473 46.884 24.1473 47.446ZM27.5293 9.919C26.1063 9.919 24.7173 9.919 23.3333 9.919C23.3333 11.07 23.3333 12.184 23.3333 13.286C23.7053 13.318 24.0603 13.277 24.3483 13.396C24.5783 13.492 24.8303 13.759 24.8843 13.993C24.9323 14.204 24.7733 14.641 24.6183 14.688C23.9973 14.874 24.1183 15.327 24.1173 15.755C24.1173 16.378 24.1173 17.001 24.1173 17.624C24.1173 18.119 24.1173 18.613 24.1173 19.123C24.7403 19.123 25.2863 19.123 25.8983 19.123C25.8983 18.562 25.8933 18.031 25.9003 17.498C25.9053 17.091 26.0813 16.8 26.5003 16.702C27.0013 16.584 27.4113 16.922 27.4423 17.522C27.4703 18.049 27.4483 18.58 27.4483 19.124C28.3513 19.124 29.1743 19.124 30.0263 19.124C30.0263 17.707 30.0263 16.317 30.0263 14.877C29.8213 14.877 29.6533 14.877 29.4833 14.877C28.8433 14.877 28.2033 14.88 27.5623 14.873C27.1313 14.868 26.8223 14.678 26.7553 14.229C26.6903 13.79 26.8923 13.499 27.3183 13.366C27.3983 13.341 27.4703 13.294 27.5283 13.266C27.5293 12.141 27.5293 11.039 27.5293 9.919ZM14.1773 25.824C14.1773 24.09 14.1773 22.426 14.1773 20.756C12.1953 20.756 10.2523 20.756 8.30534 20.756C8.30534 22.453 8.30534 24.106 8.30534 25.785C8.89434 25.785 9.44934 25.785 10.0503 25.785C10.0503 24.969 10.0363 24.193 10.0543 23.419C10.0673 22.841 10.3713 22.514 10.8393 22.515C11.3183 22.516 11.5943 22.834 11.6033 23.425C11.6153 24.099 11.6153 24.774 11.6043 25.448C11.6003 25.702 11.6713 25.832 11.9523 25.829C12.6763 25.817 13.4013 25.824 14.1773 25.824ZM25.8153 25.825C26.5513 25.825 27.2263 25.806 27.8983 25.832C28.2763 25.846 28.4203 25.739 28.4043 25.341C28.3763 24.651 28.3903 23.958 28.4073 23.266C28.4183 22.822 28.6703 22.552 29.1133 22.523C29.5563 22.493 29.8383 22.728 29.9153 23.164C29.9543 23.383 29.9513 23.611 29.9533 23.834C29.9573 24.484 29.9553 25.135 29.9553 25.79C30.5773 25.79 31.1233 25.79 31.6903 25.79C31.6903 24.092 31.6903 22.427 31.6903 20.755C29.7103 20.755 27.7693 20.755 25.8153 20.755C25.8153 22.451 25.8153 24.103 25.8153 25.825ZM24.1963 25.796C24.2083 25.619 24.2253 25.468 24.2263 25.317C24.2273 23.95 24.2083 22.583 24.2373 21.217C24.2463 20.785 24.0903 20.702 23.6993 20.703C21.2423 20.719 18.7863 20.72 16.3293 20.703C15.9143 20.701 15.7563 20.793 15.7663 21.243C15.7943 22.592 15.7753 23.942 15.7783 25.291C15.7793 25.455 15.8003 25.619 15.8123 25.787C16.4143 25.787 16.9573 25.787 17.5533 25.787C17.5533 24.732 17.5463 23.715 17.5573 22.698C17.5643 21.929 17.8253 21.665 18.5873 21.656C19.4353 21.646 20.2823 21.654 21.1303 21.654C22.2733 21.654 22.4483 21.832 22.4493 22.984C22.4493 23.913 22.4493 24.84 22.4493 25.797C23.0653 25.796 23.6113 25.796 24.1963 25.796ZM15.8553 42.434C11.6523 42.434 7.47634 42.434 3.31434 42.434C3.31434 43.026 3.31434 43.572 3.31434 44.122C7.51334 44.122 11.6773 44.122 15.8553 44.122C15.8553 43.54 15.8553 42.993 15.8553 42.434ZM15.8553 45.756C11.6553 45.756 7.48434 45.756 3.30634 45.756C3.30634 46.341 3.30634 46.887 3.30634 47.45C7.50534 47.45 11.6763 47.45 15.8553 47.45C15.8553 46.866 15.8553 46.32 15.8553 45.756ZM9.96534 19.123C10.8473 19.123 11.6693 19.123 12.5523 19.123C12.5523 18.598 12.5393 18.102 12.5553 17.605C12.5733 17.027 12.8673 16.683 13.3193 16.671C13.7963 16.659 14.0943 17.012 14.1063 17.621C14.1163 18.117 14.1083 18.613 14.1083 19.107C14.7423 19.107 15.2993 19.107 15.8503 19.107C15.8503 17.685 15.8503 16.31 15.8503 14.915C13.8733 14.915 11.9313 14.915 9.96534 14.915C9.96534 16.326 9.96534 17.701 9.96534 19.123ZM19.2223 19.126C19.2223 18.598 19.2033 18.131 19.2313 17.666C19.2453 17.434 19.2683 17.126 19.4153 16.994C19.6043 16.825 19.9243 16.714 20.1833 16.726C20.5533 16.741 20.7483 17.048 20.7613 17.412C20.7813 17.976 20.7663 18.54 20.7663 19.126C21.4053 19.126 21.9513 19.126 22.5233 19.126C22.5233 17.706 22.5233 16.314 22.5233 14.902C20.8293 14.902 19.1733 14.902 17.4813 14.902C17.4813 16.318 17.4813 17.71 17.4813 19.126C18.0573 19.126 18.6043 19.126 19.2223 19.126ZM14.9413 27.42C14.9413 28.213 14.9333 28.97 14.9533 29.727C14.9553 29.818 15.0993 29.978 15.1823 29.983C15.6763 30.007 16.1733 29.995 16.7243 29.995C16.7243 29.668 16.7053 29.41 16.7273 29.155C16.7753 28.618 17.0213 28.349 17.5473 28.344C19.1913 28.327 20.8343 28.332 22.4783 28.343C22.9783 28.345 23.2333 28.646 23.2743 29.125C23.2953 29.396 23.2773 29.669 23.2773 29.996C23.8313 29.996 24.3123 30.008 24.7923 29.985C24.8853 29.981 25.0463 29.839 25.0483 29.756C25.0683 28.985 25.0603 28.211 25.0603 27.42C21.6593 27.42 18.3293 27.42 14.9413 27.42ZM16.6923 9.927C15.2453 9.927 13.8603 9.927 12.4733 9.927C12.4733 11.071 12.4733 12.169 12.4733 13.286C13.8933 13.286 15.2803 13.286 16.6923 13.286C16.6923 12.153 16.6923 11.054 16.6923 9.927ZM18.3123 33.289C19.4613 33.289 20.5733 33.289 21.6943 33.289C21.6943 32.144 21.6943 31.044 21.6943 29.935C20.5463 29.935 19.4333 29.935 18.3123 29.935C18.3123 31.08 18.3123 32.179 18.3123 33.289ZM19.1973 13.294C19.2813 12.624 19.0123 11.721 19.9773 11.702C21.0253 11.681 20.6863 12.665 20.8193 13.278C21.1273 13.278 21.4073 13.278 21.6783 13.278C21.6783 12.126 21.6783 11.017 21.6783 9.913C20.5303 9.913 19.4323 9.913 18.3113 9.913C18.3113 11.056 18.3113 12.168 18.3113 13.294C18.6183 13.294 18.8893 13.294 19.1973 13.294ZM22.4753 8.28C23.6413 8.28 24.7493 8.28 25.8643 8.28C25.8643 7.416 25.8643 6.595 25.8643 5.753C24.7213 5.753 23.6113 5.753 22.4753 5.753C22.4753 6.607 22.4753 7.43 22.4753 8.28ZM17.5223 5.758C16.3713 5.758 15.2613 5.758 14.1523 5.758C14.1523 6.629 14.1523 7.462 14.1523 8.296C15.2963 8.296 16.3943 8.296 17.5223 8.296C17.5223 7.448 17.5223 6.626 17.5223 5.758ZM33.3543 29.968C33.3543 29.077 33.3543 28.254 33.3543 27.414C32.2143 27.414 31.1153 27.414 29.9933 27.414C29.9933 28.28 29.9933 29.115 29.9933 29.968C31.1313 29.968 32.2313 29.968 33.3543 29.968ZM6.62834 29.957C7.75434 29.957 8.86834 29.957 10.0143 29.957C10.0143 29.108 10.0143 28.271 10.0143 27.434C8.86834 27.434 7.75734 27.434 6.62834 27.434C6.62834 28.277 6.62834 29.07 6.62834 29.957ZM20.8703 8.296C20.8703 7.132 20.8923 6.01 20.8593 4.889C20.8443 4.393 20.4633 4.076 20.0183 4.065C19.5793 4.055 19.1653 4.375 19.1513 4.855C19.1163 5.991 19.1393 7.13 19.1393 8.295C19.7153 8.296 20.2623 8.296 20.8703 8.296ZM26.7053 49.09C25.8163 49.09 24.9803 49.09 24.1473 49.09C24.1473 49.954 24.1473 50.778 24.1473 51.617C25.0113 51.617 25.8473 51.617 26.7053 51.617C26.7053 50.763 26.7053 49.942 26.7053 49.09ZM15.8443 51.626C15.8443 50.751 15.8443 49.917 15.8443 49.071C14.9813 49.071 14.1583 49.071 13.3053 49.071C13.3053 49.93 13.3053 50.766 13.3053 51.626C14.1573 51.626 14.9793 51.626 15.8443 51.626ZM11.6883 51.629C11.6883 50.749 11.6883 49.927 11.6883 49.079C10.8273 49.079 9.99434 49.079 9.14534 49.079C9.14534 49.946 9.14534 50.78 9.14534 51.629C10.0043 51.629 10.8273 51.629 11.6883 51.629ZM7.52934 49.089C6.64234 49.089 5.80734 49.089 4.97134 49.089C4.97134 49.953 4.97134 50.776 4.97134 51.62C5.83434 51.62 6.67034 51.62 7.52934 51.62C7.52934 50.767 7.52934 49.943 7.52934 49.089ZM28.3273 49.074C28.3273 49.95 28.3273 50.784 28.3273 51.607C29.2003 51.607 30.0343 51.607 30.8633 51.607C30.8633 50.742 30.8633 49.919 30.8633 49.074C30.0113 49.074 29.1893 49.074 28.3273 49.074ZM32.4943 49.069C32.4943 49.956 32.4943 50.792 32.4943 51.624C33.3593 51.624 34.1823 51.624 35.0263 51.624C35.0263 50.762 35.0263 49.927 35.0263 49.069C34.1713 49.069 33.3483 49.069 32.4943 49.069ZM31.6453 40.793C32.5333 40.793 33.3553 40.793 34.1813 40.793C34.1813 39.923 34.1813 39.089 34.1813 38.257C33.3133 38.257 32.4913 38.257 31.6453 38.257C31.6453 39.115 31.6453 39.938 31.6453 40.793ZM27.4843 38.252C27.4843 39.123 27.4843 39.946 27.4843 40.788C28.3503 40.788 29.1853 40.788 30.0303 40.788C30.0303 39.924 30.0303 39.101 30.0303 38.252C29.1773 38.252 28.3543 38.252 27.4843 38.252ZM9.96934 40.793C10.8583 40.793 11.6823 40.793 12.5043 40.793C12.5043 39.922 12.5043 39.086 12.5043 38.26C11.6343 38.26 10.8123 38.26 9.96934 38.26C9.96934 39.119 9.96934 39.941 9.96934 40.793ZM5.81434 38.251C5.81434 39.141 5.81434 39.963 5.81434 40.801C6.67434 40.801 7.49734 40.801 8.34634 40.801C8.34634 39.938 8.34634 39.103 8.34634 38.251C7.48734 38.251 6.66434 38.251 5.81434 38.251ZM15.9363 40.808C15.5983 39.73 16.3763 39.077 16.8243 38.266C15.8823 38.266 15.0163 38.266 14.1593 38.266C14.1593 39.139 14.1593 39.971 14.1593 40.808C14.7373 40.808 15.2683 40.808 15.9363 40.808ZM25.8583 40.803C25.8583 39.945 25.8583 39.111 25.8583 38.265C24.9663 38.265 24.1043 38.265 23.1383 38.265C23.7193 39.069 24.3313 39.779 24.0963 40.803C24.7343 40.803 25.2783 40.803 25.8583 40.803ZM20.8893 23.253C20.2713 23.253 19.7143 23.253 19.1423 23.253C19.1423 24.117 19.1423 24.939 19.1423 25.822C19.6513 25.822 20.1313 25.838 20.6103 25.809C20.7083 25.803 20.8743 25.637 20.8773 25.539C20.8983 24.785 20.8893 24.03 20.8893 23.253ZM33.3503 33.313C33.3503 32.708 33.3503 32.151 33.3503 31.59C32.4843 31.59 31.6613 31.59 30.8303 31.59C30.8303 32.181 30.8303 32.737 30.8303 33.313C31.6843 33.313 32.4923 33.313 33.3503 33.313ZM9.18934 31.59C8.31134 31.59 7.48934 31.59 6.65134 31.59C6.65134 32.18 6.65134 32.736 6.65134 33.301C7.51734 33.301 8.33934 33.301 9.18934 33.301C9.18934 32.723 9.18934 32.177 9.18934 31.59ZM29.2053 31.603C28.3183 31.603 27.4843 31.603 26.6593 31.603C26.6593 32.194 26.6593 32.738 26.6593 33.286C27.5303 33.286 28.3633 33.286 29.2053 33.286C29.2053 32.708 29.2053 32.176 29.2053 31.603ZM13.3473 31.606C12.4763 31.606 11.6443 31.606 10.8143 31.606C10.8143 32.197 10.8143 32.74 10.8143 33.304C11.6733 33.304 12.4953 33.304 13.3473 33.304C13.3473 32.732 13.3473 32.187 13.3473 31.606ZM26.6613 27.42C26.6613 28.283 26.6613 29.116 26.6613 29.965C27.2453 29.965 27.7893 29.965 28.3963 29.965C28.3963 29.594 28.3963 29.253 28.3963 28.912C28.3963 27.257 28.3963 27.257 26.6613 27.42ZM13.3543 27.385C12.8453 27.385 12.3953 27.366 11.9503 27.398C11.8313 27.407 11.6293 27.566 11.6253 27.662C11.5983 28.417 11.6103 29.173 11.6103 29.962C12.2213 29.962 12.7793 29.962 13.3543 29.962C13.3543 29.101 13.3543 28.278 13.3543 27.385ZM25.0073 31.59C24.4323 31.59 23.8893 31.59 23.3303 31.59C23.3303 32.177 23.3303 32.732 23.3303 33.279C25.0273 33.512 25.1583 33.395 25.0583 31.78C25.0543 31.732 25.0323 31.682 25.0073 31.59ZM16.6893 31.592C16.0833 31.592 15.5403 31.592 14.9413 31.592C14.9413 32.105 14.9293 32.584 14.9533 33.062C14.9573 33.155 15.0973 33.313 15.1813 33.317C15.6743 33.341 16.1703 33.329 16.6903 33.329C16.6893 32.719 16.6893 32.175 16.6893 31.592Z" fill="#D7000C"/>
<path fill-rule="evenodd" clip-rule="evenodd" d="M22.5607 51.6309C20.8357 51.6309 19.1787 51.6309 17.4447 51.6309C17.4447 51.4209 17.4447 51.2199 17.4447 51.0199C17.4447 47.6809 17.4577 44.3409 17.4317 41.0009C17.4277 40.4149 17.6387 39.9649 17.8927 39.4619C18.3987 38.4589 19.0997 38.1029 20.2317 38.1859C20.9767 38.2409 21.4257 38.4139 21.8507 39.0539C22.3617 39.8249 22.5927 40.5769 22.5797 41.5049C22.5307 44.6709 22.5607 47.8379 22.5607 51.0039C22.5607 51.2079 22.5607 51.4109 22.5607 51.6309Z" fill="white"/>
<path fill-rule="evenodd" clip-rule="evenodd" d="M4.98926 34.916C15.0153 34.916 25.0043 34.916 35.0243 34.916C35.0243 35.484 35.0243 36.031 35.0243 36.622C25.0303 36.622 15.0323 36.622 4.98926 36.622C4.98926 36.077 4.98926 35.519 4.98926 34.916Z" fill="white"/>
<path fill-rule="evenodd" clip-rule="evenodd" d="M24.1475 47.4459C24.1475 46.8839 24.1475 46.3379 24.1475 45.7169C24.3375 45.7169 24.5225 45.7169 24.7065 45.7169C27.1645 45.7169 29.6225 45.7169 32.0795 45.7159C32.2525 45.7159 32.4295 45.7229 32.5975 45.6889C33.0265 45.6039 33.2855 45.3299 33.2575 44.8919C33.2315 44.4619 32.9625 44.2039 32.5175 44.1659C32.3635 44.1529 32.2055 44.1589 32.0505 44.1589C29.6275 44.1589 27.2035 44.1589 24.7805 44.1589C24.5915 44.1589 24.4025 44.1589 24.1665 44.1589C24.1665 43.5709 24.1665 43.0129 24.1665 42.4209C28.3255 42.4209 32.4885 42.4209 36.6875 42.4209C36.6875 42.9829 36.6875 43.5409 36.6875 44.1249C36.0675 44.2569 35.0795 43.8759 35.0965 44.9499C35.1125 45.9699 36.0595 45.6289 36.6925 45.7509C36.6925 46.3069 36.6925 46.8539 36.6925 47.4449C32.5245 47.4459 28.3505 47.4459 24.1475 47.4459Z" fill="white"/>
<path fill-rule="evenodd" clip-rule="evenodd" d="M27.529 9.91895C27.529 11.0389 27.529 12.1409 27.529 13.2679C27.471 13.2959 27.399 13.3429 27.319 13.3679C26.892 13.5009 26.69 13.7909 26.756 14.2309C26.822 14.6789 27.132 14.8699 27.563 14.8749C28.204 14.8819 28.844 14.8779 29.484 14.8789C29.654 14.8789 29.822 14.8789 30.027 14.8789C30.027 16.3189 30.027 17.7089 30.027 19.1259C29.174 19.1259 28.352 19.1259 27.449 19.1259C27.449 18.5819 27.471 18.0509 27.443 17.5239C27.412 16.9239 27.002 16.5859 26.501 16.7039C26.082 16.8029 25.906 17.0929 25.901 17.4999C25.894 18.0319 25.899 18.5639 25.899 19.1249C25.287 19.1249 24.741 19.1249 24.118 19.1249C24.118 18.6149 24.118 18.1209 24.118 17.6259C24.118 17.0029 24.118 16.3799 24.118 15.7569C24.119 15.3289 23.998 14.8759 24.619 14.6899C24.773 14.6439 24.932 14.2059 24.885 13.9949C24.831 13.7609 24.579 13.4939 24.349 13.3979C24.061 13.2789 23.706 13.3199 23.334 13.2879C23.334 12.1849 23.334 11.0719 23.334 9.92095C24.718 9.91895 26.106 9.91895 27.529 9.91895Z" fill="white"/>
<path fill-rule="evenodd" clip-rule="evenodd" d="M14.1777 25.8239C13.4027 25.8239 12.6767 25.8169 11.9517 25.8279C11.6717 25.8309 11.5997 25.7009 11.6037 25.4469C11.6147 24.7729 11.6147 24.0979 11.6027 23.4239C11.5937 22.8329 11.3177 22.5149 10.8387 22.5139C10.3707 22.5129 10.0667 22.8399 10.0537 23.4179C10.0357 24.1919 10.0497 24.9679 10.0497 25.7839C9.44769 25.7839 8.89369 25.7839 8.30469 25.7839C8.30469 24.1049 8.30469 22.4519 8.30469 20.7549C10.2517 20.7549 12.1947 20.7549 14.1767 20.7549C14.1777 22.4259 14.1777 24.0899 14.1777 25.8239Z" fill="white"/>
<path fill-rule="evenodd" clip-rule="evenodd" d="M25.8154 25.8249C25.8154 24.1029 25.8154 22.4509 25.8154 20.7549C27.7694 20.7549 29.7104 20.7549 31.6904 20.7549C31.6904 22.4269 31.6904 24.0919 31.6904 25.7899C31.1234 25.7899 30.5774 25.7899 29.9554 25.7899C29.9554 25.1349 29.9574 24.4839 29.9534 23.8339C29.9514 23.6099 29.9544 23.3829 29.9154 23.1639C29.8384 22.7269 29.5574 22.4929 29.1134 22.5229C28.6704 22.5519 28.4184 22.8219 28.4074 23.2659C28.3904 23.9569 28.3764 24.6499 28.4044 25.3409C28.4214 25.7389 28.2764 25.8459 27.8984 25.8319C27.2274 25.8069 26.5524 25.8249 25.8154 25.8249Z" fill="white"/>
<path fill-rule="evenodd" clip-rule="evenodd" d="M24.1961 25.7962C23.6111 25.7962 23.0651 25.7962 22.4491 25.7962C22.4491 24.8392 22.4491 23.9112 22.4491 22.9832C22.4481 21.8312 22.2721 21.6532 21.1301 21.6532C20.2821 21.6532 19.4351 21.6452 18.5871 21.6552C17.8241 21.6642 17.5641 21.9292 17.5571 22.6972C17.5461 23.7152 17.5531 24.7312 17.5531 25.7862C16.9561 25.7862 16.4131 25.7862 15.8121 25.7862C15.8001 25.6182 15.7791 25.4542 15.7781 25.2902C15.7751 23.9402 15.7951 22.5902 15.7661 21.2422C15.7561 20.7922 15.9141 20.7002 16.3291 20.7022C18.7861 20.7202 21.2421 20.7182 23.6991 20.7022C24.0901 20.7012 24.2461 20.7842 24.2371 21.2162C24.2091 22.5812 24.2271 23.9482 24.2261 25.3162C24.2261 25.4682 24.2081 25.6192 24.1961 25.7962Z" fill="white"/>
<path fill-rule="evenodd" clip-rule="evenodd" d="M15.8555 42.4341C15.8555 42.9931 15.8555 43.5391 15.8555 44.1221C11.6775 44.1221 7.51345 44.1221 3.31445 44.1221C3.31445 43.5711 3.31445 43.0251 3.31445 42.4341C7.47745 42.4341 11.6525 42.4341 15.8555 42.4341Z" fill="white"/>
<path fill-rule="evenodd" clip-rule="evenodd" d="M15.8556 45.7559C15.8556 46.3189 15.8556 46.8649 15.8556 47.4499C11.6766 47.4499 7.50564 47.4499 3.30664 47.4499C3.30664 46.8869 3.30664 46.3409 3.30664 45.7559C7.48464 45.7559 11.6556 45.7559 15.8556 45.7559Z" fill="white"/>
<path fill-rule="evenodd" clip-rule="evenodd" d="M9.96582 19.123C9.96582 17.702 9.96582 16.327 9.96582 14.915C11.9318 14.915 13.8738 14.915 15.8508 14.915C15.8508 16.31 15.8508 17.686 15.8508 19.107C15.2998 19.107 14.7428 19.107 14.1088 19.107C14.1088 18.612 14.1168 18.116 14.1068 17.621C14.0948 17.012 13.7958 16.659 13.3198 16.671C12.8678 16.683 12.5738 17.027 12.5558 17.605C12.5398 18.101 12.5528 18.598 12.5528 19.123C11.6698 19.123 10.8478 19.123 9.96582 19.123Z" fill="white"/>
<path fill-rule="evenodd" clip-rule="evenodd" d="M19.2225 19.1259C18.6045 19.1259 18.0575 19.1259 17.4805 19.1259C17.4805 17.7099 17.4805 16.3179 17.4805 14.9019C19.1725 14.9019 20.8285 14.9019 22.5225 14.9019C22.5225 16.3139 22.5225 17.7049 22.5225 19.1259C21.9505 19.1259 21.4045 19.1259 20.7655 19.1259C20.7655 18.5399 20.7805 17.9759 20.7605 17.4119C20.7475 17.0479 20.5525 16.7409 20.1825 16.7259C19.9235 16.7139 19.6045 16.8249 19.4145 16.9939C19.2685 17.1259 19.2445 17.4329 19.2305 17.6659C19.2035 18.1309 19.2225 18.5979 19.2225 19.1259Z" fill="white"/>
<path fill-rule="evenodd" clip-rule="evenodd" d="M14.9409 27.4199C18.3289 27.4199 21.6589 27.4199 25.0579 27.4199C25.0579 28.2109 25.0659 28.9839 25.0459 29.7559C25.0439 29.8389 24.8829 29.9819 24.7899 29.9849C24.3109 30.0069 23.8289 29.9959 23.2749 29.9959C23.2749 29.6689 23.2939 29.3949 23.2719 29.1249C23.2309 28.6459 22.9759 28.3449 22.4759 28.3429C20.8319 28.3319 19.1889 28.3269 17.5449 28.3439C17.0189 28.3489 16.7729 28.6169 16.7249 29.1549C16.7039 29.4099 16.7219 29.6679 16.7219 29.9949C16.1709 29.9949 15.6739 30.0079 15.1799 29.9829C15.0969 29.9779 14.9529 29.8179 14.9509 29.7269C14.9339 28.9699 14.9409 28.2129 14.9409 27.4199Z" fill="white"/>
<path fill-rule="evenodd" clip-rule="evenodd" d="M16.6926 9.92676C16.6926 11.0538 16.6926 12.1528 16.6926 13.2858C15.2806 13.2858 13.8936 13.2858 12.4736 13.2858C12.4736 12.1678 12.4736 11.0698 12.4736 9.92676C13.8606 9.92676 15.2456 9.92676 16.6926 9.92676Z" fill="white"/>
<path fill-rule="evenodd" clip-rule="evenodd" d="M18.3125 33.2891C18.3125 32.1801 18.3125 31.0801 18.3125 29.9351C19.4335 29.9351 20.5455 29.9351 21.6945 29.9351C21.6945 31.0431 21.6945 32.1441 21.6945 33.2891C20.5725 33.2891 19.4615 33.2891 18.3125 33.2891Z" fill="white"/>
<path fill-rule="evenodd" clip-rule="evenodd" d="M19.1975 13.2941C18.8885 13.2941 18.6185 13.2941 18.3115 13.2941C18.3115 12.1681 18.3115 11.0551 18.3115 9.91309C19.4325 9.91309 20.5305 9.91309 21.6785 9.91309C21.6785 11.0171 21.6785 12.1261 21.6785 13.2781C21.4075 13.2781 21.1265 13.2781 20.8195 13.2781C20.6865 12.6661 21.0255 11.6821 19.9775 11.7021C19.0135 11.7211 19.2815 12.6241 19.1975 13.2941Z" fill="white"/>
<path fill-rule="evenodd" clip-rule="evenodd" d="M22.4756 8.27993C22.4756 7.42993 22.4756 6.60693 22.4756 5.75293C23.6116 5.75293 24.7216 5.75293 25.8646 5.75293C25.8646 6.59493 25.8646 7.41593 25.8646 8.27993C24.7496 8.27993 23.6416 8.27993 22.4756 8.27993Z" fill="white"/>
<path fill-rule="evenodd" clip-rule="evenodd" d="M17.5223 5.75781C17.5223 6.62581 17.5223 7.44681 17.5223 8.29581C16.3943 8.29581 15.2953 8.29581 14.1523 8.29581C14.1523 7.46181 14.1523 6.62881 14.1523 5.75781C15.2623 5.75781 16.3713 5.75781 17.5223 5.75781Z" fill="white"/>
<path fill-rule="evenodd" clip-rule="evenodd" d="M33.3542 29.9681C32.2312 29.9681 31.1302 29.9681 29.9932 29.9681C29.9932 29.1151 29.9932 28.2801 29.9932 27.4141C31.1152 27.4141 32.2152 27.4141 33.3542 27.4141C33.3542 28.2541 33.3542 29.0781 33.3542 29.9681Z" fill="white"/>
<path fill-rule="evenodd" clip-rule="evenodd" d="M6.62793 29.9571C6.62793 29.0701 6.62793 28.2771 6.62793 27.4341C7.75693 27.4341 8.86793 27.4341 10.0139 27.4341C10.0139 28.2721 10.0139 29.1091 10.0139 29.9571C8.86793 29.9571 7.75393 29.9571 6.62793 29.9571Z" fill="white"/>
<path fill-rule="evenodd" clip-rule="evenodd" d="M20.8702 8.29615C20.2622 8.29615 19.7152 8.29615 19.1402 8.29615C19.1402 7.13115 19.1172 5.99215 19.1522 4.85615C19.1672 4.37615 19.5802 4.05615 20.0192 4.06615C20.4632 4.07615 20.8452 4.39415 20.8602 4.89015C20.8932 6.01015 20.8702 7.13215 20.8702 8.29615Z" fill="white"/>
<path fill-rule="evenodd" clip-rule="evenodd" d="M26.7055 49.0898C26.7055 49.9418 26.7055 50.7628 26.7055 51.6168C25.8485 51.6168 25.0125 51.6168 24.1475 51.6168C24.1475 50.7768 24.1475 49.9538 24.1475 49.0898C24.9805 49.0898 25.8165 49.0898 26.7055 49.0898Z" fill="white"/>
<path fill-rule="evenodd" clip-rule="evenodd" d="M15.8447 51.6258C14.9797 51.6258 14.1577 51.6258 13.3057 51.6258C13.3057 50.7668 13.3057 49.9308 13.3057 49.0708C14.1597 49.0708 14.9817 49.0708 15.8447 49.0708C15.8447 49.9168 15.8447 50.7508 15.8447 51.6258Z" fill="white"/>
<path fill-rule="evenodd" clip-rule="evenodd" d="M11.6885 51.6291C10.8275 51.6291 10.0035 51.6291 9.14551 51.6291C9.14551 50.7801 9.14551 49.9461 9.14551 49.0791C9.99451 49.0791 10.8275 49.0791 11.6885 49.0791C11.6885 49.9271 11.6885 50.7501 11.6885 51.6291Z" fill="white"/>
<path fill-rule="evenodd" clip-rule="evenodd" d="M7.52968 49.0889C7.52968 49.9429 7.52968 50.7669 7.52968 51.6199C6.67168 51.6199 5.83568 51.6199 4.97168 51.6199C4.97168 50.7749 4.97168 49.9529 4.97168 49.0889C5.80868 49.0889 6.64368 49.0889 7.52968 49.0889Z" fill="white"/>
<path fill-rule="evenodd" clip-rule="evenodd" d="M28.3271 49.0742C29.1891 49.0742 30.0111 49.0742 30.8631 49.0742C30.8631 49.9202 30.8631 50.7422 30.8631 51.6072C30.0341 51.6072 29.2001 51.6072 28.3271 51.6072C28.3271 50.7842 28.3271 49.9502 28.3271 49.0742Z" fill="white"/>
<path fill-rule="evenodd" clip-rule="evenodd" d="M32.4941 49.0688C33.3481 49.0688 34.1711 49.0688 35.0261 49.0688C35.0261 49.9258 35.0261 50.7608 35.0261 51.6238C34.1811 51.6238 33.3591 51.6238 32.4941 51.6238C32.4941 50.7918 32.4941 49.9558 32.4941 49.0688Z" fill="white"/>
<path fill-rule="evenodd" clip-rule="evenodd" d="M31.6455 40.7928C31.6455 39.9378 31.6455 39.1138 31.6455 38.2568C32.4915 38.2568 33.3135 38.2568 34.1815 38.2568C34.1815 39.0888 34.1815 39.9228 34.1815 40.7928C33.3545 40.7928 32.5325 40.7928 31.6455 40.7928Z" fill="white"/>
<path fill-rule="evenodd" clip-rule="evenodd" d="M27.4844 38.252C28.3534 38.252 29.1764 38.252 30.0304 38.252C30.0304 39.102 30.0304 39.924 30.0304 40.788C29.1854 40.788 28.3504 40.788 27.4844 40.788C27.4844 39.947 27.4844 39.124 27.4844 38.252Z" fill="white"/>
<path fill-rule="evenodd" clip-rule="evenodd" d="M9.96973 40.7928C9.96973 39.9408 9.96973 39.1188 9.96973 38.2598C10.8127 38.2598 11.6347 38.2598 12.5047 38.2598C12.5047 39.0858 12.5047 39.9218 12.5047 40.7928C11.6827 40.7928 10.8577 40.7928 9.96973 40.7928Z" fill="white"/>
<path fill-rule="evenodd" clip-rule="evenodd" d="M5.81445 38.251C6.66445 38.251 7.48745 38.251 8.34645 38.251C8.34645 39.103 8.34645 39.938 8.34645 40.801C7.49645 40.801 6.67445 40.801 5.81445 40.801C5.81445 39.962 5.81445 39.14 5.81445 38.251Z" fill="white"/>
<path fill-rule="evenodd" clip-rule="evenodd" d="M15.9362 40.8081C15.2682 40.8081 14.7382 40.8081 14.1592 40.8081C14.1592 39.9711 14.1592 39.1391 14.1592 38.2661C15.0162 38.2661 15.8822 38.2661 16.8242 38.2661C16.3762 39.0771 15.5982 39.7301 15.9362 40.8081Z" fill="white"/>
<path fill-rule="evenodd" clip-rule="evenodd" d="M25.8587 40.8031C25.2787 40.8031 24.7347 40.8031 24.0967 40.8031C24.3317 39.7791 23.7197 39.0691 23.1387 38.2651C24.1047 38.2651 24.9667 38.2651 25.8587 38.2651C25.8587 39.1111 25.8587 39.9451 25.8587 40.8031Z" fill="white"/>
<path fill-rule="evenodd" clip-rule="evenodd" d="M20.8896 23.2529C20.8896 24.0299 20.8996 24.7849 20.8766 25.5399C20.8736 25.6369 20.7076 25.8039 20.6096 25.8099C20.1306 25.8389 19.6506 25.8229 19.1416 25.8229C19.1416 24.9399 19.1416 24.1179 19.1416 23.2539C19.7146 23.2529 20.2716 23.2529 20.8896 23.2529Z" fill="white"/>
<path fill-rule="evenodd" clip-rule="evenodd" d="M33.3501 33.3128C32.4931 33.3128 31.6841 33.3128 30.8301 33.3128C30.8301 32.7378 30.8301 32.1808 30.8301 31.5898C31.6601 31.5898 32.4831 31.5898 33.3501 31.5898C33.3501 32.1508 33.3501 32.7078 33.3501 33.3128Z" fill="white"/>
<path fill-rule="evenodd" clip-rule="evenodd" d="M9.18937 31.5898C9.18937 32.1768 9.18937 32.7228 9.18937 33.3008C8.33937 33.3008 7.51737 33.3008 6.65137 33.3008C6.65137 32.7368 6.65137 32.1798 6.65137 31.5898C7.48937 31.5898 8.31237 31.5898 9.18937 31.5898Z" fill="white"/>
<path fill-rule="evenodd" clip-rule="evenodd" d="M29.2052 31.603C29.2052 32.176 29.2052 32.707 29.2052 33.286C28.3632 33.286 27.5302 33.286 26.6592 33.286C26.6592 32.738 26.6592 32.194 26.6592 31.603C27.4842 31.603 28.3182 31.603 29.2052 31.603Z" fill="white"/>
<path fill-rule="evenodd" clip-rule="evenodd" d="M13.3475 31.606C13.3475 32.187 13.3475 32.732 13.3475 33.304C12.4945 33.304 11.6735 33.304 10.8145 33.304C10.8145 32.74 10.8145 32.197 10.8145 31.606C11.6445 31.606 12.4765 31.606 13.3475 31.606Z" fill="white"/>
<path fill-rule="evenodd" clip-rule="evenodd" d="M26.6611 27.4201C28.3961 27.2571 28.3961 27.2571 28.3961 28.9121C28.3961 29.2531 28.3961 29.5941 28.3961 29.9651C27.7891 29.9651 27.2451 29.9651 26.6611 29.9651C26.6611 29.1171 26.6611 28.2841 26.6611 27.4201Z" fill="white"/>
<path fill-rule="evenodd" clip-rule="evenodd" d="M13.3544 27.3852C13.3544 28.2782 13.3544 29.1012 13.3544 29.9612C12.7794 29.9612 12.2214 29.9612 11.6104 29.9612C11.6104 29.1722 11.5974 28.4162 11.6254 27.6612C11.6294 27.5652 11.8314 27.4062 11.9504 27.3972C12.3954 27.3672 12.8454 27.3852 13.3544 27.3852Z" fill="white"/>
<path fill-rule="evenodd" clip-rule="evenodd" d="M25.0071 31.5898C25.0321 31.6818 25.0541 31.7318 25.0581 31.7798C25.1591 33.3948 25.0281 33.5118 23.3301 33.2788C23.3301 32.7308 23.3301 32.1758 23.3301 31.5898C23.8891 31.5898 24.4321 31.5898 25.0071 31.5898Z" fill="white"/>
<path fill-rule="evenodd" clip-rule="evenodd" d="M16.6891 31.5918C16.6891 32.1748 16.6891 32.7188 16.6891 33.3278C16.1691 33.3278 15.6731 33.3408 15.1801 33.3158C15.0961 33.3118 14.9561 33.1538 14.9521 33.0608C14.9291 32.5828 14.9401 32.1038 14.9401 31.5908C15.5401 31.5918 16.0831 31.5918 16.6891 31.5918Z" fill="white"/>
</svg>
