<svg width="55" height="55" viewBox="0 0 55 55" fill="none" xmlns="http://www.w3.org/2000/svg">
<path fill-rule="evenodd" clip-rule="evenodd" d="M1.71442 30.7116C1.71442 29.5488 1.71442 28.4291 1.71442 27.2333C1.18622 27.2042 0.685887 27.1763 0.100687 27.1434C0.100687 26.6431 0.100687 26.1516 0.100687 25.536C0.574421 25.5056 1.10262 25.4714 1.75622 25.4296C1.75622 24.2972 1.75622 23.1813 1.75622 21.9741C5.90202 21.9741 9.92369 21.9741 14.0264 21.9741C14.0264 20.1793 14.0264 18.4756 14.0264 16.6782C13.5172 16.6415 12.9903 16.6022 12.4076 16.5617C12.4076 16.0259 12.4076 15.5306 12.4076 14.9429C13.2208 14.9429 14.0163 14.9429 14.9904 14.9429C14.9904 13.699 14.9904 12.54 14.9904 11.381C14.9904 10.2068 15.0322 9.03007 14.9625 7.85967C14.9372 7.4594 14.6306 7.07433 14.4533 6.68293C14.3482 6.71333 14.2443 6.74373 14.1417 6.7754C14.1417 6.30547 14.1417 5.8368 14.1417 5.32C15.739 5.27313 15.1272 3.572 15.9492 2.95133C16.96 2.18753 16.7105 1.0754 16.7865 0C17.3375 0 17.8328 0 18.4167 0C18.5269 1.045 18.2166 2.21793 19.2831 2.99693C20.0862 3.58213 19.5136 5.21613 21.0514 5.31747C21.0514 5.7874 21.0514 6.2548 21.0514 6.57653C19.5187 7.64433 20.5852 9.13773 20.1368 10.4171C24.9109 10.4171 29.5494 10.4171 34.2006 10.4171C34.7035 8.64627 34.4362 7.07307 33.5268 6.77413C33.5268 6.31813 33.5268 5.85073 33.5268 5.31493C35.1228 5.29593 34.5008 3.591 35.3216 2.96273C36.3198 2.20147 36.1222 1.0982 36.1475 0.0050663C36.7023 0.0050663 37.195 0.0050663 37.7929 0.0050663C37.912 1.03233 37.5928 2.21287 38.6568 2.98427C39.4662 3.5682 38.8594 5.225 40.4592 5.3086C40.2958 5.90647 41.0204 6.78427 39.779 6.99707C39.6891 7.01227 39.608 7.36693 39.6068 7.56453C39.5941 9.9484 39.5992 12.3323 39.5992 14.8542C40.4694 14.8542 41.2876 14.8542 42.173 14.8542C42.173 15.485 42.173 15.979 42.173 16.5541C41.6486 16.5908 41.1192 16.6288 40.5416 16.6706C40.5416 18.4249 40.5416 20.1273 40.5416 21.9323C44.624 21.9323 48.6432 21.9323 52.794 21.9323C52.794 23.1433 52.794 24.2579 52.794 25.4296C53.4185 25.4651 53.9188 25.4929 54.4952 25.5259C54.4952 26.0401 54.4952 26.5341 54.4952 27.1345C53.9999 27.1662 53.4692 27.1979 52.8776 27.2359C52.8776 28.3961 52.8776 29.5146 52.8776 30.7141C53.3982 30.7445 53.8986 30.7737 54.461 30.8066C54.6776 31.8275 54.7156 32.7978 53.9606 33.6642C53.0258 34.7371 52.7548 35.9645 52.7801 37.4034C52.8624 42.1357 52.8092 46.8717 52.8092 51.6053C52.8092 51.9625 52.8092 52.3197 52.8092 52.7339C53.4198 52.7681 53.9214 52.7985 54.4952 52.8314C54.4952 53.3469 54.4952 53.8422 54.4952 54.4147C36.4097 54.4147 18.2989 54.4147 0.10322 54.4147C0.10322 53.9486 0.10322 53.4559 0.10322 52.8365C0.579487 52.8111 1.10895 52.7807 1.78029 52.7453C1.78029 52.2905 1.78029 51.8637 1.78029 51.4368C1.78029 46.6285 1.74862 41.8203 1.80182 37.0133C1.81449 35.8543 1.61562 34.8397 0.84422 33.9796C0.0462205 33.0879 -0.146313 32.0619 0.100687 30.8269C0.598487 30.7889 1.12669 30.7521 1.71442 30.7116ZM21.1945 32.5305C21.1945 39.254 21.1945 45.9977 21.1945 52.6921C21.8139 52.6921 22.3408 52.6921 22.9172 52.6921C22.9172 49.1201 22.907 45.638 22.921 42.1559C22.9298 40.1989 23.5036 38.4205 25.0692 37.1754C26.9008 35.7187 27.2998 35.7555 29.153 37.0019C30.3892 37.8328 31.1872 39.0501 31.4266 40.5105C31.6268 41.7303 31.647 42.9881 31.661 44.2295C31.6926 47.0453 31.6711 49.8585 31.6711 52.7263C32.3108 52.7263 32.8402 52.7263 33.4242 52.7263C33.4242 45.9749 33.4242 39.2844 33.4242 32.5318C29.3392 32.5305 25.315 32.5305 21.1945 32.5305ZM29.9345 52.7427C29.9345 48.8933 29.9852 45.1655 29.8952 41.439C29.875 40.6549 29.4798 39.7936 29.0238 39.1261C27.975 37.5757 26.8147 37.5161 25.7228 39.0095C25.1693 39.767 24.7108 40.7816 24.6804 41.6961C24.56 45.2415 24.6284 48.7945 24.6335 52.345C24.6335 52.4767 24.7095 52.6085 24.75 52.7415C26.4689 52.7427 28.1434 52.7427 29.9345 52.7427ZM33.4457 16.6769C29.286 16.6769 25.2415 16.6769 21.1552 16.6769C21.1552 18.4414 21.1552 20.14 21.1552 21.8677C25.282 21.8677 29.3493 21.8677 33.4457 21.8677C33.4457 20.1083 33.4457 18.4351 33.4457 16.6769ZM35.2773 32.5153C35.2773 36.6953 35.2773 40.7461 35.2773 44.7665C36.4806 44.7665 37.5978 44.7665 38.6834 44.7665C38.6834 40.6233 38.6834 36.5725 38.6834 32.5153C37.5054 32.5153 36.4148 32.5153 35.2773 32.5153ZM19.3401 32.5635C18.2153 32.5635 17.0753 32.5635 15.8758 32.5635C15.8758 36.6421 15.8758 40.6891 15.8758 44.7944C17.0576 44.7944 18.171 44.7944 19.3401 44.7944C19.3401 40.7094 19.3401 36.6865 19.3401 32.5635ZM20.2559 14.8251C25.0122 14.8251 29.6495 14.8251 34.2868 14.8251C34.2868 13.9181 34.2868 13.0973 34.2868 12.2867C29.5646 12.2867 24.9261 12.2867 20.2559 12.2867C20.2559 13.1619 20.2559 13.9587 20.2559 14.8251ZM49.3487 36.0354C49.3487 41.6683 49.3487 47.1783 49.3487 52.7237C49.9415 52.7237 50.4697 52.7237 51.0258 52.7237C51.0258 47.1263 51.0258 41.591 51.0258 36.0354C50.4418 36.0354 49.9415 36.0354 49.3487 36.0354ZM3.54095 36.0278C3.54095 41.6556 3.54095 47.1669 3.54095 52.7288C4.13122 52.7288 4.65815 52.7288 5.22182 52.7288C5.22182 47.1339 5.22182 41.5961 5.22182 36.0278C4.63789 36.0278 4.13502 36.0278 3.54095 36.0278ZM40.5555 27.2397C40.5555 28.4671 40.5555 29.5792 40.5555 30.6977C42.9153 30.6977 45.1978 30.6977 47.5222 30.6977C47.5222 29.5184 47.5222 28.4075 47.5222 27.2397C45.1826 27.2397 42.9014 27.2397 40.5555 27.2397ZM14.0391 30.7255C14.0391 29.4981 14.0391 28.386 14.0391 27.2384C11.6882 27.2384 9.40436 27.2384 7.09269 27.2384C7.09269 28.4354 7.09269 29.5729 7.09269 30.7255C9.43729 30.7255 11.6945 30.7255 14.0391 30.7255ZM38.6998 52.7389C38.6998 50.6287 38.6998 48.6387 38.6998 46.626C37.5142 46.626 36.4046 46.626 35.2824 46.626C35.2824 48.7084 35.2824 50.7224 35.2824 52.7389C36.4591 52.7389 37.5446 52.7389 38.6998 52.7389ZM15.8998 46.6121C15.8998 48.7375 15.8998 50.7325 15.8998 52.6984C17.107 52.6984 18.2216 52.6984 19.3097 52.6984C19.3097 50.6147 19.3097 48.6185 19.3097 46.6121C18.1355 46.6121 17.0474 46.6121 15.8998 46.6121ZM21.1413 25.4119C25.3099 25.4119 29.3531 25.4119 33.4229 25.4119C33.4229 24.8153 33.4229 24.2883 33.4229 23.7437C29.2885 23.7437 25.2187 23.7437 21.1413 23.7437C21.1413 24.3327 21.1413 24.8368 21.1413 25.4119ZM52.5204 32.5445C48.5 32.5445 44.529 32.5445 40.5606 32.5445C40.5606 33.1512 40.5606 33.6794 40.5606 34.2861C43.7158 34.2861 46.7913 34.2089 49.8604 34.3203C51.236 34.371 52.0936 33.9657 52.5204 32.5445ZM14.0353 34.2785C14.0353 33.6059 14.0353 33.0777 14.0353 32.5635C10.0022 32.5635 6.04262 32.5635 2.08429 32.5635C2.03235 32.6509 1.97915 32.7383 1.92722 32.8244C2.45795 33.3108 2.97349 34.1949 3.52195 34.2152C6.99389 34.3419 10.4734 34.2785 14.0353 34.2785ZM40.5238 25.403C44.1085 25.403 47.5627 25.403 51.0334 25.403C51.0334 24.8001 51.0334 24.2744 51.0334 23.7487C47.4816 23.7487 44.0008 23.7487 40.5238 23.7487C40.5238 24.3428 40.5238 24.8457 40.5238 25.403ZM35.2545 16.6503C35.2545 18.4604 35.2545 20.1565 35.2545 21.8601C36.4578 21.8601 37.5965 21.8601 38.691 21.8601C38.691 20.0691 38.691 18.3717 38.691 16.6503C37.5205 16.6503 36.4363 16.6503 35.2545 16.6503ZM14.0644 23.7259C10.4836 23.7259 7.02682 23.7259 3.54349 23.7259C3.54349 24.3225 3.54349 24.8495 3.54349 25.3916C7.09142 25.3916 10.5735 25.3916 14.0644 25.3916C14.0644 24.8039 14.0644 24.301 14.0644 23.7259ZM19.335 16.7061C18.081 16.7061 16.9664 16.7061 15.91 16.7061C15.91 18.5022 15.91 20.2033 15.91 21.8614C17.1247 21.8614 18.2394 21.8614 19.335 21.8614C19.335 20.0931 19.335 18.4186 19.335 16.7061ZM11.3778 52.7415C11.3778 49.3797 11.3778 46.1447 11.3778 42.9311C10.7622 42.9311 10.2378 42.9311 9.73115 42.9311C9.73115 46.2574 9.73115 49.4937 9.73115 52.7415C10.3202 52.7415 10.823 52.7415 11.3778 52.7415ZM44.8444 52.725C44.8444 49.419 44.8444 46.1561 44.8444 42.94C44.225 42.94 43.7006 42.94 43.175 42.94C43.175 46.2498 43.175 49.4583 43.175 52.725C43.7576 52.725 44.2846 52.725 44.8444 52.725ZM14.0619 36.0531C11.6755 36.0531 9.39295 36.0531 7.09016 36.0531C7.09016 37.4946 7.09016 38.8727 7.09016 40.2483C7.74375 38.5865 8.78622 37.0703 10.5393 37.0703C12.3291 37.0703 13.3158 38.6891 14.0619 40.6169C14.0619 38.9006 14.0619 37.5263 14.0619 36.0531ZM47.5209 36.0544C45.156 36.0544 42.8684 36.0544 40.5796 36.0544C40.5796 37.487 40.5796 38.8525 40.5796 40.2167C41.2256 38.57 42.2642 37.0791 43.9717 37.0703C45.7691 37.0614 46.7951 38.6485 47.5222 40.2737C47.5209 38.9031 47.5209 37.5351 47.5209 36.0544ZM36.1399 6.96793C36.1399 9.66847 36.1399 12.2449 36.1399 14.8428C36.739 14.8428 37.2647 14.8428 37.8043 14.8428C37.8043 12.1752 37.8043 9.57093 37.8043 6.96793C37.214 6.96793 36.7112 6.96793 36.1399 6.96793ZM16.7612 6.9692C16.7612 9.671 16.7612 12.2461 16.7612 14.8428C17.359 14.8428 17.8847 14.8428 18.4268 14.8428C18.4268 12.1765 18.4268 9.57347 18.4268 6.9692C17.8391 6.9692 17.3375 6.9692 16.7612 6.9692ZM35.2722 27.2371C35.2722 28.4759 35.2722 29.5855 35.2722 30.6926C36.4629 30.6926 37.5725 30.6926 38.7112 30.6926C38.7112 29.5108 38.7112 28.3999 38.7112 27.2371C37.5408 27.2371 36.4312 27.2371 35.2722 27.2371ZM19.3198 30.7167C19.3198 29.4829 19.3198 28.3721 19.3198 27.2473C18.133 27.2473 17.0234 27.2473 15.9062 27.2473C15.9062 28.4506 15.9062 29.5868 15.9062 30.7167C17.0854 30.7167 18.1697 30.7167 19.3198 30.7167ZM7.00909 52.649C7.81849 52.9682 7.95782 52.611 7.94895 51.9739C7.92742 50.2195 7.93755 48.4639 7.93755 46.7109C7.93755 44.9287 7.93755 43.1465 7.93755 41.363C7.83369 41.3009 7.72855 41.2363 7.62469 41.1743C7.41822 41.3896 7.03695 41.6037 7.03442 41.8215C6.99769 45.4315 7.00909 49.0453 7.00909 52.649ZM14.0708 41.4327C13.9428 41.3478 13.8149 41.2642 13.687 41.1793C13.5147 41.4745 13.1955 41.7683 13.193 42.066C13.1575 45.3935 13.1803 48.7198 13.1651 52.0486C13.1626 52.7883 13.4374 52.9416 14.072 52.6351C14.0708 48.8769 14.0708 45.1541 14.0708 41.4327ZM41.3649 41.382C40.7493 41.1667 40.4656 41.2895 40.4694 41.9761C40.4858 45.3391 40.4846 48.7046 40.4694 52.0701C40.4656 52.7301 40.7214 52.9099 41.3649 52.6756C41.3649 48.9085 41.3649 45.1579 41.3649 41.382ZM47.5323 41.3592C46.9332 41.1958 46.6292 41.2731 46.6342 41.9748C46.6545 45.3391 46.6507 48.7046 46.6355 52.0701C46.633 52.7364 46.8901 52.9049 47.5323 52.6718C47.5323 48.9085 47.5323 45.1579 47.5323 41.3592ZM19.3338 23.7361C18.152 23.7361 17.017 23.7361 15.8821 23.7361C15.8821 24.3415 15.8821 24.8659 15.8821 25.4169C17.0614 25.4169 18.1684 25.4169 19.3338 25.4169C19.3338 24.8317 19.3338 24.3061 19.3338 23.7361ZM51.046 27.2536C50.4216 27.2536 49.8959 27.2536 49.3487 27.2536C49.3487 28.4329 49.3487 29.5399 49.3487 30.7053C49.9364 30.7053 50.4608 30.7053 51.046 30.7053C51.046 29.5488 51.046 28.4392 51.046 27.2536ZM35.2735 23.6993C35.2735 24.3441 35.2735 24.8723 35.2735 25.3954C36.4756 25.3954 37.5915 25.3954 38.6897 25.3954C38.6897 24.7836 38.6897 24.2554 38.6897 23.6993C37.5193 23.6993 36.4312 23.6993 35.2735 23.6993ZM33.428 27.2637C32.7858 27.2637 32.2614 27.2637 31.7319 27.2637C31.7319 28.4519 31.7319 29.5589 31.7319 30.7065C32.3209 30.7065 32.8466 30.7065 33.428 30.7065C33.428 29.5425 33.428 28.4354 33.428 27.2637ZM28.2017 30.6863C28.8414 30.6863 29.367 30.6863 29.9003 30.6863C29.9003 29.4981 29.9003 28.3898 29.9003 27.2397C29.3088 27.2397 28.7831 27.2397 28.2017 27.2397C28.2017 28.4088 28.2017 29.5171 28.2017 30.6863ZM24.6943 27.2257C24.6943 28.4329 24.6943 29.5501 24.6943 30.6913C25.2972 30.6913 25.8254 30.6913 26.3701 30.6913C26.3701 29.5032 26.3701 28.386 26.3701 27.2257C25.8001 27.2257 25.296 27.2257 24.6943 27.2257ZM22.8412 30.7103C22.8412 29.5222 22.8412 28.386 22.8412 27.2587C22.2382 27.2587 21.7138 27.2587 21.159 27.2587C21.159 28.4443 21.159 29.5501 21.159 30.7103C21.7442 30.7103 22.2686 30.7103 22.8412 30.7103ZM5.20662 30.723C5.20662 29.4893 5.20662 28.3569 5.20662 27.2688C4.58849 27.2688 4.06409 27.2688 3.55235 27.2688C3.55235 28.4645 3.55235 29.5741 3.55235 30.723C4.12489 30.723 4.62395 30.723 5.20662 30.723ZM12.2835 41.0957C11.9529 39.6619 11.127 38.6954 10.424 38.8119C9.68935 38.9335 8.95469 40.0571 8.94962 41.0957C10.0364 41.0957 11.1232 41.0957 12.2835 41.0957ZM45.7146 41.0793C45.5006 39.7999 44.6608 38.7359 43.9565 38.7993C43.2636 38.8613 42.4986 39.9355 42.358 41.0793C43.4764 41.0793 44.5898 41.0793 45.7146 41.0793ZM37.8689 5.16293C37.5649 4.56 37.3268 4.08753 36.9379 3.31487C36.587 4.123 36.3844 4.58913 36.1361 5.16293C36.7378 5.16293 37.1634 5.16293 37.8689 5.16293ZM17.7884 3.66827C17.6719 3.6594 17.5541 3.65053 17.4363 3.64167C17.2248 4.11793 17.0107 4.59547 16.7738 5.12873C17.4186 5.12873 17.8632 5.12873 18.4686 5.12873C18.2014 4.55367 17.9949 4.1116 17.7884 3.66827Z" fill="#D7000C"/>
<path fill-rule="evenodd" clip-rule="evenodd" d="M21.1946 32.5308C25.3151 32.5308 29.3393 32.5308 33.423 32.5308C33.423 39.2834 33.423 45.9739 33.423 52.7252C32.8391 52.7252 32.3096 52.7252 31.67 52.7252C31.67 49.8575 31.6928 47.0442 31.6598 44.2284C31.6459 42.9884 31.6269 41.7293 31.4255 40.5095C31.1874 39.0503 30.3881 37.833 29.1518 37.0008C27.2987 35.7544 26.901 35.7164 25.0681 37.1744C23.5038 38.4182 22.9287 40.1979 22.9198 42.1549C22.9059 45.637 22.916 49.119 22.916 52.691C22.3397 52.691 21.8128 52.691 21.1934 52.691C21.1946 45.998 21.1946 39.253 21.1946 32.5308ZM30.0499 34.3282C30.0499 34.8678 30.0499 35.4099 30.0499 35.9204C30.6237 35.9204 31.1164 35.9204 31.6066 35.9204C31.6066 35.3491 31.6066 34.8576 31.6066 34.3282C31.0721 34.3282 30.606 34.3282 30.0499 34.3282ZM24.5728 34.3636C23.9534 34.3636 23.4607 34.3636 22.9844 34.3636C22.9844 34.9336 22.9844 35.4251 22.9844 35.9356C23.5481 35.9356 24.0396 35.9356 24.5728 35.9356C24.5728 35.3846 24.5728 34.8944 24.5728 34.3636Z" fill="#FAFAFA"/>
<path fill-rule="evenodd" clip-rule="evenodd" d="M29.9343 52.7428C28.1432 52.7428 26.47 52.7428 24.7498 52.7428C24.7093 52.6098 24.6333 52.4768 24.6333 52.3463C24.6282 48.7946 24.5598 45.2429 24.6802 41.6975C24.7106 40.7829 25.1691 39.7683 25.7226 39.0109C26.8145 37.5175 27.9748 37.577 29.0236 39.1274C29.4783 39.7949 29.8748 40.6563 29.895 41.4403C29.985 45.1643 29.9343 48.8934 29.9343 52.7428Z" fill="#FAFAFA"/>
<path fill-rule="evenodd" clip-rule="evenodd" d="M33.4457 16.6768C33.4457 18.4349 33.4457 20.1082 33.4457 21.8676C29.3506 21.8676 25.2833 21.8676 21.1553 21.8676C21.1553 20.1398 21.1553 18.4412 21.1553 16.6768C25.2428 16.6768 29.286 16.6768 33.4457 16.6768Z" fill="#FAFAFA"/>
<path fill-rule="evenodd" clip-rule="evenodd" d="M35.2773 32.5151C36.4135 32.5151 37.5054 32.5151 38.6834 32.5151C38.6834 36.5723 38.6834 40.6218 38.6834 44.7663C37.5979 44.7663 36.4807 44.7663 35.2773 44.7663C35.2773 40.7459 35.2773 36.6951 35.2773 32.5151Z" fill="#FAFAFA"/>
<path fill-rule="evenodd" clip-rule="evenodd" d="M19.3403 32.5635C19.3403 36.6865 19.3403 40.7094 19.3403 44.7944C18.1712 44.7944 17.0578 44.7944 15.876 44.7944C15.876 40.6891 15.876 36.6409 15.876 32.5635C17.0755 32.5635 18.2155 32.5635 19.3403 32.5635Z" fill="#FAFAFA"/>
<path fill-rule="evenodd" clip-rule="evenodd" d="M20.2559 14.825C20.2559 13.9586 20.2559 13.1619 20.2559 12.2866C24.9261 12.2866 29.5659 12.2866 34.2867 12.2866C34.2867 13.0973 34.2867 13.9194 34.2867 14.825C29.6495 14.825 25.0122 14.825 20.2559 14.825Z" fill="#FAFAFA"/>
<path fill-rule="evenodd" clip-rule="evenodd" d="M49.3486 36.0352C49.9414 36.0352 50.4418 36.0352 51.0257 36.0352C51.0257 41.5908 51.0257 47.1261 51.0257 52.7235C50.4696 52.7235 49.9414 52.7235 49.3486 52.7235C49.3486 47.178 49.3486 41.6693 49.3486 36.0352Z" fill="#FAFAFA"/>
<path fill-rule="evenodd" clip-rule="evenodd" d="M3.54102 36.0278C4.13508 36.0278 4.63795 36.0278 5.22188 36.0278C5.22188 41.5961 5.22188 47.134 5.22188 52.7288C4.65948 52.7288 4.13255 52.7288 3.54102 52.7288C3.54102 47.1656 3.54102 41.6556 3.54102 36.0278Z" fill="#FAFAFA"/>
<path fill-rule="evenodd" clip-rule="evenodd" d="M40.5557 27.2397C42.9015 27.2397 45.1815 27.2397 47.5223 27.2397C47.5223 28.4089 47.5223 29.5197 47.5223 30.6977C45.198 30.6977 42.9155 30.6977 40.5557 30.6977C40.5557 29.5793 40.5557 28.4671 40.5557 27.2397Z" fill="#FAFAFA"/>
<path fill-rule="evenodd" clip-rule="evenodd" d="M14.0392 30.7254C11.6946 30.7254 9.43737 30.7254 7.09277 30.7254C7.09277 29.5727 7.09277 28.4353 7.09277 27.2383C9.40571 27.2383 11.6882 27.2383 14.0392 27.2383C14.0392 28.3859 14.0392 29.498 14.0392 30.7254Z" fill="#FAFAFA"/>
<path fill-rule="evenodd" clip-rule="evenodd" d="M38.6997 52.7389C37.5458 52.7389 36.459 52.7389 35.2822 52.7389C35.2822 50.7224 35.2822 48.7071 35.2822 46.626C36.4058 46.626 37.5154 46.626 38.6997 46.626C38.6997 48.6387 38.6997 50.6286 38.6997 52.7389Z" fill="#FAFAFA"/>
<path fill-rule="evenodd" clip-rule="evenodd" d="M15.8994 46.6123C17.047 46.6123 18.1363 46.6123 19.3093 46.6123C19.3093 48.6187 19.3093 50.615 19.3093 52.6986C18.2212 52.6986 17.1053 52.6986 15.8994 52.6986C15.8994 50.7328 15.8994 48.7378 15.8994 46.6123Z" fill="#FAFAFA"/>
<path fill-rule="evenodd" clip-rule="evenodd" d="M21.1416 25.4119C21.1416 24.8355 21.1416 24.3327 21.1416 23.7437C25.219 23.7437 29.2888 23.7437 33.4232 23.7437C33.4232 24.2883 33.4232 24.8153 33.4232 25.4119C29.3534 25.4119 25.3089 25.4119 21.1416 25.4119Z" fill="#FAFAFA"/>
<path fill-rule="evenodd" clip-rule="evenodd" d="M52.5207 32.5444C52.0938 33.9644 51.2363 34.3697 49.8594 34.3203C46.7903 34.2088 43.7148 34.2861 40.5596 34.2861C40.5596 33.6794 40.5596 33.1512 40.5596 32.5444C44.5293 32.5444 48.5003 32.5444 52.5207 32.5444Z" fill="#FAFAFA"/>
<path fill-rule="evenodd" clip-rule="evenodd" d="M14.0348 34.2783C10.473 34.2783 6.99342 34.3429 3.52149 34.2137C2.97302 34.1935 2.45749 33.3093 1.92676 32.8229C1.97996 32.7368 2.03189 32.6494 2.08382 32.562C6.04216 32.562 10.0018 32.562 14.0348 32.562C14.0348 33.0763 14.0348 33.6045 14.0348 34.2783Z" fill="#FAFAFA"/>
<path fill-rule="evenodd" clip-rule="evenodd" d="M40.5234 25.4028C40.5234 24.8455 40.5234 24.3426 40.5234 23.7485C44.0004 23.7485 47.4812 23.7485 51.033 23.7485C51.033 24.2742 51.033 24.7999 51.033 25.4028C47.5623 25.4028 44.1081 25.4028 40.5234 25.4028Z" fill="#FAFAFA"/>
<path fill-rule="evenodd" clip-rule="evenodd" d="M35.2549 16.6504C36.4379 16.6504 37.5209 16.6504 38.6913 16.6504C38.6913 18.3718 38.6913 20.0691 38.6913 21.8602C37.5969 21.8602 36.4582 21.8602 35.2549 21.8602C35.2549 20.1565 35.2549 18.4605 35.2549 16.6504Z" fill="#FAFAFA"/>
<path fill-rule="evenodd" clip-rule="evenodd" d="M14.0649 23.7261C14.0649 24.3011 14.0649 24.804 14.0649 25.3917C10.5739 25.3917 7.09188 25.3917 3.54395 25.3917C3.54395 24.8483 3.54395 24.3214 3.54395 23.7261C7.02855 23.7261 10.484 23.7261 14.0649 23.7261Z" fill="#FAFAFA"/>
<path fill-rule="evenodd" clip-rule="evenodd" d="M19.3352 16.7061C19.3352 18.4186 19.3352 20.0931 19.3352 21.8614C18.2396 21.8614 17.1249 21.8614 15.9102 21.8614C15.9102 20.2033 15.9102 18.5022 15.9102 16.7061C16.9666 16.7061 18.0812 16.7061 19.3352 16.7061Z" fill="#FAFAFA"/>
<path fill-rule="evenodd" clip-rule="evenodd" d="M11.3781 52.7415C10.8233 52.7415 10.3204 52.7415 9.73145 52.7415C9.73145 49.4938 9.73145 46.2574 9.73145 42.9312C10.2381 42.9312 10.7625 42.9312 11.3781 42.9312C11.3781 46.1447 11.3781 49.3798 11.3781 52.7415Z" fill="#FAFAFA"/>
<path fill-rule="evenodd" clip-rule="evenodd" d="M44.8443 52.7249C44.2844 52.7249 43.7575 52.7249 43.1748 52.7249C43.1748 49.4582 43.1748 46.251 43.1748 42.9399C43.7005 42.9399 44.2249 42.9399 44.8443 42.9399C44.8443 46.1573 44.8443 49.4189 44.8443 52.7249Z" fill="#FAFAFA"/>
<path fill-rule="evenodd" clip-rule="evenodd" d="M14.0616 36.0532C14.0616 37.5264 14.0616 38.9007 14.0616 40.617C13.3155 38.6904 12.3288 37.0704 10.539 37.0704C8.78718 37.0704 7.74344 38.5866 7.08984 40.2484C7.08984 38.8728 7.08984 37.4947 7.08984 36.0532C9.39264 36.0532 11.6764 36.0532 14.0616 36.0532Z" fill="#FAFAFA"/>
<path fill-rule="evenodd" clip-rule="evenodd" d="M47.5207 36.0542C47.5207 37.5349 47.5207 38.9029 47.5207 40.2735C46.7937 38.6483 45.7677 37.0612 43.9703 37.0701C42.2628 37.0802 41.2241 38.5711 40.5781 40.2165C40.5781 38.8523 40.5781 37.4868 40.5781 36.0542C42.8695 36.0542 45.1559 36.0542 47.5207 36.0542Z" fill="#FAFAFA"/>
<path fill-rule="evenodd" clip-rule="evenodd" d="M36.1396 6.96777C36.7109 6.96777 37.2138 6.96777 37.8041 6.96777C37.8041 9.57204 37.8041 12.175 37.8041 14.8426C37.2632 14.8426 36.7375 14.8426 36.1396 14.8426C36.1396 12.2447 36.1396 9.66831 36.1396 6.96777Z" fill="#FAFAFA"/>
<path fill-rule="evenodd" clip-rule="evenodd" d="M16.7607 6.96924C17.3371 6.96924 17.8387 6.96924 18.4264 6.96924C18.4264 9.57477 18.4264 12.1765 18.4264 14.8428C17.8843 14.8428 17.3573 14.8428 16.7607 14.8428C16.7607 12.2462 16.7607 9.67104 16.7607 6.96924Z" fill="#FAFAFA"/>
<path fill-rule="evenodd" clip-rule="evenodd" d="M35.2725 27.2373C36.4315 27.2373 37.5411 27.2373 38.7115 27.2373C38.7115 28.4001 38.7115 29.511 38.7115 30.6928C37.574 30.6928 36.4644 30.6928 35.2725 30.6928C35.2725 29.5857 35.2725 28.4761 35.2725 27.2373Z" fill="#FAFAFA"/>
<path fill-rule="evenodd" clip-rule="evenodd" d="M19.3199 30.7165C18.1698 30.7165 17.0855 30.7165 15.9062 30.7165C15.9062 29.5853 15.9062 28.4504 15.9062 27.2471C17.0222 27.2471 18.133 27.2471 19.3199 27.2471C19.3199 28.3731 19.3199 29.4827 19.3199 30.7165Z" fill="#FAFAFA"/>
<path fill-rule="evenodd" clip-rule="evenodd" d="M7.00942 52.6489C7.00942 49.0452 6.99802 45.4327 7.03602 41.8201C7.03855 41.6023 7.41982 41.3882 7.62628 41.1729C7.73015 41.2362 7.83528 41.3008 7.93915 41.3616C7.93915 43.1438 7.93915 44.926 7.93915 46.7094C7.93915 48.4638 7.92902 50.2194 7.95055 51.9725C7.95815 52.6096 7.81882 52.9681 7.00942 52.6489Z" fill="#FAFAFA"/>
<path fill-rule="evenodd" clip-rule="evenodd" d="M14.071 41.4325C14.071 45.154 14.071 48.8767 14.071 52.6349C13.4364 52.9415 13.1615 52.7882 13.1641 52.0485C13.1793 48.7197 13.1577 45.3934 13.1919 42.0659C13.1945 41.7682 13.5137 41.4743 13.6859 41.1792C13.8151 41.2641 13.9431 41.3477 14.071 41.4325Z" fill="#FAFAFA"/>
<path fill-rule="evenodd" clip-rule="evenodd" d="M41.3653 41.3822C41.3653 45.1569 41.3653 48.9087 41.3653 52.6745C40.7218 52.9101 40.466 52.7303 40.4698 52.0691C40.485 48.7048 40.4862 45.3393 40.4698 41.975C40.466 41.2897 40.7497 41.1669 41.3653 41.3822Z" fill="#FAFAFA"/>
<path fill-rule="evenodd" clip-rule="evenodd" d="M47.5319 41.3593C47.5319 45.1567 47.5319 48.9086 47.5319 52.6719C46.8897 52.9062 46.6326 52.7377 46.6351 52.0702C46.6503 48.7059 46.6541 45.3404 46.6339 41.9749C46.6288 41.2731 46.9341 41.1971 47.5319 41.3593Z" fill="#FAFAFA"/>
<path fill-rule="evenodd" clip-rule="evenodd" d="M19.3335 23.7358C19.3335 24.3058 19.3335 24.8315 19.3335 25.4167C18.1694 25.4167 17.0611 25.4167 15.8818 25.4167C15.8818 24.8657 15.8818 24.3413 15.8818 23.7358C17.0168 23.7358 18.1517 23.7358 19.3335 23.7358Z" fill="#FAFAFA"/>
<path fill-rule="evenodd" clip-rule="evenodd" d="M51.046 27.2534C51.046 28.4403 51.046 29.5486 51.046 30.7051C50.4608 30.7051 49.9364 30.7051 49.3486 30.7051C49.3486 29.5398 49.3486 28.4327 49.3486 27.2534C49.8946 27.2534 50.4215 27.2534 51.046 27.2534Z" fill="#FAFAFA"/>
<path fill-rule="evenodd" clip-rule="evenodd" d="M35.2734 23.6992C36.4299 23.6992 37.518 23.6992 38.6896 23.6992C38.6896 24.254 38.6896 24.7822 38.6896 25.3953C37.5914 25.3953 36.4755 25.3953 35.2734 25.3953C35.2734 24.8722 35.2734 24.344 35.2734 23.6992Z" fill="#FAFAFA"/>
<path fill-rule="evenodd" clip-rule="evenodd" d="M33.4275 27.2637C33.4275 28.4366 33.4275 29.5437 33.4275 30.7065C32.8461 30.7065 32.3204 30.7065 31.7314 30.7065C31.7314 29.5601 31.7314 28.4518 31.7314 27.2637C32.2622 27.2637 32.7866 27.2637 33.4275 27.2637Z" fill="#FAFAFA"/>
<path fill-rule="evenodd" clip-rule="evenodd" d="M28.2021 30.6863C28.2021 29.5172 28.2021 28.4089 28.2021 27.2397C28.7835 27.2397 29.3092 27.2397 29.9007 27.2397C29.9007 28.3886 29.9007 29.4982 29.9007 30.6863C29.3662 30.6863 28.8405 30.6863 28.2021 30.6863Z" fill="#FAFAFA"/>
<path fill-rule="evenodd" clip-rule="evenodd" d="M24.6943 27.2256C25.2947 27.2256 25.7989 27.2256 26.3701 27.2256C26.3701 28.3859 26.3701 29.5031 26.3701 30.6912C25.8255 30.6912 25.2973 30.6912 24.6943 30.6912C24.6943 29.5499 24.6943 28.4327 24.6943 27.2256Z" fill="#FAFAFA"/>
<path fill-rule="evenodd" clip-rule="evenodd" d="M22.8413 30.7105C22.27 30.7105 21.7444 30.7105 21.1592 30.7105C21.1592 29.5502 21.1592 28.4444 21.1592 27.2588C21.714 27.2588 22.2384 27.2588 22.8413 27.2588C22.8413 28.3861 22.8413 29.5236 22.8413 30.7105Z" fill="#FAFAFA"/>
<path fill-rule="evenodd" clip-rule="evenodd" d="M5.207 30.7232C4.62433 30.7232 4.12527 30.7232 3.55273 30.7232C3.55273 29.5756 3.55273 28.466 3.55273 27.269C4.0632 27.269 4.58887 27.269 5.207 27.269C5.207 28.3571 5.207 29.4895 5.207 30.7232Z" fill="#FAFAFA"/>
<path fill-rule="evenodd" clip-rule="evenodd" d="M12.2831 41.0958C11.1228 41.0958 10.0373 41.0958 8.94922 41.0958C8.95429 40.0584 9.68895 38.9336 10.4236 38.812C11.1266 38.6968 11.9525 39.6632 12.2831 41.0958Z" fill="#FAFAFA"/>
<path fill-rule="evenodd" clip-rule="evenodd" d="M45.7148 41.0791C44.59 41.0791 43.4766 41.0791 42.3594 41.0791C42.4987 39.9365 43.265 38.8611 43.9579 38.7991C44.6609 38.7357 45.5007 39.7997 45.7148 41.0791Z" fill="#FAFAFA"/>
<path fill-rule="evenodd" clip-rule="evenodd" d="M37.8685 5.16301C37.1617 5.16301 36.7361 5.16301 36.1357 5.16301C36.384 4.58921 36.5854 4.12307 36.9375 3.31494C37.3277 4.08887 37.5645 4.56007 37.8685 5.16301Z" fill="#FAFAFA"/>
<path fill-rule="evenodd" clip-rule="evenodd" d="M17.788 3.6684C17.9945 4.11173 18.201 4.5538 18.4682 5.13013C17.8628 5.13013 17.4182 5.13013 16.7734 5.13013C17.0103 4.59687 17.2231 4.11933 17.4359 3.64307C17.5537 3.65067 17.6715 3.65953 17.788 3.6684Z" fill="#FAFAFA"/>
<path fill-rule="evenodd" clip-rule="evenodd" d="M30.0498 34.3281C30.6059 34.3281 31.0733 34.3281 31.6065 34.3281C31.6065 34.8576 31.6065 35.3491 31.6065 35.9203C31.1163 35.9203 30.6249 35.9203 30.0498 35.9203C30.0498 35.4086 30.0498 34.8665 30.0498 34.3281Z" fill="#D7000C"/>
<path fill-rule="evenodd" clip-rule="evenodd" d="M24.5728 34.3633C24.5728 34.894 24.5728 35.3842 24.5728 35.9352C24.0395 35.9352 23.5468 35.9352 22.9844 35.9352C22.9844 35.4247 22.9844 34.9333 22.9844 34.3633C23.4606 34.3633 23.9534 34.3633 24.5728 34.3633Z" fill="#D7000C"/>
</svg>
