<svg width="57" height="46" viewBox="0 0 57 46" fill="none" xmlns="http://www.w3.org/2000/svg">
<path fill-rule="evenodd" clip-rule="evenodd" d="M56.1999 45.9C37.5008 45.9 18.8223 45.9 0.112305 45.9C0.112305 36.1968 0.112305 26.4924 0.112305 16.7468C0.227357 16.742 0.350888 16.7311 0.475629 16.7311C1.28827 16.7287 2.10332 16.7202 2.91596 16.7335C3.18482 16.7384 3.25991 16.6427 3.25627 16.3859C3.24658 15.2887 3.25264 14.1927 3.25264 13.0966C3.25264 12.9574 3.25264 12.8193 3.25264 12.6437C7.66946 12.6437 12.0487 12.6437 16.4583 12.6437C16.4583 10.167 16.4583 7.72549 16.4583 5.24641C15.883 5.24641 15.3223 5.24641 14.7373 5.24641C14.7373 3.48065 14.7373 1.75486 14.7373 0C23.6884 0 32.6383 0 41.6112 0C41.6112 1.73064 41.6112 3.45764 41.6112 5.23187C41.2128 5.23187 40.8204 5.23187 40.4038 5.23187C40.4038 7.71217 40.4038 10.1452 40.4038 12.6183C45.19 12.6183 49.9677 12.6183 54.7866 12.6183C54.7866 13.9965 54.7866 15.3335 54.7866 16.719C55.2759 16.719 55.7276 16.719 56.1999 16.719C56.1999 26.4658 56.1999 36.1617 56.1999 45.9ZM1.47235 23.0033C1.47235 23.1765 1.47235 23.2915 1.47235 23.4078C1.47235 30.3146 1.47356 37.2214 1.46508 44.1282C1.46508 44.4322 1.53654 44.5315 1.85384 44.5303C7.87776 44.5133 13.9005 44.506 19.9232 44.5109C20.2841 44.5109 20.3749 44.4031 20.3737 44.0495C20.364 37.1887 20.3664 30.3303 20.3652 23.4696C20.3652 23.0033 20.364 23.0021 19.9086 23.0021C13.9089 23.0021 7.91046 23.0021 1.91197 23.0021C1.78481 23.0033 1.65643 23.0033 1.47235 23.0033ZM54.8302 23.0227C54.6679 23.0154 54.5638 23.0045 54.4596 23.0045C48.4139 23.0045 42.3669 23.0069 36.32 22.9972C35.9954 22.9972 35.9288 23.1026 35.9288 23.4029C35.9373 30.2964 35.9373 37.1923 35.9276 44.087C35.9276 44.4116 36.0209 44.5121 36.3455 44.5097C37.9005 44.5012 39.4555 44.523 41.013 44.523C45.4685 44.5266 49.9217 44.5242 54.3785 44.523C54.829 44.523 54.8302 44.523 54.8302 44.0567C54.8302 37.1851 54.8302 30.3134 54.8302 23.4429C54.8302 23.3157 54.8302 23.1874 54.8302 23.0227ZM24.122 36.5589C24.122 39.0671 24.1281 41.5789 24.1147 44.0882C24.1135 44.4128 24.208 44.5097 24.5326 44.5085C26.9596 44.4964 29.3866 44.4927 31.8148 44.5109C32.1842 44.5121 32.2617 44.3946 32.2617 44.0458C32.2496 39.3795 32.2544 34.7144 32.2508 30.0482C32.2508 29.5431 32.2411 29.0345 32.1939 28.5331C31.9843 26.3786 29.6966 24.6794 27.5687 25.0851C25.4675 25.4872 24.1268 27.1004 24.122 29.2416C24.1184 31.6807 24.122 34.121 24.122 36.5589ZM21.7834 44.5036C21.9299 44.5121 22.0462 44.5242 22.1613 44.523C22.8165 44.5206 22.7268 44.5848 22.728 43.9598C22.7293 39.1034 22.7268 34.247 22.7305 29.3917C22.7317 29.0042 22.745 28.6118 22.8056 28.2303C23.3275 25.0149 26.5163 22.9803 29.6579 23.8498C32.0425 24.5111 33.6399 26.6559 33.6435 29.2295C33.6496 34.1682 33.6459 39.1058 33.6459 44.0446C33.6459 44.1924 33.6459 44.3401 33.6459 44.5C33.7816 44.5109 33.8615 44.523 33.9415 44.523C34.6548 44.5218 34.5385 44.5714 34.5385 43.9562C34.5409 36.1169 34.5397 28.28 34.5397 20.4418C34.5397 20.2941 34.5397 20.1463 34.5397 19.9877C30.2573 19.9877 26.0319 19.9877 21.7822 19.9877C21.7834 28.1589 21.7834 36.3107 21.7834 44.5036ZM28.1634 1.36731C27.444 1.36731 26.7258 1.36731 26.0064 1.36731C22.8358 1.36731 19.6652 1.37095 16.4946 1.36126C16.1858 1.36005 16.0816 1.43877 16.0962 1.75486C16.1228 2.27199 16.1046 2.79275 16.1058 3.3111C16.1058 3.84276 16.1059 3.84276 16.6242 3.8137C16.7187 3.81006 16.8131 3.81248 16.9064 3.81248C20.4076 3.81127 23.9076 3.81127 27.4089 3.81127C31.5229 3.81127 35.637 3.81127 39.751 3.81127C40.2379 3.81127 40.2391 3.81006 40.2391 3.34137C40.2415 2.84604 40.2403 2.35071 40.2403 1.85538C40.2403 1.36852 40.2403 1.36852 39.7607 1.36852C35.8961 1.36852 32.0292 1.36852 28.1634 1.36731ZM38.9699 11.5755C31.9214 11.5755 24.9189 11.5755 17.9055 11.5755C17.9055 12.4548 17.9055 13.3086 17.9055 14.1612C24.9419 14.1612 31.9541 14.1612 38.9699 14.1612C38.9699 13.288 38.9699 12.4439 38.9699 11.5755ZM23.1507 5.26578C23.1507 6.91407 23.1507 8.52117 23.1507 10.1307C23.2258 10.1428 23.2718 10.1549 23.3178 10.1549C26.5829 10.1573 29.848 10.1549 33.1119 10.1622C33.3722 10.1622 33.3916 10.035 33.3916 9.83277C33.3868 8.41944 33.3892 7.0049 33.388 5.59035C33.388 5.48741 33.3722 5.38568 33.3626 5.26457C29.9497 5.26578 26.5623 5.26578 23.1507 5.26578ZM21.7689 16.7299C21.7689 17.3609 21.7689 17.9543 21.7689 18.5441C26.0525 18.5441 30.2852 18.5441 34.5567 18.5441C34.5567 17.9313 34.5567 17.3463 34.5567 16.7299C34.7202 16.7299 34.8473 16.7299 34.9745 16.7299C36.1081 16.7299 37.238 16.7335 38.3692 16.7275C39.12 16.7238 39.0365 16.8474 39.0413 16.0493C39.0413 15.5854 39.0389 15.5842 38.5751 15.5842C31.9298 15.5842 25.2834 15.5806 18.6382 15.5878C17.7093 15.5878 17.8498 15.4001 17.8268 16.4138C17.8207 16.6669 17.9213 16.7347 18.1611 16.7323C19.2074 16.7226 20.2574 16.7287 21.3062 16.7287C21.4431 16.7299 21.5799 16.7299 21.7689 16.7299ZM40.4328 14.0292C40.4328 14.8321 40.451 15.5842 40.4256 16.3351C40.4147 16.6633 40.537 16.7262 40.8325 16.7226C41.9637 16.7081 43.0948 16.7166 44.226 16.7166C47.1362 16.7166 50.0488 16.7105 52.9579 16.725C53.32 16.7262 53.429 16.6209 53.4108 16.2648C53.3842 15.6762 53.4035 15.0864 53.4023 14.4979C53.4011 14.0304 53.4011 14.0292 52.9409 14.0292C48.9116 14.0292 44.8824 14.0292 40.8519 14.0292C40.7356 14.0292 40.6194 14.0292 40.4328 14.0292ZM16.4304 14.0558C12.469 14.0558 8.57534 14.0558 4.6466 14.0558C4.6466 14.7982 4.6466 15.5152 4.6466 16.2309C4.6466 16.7141 4.6466 16.7154 5.11771 16.7154C8.74732 16.7154 12.3745 16.7154 16.0041 16.7154C16.0853 16.7154 16.1773 16.7335 16.2488 16.7044C16.319 16.6766 16.4232 16.6003 16.4244 16.5434C16.4341 15.7223 16.4304 14.9012 16.4304 14.0558ZM38.9638 10.1428C38.9638 8.49453 38.9638 6.88742 38.9638 5.26578C37.5674 5.26578 36.1953 5.26578 34.8134 5.26578C34.8134 6.90317 34.8134 8.51875 34.8134 10.1428C36.2062 10.1428 37.5711 10.1428 38.9638 10.1428ZM21.7059 10.1416C21.7059 8.49332 21.7059 6.88621 21.7059 5.26699C20.427 5.26699 19.1735 5.26699 17.9116 5.26699C17.9116 6.90438 17.9116 8.51875 17.9116 10.1416C19.1856 10.1416 20.4306 10.1416 21.7059 10.1416ZM51.593 18.1238C50.6072 18.1238 49.6661 18.119 48.7263 18.1372C48.6561 18.1384 48.535 18.32 48.5338 18.4206C48.518 19.387 48.5289 20.3534 48.5205 21.3199C48.518 21.5536 48.6089 21.6214 48.8353 21.619C49.671 21.6081 50.5066 21.6154 51.3435 21.6142C51.4198 21.613 51.4973 21.5912 51.593 21.5778C51.593 20.4297 51.593 19.3034 51.593 18.1238ZM5.15525 21.6118C6.13017 21.6118 7.06876 21.6166 8.00614 21.6009C8.07638 21.5996 8.19991 21.4422 8.20112 21.3562C8.21686 20.368 8.20597 19.3785 8.21444 18.3903C8.21686 18.1602 8.10908 18.1166 7.91288 18.1202C7.42966 18.1287 6.94644 18.1226 6.46443 18.1226C6.03449 18.1226 5.60214 18.1226 5.15525 18.1226C5.15525 19.301 5.15525 20.4261 5.15525 21.6118ZM42.6516 18.125C41.6803 18.125 40.7417 18.119 39.8031 18.1372C39.7328 18.1384 39.6093 18.3164 39.6081 18.4145C39.5936 19.3797 39.6057 20.345 39.5948 21.3102C39.5936 21.5367 39.6578 21.6275 39.8951 21.619C40.3529 21.6045 40.8119 21.6154 41.2721 21.6154C41.7263 21.6154 42.1817 21.6154 42.6516 21.6154C42.6516 20.437 42.6516 19.3107 42.6516 18.125ZM47.1083 18.1238C46.1467 18.1238 45.2299 18.125 44.3144 18.1214C44.1363 18.1202 44.06 18.1844 44.06 18.3673C44.0649 19.3664 44.0661 20.3656 44.06 21.3671C44.0588 21.5815 44.1666 21.619 44.3471 21.6166C44.9344 21.6118 45.523 21.6154 46.1104 21.6154C46.4374 21.6154 46.7608 21.6154 47.1071 21.6154C47.1083 20.4358 47.1083 19.3022 47.1083 18.1238ZM17.1026 21.5984C17.1026 20.4237 17.1026 19.2889 17.1026 18.1505C16.0792 18.1505 15.0861 18.1505 14.0894 18.1505C14.0894 19.3131 14.0894 20.4479 14.0894 21.5984C15.1031 21.5984 16.0877 21.5984 17.1026 21.5984ZM9.63141 18.1238C9.63141 19.3143 9.63141 20.4479 9.63141 21.6118C10.5979 21.6118 11.5376 21.6154 12.4762 21.6021C12.5416 21.6009 12.6603 21.4604 12.6615 21.3841C12.6736 20.3728 12.6736 19.3604 12.6615 18.3479C12.6591 18.2728 12.5392 18.1347 12.4738 18.1335C11.534 18.1202 10.5954 18.1238 9.63141 18.1238ZM1.49294 21.613C2.19415 21.613 2.85177 21.6202 3.50818 21.6033C3.5869 21.6009 3.73102 21.4616 3.73223 21.3853C3.74797 20.374 3.74676 19.3628 3.73465 18.3527C3.73344 18.2764 3.61354 18.136 3.54693 18.1347C2.86873 18.1178 2.19173 18.1238 1.49415 18.1238C1.49294 19.2986 1.49294 20.431 1.49294 21.613ZM35.9397 18.142C35.9397 19.2635 35.9373 20.3425 35.947 21.4216C35.9482 21.4846 36.0475 21.5984 36.1032 21.6009C36.7923 21.613 37.4827 21.6081 38.1875 21.6081C38.1875 20.4285 38.1875 19.295 38.1875 18.1408C37.4403 18.142 36.7172 18.142 35.9397 18.142ZM18.5232 18.1226C18.5232 19.2538 18.5183 20.3244 18.5341 21.395C18.5341 21.4688 18.6794 21.5996 18.7618 21.6033C19.2086 21.6251 19.6567 21.6093 20.1048 21.6154C20.278 21.6178 20.3676 21.5621 20.3664 21.3756C20.3628 20.3631 20.3701 19.3495 20.3555 18.3358C20.3543 18.2631 20.2284 18.1335 20.1557 18.1311C19.6301 18.1142 19.1021 18.1226 18.5232 18.1226ZM53.0305 18.1384C53.0305 19.2974 53.0305 20.4394 53.0305 21.5827C53.6433 21.5827 54.2234 21.5827 54.8035 21.5827C54.8035 20.4188 54.8035 19.2865 54.8035 18.1384C54.2028 18.1384 53.6288 18.1384 53.0305 18.1384Z" fill="#D7000C"/>
<path fill-rule="evenodd" clip-rule="evenodd" d="M1.47211 23.0034C1.65619 23.0034 1.78457 23.0034 1.91173 23.0034C7.91022 23.0034 13.9087 23.0034 19.9084 23.0034C20.3638 23.0034 20.365 23.0046 20.365 23.4709C20.3662 30.3317 20.3638 37.19 20.3735 44.0508C20.3747 44.4044 20.2838 44.5122 19.9229 44.5122C13.9002 44.5074 7.87752 44.5147 1.8536 44.5316C1.53509 44.5328 1.46484 44.4335 1.46484 44.1295C1.47332 37.2227 1.47211 30.3159 1.47211 23.4091C1.47211 23.2917 1.47211 23.1766 1.47211 23.0034ZM5.54135 24.8891C5.54135 27.0206 5.54135 29.1327 5.54135 31.2594C6.0064 31.2594 6.44481 31.2594 6.88565 31.2594C6.88565 29.1194 6.88565 27.006 6.88565 24.8891C6.42907 24.8891 5.99671 24.8891 5.54135 24.8891ZM11.581 24.8891C11.1038 24.8891 10.6727 24.8891 10.2258 24.8891C10.2258 27.023 10.2258 29.1351 10.2258 31.2569C10.6884 31.2569 11.1281 31.2569 11.581 31.2569C11.581 29.1242 11.581 27.0206 11.581 24.8891ZM15.4952 31.2848C15.8622 31.2848 16.1795 31.2642 16.4944 31.2896C16.802 31.3151 16.8686 31.1843 16.8662 30.9033C16.8528 29.7019 16.8613 28.5005 16.8601 27.2967C16.8601 26.5894 16.8686 25.8809 16.8504 25.1749C16.8492 25.0719 16.7378 24.8915 16.6651 24.8854C16.2849 24.8564 15.8973 24.8721 15.4952 24.8721C15.4952 27.0242 15.4952 29.1303 15.4952 31.2848Z" fill="#FAFAFA"/>
<path fill-rule="evenodd" clip-rule="evenodd" d="M54.8303 23.0225C54.8303 23.1884 54.8303 23.3156 54.8303 23.4427C54.8303 30.3144 54.8303 37.1861 54.8303 44.0566C54.8303 44.5228 54.8291 44.5228 54.3786 44.5228C49.9218 44.524 45.4686 44.5265 41.0131 44.5228C39.4568 44.5228 37.9018 44.501 36.3456 44.5095C36.021 44.5119 35.9277 44.4114 35.9277 44.0868C35.9374 37.1922 35.9374 30.2963 35.9289 23.4028C35.9289 23.1024 35.9968 22.9971 36.3201 22.9971C42.3658 23.0068 48.4128 23.0043 54.4597 23.0043C54.5651 23.0043 54.6692 23.0152 54.8303 23.0225ZM49.9702 24.8876C49.9702 27.0348 49.9702 29.1409 49.9702 31.2591C50.4304 31.2591 50.8701 31.2591 51.3109 31.2591C51.3109 29.1191 51.3109 27.0058 51.3109 24.8876C50.8519 24.8876 50.422 24.8876 49.9702 24.8876ZM46.0778 31.2639C46.0778 29.1142 46.0778 27.0094 46.0778 24.8936C45.6164 24.8936 45.1768 24.8936 44.7347 24.8936C44.7347 27.0324 44.7347 29.1445 44.7347 31.2639C45.1949 31.2639 45.6273 31.2639 46.0778 31.2639ZM41.3497 24.8936C40.8847 24.8936 40.4451 24.8936 40.0079 24.8936C40.0079 27.0336 40.0079 29.1457 40.0079 31.2627C40.4669 31.2627 40.8968 31.2627 41.3497 31.2627C41.3497 29.1373 41.3497 27.0336 41.3497 24.8936Z" fill="#FAFAFA"/>
<path fill-rule="evenodd" clip-rule="evenodd" d="M24.1225 36.5589C24.1225 34.1198 24.1189 31.6807 24.1225 29.2416C24.1274 27.1004 25.4668 25.4872 27.5693 25.0852C29.6971 24.6794 31.9849 26.3774 32.1944 28.5331C32.2416 29.0345 32.2513 29.5431 32.2513 30.0482C32.2549 34.7145 32.2501 39.3796 32.2622 44.0458C32.2622 44.3946 32.1847 44.5121 31.8153 44.5109C29.3871 44.4927 26.9601 44.4964 24.5331 44.5085C24.2085 44.5097 24.114 44.4128 24.1152 44.0882C24.1286 41.5789 24.1225 39.0683 24.1225 36.5589Z" fill="#FAFAFA"/>
<path fill-rule="evenodd" clip-rule="evenodd" d="M21.7832 44.5037C21.7832 36.3108 21.7832 28.159 21.7832 19.9878C26.0329 19.9878 30.2584 19.9878 34.5407 19.9878C34.5407 20.1464 34.5407 20.2942 34.5407 20.4419C34.5407 28.2801 34.5419 36.117 34.5395 43.9563C34.5395 44.5715 34.6558 44.5219 33.9425 44.5231C33.8625 44.5231 33.7826 44.511 33.647 44.5001C33.647 44.3402 33.647 44.1925 33.647 44.0447C33.647 39.1059 33.6506 34.1683 33.6445 29.2296C33.6409 26.656 32.0435 24.5112 29.6589 23.8499C26.5173 22.9804 23.3273 25.015 22.8066 28.2304C22.7448 28.6119 22.7315 29.0043 22.7315 29.3918C22.7278 34.2483 22.7303 39.1047 22.7291 43.9599C22.7278 44.5849 22.8175 44.5207 22.1623 44.5231C22.046 44.5231 21.9297 44.5122 21.7832 44.5037Z" fill="#FAFAFA"/>
<path fill-rule="evenodd" clip-rule="evenodd" d="M28.164 1.36861C32.0298 1.36861 35.8968 1.36861 39.7625 1.36861C40.2421 1.36861 40.2421 1.36861 40.2421 1.85546C40.2421 2.3508 40.2433 2.84613 40.2409 3.34146C40.2409 3.81015 40.2397 3.81136 39.7528 3.81136C35.6388 3.81136 31.5248 3.81136 27.4107 3.81136C23.9095 3.81136 20.4094 3.81136 16.9082 3.81257C16.815 3.81257 16.7205 3.81015 16.626 3.81378C16.1077 3.84285 16.1077 3.84285 16.1077 3.31118C16.1065 2.79284 16.1259 2.27329 16.098 1.75494C16.0835 1.43885 16.1876 1.36013 16.4964 1.36134C19.6658 1.37224 22.8365 1.3674 26.0083 1.3674C26.7264 1.3674 27.4446 1.3674 28.164 1.36861Z" fill="#FAFAFA"/>
<path fill-rule="evenodd" clip-rule="evenodd" d="M38.9706 11.5757C38.9706 12.4428 38.9706 13.2882 38.9706 14.1613C31.9548 14.1613 24.9426 14.1613 17.9062 14.1613C17.9062 13.3087 17.9062 12.4549 17.9062 11.5757C24.9196 11.5757 31.9209 11.5757 38.9706 11.5757Z" fill="#FAFAFA"/>
<path fill-rule="evenodd" clip-rule="evenodd" d="M23.1514 5.26611C26.5618 5.26611 29.9504 5.26611 33.3632 5.26611C33.3741 5.38601 33.3886 5.48895 33.3886 5.59189C33.3899 7.00523 33.3874 8.41977 33.3923 9.83431C33.3923 10.0366 33.3717 10.1637 33.1125 10.1637C29.8486 10.1565 26.5836 10.1589 23.3185 10.1565C23.2725 10.1565 23.2277 10.1444 23.1514 10.1322C23.1514 8.52029 23.1514 6.9144 23.1514 5.26611Z" fill="#FAFAFA"/>
<path fill-rule="evenodd" clip-rule="evenodd" d="M21.7687 16.7302C21.581 16.7302 21.443 16.7302 21.3049 16.7302C20.2573 16.7302 19.2073 16.7254 18.1597 16.7339C17.9199 16.7363 17.8194 16.6685 17.8255 16.4154C17.8485 15.4017 17.708 15.5894 18.6369 15.5894C25.2821 15.5821 31.9285 15.5858 38.5737 15.5858C39.0375 15.5858 39.04 15.587 39.04 16.0508C39.0351 16.8489 39.1187 16.7242 38.3678 16.729C37.2367 16.7351 36.1067 16.7314 34.9732 16.7314C34.8472 16.7314 34.7188 16.7314 34.5553 16.7314C34.5553 17.3467 34.5553 17.9316 34.5553 18.5456C30.2851 18.5456 26.0523 18.5456 21.7675 18.5456C21.7687 17.9558 21.7687 17.3624 21.7687 16.7302Z" fill="#FAFAFA"/>
<path fill-rule="evenodd" clip-rule="evenodd" d="M40.4327 14.0293C40.6192 14.0293 40.7355 14.0293 40.8518 14.0293C44.8823 14.0293 48.9115 14.0293 52.9408 14.0293C53.401 14.0293 53.401 14.0305 53.4022 14.498C53.4034 15.0866 53.3828 15.6764 53.4107 16.265C53.4289 16.621 53.3199 16.7264 52.9577 16.7252C50.0487 16.7094 47.1361 16.7167 44.2258 16.7167C43.0947 16.7167 41.9635 16.7082 40.8324 16.7227C40.5369 16.7264 40.4146 16.6634 40.4255 16.3352C40.4497 15.5843 40.4327 14.8322 40.4327 14.0293Z" fill="#FAFAFA"/>
<path fill-rule="evenodd" clip-rule="evenodd" d="M16.4305 14.0557C16.4305 14.901 16.4342 15.7221 16.4233 16.5444C16.4221 16.6014 16.3179 16.6777 16.2477 16.7055C16.175 16.7346 16.0842 16.7164 16.003 16.7164C12.3734 16.7164 8.74623 16.7164 5.11662 16.7164C4.64551 16.7164 4.64551 16.7152 4.64551 16.232C4.64551 15.5162 4.64551 14.7993 4.64551 14.0569C8.57547 14.0557 12.4703 14.0557 16.4305 14.0557Z" fill="#FAFAFA"/>
<path fill-rule="evenodd" clip-rule="evenodd" d="M38.9639 10.1431C37.5723 10.1431 36.2074 10.1431 34.8135 10.1431C34.8135 8.51908 34.8135 6.9035 34.8135 5.26611C36.1953 5.26611 37.5663 5.26611 38.9639 5.26611C38.9639 6.88654 38.9639 8.49365 38.9639 10.1431Z" fill="#FAFAFA"/>
<path fill-rule="evenodd" clip-rule="evenodd" d="M21.7064 10.1417C20.4312 10.1417 19.1862 10.1417 17.9121 10.1417C17.9121 8.51885 17.9121 6.90447 17.9121 5.26709C19.1741 5.26709 20.4275 5.26709 21.7064 5.26709C21.7064 6.88631 21.7064 8.49341 21.7064 10.1417Z" fill="#FAFAFA"/>
<path fill-rule="evenodd" clip-rule="evenodd" d="M51.5931 18.1237C51.5931 19.3033 51.5931 20.4296 51.5931 21.5765C51.4974 21.591 51.4199 21.6116 51.3436 21.6128C50.5067 21.614 49.6711 21.608 48.8354 21.6177C48.609 21.6201 48.5181 21.5523 48.5206 21.3185C48.529 20.3521 48.5181 19.3856 48.5339 18.4192C48.5351 18.3187 48.6574 18.1382 48.7264 18.1358C49.6662 18.1188 50.606 18.1237 51.5931 18.1237Z" fill="#FAFAFA"/>
<path fill-rule="evenodd" clip-rule="evenodd" d="M5.15527 21.6119C5.15527 20.4262 5.15527 19.3011 5.15527 18.1227C5.60216 18.1227 6.03452 18.1227 6.46445 18.1227C6.94646 18.1227 7.42968 18.1276 7.91291 18.1203C8.1091 18.1167 8.21689 18.1603 8.21447 18.3904C8.20599 19.3786 8.21689 20.3681 8.20114 21.3563C8.19993 21.4423 8.07519 21.5998 8.00616 21.601C7.06878 21.6167 6.12898 21.6119 5.15527 21.6119Z" fill="#FAFAFA"/>
<path fill-rule="evenodd" clip-rule="evenodd" d="M42.6515 18.1251C42.6515 19.3107 42.6515 20.437 42.6515 21.6142C42.1816 21.6142 41.7262 21.6142 41.2721 21.6142C40.8119 21.6142 40.3529 21.6045 39.8951 21.6178C39.6577 21.6251 39.5935 21.5343 39.5947 21.309C39.6056 20.3438 39.5935 19.3785 39.6081 18.4133C39.6093 18.3152 39.734 18.1384 39.8031 18.136C40.7416 18.119 41.6802 18.1251 42.6515 18.1251Z" fill="#FAFAFA"/>
<path fill-rule="evenodd" clip-rule="evenodd" d="M47.1086 18.1238C47.1086 19.3022 47.1086 20.4357 47.1086 21.6141C46.7622 21.6141 46.4377 21.6141 46.1119 21.6141C45.5245 21.6141 44.9359 21.6105 44.3486 21.6153C44.1681 21.6177 44.0603 21.5802 44.0615 21.3658C44.0676 20.3655 44.0664 19.3663 44.0615 18.366C44.0615 18.1831 44.1366 18.1189 44.3159 18.1201C45.2314 18.1262 46.147 18.1238 47.1086 18.1238Z" fill="#FAFAFA"/>
<path fill-rule="evenodd" clip-rule="evenodd" d="M17.103 21.5983C16.0881 21.5983 15.1035 21.5983 14.0898 21.5983C14.0898 20.4478 14.0898 19.3142 14.0898 18.1504C15.0866 18.1504 16.0809 18.1504 17.103 18.1504C17.103 19.2888 17.103 20.4236 17.103 21.5983Z" fill="#FAFAFA"/>
<path fill-rule="evenodd" clip-rule="evenodd" d="M9.63184 18.124C10.5959 18.124 11.5344 18.1204 12.4742 18.1337C12.5409 18.1349 12.6595 18.2742 12.662 18.348C12.6741 19.3605 12.6741 20.373 12.662 21.3842C12.6608 21.4605 12.5409 21.601 12.4767 21.6022C11.5393 21.6155 10.5983 21.6119 9.63184 21.6119C9.63184 20.4493 9.63184 19.3157 9.63184 18.124Z" fill="#FAFAFA"/>
<path fill-rule="evenodd" clip-rule="evenodd" d="M1.49219 21.6132C1.49219 20.4312 1.49219 19.2988 1.49219 18.1241C2.18977 18.1241 2.86798 18.118 3.54497 18.135C3.61279 18.1362 3.73148 18.2767 3.73269 18.353C3.7448 19.363 3.74601 20.3743 3.73027 21.3855C3.72905 21.4618 3.58615 21.6011 3.50622 21.6035C2.85102 21.6205 2.1934 21.6132 1.49219 21.6132Z" fill="#FAFAFA"/>
<path fill-rule="evenodd" clip-rule="evenodd" d="M35.9398 18.1421C36.7185 18.1421 37.4403 18.1421 38.1863 18.1421C38.1863 19.2963 38.1863 20.4298 38.1863 21.6094C37.4815 21.6094 36.7924 21.6143 36.1021 21.6022C36.0464 21.5997 35.947 21.4859 35.9458 21.4229C35.9374 20.3426 35.9398 19.2636 35.9398 18.1421Z" fill="#FAFAFA"/>
<path fill-rule="evenodd" clip-rule="evenodd" d="M18.5231 18.1227C19.1032 18.1227 19.63 18.1142 20.1569 18.1312C20.2295 18.1336 20.3555 18.2644 20.3567 18.3359C20.3712 19.3483 20.3639 20.362 20.3676 21.3757C20.3688 21.5622 20.2792 21.6179 20.106 21.6155C19.6579 21.6094 19.2098 21.624 18.7629 21.6034C18.6805 21.5997 18.5352 21.4689 18.5352 21.3951C18.5183 20.3257 18.5231 19.2539 18.5231 18.1227Z" fill="#FAFAFA"/>
<path fill-rule="evenodd" clip-rule="evenodd" d="M53.0312 18.1387C53.6295 18.1387 54.2036 18.1387 54.8043 18.1387C54.8043 19.2868 54.8043 20.4191 54.8043 21.583C54.2242 21.583 53.6441 21.583 53.0312 21.583C53.0312 20.4409 53.0312 19.2977 53.0312 18.1387Z" fill="#FAFAFA"/>
<path fill-rule="evenodd" clip-rule="evenodd" d="M5.54199 24.8887C5.99736 24.8887 6.4285 24.8887 6.88629 24.8887C6.88629 27.0056 6.88629 29.119 6.88629 31.259C6.44546 31.259 6.00584 31.259 5.54199 31.259C5.54199 29.1323 5.54199 27.019 5.54199 24.8887Z" fill="#D7000C"/>
<path fill-rule="evenodd" clip-rule="evenodd" d="M11.5808 24.8887C11.5808 27.0214 11.5808 29.1238 11.5808 31.2565C11.1278 31.2565 10.6882 31.2565 10.2256 31.2565C10.2256 29.1347 10.2256 27.0226 10.2256 24.8887C10.6725 24.8887 11.1048 24.8887 11.5808 24.8887Z" fill="#D7000C"/>
<path fill-rule="evenodd" clip-rule="evenodd" d="M15.4961 31.2846C15.4961 29.1301 15.4961 27.024 15.4961 24.8719C15.8982 24.8719 16.2845 24.855 16.666 24.8852C16.7399 24.8913 16.8501 25.0717 16.8513 25.1747C16.8695 25.8808 16.861 26.5892 16.861 27.2965C16.8622 28.4991 16.8537 29.7005 16.867 30.9031C16.8695 31.1841 16.8029 31.3149 16.4952 31.2894C16.1804 31.264 15.8631 31.2846 15.4961 31.2846Z" fill="#D7000C"/>
<path fill-rule="evenodd" clip-rule="evenodd" d="M49.9697 24.8877C50.4215 24.8877 50.8526 24.8877 51.3104 24.8877C51.3104 27.0059 51.3104 29.1192 51.3104 31.2592C50.8696 31.2592 50.4287 31.2592 49.9697 31.2592C49.9697 29.1398 49.9697 27.0349 49.9697 24.8877Z" fill="#D7000C"/>
<path fill-rule="evenodd" clip-rule="evenodd" d="M46.0775 31.2643C45.6269 31.2643 45.1946 31.2643 44.7344 31.2643C44.7344 29.1449 44.7344 27.0328 44.7344 24.894C45.1764 24.894 45.6173 24.894 46.0775 24.894C46.0775 27.011 46.0775 29.1147 46.0775 31.2643Z" fill="#D7000C"/>
<path fill-rule="evenodd" clip-rule="evenodd" d="M41.3497 24.894C41.3497 27.034 41.3497 29.1377 41.3497 31.2631C40.8967 31.2631 40.4668 31.2631 40.0078 31.2631C40.0078 29.1461 40.0078 27.034 40.0078 24.894C40.4438 24.894 40.8846 24.894 41.3497 24.894Z" fill="#D7000C"/>
</svg>
