<svg width="55" height="50" viewBox="0 0 55 50" fill="none" xmlns="http://www.w3.org/2000/svg">
<path fill-rule="evenodd" clip-rule="evenodd" d="M12.1102 49.6316C11.9429 49.6316 11.7767 49.6316 11.6093 49.6316C11.521 49.6176 11.4327 49.5909 11.3432 49.5909C10.0266 49.5874 8.70881 49.5886 7.39335 49.5886C6.95176 49.5886 6.99127 49.6072 6.99127 49.1772C6.99011 44.1338 6.98895 39.0916 6.9936 34.0494C6.9936 33.5404 7.01103 33.0314 7.04589 32.5247C7.08424 31.9565 7.3643 31.5323 7.89188 31.2918C8.11035 31.1918 8.34509 31.1221 8.56472 31.0257C8.72741 30.9536 8.87267 30.8083 9.03768 30.7805C9.21548 30.7526 9.39792 30.7398 9.57339 30.6863C9.89994 30.5876 10.2265 30.4876 10.5588 30.4063C12.4704 29.9391 14.4181 29.752 16.3796 29.68C19.2697 29.5754 22.1633 29.637 25.0545 29.6556C25.1951 29.6567 25.309 29.6962 25.4205 29.7811C27.2973 31.2104 29.174 32.6386 31.0578 34.0587C31.2204 34.1807 31.2646 34.3097 31.2495 34.5049C31.1995 35.1684 31.1647 35.8355 31.124 36.5002C31.1205 36.5594 31.1147 36.6187 31.1217 36.6745C31.1379 36.8058 31.2309 36.8906 31.3518 36.8941C31.4633 36.8964 31.554 36.8279 31.5888 36.7105C31.5993 36.6791 31.6016 36.6443 31.6039 36.6106C31.6551 35.796 31.7015 34.9813 31.7585 34.1656C31.7689 34.0203 31.7039 33.9413 31.6004 33.8541C31.2321 33.545 30.8253 33.2894 30.4512 32.9896C29.912 32.5561 29.3518 32.1494 28.801 31.7322C28.0096 31.1302 27.2206 30.5318 26.4327 29.9298C26.3653 29.8787 26.2712 29.8438 26.2503 29.7009C28.9219 29.8264 31.5319 30.2203 34.1024 30.8676C34.2186 30.5411 34.3046 30.4806 34.4719 30.6108C34.4068 30.6503 34.3464 30.6852 34.2813 30.7247C34.3046 30.8339 34.3464 30.9013 34.4556 30.9129C34.5045 30.8537 34.5475 30.8002 34.5916 30.7468C34.6067 30.7514 34.6207 30.7561 34.6358 30.7607C34.63 30.8397 34.623 30.9199 34.616 31.0059C37.2353 31.7159 39.7314 32.7014 42.0893 34.0226C42.1578 33.9796 42.2101 33.939 42.2694 33.9087C42.381 33.8506 42.4972 33.8518 42.6041 33.9169C42.6378 33.939 42.6761 33.9959 42.6715 34.0308C42.6657 34.061 42.6064 34.0982 42.5646 34.1063C42.5007 34.1202 42.4321 34.1144 42.3647 34.1156C42.3601 34.1388 42.3542 34.1598 42.3496 34.1818C42.5437 34.2899 42.7377 34.398 42.9318 34.5037C42.9736 34.527 43.0248 34.5351 43.0631 34.563C43.177 34.6455 43.2804 34.742 43.3966 34.8198C44.4541 35.5054 45.4581 36.2608 46.3901 37.1126C47.5812 38.2003 48.1913 39.5553 48.1971 41.1659C48.2076 43.8735 48.2006 46.5835 48.1995 49.2922C48.1995 49.3794 48.1855 49.4677 48.175 49.5862C48.0263 49.5862 47.9043 49.5862 47.7799 49.5862C44.1136 49.5862 40.445 49.5862 36.7786 49.5886C36.6729 49.5886 36.5683 49.6153 36.4637 49.6292C36.4312 49.6292 36.3963 49.6292 36.3638 49.6292C36.2673 49.6153 36.1709 49.5886 36.0744 49.5886C34.9902 49.5851 33.9072 49.5862 32.8241 49.5862C30.873 49.5862 28.9242 49.5862 26.9731 49.5851C26.8708 49.5851 26.7674 49.5735 26.5977 49.563C27.023 49.0389 27.4646 48.5996 27.6424 47.9896C27.5994 47.9373 27.5529 47.878 27.489 47.8013C27.5866 47.7606 27.6529 47.7327 27.7133 47.7072C27.7412 47.6316 27.7517 47.5166 27.7947 47.5026C27.9713 47.4469 27.9887 47.2853 28.0538 47.1575C28.1444 46.9797 28.2188 46.7938 28.306 46.6137C29.0567 45.0611 29.8074 43.5086 30.5627 41.9584C30.7161 41.6435 30.8788 41.3321 31.0636 41.0346C31.1542 40.8893 31.2297 40.7464 31.2483 40.579C31.3146 40.0085 31.3762 39.4367 31.4389 38.8638C31.4436 38.8231 31.4436 38.7813 31.4354 38.7406C31.4133 38.6244 31.3227 38.5442 31.2146 38.5373C31.1066 38.5291 31.0043 38.6012 30.9718 38.7116C30.9555 38.7674 30.9508 38.8278 30.9462 38.8836C30.9183 39.1741 30.8881 39.4646 30.8648 39.7551C30.8265 40.2223 30.7789 40.6859 30.4697 41.0718C30.4395 41.1101 30.4198 41.1577 30.3977 41.2031C29.9189 42.1653 29.4355 43.1251 28.9637 44.0908C28.5326 44.974 28.1131 45.8618 27.6843 46.7473C27.618 46.8833 27.5355 47.0088 27.6145 47.1564C27.5402 47.2191 27.46 47.2586 27.4205 47.3237C27.3391 47.4562 27.2648 47.5979 27.2101 47.7444C27.0207 48.2429 26.7256 48.6705 26.3641 49.0575C26.2793 49.1493 26.1922 49.2411 26.1236 49.3445C26.0051 49.5363 25.847 49.5932 25.6227 49.5932C21.724 49.5862 17.8229 49.5886 13.923 49.5909C13.8359 49.5909 13.7487 49.6176 13.6604 49.6316C13.2444 49.6316 12.8272 49.6316 12.4112 49.6316C12.3101 49.5723 12.2101 49.5572 12.1102 49.6316Z" fill="white"/>
<path d="M12.2309 49.8792L12.11 49.8641L11.4743 49.842C11.4255 49.8315 11.3791 49.8222 11.3442 49.8222C10.5552 49.8199 9.7661 49.8199 8.97706 49.8199H7.39432L7.29903 49.5875V49.8199C7.12588 49.8199 6.97597 49.8199 6.86558 49.7083C6.75634 49.5991 6.7575 49.462 6.75983 49.2714V49.1761C6.75867 44.1118 6.7575 39.08 6.76215 34.0483C6.76215 33.53 6.78075 33.0117 6.81561 32.5085C6.85977 31.8461 7.19909 31.3523 7.7964 31.0803C7.91609 31.0257 8.03811 30.9804 8.16128 30.9339C8.26587 30.8956 8.37046 30.8572 8.47156 30.8131C8.52385 30.7887 8.57382 30.7561 8.62379 30.7236C8.7307 30.6539 8.85156 30.576 8.99914 30.5516L9.1595 30.5284C9.27687 30.5121 9.39308 30.4993 9.50812 30.4633C9.87418 30.3517 10.1879 30.2576 10.504 30.1797C12.2053 29.7637 14.0693 29.5301 16.3725 29.4465C17.495 29.407 18.6885 29.3872 20.1271 29.3872C21.1858 29.3872 22.2444 29.3977 23.3019 29.4081L25.0555 29.4232C25.2472 29.4256 25.4076 29.4802 25.5621 29.5964C27.4389 31.0257 29.3156 32.4539 31.1982 33.8728C31.4166 34.0378 31.5038 34.2377 31.4817 34.5224C31.4468 35.0012 31.4178 35.4799 31.3899 35.9587L31.3562 36.5153C31.3527 36.5781 31.3492 36.6141 31.3527 36.6478L31.419 35.8448C31.4538 35.2812 31.4887 34.7153 31.5282 34.1517C31.5305 34.1157 31.5317 34.1006 31.4538 34.0343C31.2563 33.8693 31.0483 33.7194 30.8414 33.5718C30.6613 33.4417 30.4812 33.3115 30.308 33.1732C29.935 32.8723 29.5515 32.5864 29.1692 32.2994L26.2942 30.117C26.1931 30.0484 26.056 29.9555 26.0223 29.7382L25.9805 29.4581L26.264 29.4709C28.8392 29.5917 31.4283 29.9717 33.9651 30.5958C34.0371 30.4552 34.1463 30.318 34.3334 30.318C34.4566 30.318 34.5542 30.3819 34.617 30.4307L34.8819 30.6376L34.8517 30.6562L34.8715 30.7817L34.8668 30.8363C37.4559 31.5533 39.8812 32.5341 42.0833 33.7554C42.1123 33.7357 42.1414 33.7206 42.1693 33.7055C42.3471 33.6113 42.5562 33.6171 42.7282 33.7229C42.8328 33.7891 42.9281 33.9332 42.9037 34.0738C42.8944 34.1203 42.8758 34.161 42.8491 34.1947L43.0478 34.3051C43.1071 34.3272 43.1547 34.3434 43.2012 34.3771C43.2547 34.4155 43.3046 34.455 43.3534 34.4957C43.4104 34.5422 43.4685 34.5886 43.5289 34.6293C44.6596 35.3626 45.6485 36.1191 46.5514 36.9442C47.7949 38.0783 48.4282 39.4995 48.434 41.1683C48.4421 43.1996 48.4398 45.2332 48.4375 47.2657L48.4363 49.2958C48.4363 49.3632 48.4293 49.4294 48.4212 49.5073L48.3933 49.8222H47.7856C44.1192 49.8222 40.4506 49.8222 36.7842 49.8245C36.7273 49.8245 36.6704 49.8362 36.6146 49.8455L36.3705 49.8664L36.2311 49.8455C36.1811 49.835 36.1312 49.8245 36.0812 49.8245C35.4304 49.8222 34.782 49.8222 34.1336 49.8222L26.9799 49.8211C26.9078 49.8211 26.8358 49.8152 26.7428 49.8094L26.1385 49.7722L26.4232 49.4201C26.4988 49.326 26.5766 49.2354 26.651 49.1447C26.9659 48.7717 27.2425 48.4428 27.3889 48.0431L27.3633 48.0105C27.1762 48.4347 26.9055 48.8333 26.5429 49.2238C26.4546 49.319 26.3825 49.3934 26.3256 49.4806C26.1199 49.792 25.8282 49.828 25.626 49.828C23.6772 49.8245 21.7285 49.8234 19.7808 49.8234L13.9426 49.8257C13.8926 49.8257 13.8473 49.835 13.7997 49.8455L13.7009 49.8641L12.3529 49.8675L12.2983 49.8362L12.2309 49.8792ZM8.9759 49.3562C9.7661 49.3562 10.554 49.3562 11.3442 49.3586C11.4255 49.3586 11.5011 49.3748 11.5662 49.3876L11.6428 49.4027L12.0426 49.4004C12.1716 49.3318 12.3203 49.3307 12.4656 49.3992L13.6986 49.3876C13.7648 49.3737 13.8392 49.3586 13.9205 49.3586L19.775 49.3562C21.7238 49.3562 23.6726 49.3574 25.6202 49.3609C25.8062 49.3609 25.8712 49.3144 25.9317 49.2226C26.0026 49.1157 26.0897 49.0204 26.178 48.9251C26.5685 48.5068 26.8299 48.1012 26.995 47.6677C27.0496 47.5213 27.1263 47.3656 27.2239 47.2076C27.2588 47.1483 27.3052 47.1053 27.3506 47.0704C27.3401 46.9194 27.4063 46.7915 27.454 46.6962L27.992 45.5772C28.2453 45.0484 28.4987 44.5209 28.7543 43.9956C29.0913 43.3053 29.4353 42.6174 29.7793 41.9306L30.1907 41.1067C30.2185 41.0428 30.2453 40.987 30.2883 40.9347C30.5428 40.6163 30.5939 40.2235 30.6334 39.7436C30.6532 39.5007 30.6776 39.2567 30.702 39.0126L30.7159 38.8685C30.724 38.7849 30.7322 38.7175 30.7496 38.6547C30.81 38.4514 30.9948 38.3107 31.2005 38.3107C31.4469 38.3247 31.6258 38.4862 31.6653 38.7035C31.6769 38.7628 31.6793 38.8279 31.6723 38.8964C31.6095 39.4682 31.5468 40.0399 31.4806 40.6116C31.4561 40.8301 31.3609 41.0056 31.2621 41.1648C31.1017 41.4239 30.9472 41.711 30.7729 42.0654C30.1256 43.3936 29.4841 44.7219 28.8403 46.0501L28.5161 46.7207C28.4789 46.7985 28.4441 46.8787 28.4069 46.9577C28.3604 47.0623 28.3139 47.1669 28.2616 47.2691C28.25 47.2924 28.2407 47.3168 28.2314 47.3412C28.1931 47.44 28.1303 47.5969 27.9653 47.6887C27.9502 47.7409 27.942 47.7688 27.9339 47.7944L27.8677 47.9013L27.9014 47.942L27.8677 48.0605C27.7178 48.5718 27.411 48.9588 27.0763 49.3574L34.1277 49.3586C34.7773 49.3586 35.4258 49.3586 36.0765 49.3609C36.1532 49.3609 36.2334 49.3748 36.3113 49.3888L36.3973 49.4039L36.5286 49.3888C36.6111 49.3737 36.6948 49.3609 36.7784 49.3609C40.4448 49.3586 44.1134 49.3586 47.7798 49.3586H47.9634C47.9645 49.3376 47.9657 49.3179 47.9657 49.297L47.968 47.2657C47.9692 45.2344 47.9715 43.2019 47.9634 41.1718C47.9575 39.6378 47.3753 38.3317 46.233 37.2881C45.3487 36.4816 44.3795 35.7391 43.2698 35.0198C43.1942 34.9698 43.1245 34.914 43.0548 34.8571C43.0118 34.8234 42.9688 34.7873 42.9246 34.7548C42.877 34.7397 42.8479 34.7281 42.82 34.713L42.0844 34.3063L42.0879 34.2935L41.9729 34.2296C39.7196 32.9664 37.2223 31.9589 34.5519 31.2349L34.366 31.1838L34.3706 31.1384C34.3358 31.1303 34.2986 31.1175 34.2637 31.1001L34.2463 31.1489L34.0406 31.0978C31.6769 30.5028 29.2656 30.1251 26.8613 29.9717L29.44 31.9298C29.8281 32.2203 30.2151 32.5097 30.5916 32.813C30.7589 32.9466 30.9321 33.0721 31.1052 33.1965C31.3225 33.3534 31.5387 33.5091 31.7443 33.6811C31.8733 33.7891 32.0035 33.9332 31.9849 34.1866C31.9465 34.7502 31.9117 35.3138 31.8768 35.8762L31.8303 36.6292C31.828 36.6734 31.8245 36.7268 31.8059 36.7861C31.7432 36.9941 31.5654 37.1312 31.3527 37.1312C31.1006 37.122 30.9146 36.9476 30.8867 36.7071C30.8786 36.6443 30.8821 36.5816 30.8856 36.5165L30.9204 35.9355C30.9483 35.4544 30.9774 34.9721 31.0134 34.4922C31.0227 34.3644 31.0029 34.3167 30.9135 34.2481C29.0297 32.8281 27.153 31.4011 25.2751 29.9706C25.203 29.9159 25.1368 29.8927 25.0473 29.8927L23.2926 29.8764C22.2363 29.8671 21.18 29.8567 20.1213 29.8567C18.6885 29.8567 17.4997 29.8753 16.3818 29.916C14.1122 29.9985 12.2773 30.2274 10.6086 30.6353C10.2995 30.7108 9.99503 30.8038 9.68941 30.8967C9.4965 30.9548 9.35589 30.9734 9.21412 30.9932L9.06886 31.0141C9.01773 31.0234 8.94685 31.0699 8.87015 31.1187C8.79926 31.164 8.72838 31.2093 8.654 31.2419C8.54244 31.2907 8.42972 31.3325 8.31584 31.3755C8.20312 31.4162 8.09156 31.458 7.98233 31.5068C7.54423 31.7067 7.306 32.0553 7.2723 32.5446C7.2386 33.0384 7.22117 33.5451 7.22117 34.0529C7.21652 39.0847 7.21768 44.1165 7.21885 49.1482L7.21768 49.2795C7.21768 49.3051 7.21768 49.333 7.21768 49.3574C7.24557 49.3574 7.27579 49.3574 7.29206 49.3574L8.9759 49.3562ZM31.1993 38.7733C31.1865 38.8162 31.1842 38.8546 31.1796 38.8929L31.1633 39.0568C31.1389 39.2985 31.1168 39.5391 31.0959 39.7808C31.0599 40.2212 31.0146 40.7697 30.6508 41.2229C30.6427 41.2322 30.6299 41.2601 30.6206 41.2833L30.1953 42.1374C29.8525 42.8242 29.5097 43.511 29.1727 44.199C28.9159 44.7231 28.6637 45.2495 28.4127 45.7771L27.8944 46.8543C27.8165 47.0112 27.8119 47.0332 27.8212 47.0518L27.8375 47.0797C27.8409 47.0716 27.8456 47.0635 27.8491 47.0553C27.8979 46.9589 27.9409 46.8624 27.9839 46.7648C28.0211 46.6811 28.0583 46.5963 28.1001 46.5138L28.4231 45.8444C29.0669 44.515 29.7096 43.1868 30.3568 41.8586C30.5358 41.489 30.6996 41.188 30.8681 40.9149C30.9495 40.786 31.0053 40.6744 31.0204 40.5547C31.0866 39.9853 31.147 39.4136 31.2098 38.8418L31.1993 38.7733Z" fill="#D7000C"/>
<path fill-rule="evenodd" clip-rule="evenodd" d="M36.4666 49.6311C36.5711 49.6171 36.6757 49.5904 36.7815 49.5904C40.4478 49.5881 44.1165 49.5881 47.7828 49.5881C47.906 49.5881 48.0292 49.5881 48.1779 49.5881C48.1884 49.4695 48.2023 49.3812 48.2023 49.2941C48.2035 46.5853 48.2104 43.8753 48.2 41.1677C48.1942 39.5559 47.5852 38.2009 46.393 37.1144C45.461 36.2638 44.457 35.5073 43.3995 34.8216C43.2821 34.7449 43.1798 34.6485 43.066 34.5648C43.0276 34.5381 42.9765 34.5288 42.9346 34.5056C42.7406 34.3986 42.5465 34.2906 42.3524 34.1837C42.3571 34.1616 42.3629 34.1407 42.3675 34.1174C42.435 34.1163 42.5035 34.1221 42.5674 34.1081C42.6093 34.0988 42.6685 34.0628 42.6743 34.0326C42.6801 33.9989 42.6418 33.9408 42.6069 33.9187C42.5 33.8536 42.3838 33.8525 42.2723 33.9106C42.213 33.9396 42.1595 33.9815 42.0921 34.0245C39.7355 32.7032 37.2382 31.7189 34.6189 31.0077C34.6258 30.9217 34.6328 30.8416 34.6386 30.7625C34.6235 30.7579 34.6096 30.7532 34.5945 30.7486C34.5503 30.802 34.5073 30.8555 34.4585 30.9148C34.3481 30.9031 34.3063 30.8357 34.2842 30.7265C34.3493 30.6882 34.4097 30.6533 34.4748 30.6126C34.3063 30.4825 34.2203 30.5417 34.1052 30.8694C31.5347 30.2222 28.9247 29.8282 26.2531 29.7027C26.2752 29.8457 26.3693 29.8805 26.4356 29.9317C27.2234 30.5336 28.0125 31.1321 28.8039 31.734C29.3547 32.1512 29.9148 32.5579 30.454 32.9914C30.8282 33.2912 31.2349 33.548 31.6033 33.856C31.7067 33.942 31.7718 34.0221 31.7613 34.1674C31.7044 34.982 31.6579 35.7966 31.6068 36.6124C31.6045 36.6461 31.6021 36.681 31.5917 36.7123C31.5568 36.8309 31.4662 36.8983 31.3546 36.8959C31.2338 36.8913 31.1396 36.8076 31.1245 36.6763C31.1175 36.6194 31.1234 36.5601 31.1268 36.502C31.1675 35.8373 31.2024 35.1703 31.2523 34.5067C31.2675 34.3115 31.2233 34.1837 31.0606 34.0605C29.1781 32.6404 27.3013 31.2134 25.4234 29.7829C25.3107 29.6981 25.198 29.6586 25.0574 29.6574C22.1661 29.6376 19.2726 29.5772 16.3825 29.6818C14.4209 29.7538 12.4733 29.9409 10.5617 30.4081C10.2305 30.4894 9.90395 30.5894 9.57625 30.6882C9.40077 30.7416 9.21833 30.7544 9.04053 30.7823C8.87436 30.8102 8.7291 30.9543 8.56757 31.0275C8.34794 31.1251 8.1132 31.1948 7.89473 31.2936C7.36831 31.533 7.08826 31.9571 7.04875 32.5266C7.01388 33.0332 6.99645 33.5422 6.99645 34.0512C6.9918 39.0934 6.99297 44.1356 6.99413 49.179C6.99413 49.6078 6.95462 49.5904 7.3962 49.5904C8.71283 49.5904 10.0306 49.5892 11.3461 49.5927C11.4344 49.5927 11.5227 49.6194 11.6122 49.6334C7.81106 49.6334 4.01109 49.6334 0.209961 49.6334C0.315709 49.6194 0.421458 49.5927 0.526044 49.5927C2.37606 49.5892 4.22724 49.5904 6.07609 49.5904C6.10863 49.5904 6.14349 49.5904 6.17603 49.5904C6.50606 49.5892 6.50722 49.5892 6.50722 49.258C6.50722 44.0915 6.50606 38.9226 6.51071 33.756C6.51071 33.3063 6.52581 32.8554 6.56997 32.4092C6.64086 31.6887 7.01853 31.1658 7.67045 30.8543C7.94005 30.7253 8.22244 30.6161 8.50366 30.5115C8.62451 30.4662 8.67797 30.3976 8.671 30.2721C8.66518 30.2047 8.66983 30.1397 8.66983 30.0711C8.66983 26.4466 8.67216 22.8209 8.66518 19.1953C8.66518 18.9838 8.71632 18.8374 8.88946 18.7084C9.17766 18.4957 9.44958 18.2621 9.72151 18.0286C9.84817 17.9182 9.98181 17.8717 10.1503 17.8728C11.0672 17.8798 11.9841 17.8752 12.9009 17.8752C12.959 17.8752 13.0183 17.8763 13.0752 17.874C13.26 17.8647 13.2751 17.8496 13.2844 17.6741C13.2867 17.616 13.2856 17.5568 13.2856 17.4998C13.2856 15.9159 13.2856 14.332 13.2856 12.7493C13.2856 12.6505 13.2856 12.5517 13.2856 12.4216C13.3913 12.4134 13.4773 12.4007 13.5645 12.4007C13.9979 12.3983 14.4314 12.3995 14.8648 12.3995C14.9543 12.3995 15.045 12.3995 15.16 12.3995C15.1693 12.2844 15.1821 12.1961 15.1821 12.109C15.1844 11.6593 15.1867 11.2095 15.1809 10.7586C15.1786 10.6215 15.2227 10.5239 15.318 10.4286C16.8938 8.8575 18.4661 7.28173 20.0419 5.71178C20.1255 5.62811 20.2371 5.57117 20.3475 5.49331C20.2963 5.4538 20.2464 5.41429 20.1952 5.37361C19.9349 5.16677 19.8815 4.88787 20.0372 4.59619C20.0918 4.49509 20.136 4.38469 20.1639 4.2743C20.3882 3.41088 20.6078 2.54746 20.8286 1.68404C20.8553 1.58062 20.8867 1.47835 20.932 1.32031C20.9727 1.43303 20.9982 1.48997 21.0145 1.54924C21.276 2.47076 21.534 3.39345 21.7966 4.31497C21.821 4.40212 21.8524 4.48928 21.8954 4.56946C22.079 4.90995 22.0267 5.16677 21.721 5.39686C21.6827 5.42591 21.6432 5.4538 21.6106 5.47588C22.3172 6.10572 22.9912 6.75648 23.6687 7.38516C23.5281 7.73262 23.6501 7.93482 24.0196 7.93714C23.9569 7.97898 23.8895 8.06264 23.8349 8.05451C23.7268 8.03824 23.5873 7.99757 23.5327 7.91739C23.47 7.82442 23.3991 7.7698 23.3096 7.71519C23.2457 7.67684 23.1945 7.61873 23.1399 7.56876C22.6461 7.10858 22.151 6.64841 21.6629 6.18358C21.5584 6.0848 21.4503 6.03367 21.3062 6.03832C21.0819 6.04529 20.8553 6.04878 20.6322 6.03716C20.466 6.02902 20.351 6.0941 20.2382 6.20682C18.9623 7.48858 17.6829 8.76802 16.4046 10.0475C16.2047 10.2473 15.999 10.4437 15.8084 10.6529C15.7457 10.7215 15.6841 10.8214 15.6818 10.9086C15.669 11.3583 15.6771 11.808 15.6783 12.2589C15.6783 12.2903 15.6922 12.3228 15.6992 12.3507C15.8886 12.4146 26.4704 12.4251 26.7296 12.3588C26.7354 12.2833 26.7458 12.2019 26.7458 12.1194C26.7482 11.7615 26.7424 11.4024 26.7505 11.0445C26.754 10.89 26.704 10.7807 26.5866 10.6773C25.8754 10.0475 25.1701 9.41065 24.4635 8.77616C24.395 8.71457 24.3241 8.6553 24.2671 8.58441C24.187 8.48331 24.1951 8.34851 24.273 8.26368C24.3531 8.17653 24.4786 8.16258 24.5914 8.23579C24.6402 8.26601 24.682 8.30784 24.725 8.34735C25.5082 9.04808 26.2891 9.74997 27.0735 10.4461C27.1921 10.5495 27.2374 10.661 27.2351 10.8156C27.2258 11.2328 27.2304 11.6488 27.2316 12.066C27.2316 12.1648 27.242 12.2624 27.249 12.3855C27.3536 12.3914 27.4419 12.4018 27.5302 12.4018C27.9637 12.403 28.3971 12.4018 28.8294 12.403C28.9189 12.403 29.0084 12.4123 29.1258 12.4204C29.1258 12.5494 29.1258 12.6563 29.1258 12.7632C29.1258 14.3553 29.1258 15.9461 29.1258 17.5382C29.1258 17.8775 29.1269 17.8787 29.4744 17.8787C30.3576 17.8787 31.2419 17.881 32.1239 17.8763C32.2819 17.8763 32.4121 17.9135 32.5388 18.0088C32.8862 18.2679 33.2395 18.519 33.5951 18.7665C33.7101 18.8455 33.7589 18.9361 33.7543 19.0779C33.7438 19.3754 33.7508 19.6741 33.7508 19.9611C33.6137 20.0552 33.4289 19.982 33.3592 20.1482C33.3313 20.2179 33.3092 20.2865 33.3882 20.3748C33.4243 20.3144 33.4429 20.2586 33.48 20.2284C33.5277 20.19 33.5893 20.154 33.6462 20.1517C33.7276 20.1482 33.7543 20.2191 33.7485 20.2934C33.738 20.4689 33.8136 20.6618 33.623 20.8117C33.7647 20.8954 33.7508 21.0209 33.7508 21.1476C33.7496 22.2724 33.7508 23.3985 33.7508 24.5222C33.7508 24.5803 33.7496 24.6396 33.7508 24.6977C33.7554 24.9394 33.7624 24.9487 34.0076 24.9499C34.5584 24.9522 35.1081 24.9499 35.6589 24.951C35.7484 24.951 35.8379 24.951 35.9657 24.951C35.9657 25.4925 35.9657 26.0062 35.9657 26.5198C35.9657 27.0288 35.9471 27.5378 35.9704 28.0444C35.9936 28.5546 35.8844 29.0589 35.9576 29.5691C35.7496 29.5516 35.8367 29.2054 35.5811 29.2716C35.5392 29.4668 35.5392 29.4668 35.9657 29.8143C35.9657 30.0839 35.9645 30.3674 35.9657 30.6498C35.968 30.8904 35.9692 30.8927 36.1958 30.9647C37.2998 31.3168 38.3875 31.7154 39.4508 32.1756C40.5303 32.6416 41.5808 33.1669 42.5976 33.7583C42.7011 33.8199 42.7894 33.9175 42.8638 34.0128C43.0102 34.2034 43.1415 34.4056 43.2775 34.5997C43.4529 34.5253 43.4529 34.5253 43.3088 34.2011C43.3716 34.2336 43.4134 34.2522 43.4506 34.2755C44.5941 34.9983 45.676 35.8048 46.68 36.7112C48.0048 37.9046 48.6799 39.3921 48.6834 41.1758C48.6881 43.7673 48.6846 46.3598 48.6846 48.9513C48.6846 49.15 48.6846 49.3487 48.6846 49.5695C48.8229 49.5788 48.9274 49.5927 49.032 49.5927C50.9064 49.5939 52.7832 49.5927 54.6576 49.595C54.7622 49.5962 54.8679 49.6229 54.9725 49.6369C48.8031 49.6311 42.6337 49.6311 36.4666 49.6311ZM16.2837 24.9766C16.5138 24.965 16.7265 24.9464 16.9368 24.9464C19.2203 24.944 21.5037 24.9452 23.7872 24.9452C26.8458 24.9452 29.9043 24.9452 32.9629 24.9452C33.2546 24.9452 33.2616 24.9382 33.2616 24.6558C33.2627 23.4647 33.2627 22.2724 33.2616 21.0802C33.2604 20.993 33.2453 20.9058 33.236 20.7908C33.1047 20.7908 32.9966 20.7908 32.8909 20.7908C31.6323 20.7908 30.3738 20.7908 29.1153 20.7908C29.0235 20.7908 28.9317 20.7931 28.8422 20.778C28.719 20.7559 28.6505 20.6665 28.6481 20.5526C28.647 20.4352 28.7144 20.3481 28.8341 20.3202C28.8899 20.3074 28.9503 20.3074 29.0072 20.3062C29.2733 20.3039 29.5406 20.3004 29.8067 20.3004C30.8561 20.3004 31.9078 20.3004 32.9571 20.3004C33.0466 20.3004 33.1349 20.2911 33.2162 20.2865C33.236 20.24 33.2523 20.2167 33.2523 20.1935C33.2569 19.8774 33.2569 19.5613 33.2604 19.2441C33.2604 19.1372 33.1884 19.0814 33.1128 19.0268C32.8839 18.8618 32.6468 18.7049 32.4249 18.5282C32.2657 18.4016 32.0983 18.3574 31.8961 18.3574C26.8039 18.3621 21.7118 18.3609 16.6207 18.3609C14.5278 18.3609 12.4361 18.3609 10.3455 18.3609C10.2119 18.3609 10.0841 18.3586 9.97135 18.4585C9.75288 18.6514 9.52628 18.835 9.29735 19.0152C9.19509 19.0953 9.15209 19.186 9.1579 19.315C9.16488 19.4963 9.16023 19.6787 9.16023 19.8507C8.73956 20.0366 8.73375 20.0424 8.81161 20.2876C8.91271 20.204 8.91154 19.9622 9.12188 20.0668C9.15906 20.1447 9.18231 20.2249 9.22995 20.2876C9.33919 20.434 9.32292 20.5305 9.1579 20.6165C9.11607 20.6397 9.0754 20.6676 8.99173 20.7199C9.3938 20.8001 9.39497 20.5189 9.46237 20.3016C13.4796 20.3016 17.4853 20.3016 21.4933 20.3027C21.5223 20.3027 21.5525 20.3271 21.5735 20.3364C21.6141 20.52 21.4119 20.477 21.362 20.5747C21.5711 20.6409 21.649 20.6269 21.699 20.4631C21.7443 20.3155 21.8268 20.2958 21.9581 20.2969C23.7733 20.3016 25.5907 20.3016 27.4071 20.3027C27.4896 20.3027 27.5756 20.3027 27.6557 20.319C27.7731 20.3434 27.8393 20.441 27.8312 20.5572C27.8231 20.6688 27.765 20.7513 27.6546 20.7699C27.5558 20.7862 27.4547 20.7862 27.3548 20.7862C25.4641 20.7873 23.5711 20.7885 21.6804 20.7885C17.5969 20.7885 13.5133 20.7885 9.42983 20.7885C9.34964 20.7885 9.26946 20.8001 9.1579 20.8094C9.1579 20.9395 9.1579 21.0453 9.1579 21.151C9.1579 22.2922 9.1579 23.4345 9.1579 24.5768C9.1579 24.9394 9.1579 24.9406 9.53093 24.9406C11.439 24.9406 13.3472 24.9406 15.2564 24.9406C15.3541 24.9406 15.4528 24.9406 15.5237 24.9406C15.6097 25.0858 15.6632 25.2102 15.748 25.3066C15.8758 25.4519 16.0548 25.3972 16.0966 25.2102C16.1001 25.1939 16.0757 25.1706 16.0571 25.1393C16.0002 25.1788 15.9502 25.2136 15.8782 25.2648C15.8201 25.1753 15.7701 25.0998 15.7062 25.001C15.841 24.9766 15.9351 24.9603 16.0304 24.9429C16.1106 25.0277 16.1873 25.1067 16.2616 25.1846C16.2767 25.1765 16.2895 25.1672 16.3035 25.159C16.2977 25.1044 16.2907 25.044 16.2837 24.9766ZM13.8225 17.8728C13.9433 17.8728 14.0584 17.8728 14.1734 17.8728C17.6654 17.8728 21.1574 17.8728 24.6495 17.8728C25.8917 17.8728 27.1328 17.8728 28.3751 17.8717C28.6226 17.8717 28.6377 17.8566 28.6377 17.623C28.64 16.698 28.6388 15.773 28.6365 14.848C28.6365 14.7875 28.6203 14.7271 28.6121 14.6597C28.2972 14.7817 27.6546 14.7992 27.4489 14.6911C27.4686 14.6644 27.4814 14.6318 27.5058 14.6167C27.5395 14.5946 27.5872 14.5923 27.6209 14.5691C27.643 14.5528 27.6639 14.5145 27.6592 14.4889C27.6557 14.4633 27.6255 14.4331 27.5976 14.4215C27.4919 14.3785 27.3571 14.4273 27.2955 14.5342C27.2606 14.5981 27.2409 14.6702 27.213 14.7434C27.1572 14.7492 27.1084 14.7562 27.0596 14.7585C27.0271 14.7597 26.9922 14.7585 26.9608 14.7515C26.8376 14.7225 26.7551 14.6214 26.754 14.5017C26.754 14.3808 26.833 14.2832 26.962 14.2565C27.0015 14.2472 27.0445 14.246 27.0852 14.2472C27.5941 14.2727 28.1089 14.174 28.6191 14.332C28.6191 13.8532 28.6191 13.3919 28.6191 12.9073C28.4878 12.8992 28.3739 12.8864 28.2589 12.8864C24.8342 12.8864 21.4084 12.8864 17.9827 12.8864C16.6916 12.8864 15.3994 12.8864 14.1072 12.8876C14.0037 12.8876 13.8992 12.905 13.776 12.9143C13.776 13.3326 13.7748 13.7243 13.7771 14.1147C13.7771 14.2042 13.8248 14.2542 13.9143 14.2588C13.9886 14.2611 14.0642 14.2623 14.1385 14.2623C14.9218 14.2623 15.705 14.2623 16.4871 14.2623C19.2621 14.2623 22.0371 14.2623 24.8122 14.2623C24.8865 14.2623 24.9632 14.2588 25.0364 14.2681C25.1701 14.2867 25.2526 14.3773 25.2537 14.4994C25.2561 14.619 25.177 14.7167 25.0422 14.7387C24.9528 14.7527 24.8598 14.7492 24.7692 14.7492C22.0267 14.7492 19.2842 14.7492 16.5429 14.7504C16.3604 14.7504 16.1768 14.7573 15.9932 14.7585C15.7282 14.7597 15.4645 14.7585 15.2135 14.7585C15.0972 14.5168 15.3413 14.5575 15.4005 14.4598C15.3773 14.339 15.2867 14.3494 15.2076 14.3564C14.9729 14.3773 14.9915 14.5923 14.9346 14.7457C14.5534 14.7817 14.1792 14.7074 13.8155 14.7724C13.7585 15.006 13.7574 17.6009 13.8225 17.8728ZM12.8417 27.9829C12.8544 27.7597 12.636 27.661 12.5953 27.4634C12.6278 27.4216 12.6662 27.3739 12.708 27.3193C12.8951 27.5041 12.9927 27.6923 12.9788 27.9503C12.9579 28.3489 12.9718 28.7498 12.9741 29.1484C12.9741 29.2379 12.9858 29.3274 12.9927 29.4366C14.0328 29.3529 15.0484 29.2681 16.0745 29.1844C16.0792 29.0915 16.0862 29.0171 16.0862 28.9439C16.0897 28.3361 16.092 27.7272 16.092 27.1206C16.092 26.6453 16.0897 26.1712 16.085 25.6959C16.0838 25.431 16.0699 25.4217 15.7956 25.4275C15.7213 25.4286 15.6423 25.4147 15.5714 25.4321C15.3773 25.4809 15.2042 25.281 15.0612 25.3357C14.8765 25.4077 14.701 25.4286 14.5139 25.4286C14.0979 25.4298 13.6807 25.4286 13.2647 25.4286C12.9788 25.4286 12.9765 25.4309 12.9753 25.725C12.973 26.134 12.9753 26.5419 12.973 26.9498C12.973 27.0323 12.9648 27.116 12.9544 27.1973C12.9509 27.2171 12.9242 27.2322 12.8998 27.2589C12.8382 27.2136 12.7812 27.1706 12.7313 27.1334C12.6592 27.1764 12.6011 27.2124 12.5082 27.2682C12.5012 27.1392 12.493 27.0509 12.493 26.9626C12.4907 26.5628 12.4919 26.1631 12.4919 25.7633C12.4907 25.6959 12.4884 25.6297 12.4849 25.5634C12.4814 25.4844 12.4384 25.4414 12.3606 25.4356C12.2943 25.4309 12.2281 25.4298 12.1619 25.4298C11.2694 25.4298 10.3792 25.4298 9.48677 25.4298C9.42053 25.4298 9.34848 25.417 9.28922 25.4391C9.23809 25.46 9.1916 25.5135 9.16604 25.5646C9.14512 25.6053 9.15907 25.6622 9.15907 25.7122C9.15907 27.1369 9.15906 28.5616 9.16023 29.9851C9.16023 30.0653 9.16952 30.1455 9.17533 30.2524C9.27411 30.2315 9.345 30.2222 9.41472 30.2012C10.3339 29.9293 11.2682 29.7201 12.2153 29.5737C12.4896 29.5319 12.4907 29.5296 12.4919 29.2367C12.493 28.787 12.4907 28.3384 12.493 27.8887C12.493 27.8353 12.5093 27.783 12.5186 27.7144C12.6534 27.79 12.6732 27.9631 12.8417 27.9829ZM35.7705 29.8445C35.7263 29.7829 35.6938 29.7085 35.638 29.6667C35.4858 29.5517 35.4718 29.4006 35.4718 29.2263C35.4765 28.077 35.4753 26.9265 35.473 25.7761C35.473 25.6715 35.459 25.5669 35.4509 25.4519C35.3521 25.4426 35.2789 25.431 35.2057 25.431C33.8891 25.4298 32.5713 25.4298 31.2558 25.431C31.1768 25.431 31.0966 25.4484 31.0164 25.4577C31.0072 25.532 30.9955 25.5809 30.9955 25.6297C30.9932 26.9207 30.9932 28.2141 30.9944 29.5052C30.9944 29.7027 31.0048 29.7097 31.1977 29.7527C31.2465 29.7631 31.2953 29.769 31.3453 29.7794C32.297 29.9816 33.2511 30.1885 34.204 30.3872C34.4213 30.4325 34.6189 30.5011 34.7606 30.6823C34.7699 30.694 34.7909 30.6916 34.8257 30.7009C34.8896 30.5824 34.9884 30.5824 35.1116 30.6289C35.2138 30.6684 35.3289 30.68 35.4742 30.7114C35.4742 30.5231 35.4765 30.3756 35.473 30.2268C35.4695 30.0316 35.6845 30.0107 35.7705 29.8445ZM30.4842 29.6249C30.4924 29.4947 30.5051 29.3971 30.5051 29.2995C30.5063 28.1165 30.5063 26.9335 30.5063 25.7517C30.5063 25.7098 30.5075 25.668 30.504 25.6273C30.4924 25.4623 30.4761 25.4437 30.3122 25.4333C30.246 25.4286 30.1798 25.431 30.1124 25.4321C29.371 25.4368 28.6307 25.4426 27.8893 25.4449C27.7952 25.4449 27.6848 25.4763 27.6197 25.3647C27.5604 25.2624 27.4675 25.2776 27.378 25.3078C27.2827 25.338 27.2304 25.4065 27.2095 25.5065C27.1781 25.6657 27.2502 25.7552 27.4024 25.7958C27.4024 25.869 27.4024 25.926 27.4024 25.9841C27.3989 26.9672 27.3954 27.9503 27.3919 28.9323C27.3919 28.9997 27.3943 29.0659 27.3931 29.1333C27.3919 29.2344 27.4408 29.2867 27.5419 29.296C27.6162 29.3018 27.6906 29.3123 27.765 29.3192C28.5343 29.4076 29.3036 29.4947 30.0728 29.583C30.196 29.5923 30.3192 29.6063 30.4842 29.6249ZM16.6172 29.1682C16.6986 29.1728 16.7729 29.1798 16.845 29.1775C17.6956 29.1647 18.5451 29.1507 19.3957 29.1368C19.4364 29.1368 19.4783 29.1345 19.5201 29.1356C19.6491 29.1414 19.699 29.0729 19.6967 28.952C19.6956 28.9195 19.6967 28.8846 19.6967 28.8521C19.6967 27.8109 19.6979 26.7685 19.6956 25.7261C19.6956 25.6378 19.6816 25.5506 19.6746 25.4693C19.3946 25.41 16.809 25.4205 16.6126 25.4751C16.5626 25.6785 16.5568 28.8974 16.6172 29.1682ZM23.8012 25.4554C23.7942 25.5553 23.7849 25.6297 23.7849 25.7029C23.7849 26.7685 23.7837 27.8329 23.786 28.8986C23.786 28.9764 23.8023 29.0554 23.8128 29.1496C24.3462 29.1589 24.8528 29.174 25.3595 29.1763C25.8627 29.1786 26.3635 29.2414 26.8806 29.2286C26.8899 29.1205 26.9027 29.0473 26.9027 28.9741C26.9027 28.1746 26.9027 27.3763 26.9004 26.5779C26.8992 26.2618 26.8934 25.9457 26.8841 25.6297C26.8795 25.4646 26.8574 25.4472 26.6947 25.4333C26.6703 25.4321 26.6447 25.4321 26.6203 25.4321C25.7558 25.4321 24.89 25.4321 24.0243 25.4321C23.9592 25.4321 23.8941 25.4449 23.8012 25.4554ZM23.2829 29.1287C23.2898 29.0369 23.3015 28.9578 23.3015 28.8753C23.3038 27.8271 23.3038 26.7766 23.3038 25.7284C23.3038 25.6796 23.3026 25.6285 23.2991 25.5797C23.2957 25.4914 23.2515 25.4402 23.1609 25.4356C23.1109 25.4333 23.0609 25.4321 23.0109 25.4321C22.1696 25.4321 21.3294 25.431 20.4881 25.4321C20.3998 25.4321 20.3103 25.4449 20.2278 25.4507C20.1674 25.7133 20.1767 28.916 20.2394 29.1287C21.2423 29.1287 22.2521 29.1287 23.2829 29.1287ZM21.484 4.90065C21.2562 4.61246 20.6996 4.61246 20.4637 4.89949C20.6926 5.18652 21.2458 5.18652 21.484 4.90065ZM21.2307 4.17087C21.1609 3.86757 21.0935 3.59565 20.9564 3.33418C20.8425 3.60146 20.7623 3.86873 20.717 4.17087C20.8948 4.17087 21.0459 4.17087 21.2307 4.17087Z" fill="#D7000C"/>
<path d="M54.9694 49.8637H36.4657L36.4367 49.4012L36.5308 49.3861C36.6133 49.371 36.697 49.3582 36.7806 49.3582C40.447 49.3559 44.1156 49.3559 47.7819 49.3559H47.9656C47.9667 49.335 47.9679 49.3152 47.9679 49.2943L47.9702 47.2595C47.9714 45.2282 47.9737 43.1981 47.9656 41.1691C47.9597 39.6352 47.3776 38.329 46.2352 37.2855C45.3509 36.479 44.3817 35.7364 43.272 35.0171C43.1964 34.9671 43.1267 34.9114 43.057 34.8544C43.014 34.8207 42.971 34.7847 42.9268 34.7521C42.8792 34.737 42.8501 34.7254 42.8222 34.7103L42.0878 34.3036L42.0901 34.2908L41.9751 34.2269C39.7218 32.9637 37.2245 31.9562 34.5541 31.2322L34.3682 31.1811L34.3728 31.1358C34.338 31.1277 34.3008 31.1149 34.2659 31.0974L34.2485 31.1462L34.0428 31.0951C31.6791 30.5001 29.2678 30.1225 26.8635 29.9691L29.4422 31.9272C29.8303 32.2177 30.2173 32.507 30.5938 32.8103C30.7611 32.944 30.9342 33.0695 31.1074 33.1938C31.3247 33.3507 31.5408 33.5064 31.7465 33.6784C31.8755 33.7865 32.0057 33.9306 31.9871 34.1839C31.9487 34.7463 31.915 35.3111 31.879 35.8735L31.8325 36.6266C31.8302 36.6707 31.8267 36.7242 31.8081 36.7834C31.7454 36.9915 31.5676 37.1286 31.3549 37.1286C31.1028 37.1193 30.9168 36.945 30.8889 36.7044C30.8808 36.6417 30.8843 36.5789 30.8878 36.5138L30.9226 35.9328C30.9505 35.4517 30.9796 34.9695 31.0156 34.4895C31.0249 34.3617 31.0051 34.314 30.9157 34.2455C29.0319 32.8254 27.1552 31.3984 25.2773 29.9679C25.2052 29.9133 25.139 29.89 25.0495 29.89L23.2948 29.8738C22.2385 29.8645 21.1822 29.854 20.1235 29.854C18.6907 29.854 17.5019 29.8726 16.384 29.9133C14.1144 29.9958 12.2795 30.2247 10.6108 30.6326C10.3017 30.7081 9.99723 30.8011 9.6916 30.8941C9.4987 30.9522 9.35809 30.9708 9.21632 30.9905L9.07106 31.0114C9.01993 31.0207 8.94904 31.0672 8.87234 31.116C8.80146 31.1613 8.73057 31.2067 8.6562 31.2392C8.54464 31.288 8.43192 31.3298 8.31804 31.3728C8.20532 31.4135 8.09376 31.4554 7.98452 31.5042C7.54642 31.704 7.3082 32.0527 7.2745 32.5419C7.2408 33.0358 7.22337 33.5424 7.22337 34.0503C7.21872 39.0925 7.21988 44.1347 7.22104 49.1781L7.21988 49.278C7.21988 49.3036 7.21988 49.3315 7.21988 49.3559C7.24777 49.3559 7.27798 49.3559 7.29425 49.3559H8.97228C9.76249 49.3559 10.5504 49.3559 11.3406 49.3582C11.4219 49.3582 11.4975 49.3745 11.5625 49.3873L11.6392 49.4024L11.6044 49.8637H0.206786L0.177734 49.4012L0.273024 49.3849C0.356693 49.371 0.440362 49.3582 0.524031 49.3582C1.63148 49.3559 2.74126 49.3559 3.84988 49.3559H6.17402C6.20655 49.3559 6.24258 49.3559 6.27279 49.3547C6.27279 49.3245 6.27279 49.2873 6.27279 49.2559V46.668C6.27279 42.3625 6.27279 38.0582 6.27628 33.7539C6.27628 33.2403 6.2972 32.7917 6.33671 32.3839C6.4134 31.5913 6.84105 30.9894 7.56966 30.6419C7.85205 30.5071 8.14605 30.3932 8.42146 30.291C8.43308 30.234 8.43308 30.1806 8.43424 30.1259L8.43541 27.8959C8.43657 25.5462 8.43657 23.1965 8.43308 20.8456L8.37963 20.8352L8.43308 20.8003C8.43308 20.2646 8.43192 19.7289 8.43076 19.192C8.43076 18.9887 8.46678 18.7284 8.74917 18.518C9.02458 18.3135 9.28256 18.0939 9.56726 17.8475C9.73344 17.7022 9.91705 17.6348 10.1425 17.6348C10.5725 17.6383 10.9943 17.6383 11.4173 17.6383L12.8989 17.6372H12.9942L13.0511 17.636V12.1987L13.3661 12.1743C13.4358 12.1673 13.4974 12.1615 13.5625 12.1615L14.9453 12.1603C14.9476 12.1406 14.9476 12.1208 14.9476 12.1022C14.95 11.6513 14.9523 11.204 14.9465 10.7554C14.943 10.5602 15.0092 10.401 15.1522 10.258L19.876 5.54118C19.9027 5.51445 19.9306 5.49121 19.9585 5.46913C19.6901 5.19837 19.6413 4.83813 19.8307 4.48137C19.8795 4.39189 19.9143 4.30125 19.9387 4.21177C20.0991 3.59704 20.2548 2.9823 20.4117 2.36757L20.6034 1.62035C20.6232 1.54366 20.6441 1.46929 20.6732 1.374L20.9056 0.560547L21.1891 1.33913C21.2112 1.39608 21.2252 1.43675 21.2379 1.47974L22.02 4.24663C22.0444 4.33379 22.07 4.40003 22.099 4.45348C22.3163 4.8544 22.2722 5.19953 21.9724 5.48424C22.3779 5.85029 22.773 6.22332 23.1658 6.59285C23.3854 6.7997 23.6062 7.00655 23.8247 7.21108L23.9432 7.32031L23.8828 7.46906C23.8317 7.5934 23.841 7.65266 23.8491 7.66312C23.8538 7.67009 23.8979 7.69915 24.0188 7.70031L24.7718 7.70496L24.4092 7.94899C24.5126 7.93272 24.6207 7.97107 24.7149 8.0315C24.766 8.06287 24.8125 8.10471 24.8578 8.14654L25.5295 8.7485C26.0942 9.25516 26.6602 9.76066 27.2272 10.2638C27.3946 10.4103 27.4701 10.5834 27.4666 10.81C27.4585 11.1435 27.4608 11.4747 27.462 11.8059L27.4631 12.0557C27.4631 12.0894 27.4643 12.1243 27.4666 12.158C27.4876 12.1592 27.5085 12.1592 27.5294 12.1592L28.8297 12.1603C28.896 12.1603 28.9634 12.165 29.0412 12.1708L29.3573 12.1917V17.5279C29.3573 17.5628 29.3573 17.6023 29.3573 17.636C29.3922 17.636 29.434 17.636 29.4735 17.636H30.8006C31.241 17.636 31.6826 17.636 32.123 17.6337C32.3404 17.6337 32.5158 17.6906 32.6785 17.8126C33.0248 18.0706 33.3758 18.3205 33.729 18.5657C33.9092 18.6912 33.9951 18.8573 33.9882 19.0747C33.98 19.285 33.9824 19.4953 33.9835 19.7022L33.9847 20.0729L33.9498 20.0973C33.9754 20.1565 33.987 20.2251 33.9812 20.2995C33.98 20.3285 33.9824 20.3634 33.9847 20.3983C33.9905 20.4994 33.9986 20.6469 33.9266 20.791C33.987 20.9061 33.9859 21.0281 33.9847 21.1071V24.6816C33.9847 24.6898 33.9847 24.6991 33.9847 24.706C33.9928 24.706 34.0021 24.706 34.0091 24.706L34.7203 24.7072H36.1973L36.1938 26.9802C36.1891 27.3277 36.1856 27.6763 36.2019 28.0214C36.2112 28.2434 36.1973 28.4653 36.1833 28.685C36.1636 28.9755 36.1473 29.2497 36.1868 29.524L36.2275 29.8122L36.1973 29.8099V30.6361C36.1973 30.664 36.1973 30.6895 36.1973 30.7093C36.217 30.7163 36.2391 30.7221 36.2658 30.7314C37.4174 31.0974 38.5191 31.5088 39.5417 31.9504C40.655 32.4315 41.7218 32.9684 42.713 33.5459C42.7897 33.5924 42.8641 33.6528 42.9373 33.7319L43.4718 34.0119C43.5113 34.0328 43.5439 34.0479 43.5741 34.0677C44.7582 34.8161 45.8552 35.6423 46.8349 36.5266C48.2119 37.7666 48.9115 39.3272 48.915 41.1633C48.9185 42.9773 48.9173 44.7913 48.9161 46.6053V49.3431C48.9556 49.3454 48.9928 49.3478 49.0312 49.3478L54.6568 49.3501C54.7404 49.3512 54.8229 49.3652 54.9043 49.378L55.0007 49.3942L54.9694 49.8637ZM48.4281 49.3989H48.4513L48.4525 46.6122C48.4525 44.7982 48.4536 42.9854 48.4501 41.1703C48.4467 39.4713 47.7982 38.028 46.5246 36.8787C45.6403 36.0804 44.6583 35.3297 43.5997 34.6429C43.5938 34.651 43.5892 34.6592 43.5834 34.6662C44.6897 35.3878 45.66 36.1339 46.5478 36.9438C47.7912 38.078 48.4246 39.4992 48.4304 41.1679C48.4385 43.1981 48.4362 45.2294 48.4339 47.2607L48.4327 49.2955C48.4327 49.328 48.4304 49.364 48.4281 49.3989ZM6.73297 49.3989H6.75854C6.75738 49.3605 6.75738 49.3187 6.75854 49.2734V49.1781C6.75738 44.1347 6.75621 39.0925 6.76086 34.0503C6.76086 33.532 6.77946 33.0137 6.81432 32.5105C6.85848 31.8481 7.1978 31.3543 7.79511 31.0823C7.9148 31.0277 8.03682 30.9824 8.16 30.9359C8.26458 30.8976 8.36917 30.8592 8.47027 30.8151C8.52256 30.7906 8.57253 30.7581 8.6225 30.7256C8.72941 30.6558 8.85027 30.578 8.99785 30.5536L9.15821 30.5303C9.27558 30.5141 9.39179 30.5013 9.50683 30.4653C9.87289 30.3537 10.1866 30.2596 10.5027 30.1817C12.204 29.7657 14.068 29.5321 16.3712 29.4485C17.4937 29.4089 18.6872 29.3892 20.1258 29.3892C21.1845 29.3892 22.2431 29.3997 23.3006 29.4101L25.0542 29.4252C25.2459 29.4275 25.4063 29.4822 25.5608 29.5984C27.4376 31.0277 29.3143 32.4559 31.1969 33.8748C31.4153 34.0398 31.5025 34.2397 31.4804 34.5244C31.4456 35.0032 31.4165 35.4819 31.3886 35.9607L31.3549 36.5173C31.3514 36.5812 31.3479 36.6161 31.3514 36.6498L31.4177 35.8468C31.4525 35.2821 31.4874 34.7173 31.5269 34.1537C31.5292 34.1177 31.5304 34.1026 31.4525 34.0363C31.255 33.8713 31.047 33.7214 30.8401 33.5738C30.66 33.4437 30.4799 33.3135 30.3067 33.1752C29.9337 32.8742 29.5502 32.5884 29.1679 32.3013L26.2929 30.119C26.1918 30.0504 26.0547 29.9574 26.021 29.7401L25.9792 29.4601L26.2627 29.4729C28.3289 29.5705 30.4055 29.8343 32.4566 30.2573C32.438 30.2538 32.4217 30.2491 32.4043 30.2456L31.1527 29.9818C30.8471 29.9133 30.7646 29.8122 30.7646 29.5077C30.7634 28.2167 30.7634 26.9233 30.7658 25.6322C30.7658 25.5904 30.7716 25.5485 30.7797 25.4963L30.8099 25.2511L31.0586 25.2197C31.126 25.2104 31.1911 25.2011 31.2573 25.1999H33.2328H35.2083C35.2664 25.1999 35.3257 25.2057 35.3943 25.2139L35.6709 25.2394L35.6941 25.5427C35.7011 25.6229 35.708 25.6996 35.708 25.7775C35.7104 26.8175 35.7115 27.8587 35.708 28.8988C35.7115 28.8209 35.7173 28.7419 35.722 28.6641C35.7359 28.4595 35.7475 28.255 35.7394 28.0505C35.7231 27.6961 35.7278 27.3393 35.7313 26.9837L35.7348 25.1813L34.0091 25.1802C33.6384 25.1778 33.528 25.0698 33.521 24.6991V21.1443C33.5222 21.0781 33.5222 21.0281 33.5164 21.0142L33.492 21.0002C33.4943 21.0269 33.4955 21.0525 33.4966 21.0792C33.4978 22.2738 33.4978 23.4661 33.4966 24.6572C33.4966 25.0675 33.3816 25.179 32.9655 25.179H27.7723C27.7909 25.1999 27.8071 25.2243 27.8222 25.2499H27.8292L27.8908 25.2139L30.2207 25.2011C30.2579 25.2011 30.294 25.2011 30.3311 25.2034C30.6089 25.2208 30.7193 25.3324 30.739 25.6136C30.7425 25.6508 30.7425 25.6903 30.7425 25.731L30.7413 29.302C30.7413 29.3706 30.7355 29.438 30.7297 29.5159L30.7053 29.8866L27.5294 29.5263C27.3051 29.5054 27.1633 29.3508 27.1657 29.1301L27.175 25.946C27.1587 25.9355 27.1447 25.9239 27.1296 25.9123C27.1343 26.1342 27.1378 26.3573 27.1389 26.5793C27.1413 27.3788 27.1413 28.1772 27.1413 28.9767C27.1413 29.0313 27.1354 29.0859 27.1285 29.1498L27.1017 29.4578L26.7461 29.4647C26.5021 29.4647 26.2616 29.4508 26.021 29.438C25.8025 29.4252 25.5841 29.4136 25.3656 29.4124C25.0367 29.4101 24.709 29.4031 24.3732 29.395L23.6132 29.3811L23.5795 29.1045C23.569 29.0324 23.5598 28.9674 23.5598 28.9011L23.5586 25.7054C23.5586 25.6508 23.5632 25.595 23.569 25.5311L23.5888 25.2476L23.8619 25.2162C23.9246 25.2081 23.9781 25.2011 24.0304 25.2011H26.6265C26.6567 25.2011 26.6869 25.2011 26.7171 25.2034C26.8658 25.2162 26.9681 25.2534 27.032 25.3278C27.0599 25.2697 27.0983 25.2197 27.1459 25.179H22.6638H21.5343L16.9441 25.1813C16.8139 25.1813 16.6826 25.1883 16.5478 25.1964L16.5548 25.2534H16.5583C16.7372 25.2034 17.9074 25.1988 18.2619 25.1988C18.6384 25.1988 19.5378 25.2023 19.7307 25.2441L19.9004 25.2801L19.9225 25.523C19.9306 25.5892 19.9376 25.6589 19.9376 25.7287L19.9387 28.9499C19.9411 29.0789 19.905 29.1835 19.8295 29.2614C19.7795 29.3113 19.6901 29.3718 19.5436 29.3718L19.453 29.1393L19.4588 29.3718L16.8569 29.4136C16.7826 29.4206 16.721 29.4113 16.6675 29.4066L16.4932 29.3962L16.3991 29.223C16.3352 28.9371 16.3352 25.6694 16.3991 25.4219L16.4084 25.3835L16.2991 25.444C16.3224 25.5195 16.3247 25.609 16.3259 25.6996C16.3305 26.1737 16.3328 26.6502 16.3328 27.1255C16.3328 27.7321 16.3305 28.3422 16.327 28.9499C16.327 29.0022 16.3235 29.0557 16.3201 29.1161L16.3049 29.4043L12.7839 29.6925L12.7606 29.352C12.7548 29.2811 12.749 29.2184 12.749 29.1533L12.7455 28.8558C12.7432 28.6373 12.7409 28.42 12.7455 28.2027C12.7409 28.2004 12.7362 28.1992 12.7316 28.1981V29.2451C12.7293 29.6518 12.6456 29.7518 12.2575 29.8099C11.3208 29.9551 10.39 30.1643 9.48708 30.4304C9.43246 30.4467 9.37784 30.4571 9.31277 30.4699L8.96415 30.542L8.94207 30.1666C8.93858 30.1027 8.93393 30.0469 8.93393 29.9923L8.93277 25.7194C8.92696 25.638 8.92115 25.5532 8.96415 25.4672C8.99088 25.4137 9.06874 25.2859 9.20934 25.229C9.28023 25.2023 9.34298 25.1988 9.38482 25.1988L12.168 25.2011C12.2412 25.2023 12.3132 25.2023 12.3853 25.2081C12.5793 25.222 12.7153 25.3626 12.7246 25.5578C12.7281 25.6252 12.7304 25.6938 12.7316 25.7635L12.7327 26.8698L12.7467 26.8617L12.749 25.7287C12.7513 25.3103 12.8582 25.2011 13.2708 25.1999H14.5188C14.6188 25.1999 14.7036 25.193 14.7826 25.179H9.53937C9.04084 25.179 8.93393 25.0733 8.93393 24.5817L8.90604 20.9409C8.90837 23.2593 8.90837 25.5788 8.90837 27.8983L8.90721 30.1387C8.90604 30.1759 8.90488 30.2131 8.90837 30.2526C8.91883 30.4153 8.87234 30.6245 8.59229 30.7291C8.32617 30.8278 8.04379 30.9359 7.77767 31.0637C7.19548 31.3403 6.8701 31.8016 6.80851 32.4315C6.769 32.8243 6.7504 33.2577 6.7504 33.7563C6.74576 38.0606 6.74692 42.366 6.74692 46.6703V49.2583C6.73762 49.3082 6.73646 49.3559 6.73297 49.3989ZM34.998 30.8743C37.536 31.5867 39.9147 32.5547 42.0785 33.7551C42.0866 33.7493 42.0948 33.7446 42.1029 33.7388C41.236 33.2519 40.3145 32.7964 39.3581 32.3839C38.3494 31.9481 37.2617 31.5425 36.1252 31.1811C35.8022 31.0777 35.7359 30.9882 35.7324 30.6466V30.2085C35.7185 30.2201 35.7057 30.2317 35.7022 30.2363C35.7092 30.3305 35.7092 30.4362 35.708 30.5548V31.0021L35.3002 30.9162C35.1979 30.8976 35.1107 30.8801 35.0294 30.8476L35.0154 30.8441L34.998 30.8743ZM33.0155 30.3758C33.3304 30.4455 33.6465 30.5187 33.9603 30.5954C33.9638 30.5896 33.9673 30.5838 33.9707 30.5768C33.6523 30.5106 33.3328 30.4432 33.0155 30.3758ZM34.9794 30.37C35.0457 30.37 35.1142 30.3839 35.1932 30.413C35.2095 30.4199 35.2246 30.4246 35.242 30.4292C35.242 30.3618 35.242 30.2991 35.2397 30.2352C35.2362 30.0132 35.3722 29.897 35.464 29.8261C35.2386 29.6356 35.2386 29.3706 35.2386 29.2253C35.2432 28.0761 35.242 26.9256 35.2397 25.7763C35.2397 25.7391 35.2374 25.7019 35.2351 25.6648C35.2246 25.6648 35.2153 25.6648 35.206 25.6648L33.2305 25.6636L31.2561 25.6648C31.2468 25.6648 31.2376 25.6648 31.2294 25.6648C31.2271 26.9454 31.2271 28.226 31.2283 29.5066C31.2283 29.5124 31.2283 29.517 31.2283 29.5228C31.2352 29.524 31.2422 29.5263 31.2503 29.5275L31.3979 29.5542L32.5007 29.7889C33.0841 29.9144 33.6686 30.04 34.2531 30.162C34.4379 30.2003 34.6413 30.2607 34.8144 30.4048C34.8632 30.3816 34.9202 30.37 34.9794 30.37ZM9.37785 25.4277L9.36158 25.6613L9.38947 25.7159L9.39063 29.9702C10.2982 29.7041 11.236 29.4949 12.1773 29.3497C12.2017 29.345 12.2307 29.3404 12.2551 29.3369C12.2563 29.3078 12.2563 29.2718 12.2563 29.2404L12.2575 27.8924C12.2575 27.8448 12.2656 27.7972 12.276 27.7425L12.2923 27.6472L12.2679 27.1743C12.2633 27.0953 12.2586 27.0302 12.2586 26.9663L12.2575 25.767C12.2575 25.7345 12.2563 25.7008 12.2551 25.6671C12.2226 25.6659 12.1901 25.6659 12.1587 25.6659H9.47895L9.41852 25.6636L9.37785 25.4277ZM27.6247 29.0673L30.2684 29.3683C30.2707 29.3439 30.2707 29.323 30.2707 29.2997L30.2719 25.7519C30.2719 25.7112 30.273 25.6857 30.2719 25.6648L30.2161 25.6636L27.7827 25.681C27.7165 25.681 27.6619 25.6706 27.6154 25.6531L27.6328 25.9832L27.6223 29.008L27.6247 29.0673ZM13.0767 27.4125C13.1778 27.5822 13.2208 27.7623 13.2104 27.9645C13.1941 28.2573 13.1987 28.5525 13.2022 28.8477L13.2057 29.1498C13.2057 29.1626 13.2057 29.1754 13.2057 29.1882L15.8517 28.972C15.8517 28.9627 15.8517 28.9534 15.8517 28.9464C15.8552 28.3375 15.8576 27.7298 15.8576 27.1232C15.8576 26.649 15.8552 26.1749 15.8506 25.7008C15.8506 25.6915 15.8506 25.6764 15.8506 25.6613L15.7994 25.6624L15.7076 25.6601L15.6112 25.5032C15.5996 25.4928 15.5879 25.4811 15.5787 25.4695L15.6251 25.6601C15.4624 25.7008 15.3044 25.6415 15.1952 25.5939C15.1673 25.5822 15.1231 25.5637 15.1092 25.5613C14.9523 25.6299 14.7571 25.6636 14.513 25.6648H13.2638C13.2452 25.6648 13.2255 25.6648 13.2057 25.6648C13.2057 25.6868 13.2057 25.7101 13.2057 25.7298L13.2034 26.9547C13.2034 27.0465 13.1941 27.1383 13.1825 27.2301L13.172 27.3161L13.0767 27.4125ZM24.0188 28.922L24.3778 28.929C24.7102 28.936 25.0356 28.943 25.3621 28.9453C25.5887 28.9464 25.8153 28.9592 26.0431 28.972C26.2511 28.9848 26.4591 28.9964 26.6706 28.9976C26.6706 28.9894 26.6706 28.9825 26.6706 28.9743C26.6706 28.1748 26.6706 27.3765 26.6683 26.5781C26.6671 26.2737 26.6625 25.9692 26.6532 25.6636L25.3215 25.6624L24.0234 25.6636C24.0223 25.6636 24.0199 25.6636 24.0188 25.6636C24.0176 25.6764 24.0176 25.6892 24.0176 25.7019L24.0188 28.8976C24.0188 28.9058 24.0188 28.9139 24.0188 28.922ZM16.8256 25.6868C16.7965 26.2934 16.7977 28.3131 16.8279 28.9441L19.4646 28.8814L19.4635 25.7252C19.4635 25.7101 19.4635 25.6961 19.4623 25.681C19.2578 25.6706 18.8673 25.6601 18.2549 25.6601C17.6018 25.6613 17.08 25.6729 16.8256 25.6868ZM9.39179 24.7107C9.4313 24.7119 9.48359 24.7119 9.53124 24.7119H15.6565L15.6925 24.7723L16.1132 24.6979L16.1632 24.7502L16.4804 24.7328C16.6373 24.7235 16.7872 24.7142 16.9371 24.7142L32.9621 24.7119C32.9807 24.7119 33.0039 24.7119 33.0283 24.7119C33.0283 24.6909 33.0283 24.67 33.0283 24.6549C33.0295 23.4638 33.0295 22.2715 33.0283 21.0792C33.0283 21.0606 33.0271 21.042 33.026 21.0234H29.1144L29.0517 20.791V21.0234C28.9669 21.0234 28.8832 21.0211 28.8019 21.0072C28.5741 20.9677 28.4184 20.7864 28.4137 20.5563C28.4114 20.325 28.5555 20.1438 28.7809 20.0938C28.8541 20.0764 28.925 20.0752 28.9866 20.074C29.2713 20.0705 29.5386 20.0682 29.8059 20.0682H32.9563C32.9795 20.0682 33.0016 20.0682 33.0248 20.0671L33.0237 19.651L33.0271 19.2432C33.0248 19.2513 32.9911 19.2269 32.9772 19.2176L32.7726 19.0735C32.6053 18.9561 32.4391 18.8388 32.2799 18.7121C32.1719 18.6261 32.0603 18.5912 31.8953 18.5912C27.8257 18.5947 23.7561 18.5947 19.6877 18.5947H10.3447C10.2064 18.5947 10.1634 18.5994 10.1251 18.6342C9.90426 18.8295 9.67301 19.0166 9.4406 19.2002C9.39411 19.2362 9.38714 19.2583 9.38947 19.3071C9.39411 19.443 9.39295 19.5767 9.39179 19.7068V20.0043L9.35344 20.0217L9.36971 20.0566C9.37087 20.0613 9.3732 20.0671 9.37552 20.0717L21.4936 20.0729C21.5761 20.0729 21.64 20.1089 21.6691 20.1263L21.6795 20.1298C21.7853 20.0659 21.8968 20.0659 21.9526 20.0659C23.2774 20.0694 24.5963 20.0705 25.9164 20.0705L27.4074 20.0717C27.5027 20.0717 27.6026 20.0717 27.7037 20.0938C27.9315 20.1414 28.0802 20.339 28.0639 20.576C28.0477 20.8027 27.9071 20.9653 27.6956 21.0025C27.5828 21.0211 27.469 21.0223 27.3562 21.0223L21.6853 21.0246H13.5148H9.4313C9.41736 21.0246 9.40574 21.0246 9.39179 21.0258V24.5805C9.39063 24.6247 9.39063 24.6735 9.39179 24.7107ZM9.63931 20.5365C9.63699 20.5447 9.63466 20.5528 9.63234 20.5609L21.1217 20.5389L9.63931 20.5365ZM21.9561 20.5319L21.898 20.5342C21.8957 20.5423 21.8933 20.5516 21.8922 20.5586L27.3539 20.5563C27.4515 20.5551 27.5294 20.5563 27.6154 20.5435C27.5526 20.5377 27.4841 20.5377 27.4225 20.5377L25.9141 20.5365C24.5952 20.5365 23.2762 20.5354 21.9561 20.5319ZM29.1133 20.5575L31.9487 20.5586H33.2433L33.2142 20.5261C33.2119 20.5238 33.2107 20.5214 33.2084 20.5191L33.1526 20.5226C33.0887 20.5272 33.0225 20.5319 32.9551 20.5319H29.8047C29.5386 20.5319 29.2725 20.5342 29.0064 20.5377C28.9494 20.5377 28.9088 20.5389 28.882 20.5458C28.9343 20.5575 28.9924 20.5575 29.0505 20.5575H29.1133ZM31.8953 18.1252C32.1637 18.1252 32.3787 18.1961 32.5693 18.3472C32.7204 18.4681 32.8807 18.5796 33.0388 18.6912L33.2468 18.8376C33.3258 18.8945 33.492 19.0131 33.492 19.2432L33.4873 19.7928C33.4978 19.7917 33.5071 19.7893 33.5164 19.7882L33.5152 19.7103C33.514 19.4976 33.5129 19.2803 33.5199 19.0642C33.5222 19.0049 33.5129 18.9875 33.4606 18.9515C33.1015 18.7028 32.7471 18.4495 32.3973 18.188C32.316 18.1276 32.2369 18.102 32.1254 18.102C31.6815 18.1043 31.2399 18.1043 30.7983 18.1043H29.4712C28.9936 18.1032 28.8902 18.0021 28.8902 17.5303V12.6286C28.8681 12.6286 28.8483 12.6275 28.8263 12.6275L27.5259 12.6263C27.462 12.6263 27.3981 12.6217 27.3283 12.6159L27.025 12.5961L27.0076 12.2789C27.0018 12.1998 26.9972 12.1301 26.9972 12.0592L26.996 11.8106C26.9948 11.4747 26.9937 11.14 27.0006 10.8042C27.0018 10.7159 26.982 10.6706 26.9193 10.6148C26.351 10.1104 25.784 9.60378 25.2192 9.09712L24.5673 8.51376C24.5173 8.46727 24.4941 8.44287 24.465 8.42544C24.4859 8.48238 24.5347 8.52422 24.5824 8.56605L25.0925 9.02623C25.6399 9.51779 26.186 10.0105 26.738 10.4974C26.9077 10.6485 26.9844 10.8216 26.9797 11.0447C26.9739 11.269 26.9751 11.4945 26.9751 11.7187V12.1162C26.9751 12.1801 26.9693 12.2463 26.9635 12.3091L26.9449 12.538L26.7822 12.5787C26.6125 12.6217 23.9595 12.6298 21.7632 12.6298C19.5425 12.6298 15.789 12.6217 15.6205 12.5647L15.4996 12.5241L15.4694 12.3997C15.4566 12.3567 15.4427 12.3102 15.4427 12.2533L15.4415 11.9163C15.4392 11.577 15.4369 11.2365 15.4462 10.8972C15.452 10.7101 15.5798 10.5509 15.6344 10.4904C15.7774 10.3336 15.9296 10.1837 16.0807 10.0337L17.3008 8.81357C18.2247 7.88856 19.1497 6.96356 20.0712 6.03738C20.1723 5.93512 20.3373 5.798 20.6011 5.798C20.9044 5.81311 21.0776 5.80846 21.2972 5.80032C21.5075 5.80032 21.6714 5.86888 21.8201 6.0095C22.2141 6.38484 22.6115 6.75554 23.0089 7.12625L23.3378 7.43419C23.3576 7.45279 23.375 7.47022 23.3924 7.48533C23.3947 7.4737 23.3971 7.46208 23.3994 7.45046C23.2158 7.27848 23.031 7.10533 22.8451 6.93102C22.3884 6.50105 21.9294 6.06876 21.4541 5.64577L21.2356 5.4517L21.5784 5.2065C21.7074 5.11005 21.7678 5.02406 21.7678 4.91831L21.6598 5.0473C21.3495 5.42149 20.579 5.42033 20.2792 5.04265L20.1781 4.91599C20.1805 5.01592 20.2327 5.1054 20.3362 5.18791L20.7336 5.49818L20.4768 5.67947C20.4384 5.7062 20.3989 5.73176 20.3594 5.75616C20.2943 5.798 20.2386 5.83286 20.2002 5.87237L15.4776 10.5892C15.4241 10.6427 15.4067 10.6822 15.4078 10.7507C15.4136 11.2028 15.4113 11.6525 15.409 12.1046C15.409 12.172 15.4032 12.2382 15.395 12.3137L15.3695 12.6286L13.5601 12.6298C13.5439 12.6298 13.5288 12.6298 13.5125 12.631V17.4966C13.5125 17.586 13.5125 17.6337 13.5113 17.6802C13.4951 17.9777 13.3835 18.0881 13.0825 18.1032L11.4126 18.1055C10.9896 18.1055 10.5655 18.1043 10.1413 18.102C10.024 18.102 9.94842 18.1287 9.86708 18.1996C9.5754 18.4518 9.31045 18.6784 9.02109 18.8922C8.92115 18.9654 8.89094 19.0363 8.89094 19.192C8.89094 19.3663 8.89094 19.5406 8.8921 19.715C8.90256 19.7103 8.91302 19.7057 8.92348 19.6998C8.92464 19.5767 8.9258 19.45 8.91999 19.3233C8.91069 19.1211 8.98623 18.9596 9.14892 18.8318C9.3732 18.654 9.59748 18.4727 9.8113 18.2833C9.98793 18.1264 10.189 18.1264 10.3226 18.1264H19.6831C23.7561 18.1287 27.8257 18.1287 31.8953 18.1252ZM15.9075 12.1313C16.513 12.1487 18.9277 12.1661 21.7644 12.1661C24.1129 12.1661 25.9397 12.1534 26.5103 12.1348C26.5103 12.129 26.5103 12.122 26.5103 12.115L26.5114 11.7199C26.5102 11.4921 26.5102 11.2632 26.5149 11.0354C26.5172 10.9506 26.4963 10.9065 26.4301 10.846C25.8781 10.358 25.3307 9.86524 24.7822 9.37253L24.3058 8.94372C24.2059 8.85424 24.1385 8.79382 24.0838 8.72409C23.9676 8.57883 23.9456 8.38825 24.0153 8.22905C23.9618 8.26275 23.906 8.28483 23.841 8.28483C23.6457 8.2581 23.4424 8.19884 23.339 8.04544C23.3029 7.99199 23.2646 7.95712 23.1867 7.91064C23.1147 7.86765 23.0612 7.81419 23.0136 7.76771L22.6928 7.46673C22.2943 7.09487 21.8957 6.72301 21.5017 6.34766C21.4297 6.2791 21.3797 6.26515 21.3216 6.26515C21.0741 6.27329 20.851 6.27445 20.6197 6.26399C20.6186 6.26399 20.6174 6.26399 20.6174 6.26399C20.5395 6.26399 20.4872 6.28142 20.4036 6.36509C19.4809 7.29242 18.5559 8.21743 17.632 9.14244L16.4095 10.3638C16.2643 10.509 16.1179 10.6531 15.9796 10.8042C15.9366 10.8518 15.9145 10.8972 15.9133 10.9111C15.904 11.2435 15.9052 11.5781 15.9075 11.9128V12.1313ZM20.9753 4.45232C21.2565 4.45232 21.5145 4.5662 21.6656 4.75678L21.7667 4.88345C21.7585 4.82302 21.7341 4.75562 21.6911 4.6766C21.6458 4.59177 21.6086 4.49648 21.5726 4.37562L20.9463 2.15839L20.8626 2.48494C20.7057 3.09967 20.5477 3.71557 20.3885 4.32914C20.3571 4.45464 20.3071 4.58015 20.2409 4.70333C20.2095 4.76376 20.1897 4.8207 20.1839 4.87415L20.285 4.75097C20.4384 4.56388 20.6964 4.45232 20.9753 4.45232ZM23.497 29.3613H20.0642L20.0154 29.194C19.9411 28.9406 19.9283 25.7124 19.9992 25.3975L20.0375 25.229L20.2885 25.2104C20.3536 25.2046 20.4198 25.1976 20.4861 25.1976H21.5529H23.0089C23.0635 25.1976 23.1182 25.1988 23.1728 25.2011C23.3808 25.2115 23.5214 25.3556 23.5307 25.5671C23.5342 25.6148 23.5353 25.6706 23.5353 25.7252C23.5353 26.7745 23.5353 27.8239 23.533 28.8721C23.533 28.9348 23.5272 28.9941 23.5214 29.0592L23.497 29.3613ZM20.4477 28.8953H23.067C23.067 28.8883 23.067 28.8814 23.067 28.8744C23.0694 27.8262 23.0694 26.7757 23.0694 25.7275C23.0694 25.7066 23.0694 25.6857 23.0694 25.6636C23.0484 25.6636 23.0287 25.6636 23.0089 25.6636L21.5529 25.6624L20.4861 25.6636C20.4698 25.6636 20.4547 25.6636 20.4384 25.6648C20.4082 26.2783 20.4129 28.2655 20.4477 28.8953ZM26.1454 18.1055H13.6392L13.5962 17.9277C13.5241 17.6337 13.5218 14.9935 13.5904 14.7169L13.6275 14.5716L13.7751 14.5461C13.9936 14.5066 14.2179 14.5124 14.4387 14.5205C14.5421 14.524 14.6455 14.5286 14.7536 14.5251C14.7559 14.5159 14.7582 14.5054 14.7617 14.4961H14.1377C14.0598 14.4961 13.982 14.4949 13.9041 14.4914C13.6868 14.481 13.5427 14.3288 13.5427 14.1149L13.5415 12.7007L13.8704 12.6716C13.9529 12.6624 14.0296 12.6542 14.1051 12.6542L17.9807 12.6531H28.2568C28.3393 12.6531 28.4219 12.6589 28.509 12.6658L28.8495 12.6879V14.6472L28.8414 14.6448C28.8588 14.7448 28.8658 14.7971 28.8658 14.8482C28.8681 15.7732 28.8693 16.6982 28.8669 17.6244C28.8669 17.987 28.7461 18.1043 28.3719 18.1055H26.1454ZM14.0308 17.6407L28.3742 17.6395C28.3812 17.6395 28.3916 17.6395 28.4033 17.6395C28.4033 17.6348 28.4033 17.629 28.4033 17.6232C28.4056 16.7331 28.4044 15.8441 28.4021 14.9551C28.2545 14.9807 28.0872 14.9958 27.9164 14.9958C27.7572 14.9958 27.5445 14.9818 27.3911 14.9214L27.3748 14.9609L27.2342 14.9749C27.1471 14.9842 27.1076 14.9888 27.068 14.9911C26.9704 14.9877 26.946 14.9877 26.9054 14.9784C26.6764 14.9249 26.5207 14.7343 26.5184 14.5042C26.5184 14.2695 26.6764 14.0801 26.91 14.0289C26.9518 14.0196 27.0018 14.0138 27.0553 14.0138C27.3179 14.0243 27.4155 14.0185 27.5747 14.0138C27.8199 14.0069 28.0663 13.9918 28.3835 14.0417V13.1249C28.3405 13.1225 28.2987 13.1202 28.2568 13.1202H17.9807L14.1051 13.1214C14.0726 13.1214 14.0389 13.1225 14.0064 13.126L14.0075 14.0301C14.0494 14.0313 14.0935 14.0313 14.1365 14.0313H24.9043C24.9589 14.0313 25.0135 14.0336 25.067 14.0406C25.3156 14.0743 25.483 14.259 25.4853 14.4996C25.49 14.7366 25.3215 14.9307 25.0786 14.9702C25.0077 14.9818 24.9368 14.9842 24.8659 14.9842L24.7671 14.7506V14.983L16.5408 14.9842C16.4432 14.9842 16.3456 14.9853 16.248 14.9877L15.065 14.9923L15.0534 14.9691L14.9535 14.9784C14.7757 14.9958 14.5955 14.99 14.4201 14.9842C14.2876 14.9807 14.1551 14.9749 14.0226 14.983C13.9948 15.5094 13.9982 17.084 14.0308 17.6407ZM15.6333 14.5275L16.2399 14.5228C16.341 14.5205 16.4421 14.5182 16.5432 14.5182L24.7695 14.517H24.8682C24.9147 14.517 24.9612 14.517 25.0065 14.5089C24.974 14.4949 24.9391 14.4949 24.9054 14.4949H24.8125H15.6437L15.6461 14.5042L15.6333 14.5275ZM21.5215 4.40351H20.4454L20.4849 4.13624C20.5314 3.82829 20.6127 3.54474 20.7406 3.24377L20.9323 2.79288L21.1612 3.22634C21.3111 3.51104 21.3832 3.79924 21.4576 4.11997L21.5215 4.40351Z" fill="#D7000C"/>
<path fill-rule="evenodd" clip-rule="evenodd" d="M13.6602 49.6311C13.7473 49.6172 13.8345 49.5904 13.9228 49.5904C17.8227 49.5881 21.7238 49.5858 25.6225 49.5928C25.8468 49.5928 26.0048 49.5358 26.128 49.3499C26.1966 49.2465 26.2837 49.1546 26.3686 49.0628C26.73 48.6759 27.024 48.2482 27.2145 47.7497C27.2692 47.6033 27.3424 47.4615 27.4249 47.329C27.4644 47.264 27.5446 47.2245 27.6189 47.1617C27.5399 47.0141 27.6224 46.8898 27.6887 46.7527C28.1163 45.8672 28.5358 44.9793 28.9681 44.0962C29.4399 43.1305 29.9233 42.1706 30.4021 41.2084C30.4242 41.1631 30.4428 41.1154 30.4742 41.0771C30.7833 40.6913 30.8309 40.2288 30.8693 39.7605C30.8937 39.47 30.9227 39.1794 30.9506 38.8889C30.9564 38.832 30.9611 38.7716 30.9762 38.7169C31.0087 38.6054 31.111 38.5345 31.219 38.5426C31.3283 38.5496 31.4189 38.6298 31.4398 38.746C31.448 38.7867 31.448 38.8285 31.4433 38.8692C31.3806 39.4409 31.319 40.0126 31.2527 40.5844C31.233 40.7517 31.1586 40.8947 31.068 41.0399C30.8844 41.3374 30.7205 41.6477 30.5671 41.9638C29.8118 43.514 29.0611 45.0665 28.3104 46.619C28.2232 46.798 28.1489 46.9839 28.0582 47.1629C27.9931 47.2907 27.9769 47.4522 27.7991 47.508C27.7561 47.5219 27.7456 47.6358 27.7177 47.7125C27.6561 47.7381 27.5911 47.766 27.4934 47.8067C27.5574 47.8833 27.6038 47.9426 27.6468 47.9949C27.469 48.6038 27.0275 49.0431 26.6021 49.5683C26.7718 49.5788 26.8752 49.5904 26.9775 49.5904C28.9286 49.5916 30.8774 49.5916 32.8285 49.5916C33.9116 49.5916 34.9946 49.5904 36.0788 49.5939C36.1753 49.5939 36.2717 49.6206 36.3682 49.6346C28.7973 49.6311 21.2287 49.6311 13.6602 49.6311Z" fill="#D7000C"/>
<path d="M36.3657 49.8639H13.66L13.624 49.4025L13.6996 49.3874C13.7658 49.3735 13.8402 49.3583 13.9215 49.3583L19.7679 49.356C21.7202 49.356 23.6701 49.3572 25.6212 49.3607C25.8072 49.3607 25.8722 49.3142 25.9327 49.2224C26.0036 49.1155 26.0907 49.019 26.179 48.9249C26.5695 48.5066 26.831 48.101 26.996 47.6675C27.0506 47.5211 27.1273 47.3654 27.2249 47.2074C27.2598 47.1481 27.3062 47.1051 27.3516 47.0702C27.3411 46.9192 27.4073 46.7913 27.455 46.696L27.993 45.577C28.2464 45.0494 28.4997 44.5206 28.7553 43.9954C29.0923 43.3051 29.4363 42.6172 29.7803 41.9304L30.1917 41.1065C30.2196 41.0426 30.2463 40.9868 30.2893 40.9345C30.5438 40.6161 30.5949 40.2233 30.6344 39.7434C30.6542 39.5005 30.6786 39.2576 30.703 39.0136L30.7169 38.8683C30.7251 38.7847 30.7332 38.7173 30.7506 38.6545C30.811 38.4512 30.9958 38.3105 31.2015 38.3105C31.4479 38.3245 31.6268 38.486 31.6663 38.7033C31.6779 38.7626 31.6803 38.8265 31.6733 38.8962C31.6105 39.468 31.5478 40.0397 31.4816 40.6114C31.4572 40.8299 31.3619 41.0054 31.2631 41.1646C31.1027 41.4237 30.9482 41.7096 30.7739 42.0652C30.1254 43.3958 29.4816 44.7263 28.8379 46.0581L28.5171 46.7204C28.4799 46.7983 28.4451 46.8785 28.4079 46.9575C28.3614 47.0621 28.3149 47.1667 28.2626 47.2689C28.251 47.2922 28.2417 47.3166 28.2324 47.341C28.1941 47.4398 28.1313 47.5967 27.9663 47.6885C27.9512 47.7407 27.9431 47.7686 27.9349 47.7942L27.8687 47.9011L27.9024 47.9418L27.8687 48.0603C27.7188 48.5716 27.412 48.9586 27.0773 49.3572L34.1288 49.3583C34.7784 49.3583 35.4268 49.3583 36.0775 49.3607C36.1542 49.3607 36.2344 49.3746 36.3123 49.3886L36.3983 49.4037L36.3657 49.8639ZM26.3789 49.399H26.4347C26.5067 49.313 26.5776 49.2282 26.6473 49.1445C26.9623 48.7703 27.2388 48.4426 27.3853 48.0417L27.3597 48.0092C27.1726 48.4333 26.9018 48.8319 26.5393 49.2224C26.4777 49.2863 26.4242 49.3432 26.3789 49.399ZM31.1992 38.773C31.1864 38.816 31.1841 38.8544 31.1794 38.8927L31.1632 39.0578C31.1387 39.2995 31.1167 39.54 31.0958 39.7806C31.0597 40.221 31.0144 40.7695 30.6507 41.2227C30.6425 41.232 30.6298 41.2599 30.6205 41.2831L30.1951 42.1372C29.8523 42.824 29.5095 43.5108 29.1725 44.1988C28.9157 44.7229 28.6635 45.2493 28.4125 45.7768L27.8942 46.8541C27.8164 47.011 27.8117 47.033 27.821 47.0516L27.8373 47.0795C27.8408 47.0714 27.8454 47.0633 27.8489 47.0551C27.8977 46.9587 27.9407 46.8622 27.9837 46.7646C28.0209 46.6809 28.0581 46.5961 28.0999 46.5136L28.4195 45.8524C29.0645 44.5206 29.7082 43.1889 30.3567 41.8583C30.5356 41.4888 30.6995 41.1878 30.868 40.9147C30.9493 40.7858 31.0051 40.6742 31.0202 40.5545C31.0853 39.9851 31.1469 39.4134 31.2096 38.8416L31.1992 38.773Z" fill="#D7000C"/>
<path fill-rule="evenodd" clip-rule="evenodd" d="M12.1094 49.6318C12.2093 49.5574 12.3092 49.5726 12.4103 49.6318C12.3092 49.6318 12.2093 49.6318 12.1094 49.6318Z" fill="#D7000C"/>
<path d="M13.2679 49.8642H11.4121L11.9687 49.4459C12.1349 49.325 12.329 49.3157 12.5254 49.4308L13.2679 49.8642Z" fill="#D7000C"/>
<path fill-rule="evenodd" clip-rule="evenodd" d="M16.282 24.9766C16.2889 25.044 16.2959 25.1045 16.3029 25.1649C16.2889 25.173 16.2762 25.1823 16.2611 25.1904C16.1867 25.1126 16.11 25.0336 16.0298 24.9487C15.9345 24.9662 15.8404 24.9824 15.7056 25.0068C15.7707 25.1056 15.8206 25.1811 15.8776 25.2706C15.9496 25.2207 15.9996 25.1846 16.0565 25.1451C16.0763 25.1753 16.0995 25.1986 16.096 25.216C16.0542 25.4019 15.8764 25.4566 15.7474 25.3125C15.6626 25.216 15.6091 25.0917 15.5231 24.9464C15.4511 24.9464 15.3535 24.9464 15.2559 24.9464C13.3466 24.9464 11.4385 24.9464 9.53034 24.9464C9.15732 24.9464 9.15732 24.9452 9.15732 24.5827C9.15732 23.4415 9.15732 22.2992 9.15732 21.1569C9.15732 21.0512 9.15732 20.9442 9.15732 20.8153C9.27004 20.8071 9.34906 20.7943 9.42924 20.7943C13.5128 20.7943 17.5963 20.7943 21.6798 20.7943C23.5705 20.7943 25.4635 20.7932 27.3542 20.792C27.4541 20.792 27.5552 20.792 27.654 20.7757C27.7655 20.756 27.8237 20.6746 27.8306 20.5631C27.8388 20.4469 27.7714 20.3493 27.6552 20.3249C27.575 20.3074 27.489 20.3086 27.4065 20.3086C25.5902 20.3074 23.7727 20.3074 21.9575 20.3028C21.8274 20.3028 21.7437 20.3214 21.6984 20.469C21.6484 20.6328 21.5706 20.6468 21.3614 20.5805C21.4113 20.4829 21.6135 20.5259 21.5729 20.3423C21.5508 20.333 21.5217 20.3086 21.4927 20.3086C17.4859 20.3074 13.4791 20.3074 9.46178 20.3074C9.39322 20.5247 9.39205 20.806 8.99114 20.7258C9.07365 20.6735 9.11432 20.6444 9.15732 20.6223C9.32233 20.5364 9.33744 20.4411 9.22936 20.2935C9.18172 20.2307 9.15848 20.1505 9.12129 20.0727C8.91096 19.9693 8.91212 20.2098 8.81102 20.2935C8.73316 20.0483 8.73897 20.0425 9.15964 19.8565C9.15964 19.6846 9.16429 19.5021 9.15732 19.3208C9.15151 19.1918 9.1945 19.1012 9.29677 19.021C9.52569 18.8409 9.75346 18.6561 9.97077 18.4644C10.0846 18.3644 10.2113 18.3668 10.345 18.3668C12.4367 18.3668 14.5284 18.3668 16.6201 18.3668C21.7112 18.3668 26.8034 18.3668 31.8955 18.3633C32.0977 18.3633 32.2651 18.4086 32.4243 18.5341C32.6451 18.7096 32.8833 18.8676 33.1122 19.0326C33.1878 19.0873 33.2598 19.1419 33.2598 19.2499C33.2563 19.566 33.2563 19.8833 33.2517 20.1994C33.2517 20.2226 33.2343 20.2458 33.2157 20.2923C33.1355 20.297 33.046 20.3063 32.9565 20.3063C31.9072 20.3063 30.8555 20.3063 29.8061 20.3063C29.54 20.3063 29.2728 20.3086 29.0066 20.3121C28.9485 20.3132 28.8881 20.3132 28.8335 20.326C28.7126 20.3527 28.6464 20.4411 28.6476 20.5584C28.6499 20.6735 28.7184 20.763 28.8416 20.7839C28.9311 20.799 29.0229 20.7967 29.1147 20.7967C30.3732 20.7978 31.6318 20.7967 32.8903 20.7967C32.996 20.7967 33.1041 20.7967 33.2354 20.7967C33.2459 20.9105 33.2598 20.9977 33.261 21.086C33.2621 22.2771 33.2621 23.4694 33.261 24.6617C33.261 24.9441 33.254 24.9511 32.9623 24.9511C29.9038 24.9511 26.8452 24.9511 23.7866 24.9511C21.5032 24.9511 19.2197 24.9511 16.9362 24.9522C16.7247 24.9464 16.5132 24.965 16.282 24.9766Z" fill="white"/>
<path d="M15.9093 25.6252C15.7861 25.6252 15.6664 25.5682 15.5746 25.4648C15.4991 25.3788 15.448 25.2859 15.3945 25.1883L15.3875 25.1778H9.5307C9.03218 25.1778 8.92526 25.072 8.92526 24.5805V20.9455L8.37793 20.8363L8.68007 20.6446L8.58943 20.3598C8.46392 19.9659 8.60918 19.8474 8.92759 19.701C8.92875 19.5778 8.92991 19.4511 8.9241 19.3244C8.91481 19.1222 8.99034 18.9607 9.15303 18.8329C9.37731 18.6551 9.60159 18.4738 9.81541 18.2844C9.99205 18.1275 10.1931 18.1275 10.3267 18.1275H19.6802C23.7521 18.1275 27.8229 18.1275 31.8948 18.124C32.1632 18.124 32.3782 18.1949 32.5687 18.346C32.7198 18.4668 32.8802 18.5784 33.0382 18.69L33.2462 18.8364C33.3253 18.8933 33.4914 19.0118 33.4914 19.2419L33.4821 20.246L33.3822 20.4668L33.1533 20.5202C33.0894 20.5249 33.0231 20.5295 32.9557 20.5295H29.8053C29.5392 20.5295 29.2731 20.5318 29.007 20.5353C28.9501 20.5353 28.9094 20.5365 28.8827 20.5435C28.935 20.5551 28.9931 20.5551 29.0512 20.5551H29.1139L31.9459 20.5562H33.4473L33.4775 20.8758C33.4856 20.9479 33.4926 21.0118 33.4938 21.0745C33.4949 22.2691 33.4949 23.4614 33.4938 24.6525C33.4938 25.0627 33.3787 25.1743 32.9627 25.1743L16.9377 25.1766C16.8076 25.1766 16.6763 25.1836 16.5415 25.1917L16.5519 25.2812L16.2242 25.473C16.144 25.5706 16.0337 25.6252 15.9093 25.6252ZM9.39125 24.7106C9.43077 24.7118 9.48306 24.7118 9.5307 24.7118H15.656L15.692 24.7722L16.1127 24.6979L16.1626 24.7501L16.4799 24.7327C16.6368 24.7234 16.7867 24.7141 16.9366 24.7141L32.9615 24.7118C32.9801 24.7118 33.0034 24.7118 33.0278 24.7118C33.0278 24.6909 33.0278 24.67 33.0278 24.6549C33.0289 23.4637 33.0289 22.2715 33.0278 21.0792C33.0278 21.0606 33.0266 21.042 33.0254 21.0234H29.1139L29.0512 20.791V21.0234C28.9663 21.0234 28.8827 21.0211 28.8013 21.0071C28.5736 20.9676 28.4178 20.7863 28.4132 20.5562C28.4109 20.325 28.555 20.1437 28.7804 20.0937C28.8536 20.0763 28.9245 20.0751 28.9861 20.074C29.2708 20.0705 29.5381 20.0682 29.8053 20.0682H32.9557C32.979 20.0682 33.001 20.0682 33.0243 20.067L33.0231 19.651L33.0266 19.2431C33.0243 19.2512 32.9906 19.2268 32.9766 19.2175L32.7721 19.0734C32.6048 18.9561 32.4386 18.8387 32.2794 18.712C32.1713 18.626 32.0598 18.5912 31.8948 18.5912C27.8229 18.5947 23.7521 18.5947 19.6802 18.5947H10.3442C10.2059 18.5947 10.1629 18.5993 10.1245 18.6342C9.90373 18.8294 9.67248 19.0165 9.44006 19.2001C9.39358 19.2361 9.38661 19.2582 9.38893 19.307C9.39358 19.4418 9.39242 19.5766 9.39125 19.7068V20.0043L9.35291 20.0217L9.36918 20.0565C9.37034 20.0612 9.37266 20.067 9.37499 20.0717L21.4931 20.0728C21.5756 20.0728 21.6395 20.1088 21.6685 20.1263L21.679 20.1298C21.7847 20.0658 21.8963 20.0658 21.9521 20.0658C23.2768 20.0693 24.5958 20.0705 25.9159 20.0705L27.4068 20.0717C27.5021 20.0717 27.6021 20.0717 27.7032 20.0937C27.9309 20.1414 28.0797 20.3389 28.0634 20.576C28.0471 20.8026 27.9065 20.9653 27.695 21.0025C27.5823 21.0211 27.4684 21.0222 27.3557 21.0222L21.6813 21.0246H13.5143H9.43077C9.41682 21.0246 9.4052 21.0246 9.39125 21.0257V24.5805C9.39009 24.6246 9.39009 24.6735 9.39125 24.7106ZM9.63878 20.5365C9.63645 20.5446 9.63413 20.5528 9.6318 20.5609L21.1212 20.5388L9.63878 20.5365ZM21.9556 20.5318L21.8975 20.5342C21.8951 20.5423 21.8928 20.5516 21.8916 20.5586L27.3534 20.5562C27.451 20.5551 27.5289 20.5562 27.6148 20.5435C27.5521 20.5376 27.4835 20.5376 27.4219 20.5376L25.9136 20.5365C24.5946 20.5365 23.2757 20.5353 21.9556 20.5318Z" fill="#D7000C"/>
<path fill-rule="evenodd" clip-rule="evenodd" d="M13.8215 17.873C13.7552 17.6011 13.7564 15.0062 13.8157 14.7737C14.1782 14.7087 14.5536 14.783 14.9347 14.747C14.9928 14.5925 14.9731 14.3775 15.2078 14.3577C15.2868 14.3507 15.3775 14.3391 15.4007 14.4611C15.3415 14.5588 15.0974 14.5181 15.2136 14.7598C15.4646 14.7598 15.7284 14.761 15.9934 14.7598C16.1758 14.7586 16.3594 14.7517 16.543 14.7517C19.2844 14.7517 22.0268 14.7517 24.7693 14.7505C24.86 14.7505 24.9529 14.754 25.0424 14.74C25.1761 14.718 25.2562 14.6203 25.2539 14.5006C25.2528 14.3798 25.1714 14.288 25.0366 14.2694C24.9634 14.2601 24.8867 14.2636 24.8123 14.2636C22.0373 14.2636 19.2623 14.2636 16.4873 14.2636C15.704 14.2636 14.9208 14.2636 14.1387 14.2636C14.0643 14.2636 13.9888 14.2624 13.9144 14.2601C13.825 14.2555 13.7773 14.2055 13.7773 14.116C13.775 13.7255 13.7761 13.3351 13.7761 12.9156C13.8993 12.9051 14.0039 12.8889 14.1073 12.8889C15.3996 12.8877 16.6918 12.8877 17.9828 12.8877C21.4086 12.8877 24.8344 12.8877 28.259 12.8877C28.3741 12.8877 28.4868 12.9005 28.6193 12.9086C28.6193 13.3932 28.6193 13.8545 28.6193 14.3333C28.1091 14.1753 27.5943 14.274 27.0853 14.2485C27.0447 14.2473 27.0017 14.2485 26.9622 14.2578C26.8343 14.2857 26.7542 14.3821 26.7542 14.503C26.7553 14.6238 26.8367 14.7238 26.961 14.7528C26.9924 14.7598 27.0272 14.761 27.0598 14.7598C27.1086 14.7575 27.1574 14.7505 27.2132 14.7447C27.2411 14.6726 27.2608 14.5994 27.2957 14.5355C27.3573 14.4286 27.4921 14.381 27.5978 14.4228C27.6245 14.4333 27.6559 14.4646 27.6594 14.4902C27.6641 14.5158 27.642 14.5553 27.6211 14.5704C27.5885 14.5936 27.5409 14.5948 27.506 14.618C27.4816 14.6331 27.4688 14.6657 27.4491 14.6924C27.6548 14.7993 28.2962 14.783 28.6123 14.661C28.6216 14.7273 28.6367 14.7877 28.6367 14.8493C28.639 15.7743 28.6402 16.6993 28.6379 17.6243C28.6379 17.8579 28.6228 17.8718 28.3752 17.873C27.133 17.8741 25.8919 17.8741 24.6496 17.8741C21.1576 17.8741 17.6656 17.8741 14.1736 17.8741C14.0574 17.873 13.9423 17.873 13.8215 17.873Z" fill="white"/>
<path d="M26.1379 18.1053H13.6387L13.5957 17.9275C13.5237 17.6335 13.5213 14.9932 13.5899 14.7167L13.6271 14.5714L13.7747 14.5458C13.9931 14.5063 14.2174 14.5121 14.4382 14.5203C14.5416 14.5238 14.6451 14.5284 14.7531 14.5249C14.7555 14.5156 14.7578 14.5052 14.7613 14.4959H14.1372C14.0594 14.4959 13.9815 14.4947 13.9037 14.4912C13.6864 14.4808 13.5423 14.3297 13.5423 14.1147L13.5411 12.7005L13.87 12.6714C13.9525 12.6621 14.0292 12.654 14.1047 12.654L17.9802 12.6528H28.2564C28.3389 12.6528 28.4214 12.6586 28.5086 12.6656L28.8491 12.6877V14.6469L28.8409 14.6446C28.8583 14.7446 28.8653 14.7969 28.8653 14.848C28.8676 15.773 28.8688 16.698 28.8665 17.6242C28.8665 17.9867 28.7456 18.1041 28.3714 18.1053H26.1379ZM14.0303 17.6404L28.3738 17.6393C28.3807 17.6393 28.3912 17.6393 28.4028 17.6393C28.4028 17.6346 28.4028 17.6288 28.4028 17.623C28.4051 16.7329 28.404 15.8439 28.4017 14.9549C28.2541 14.9805 28.0867 14.9956 27.9159 14.9956C27.7567 14.9956 27.544 14.9816 27.3907 14.9212L27.3744 14.9607L27.2338 14.9758C27.1466 14.9851 27.1071 14.9898 27.0676 14.9909C26.97 14.9874 26.9456 14.9874 26.9049 14.9781C26.676 14.9247 26.5203 14.7341 26.5179 14.504C26.5179 14.2693 26.676 14.0799 26.9096 14.0287C26.9514 14.0194 27.0014 14.0136 27.0548 14.0136C27.3174 14.0241 27.4151 14.0183 27.5743 14.0136C27.8195 14.0066 28.0658 13.9915 28.3831 14.0415V13.1246C28.3401 13.1223 28.2982 13.12 28.2564 13.12H17.9802L14.1047 13.1211C14.0722 13.1211 14.0385 13.1223 14.0059 13.1258L14.0071 14.0299C14.0489 14.031 14.0931 14.031 14.1361 14.031H24.9038C24.9584 14.031 25.0131 14.0334 25.0665 14.0403C25.3152 14.074 25.4825 14.2588 25.4849 14.4994C25.4895 14.7364 25.321 14.9305 25.0781 14.97C25.0072 14.9816 24.9364 14.9839 24.8655 14.9839L24.7667 14.7504V14.9828L16.5404 14.9839C16.4428 14.9839 16.3452 14.9851 16.2476 14.9874L15.0646 14.9921L15.053 14.9688L14.953 14.9781C14.7752 14.9956 14.5951 14.9898 14.4196 14.9839C14.2871 14.9805 14.1547 14.9746 14.0222 14.9828C13.9943 15.5092 13.9978 17.0838 14.0303 17.6404ZM15.6328 14.5273L16.2394 14.5226C16.3405 14.5203 16.4416 14.518 16.5427 14.518L24.769 14.5168H24.8678C24.9143 14.5168 24.9608 14.5168 25.0061 14.5087C24.9735 14.4947 24.9387 14.4947 24.905 14.4947H24.812H15.6433L15.6456 14.504L15.6328 14.5273Z" fill="#D7000C"/>
<path fill-rule="evenodd" clip-rule="evenodd" d="M12.8393 27.983C12.6708 27.9621 12.6522 27.7901 12.5174 27.7169C12.507 27.7866 12.4919 27.8378 12.4919 27.8912C12.4895 28.3409 12.4919 28.7895 12.4907 29.2392C12.4895 29.5321 12.4884 29.5344 12.2141 29.5762C11.267 29.7226 10.3327 29.9318 9.41353 30.2037C9.3438 30.2247 9.27292 30.234 9.17414 30.2549C9.16833 30.1468 9.15904 30.0678 9.15904 29.9876C9.15787 28.5629 9.15787 27.1382 9.15787 25.7147C9.15787 25.6647 9.14393 25.6078 9.16485 25.5671C9.19041 25.516 9.23689 25.4613 9.28803 25.4416C9.34729 25.4183 9.41934 25.4323 9.48558 25.4323C10.378 25.4323 11.2682 25.4323 12.1607 25.4323C12.2269 25.4323 12.2931 25.4334 12.3594 25.4381C12.4372 25.4439 12.4802 25.4869 12.4837 25.5659C12.4872 25.6322 12.4895 25.6984 12.4907 25.7658C12.4907 26.1655 12.4895 26.5653 12.4919 26.9651C12.4919 27.0534 12.5 27.1417 12.507 27.2707C12.5999 27.2149 12.6592 27.1789 12.7301 27.1359C12.78 27.1731 12.837 27.2161 12.8986 27.2614C12.923 27.2347 12.9497 27.2195 12.9532 27.1998C12.9637 27.1173 12.9718 27.0348 12.9718 26.9523C12.9741 26.5444 12.9718 26.1365 12.9741 25.7274C12.9753 25.4334 12.9776 25.4311 13.2635 25.4311C13.6795 25.43 14.0967 25.4311 14.5127 25.4311C14.6998 25.4311 14.8753 25.4102 15.06 25.3382C15.203 25.2835 15.3761 25.4834 15.5702 25.4346C15.6422 25.4172 15.7201 25.4311 15.7945 25.43C16.0687 25.4241 16.0827 25.4334 16.0838 25.6984C16.0885 26.1737 16.0908 26.6478 16.0908 27.1231C16.0908 27.7297 16.0885 28.3386 16.085 28.9464C16.085 29.0196 16.078 29.094 16.0734 29.1869C15.0461 29.2706 14.0304 29.3554 12.9915 29.4391C12.9846 29.3299 12.973 29.2404 12.973 29.1509C12.9706 28.7512 12.9567 28.3514 12.9776 27.9528C12.9915 27.6937 12.8939 27.5054 12.7068 27.3218C12.665 27.3753 12.6278 27.4241 12.5941 27.4659C12.6336 27.6611 12.8509 27.7599 12.8393 27.983Z" fill="white"/>
<path d="M8.95531 30.5395L8.93323 30.1642C8.92858 30.1002 8.92509 30.0445 8.92509 29.9899L8.92393 25.7169C8.91812 25.6356 8.91231 25.5507 8.95531 25.4648C8.98203 25.4101 9.05989 25.2835 9.2005 25.2265C9.27139 25.1998 9.33414 25.1963 9.37598 25.1963L12.1591 25.1986C12.2323 25.1986 12.3044 25.1998 12.3764 25.2056C12.5705 25.2196 12.7065 25.3602 12.7158 25.5554C12.7193 25.6228 12.7216 25.6914 12.7227 25.7611L12.7239 26.8674L12.7378 26.8592L12.7402 25.7262C12.7425 25.3079 12.8494 25.1986 13.2619 25.1975H14.51C14.6971 25.1975 14.8365 25.1742 14.9737 25.1208L15.112 25.0952C15.2142 25.0952 15.3014 25.1336 15.3781 25.1673C15.4234 25.187 15.4757 25.2103 15.5047 25.2103C15.5547 25.1986 15.6 25.194 15.6535 25.194L15.7267 25.1963L15.7778 25.4299L15.786 25.1975L15.8708 25.1963C16.2775 25.1963 16.3124 25.4334 16.3135 25.6972C16.3182 26.1713 16.3205 26.6477 16.3205 27.123C16.3205 27.7296 16.3182 28.3397 16.3147 28.9475C16.3147 28.9998 16.3112 29.0532 16.3077 29.1137L16.2926 29.4018L12.7715 29.69L12.7483 29.3496C12.7425 29.2787 12.7367 29.2159 12.7367 29.1508L12.7332 28.8533C12.7309 28.6349 12.7285 28.4176 12.7332 28.2003C12.7285 28.1979 12.7239 28.1968 12.7193 28.1956V29.2426C12.7169 29.6494 12.6333 29.7493 12.2451 29.8074C11.3085 29.9527 10.3777 30.1618 9.47475 30.428C9.42014 30.4442 9.36552 30.4547 9.30044 30.4675L8.95531 30.5395ZM9.41897 25.6623L9.42014 25.6704L9.38992 25.7158L9.39108 29.9701C10.2987 29.704 11.2365 29.4948 12.1777 29.3496C12.2021 29.3449 12.2312 29.3403 12.2556 29.3368C12.2567 29.3077 12.2567 29.2717 12.2567 29.2403L12.2579 27.8923C12.2579 27.8447 12.266 27.797 12.2765 27.7424L12.2928 27.6471L12.2684 27.1742C12.2637 27.0963 12.2591 27.0312 12.2591 26.9661L12.2579 25.7669C12.2579 25.7344 12.2567 25.7007 12.2556 25.667C12.223 25.6658 12.1905 25.6658 12.1591 25.6658H9.4794L9.41897 25.6623ZM13.076 27.4124C13.1771 27.582 13.2201 27.7622 13.2096 27.9644C13.1934 28.2572 13.198 28.5524 13.2015 28.8475L13.205 29.1497C13.205 29.1625 13.205 29.1752 13.205 29.188L15.851 28.9719C15.851 28.9626 15.851 28.9533 15.851 28.9463C15.8545 28.3374 15.8568 27.7296 15.8568 27.123C15.8568 26.6489 15.8545 26.1748 15.8499 25.7007C15.8499 25.6914 15.8499 25.6762 15.8499 25.6611H15.7987L15.7069 25.66L15.5686 25.4345L15.6244 25.66C15.4617 25.6972 15.3037 25.6402 15.1945 25.5926C15.1666 25.581 15.1224 25.5624 15.1085 25.56C14.9516 25.6286 14.7564 25.6623 14.5123 25.6635H13.2631C13.2445 25.6635 13.2248 25.6635 13.205 25.6635C13.205 25.6855 13.205 25.7088 13.205 25.7285L13.2027 26.9534C13.2027 27.0452 13.1934 27.137 13.1818 27.2288L13.1713 27.3148L13.076 27.4124Z" fill="#D7000C"/>
<path fill-rule="evenodd" clip-rule="evenodd" d="M16.6167 29.1686C16.5563 28.899 16.5621 25.68 16.6144 25.4755C16.8107 25.4209 19.3964 25.4104 19.6764 25.4697C19.6834 25.5499 19.6973 25.6382 19.6973 25.7265C19.6997 26.7677 19.6985 27.8101 19.6985 28.8525C19.6985 28.885 19.6973 28.9199 19.6985 28.9524C19.7008 29.0733 19.6509 29.1418 19.5219 29.136C19.48 29.1349 19.4382 29.1372 19.3975 29.1372C18.5469 29.1511 17.6974 29.1651 16.8468 29.1779C16.7712 29.1802 16.698 29.1732 16.6167 29.1686Z" fill="white"/>
<path d="M16.815 29.4103C16.7639 29.4103 16.7128 29.4068 16.6582 29.4033L16.4839 29.3928L16.3897 29.2197C16.3258 28.9338 16.3258 25.6661 16.3897 25.4185L16.4223 25.2884L16.5513 25.2524C16.7302 25.2024 17.9004 25.1978 18.2549 25.1978C18.6314 25.1978 19.5308 25.2012 19.7237 25.2431L19.8934 25.2791L19.9155 25.522C19.9236 25.5882 19.9306 25.6579 19.9306 25.7277L19.9317 28.9489C19.934 29.0779 19.898 29.1825 19.8225 29.2604C19.7725 29.3103 19.683 29.3707 19.5366 29.3707L19.446 29.1383L19.4518 29.3707L16.815 29.4103ZM16.8255 25.687C16.7953 26.3122 16.7976 28.4388 16.8313 28.9989L16.8371 28.9443L19.4646 28.8815L19.4634 25.7253C19.4634 25.7102 19.4634 25.6963 19.4622 25.6812C19.2577 25.6707 18.8673 25.6603 18.2549 25.6603C17.6018 25.6614 17.08 25.673 16.8255 25.687Z" fill="#D7000C"/>
<path fill-rule="evenodd" clip-rule="evenodd" d="M23.2813 29.1292C22.2506 29.1292 21.2407 29.1292 20.2379 29.1292C20.1751 28.9165 20.1658 25.7139 20.2263 25.4512C20.3076 25.4454 20.3971 25.4326 20.4866 25.4326C21.3279 25.4315 22.1681 25.4326 23.0094 25.4326C23.0594 25.4326 23.1094 25.4326 23.1593 25.4361C23.25 25.4408 23.2941 25.4907 23.2976 25.5802C23.3011 25.629 23.3023 25.6802 23.3023 25.729C23.3023 26.7783 23.3023 27.8277 23.2999 28.8759C23.2999 28.9572 23.2883 29.0374 23.2813 29.1292Z" fill="white"/>
<path d="M23.4969 29.3615H20.0641L20.0153 29.1941C19.9409 28.9408 19.9281 25.7126 19.999 25.3976L20.0374 25.2291L20.2884 25.2105C20.3535 25.2047 20.4197 25.1978 20.4859 25.1978H21.5527H23.0088C23.0634 25.1978 23.118 25.1989 23.1726 25.2012C23.3807 25.2117 23.5213 25.3558 23.5306 25.5673C23.534 25.6149 23.5352 25.6707 23.5352 25.7253C23.5352 26.7747 23.5352 27.824 23.5329 28.8722C23.5329 28.935 23.5271 28.9942 23.5213 29.0593L23.4969 29.3615ZM20.4476 28.8955H23.0669C23.0669 28.8885 23.0669 28.8815 23.0669 28.8745C23.0692 27.8264 23.0692 26.7758 23.0692 25.7277C23.0692 25.7067 23.0692 25.6858 23.0692 25.6637C23.0483 25.6637 23.0285 25.6637 23.0088 25.6637L21.5527 25.6626L20.4859 25.6637C20.4697 25.6637 20.4546 25.6637 20.4383 25.6649C20.4081 26.2785 20.4127 28.2656 20.4476 28.8955Z" fill="#D7000C"/>
<path fill-rule="evenodd" clip-rule="evenodd" d="M21.4832 4.90081C21.245 5.18784 20.6918 5.18668 20.4629 4.89965C20.6988 4.61145 21.2554 4.61262 21.4832 4.90081Z" fill="white"/>
<path d="M20.9707 5.34729C20.6918 5.34729 20.4327 5.23341 20.2816 5.04399L20.1631 4.89641L20.2839 4.75115C20.5965 4.37464 21.3658 4.37697 21.6645 4.7558L21.783 4.90338L21.6622 5.04864C21.5076 5.23573 21.2485 5.34729 20.9707 5.34729Z" fill="#D7000C"/>
<path fill-rule="evenodd" clip-rule="evenodd" d="M21.2304 4.17116C21.0457 4.17116 20.8946 4.17116 20.7168 4.17116C20.7621 3.86903 20.8423 3.60175 20.9562 3.33447C21.0933 3.59478 21.1619 3.86786 21.2304 4.17116Z" fill="white"/>
<path d="M21.5214 4.4036H20.4453L20.4848 4.13632C20.5313 3.82837 20.6127 3.54483 20.7405 3.24385L20.9322 2.79297L21.1611 3.22642C21.3111 3.51113 21.3831 3.79932 21.4575 4.12005L21.5214 4.4036Z" fill="#D7000C"/>
</svg>
