<svg width="465" height="43" viewBox="0 0 465 43" fill="none" xmlns="http://www.w3.org/2000/svg">
<path d="M29.753 36.1581C23.1024 40.2496 20.5 43 20.5 43L0 28.8294C0 28.8294 8.62224 22.4829 15.8313 27.3431L25.4996 33.9749L26.6767 33.201L0.00172342 14.5067C0.00172342 14.5067 3.83804 13.3963 11.2453 8.84358C17.8976 4.74871 20.5 2 20.5 2L41 16.1723C41 16.1723 32.3778 22.5188 25.167 17.6586L15.5021 11.0217L14.325 11.7973L40.9966 30.495C40.9966 30.495 37.1637 31.6037 29.753 36.1581Z" fill="#9D9FA1"/>
<path fill-rule="evenodd" clip-rule="evenodd" d="M382.195 25.1057C382.645 27.4295 381.427 29.3598 380.415 31.2333C379.291 32.9765 377.436 34.4747 375.206 34.2506C370.202 34.1756 365.311 33.4073 360.775 32.0388C360.569 31.9828 360.363 31.8511 360.251 31.6641C360.157 31.4015 360.288 31.1578 360.475 30.9896C364.617 27.6348 369.546 26.0799 374.418 24.4488C376.236 23.9242 378.167 23.3618 380.209 23.6245C381.052 23.7372 381.895 24.3185 382.195 25.1057ZM399.268 15.1736C401.592 17.0849 403.691 19.6903 402.978 22.8385C401.817 27.4862 396.757 29.9599 392.728 31.5337C390.535 32.2649 388.324 33.0149 385.925 33.2398C385.775 33.2209 385.531 33.258 385.494 33.0332L385.55 32.7712C388.96 28.929 391.546 24.6195 393.815 20.2527C394.864 18.2847 395.839 16.2612 396.738 14.2743C396.869 14.1244 397.001 14.0495 397.151 13.9934C397.993 14.0677 398.593 14.7239 399.268 15.1736ZM366.565 10.2261L366.49 10.507C361.562 16.1101 358.32 22.6131 355.246 29.0783C354.647 29.6406 354.066 28.8906 353.522 28.6469C350.786 26.8483 348.312 23.9431 349.024 20.4951C350.167 15.998 354.796 13.5992 358.657 11.9693C360.943 11.1072 363.324 10.4138 365.835 10.0202C366.097 10.0196 366.434 9.98241 366.565 10.2261ZM391.022 11.1254C391.303 11.2753 391.641 11.3314 391.81 11.6123C391.959 11.9309 391.66 12.1369 391.491 12.3434C387.611 15.3789 383.17 17.0661 378.635 18.5466C376.329 19.109 374.005 20.1211 371.438 19.5587C370.838 19.4088 370.295 19.0152 369.958 18.4339C369.32 16.6724 370.183 14.836 370.932 13.2994C371.925 11.3692 373.687 9.10137 376.123 9.06421C381.37 9.02642 386.318 9.81364 391.022 11.1254ZM397.506 11.2753C401.48 13.4493 405.977 17.272 405.509 22.3693C404.965 27.092 400.561 30.3901 396.626 32.377C385.138 37.8679 369.002 38.0361 357.139 33.2391C353.128 31.5715 348.631 28.7042 346.944 24.3934C345.651 20.8516 347.224 17.1599 349.868 14.705C355.396 9.68264 362.442 7.95897 369.695 6.96519C377.567 6.0092 385.849 6.85246 392.896 9.27014C394.47 9.85142 396.026 10.4887 397.506 11.2753Z" fill="black"/>
<mask id="mask0_451_85" style="mask-type:luminance" maskUnits="userSpaceOnUse" x="281" y="4" width="52" height="36">
<path d="M332.702 4.61126H281.517V39.6814H332.702V4.61126Z" fill="white"/>
</mask>
<g mask="url(#mask0_451_85)">
<path d="M306.182 25.1606C306.182 27.4213 306.182 29.4502 306.182 31.7109L297.516 39.5944H292.589C288.705 28.1749 284.966 16.7844 281.575 5.07499L281.633 4.72719L306.182 25.1606Z" fill="white" stroke="#4C4642" stroke-miterlimit="8"/>
<path d="M290.213 15.9436C292.85 21.7404 297.111 35.6525 297.487 39.5942H292.56C290.387 33.7685 283.633 10.7556 281.604 4.69801L290.213 15.9436Z" fill="url(#paint0_linear_451_85)"/>
<path d="M290.213 15.9436C292.85 21.7404 297.111 35.6525 297.487 39.5942H292.56C290.387 33.7685 283.488 10.8425 281.604 4.69801L290.213 15.9436Z" fill="url(#paint1_linear_451_85)"/>
<path d="M306.154 25.1314C306.154 26.6096 306.154 26.6096 306.125 28.0878C303.458 26.5516 294.183 19.7695 290.097 15.8857L281.604 4.69801L306.154 25.1314Z" fill="url(#paint2_linear_451_85)"/>
<path d="M306.154 25.1314C306.154 26.6096 306.154 26.6096 306.125 28.0878C303.458 26.5516 294.183 19.7695 290.097 15.8857L281.604 4.69801L306.154 25.1314Z" fill="url(#paint3_linear_451_85)"/>
<path d="M294.937 27.3342L306.154 28.1167C306.154 29.2181 306.154 29.5659 306.154 31.6817L297.459 39.5653H292.531L289.981 15.8277L281.894 5.30667L281.604 4.69801L290.126 15.7697L294.937 27.3342Z" fill="url(#paint4_linear_451_85)"/>
<path d="M292.792 39.3336H297.198L306.067 28.2329L290.184 16.0598L292.792 39.3336Z" fill="url(#paint5_linear_451_85)"/>
<path d="M290.184 15.8569L306.067 28.03V28.2619L290.242 16.1177L290.184 15.8569Z" fill="white"/>
<path d="M308.095 25.1606C308.095 27.4213 308.095 29.4502 308.095 31.7109L316.761 39.5944H321.66C325.544 28.1749 329.282 16.7844 332.673 5.075L332.616 4.7272L308.095 25.1606Z" fill="#514A44" stroke="#4C4642" stroke-miterlimit="8"/>
<path d="M324.007 15.9438C321.37 21.7406 317.109 35.6527 316.732 39.5944H321.66C323.833 33.7977 330.905 11.2485 332.615 4.7272L324.007 15.9438Z" fill="url(#paint6_linear_451_85)"/>
<path d="M308.066 25.1316C308.066 26.6098 308.066 26.6098 308.095 28.0879C310.762 26.5518 320.037 19.7697 324.123 15.8859L332.615 4.6982L308.066 25.1316Z" fill="url(#paint7_linear_451_85)"/>
<path d="M319.283 27.3344L308.066 28.1169C308.066 29.2183 308.066 29.5661 308.066 31.6819L316.732 39.5654H321.66L324.239 15.8279L332.326 5.30686L332.615 4.6982L324.094 15.7699L319.283 27.3344Z" fill="url(#paint8_linear_451_85)"/>
<path d="M324.036 15.7989L308.153 28.03V28.2619L323.949 16.0888L324.036 15.7989Z" fill="white"/>
<path d="M324.007 15.8859H324.181L324.094 15.9728L321.573 39.2176H316.704L319.138 27.5083L323.949 15.9438L324.007 15.8859Z" fill="#968D86"/>
<path d="M321.428 39.4785H317.022L308.153 28.3198L324.036 16.0598L321.428 39.4785Z" fill="url(#paint9_linear_451_85)"/>
<path d="M332.5 4.87211L332.21 5.48076L324.152 15.9148H323.978L332.5 4.87211Z" fill="url(#paint10_linear_451_85)"/>
<path d="M316.79 39.3336H321.66L321.602 39.5944H316.674L316.79 39.3336Z" fill="#544C45"/>
</g>
<path d="M109.943 30.1986C109.943 30.3782 110 30.4821 110.104 30.4821C110.189 30.4726 110.264 30.4349 110.33 30.3876L139.782 11.2731C140.279 10.9253 140.876 10.7464 141.482 10.7629H147.955C148.947 10.7629 149.618 11.4243 149.618 12.4164V24.7751C149.618 26.268 149.287 27.1373 147.964 27.931L140.112 32.6553C140.034 32.7096 139.943 32.7422 139.848 32.7498C139.753 32.7498 139.659 32.6742 139.659 32.4002V17.9816C139.659 17.8115 139.612 17.6981 139.498 17.6981C139.415 17.7077 139.337 17.7404 139.271 17.7926L117.748 31.7766C117.256 32.1073 116.68 32.2868 116.094 32.2773H101.827C100.825 32.2773 100.164 31.6159 100.164 30.6144V12.8038C100.164 12.6715 100.107 12.5487 99.9937 12.5487C99.911 12.5592 99.8326 12.5918 99.7669 12.6432L85.5657 21.1658C85.424 21.2603 85.3862 21.3264 85.3862 21.3925C85.3862 21.4492 85.4145 21.5059 85.509 21.6099L95.6568 31.7482C95.7891 31.8805 95.8835 31.9844 95.8835 32.0978C95.8835 32.1923 95.7324 32.2679 95.5528 32.2679H86.3877C85.6696 32.2679 85.1121 32.1639 84.7248 31.7766L78.5737 25.635C78.5504 25.6071 78.5216 25.5843 78.4891 25.568C78.4566 25.5518 78.421 25.5424 78.3847 25.5405C78.3181 25.5436 78.2532 25.563 78.1958 25.5972L67.9157 31.7766C67.2921 32.1545 66.8669 32.2584 66.2528 32.2584H56.7947C55.7837 32.2679 55.1223 31.597 55.1223 30.6049V18.4824C55.1223 16.9801 55.453 16.1202 56.7853 15.3266L64.6843 10.5834C64.7463 10.5428 64.8181 10.5199 64.8922 10.5172C65.015 10.5172 65.0811 10.6401 65.0811 10.9141V27.1467C65.0811 27.3168 65.1189 27.3924 65.2418 27.3924C65.3268 27.383 65.4024 27.3452 65.478 27.2979L92.1608 11.2448C92.671 10.8952 93.2946 10.7251 93.9182 10.7534H108.28C109.272 10.7534 109.943 11.4148 109.943 12.4069L109.934 30.1986H109.943Z" fill="#131E29"/>
<path fill-rule="evenodd" clip-rule="evenodd" d="M463.766 16.8223C463.218 15.7449 462.496 14.7123 461.599 13.7439C459.581 11.5667 456.735 9.75496 453.367 8.50542C449.971 7.2462 446.098 6.57991 442.162 6.57991C438.226 6.57991 434.353 7.2462 430.959 8.50542C427.589 9.75511 424.742 11.5668 422.725 13.7439C421.828 14.7121 421.104 15.7462 420.557 16.8242C424.941 15.7638 432.442 14.3638 439.406 14.2158C440.078 14.2014 440.541 14.4165 440.845 14.8025C441.216 15.2726 441.188 16.9481 441.179 17.6977L440.981 37.0727C441.374 37.0857 441.768 37.094 442.162 37.094C442.56 37.094 442.956 37.0875 443.348 37.0745L443.15 17.6976C443.14 16.9481 443.111 15.2724 443.483 14.8024C443.789 14.4165 444.25 14.2014 444.921 14.2157C451.883 14.3625 459.382 15.7628 463.766 16.8223Z" fill="#6B6B6B"/>
<path fill-rule="evenodd" clip-rule="evenodd" d="M464.702 19.3419C458.284 17.8911 453.998 17.6228 449.77 17.3881C446.084 17.1832 446.035 18.4995 446.403 21.0149C446.428 21.1684 446.457 21.3619 446.492 21.5825C447.729 28.9056 449.268 35.2075 449.533 36.2771C458.519 34.223 465 28.5277 465 21.8374C465 20.9949 464.898 20.1603 464.702 19.3419Z" fill="#6B6B6B"/>
<path fill-rule="evenodd" clip-rule="evenodd" d="M437.924 21.0149C438.293 18.4996 438.245 17.1832 434.56 17.3881C430.329 17.6228 426.043 17.8909 419.622 19.3428C419.426 20.1611 419.323 20.9948 419.323 21.8373C419.323 24.7288 420.5 27.5268 422.725 29.9308C424.743 32.108 427.589 33.9197 430.959 35.1701C432.178 35.6217 433.465 35.9918 434.791 36.2878C435.04 35.2858 436.615 28.8528 437.865 21.3987C437.888 21.2559 437.909 21.124 437.924 21.0149Z" fill="#6B6B6B"/>
<path d="M250.338 0.67395C240.935 0.67395 233.285 10.1678 233.285 21.8366C233.285 33.5055 240.935 43 250.338 43C259.741 43 267.392 33.5062 267.392 21.8366C267.392 10.1671 259.742 0.67395 250.338 0.67395ZM236.428 29.1615L236.412 29.1123C235.847 27.3649 235.679 25.8339 235.678 25.8184L235.676 25.7968L235.693 25.784L250.338 14.9542L265.002 25.7968L264.999 25.8184C264.997 25.8339 264.83 27.3649 264.265 29.1123L264.249 29.1615L264.207 29.1305L264.206 29.1325L250.338 18.8469L236.429 29.1636L236.428 29.1615ZM250.338 41.0024C245.454 41.0024 240.881 37.9776 238.052 32.8951L238.018 32.8297L250.338 23.7196L262.659 32.8311L262.627 32.8897L262.628 32.8904C259.798 37.9756 255.226 41.0024 250.338 41.0024ZM250.338 9.99986L235.296 21.1568L235.298 21.0799C235.45 16.1304 237.082 11.5018 239.894 8.04741C242.717 4.58088 246.425 2.67159 250.338 2.67159C254.251 2.67159 257.96 4.58088 260.782 8.04741C263.595 11.5018 265.227 16.1304 265.379 21.0799L265.381 21.1568L265.318 21.111L250.338 9.99986Z" fill="black"/>
<path d="M191.452 3.62693C175.959 3.62693 163.398 11.6569 163.398 21.558C163.398 31.4661 175.959 39.4984 191.452 39.4984C206.944 39.4984 219.505 31.4684 219.505 21.558C219.505 11.6476 206.944 3.62693 191.452 3.62693ZM191.452 31.8011C189.147 31.8011 187.267 27.3148 187.15 21.6712C190.012 21.9189 192.891 21.9189 195.753 21.6712C195.636 27.3125 193.757 31.8011 191.452 31.8011ZM187.433 17.1919C188.059 13.2024 189.623 10.3702 191.452 10.3702C193.28 10.3702 194.841 13.2024 195.47 17.1919C192.796 17.4265 190.107 17.4265 187.433 17.1919ZM191.452 6.21888C188.443 6.21888 185.876 10.6728 184.929 16.8893C179.225 16.0115 175.244 14.0063 175.244 11.6777C175.244 8.53592 182.5 5.99249 191.452 5.99249C200.405 5.99249 207.659 8.53823 207.659 11.6777C207.659 14.0063 203.678 16.0115 197.974 16.8893C197.027 10.6751 194.46 6.22119 191.452 6.22119V6.21888ZM167.419 20.8881C167.419 17.8503 168.604 14.9973 170.664 12.5486C170.643 12.7195 170.629 12.8951 170.629 13.0707C170.629 16.8985 176.438 20.1627 184.546 21.364C184.539 21.6412 184.539 21.923 184.539 22.2049C184.539 29.3431 186.563 35.3841 189.362 37.4354C177.065 36.7031 167.419 29.5741 167.419 20.8881ZM193.542 37.4354C196.34 35.3841 198.364 29.3408 198.364 22.2049C198.364 21.9207 198.36 21.6435 198.357 21.3663C206.46 20.165 212.274 16.9032 212.274 13.0707C212.274 12.8951 212.26 12.7195 212.239 12.5486C214.299 15.0042 215.482 17.8503 215.482 20.8881C215.482 29.5741 205.838 36.7031 193.542 37.4354Z" fill="black"/>
<defs>
<linearGradient id="paint0_linear_451_85" x1="276.938" y1="26.7357" x2="302.159" y2="17.5537" gradientUnits="userSpaceOnUse">
<stop stop-color="#7B7269"/>
<stop offset="0.4" stop-color="#7B7269"/>
<stop offset="0.43" stop-color="#675F5A"/>
<stop offset="0.59" stop-color="#C9C0B9"/>
<stop offset="1" stop-color="#C9C0B9"/>
</linearGradient>
<linearGradient id="paint1_linear_451_85" x1="289.545" y1="39.5797" x2="289.545" y2="4.71251" gradientUnits="userSpaceOnUse">
<stop stop-color="#675F5A" stop-opacity="0.26"/>
<stop offset="0.07" stop-color="#675F5A" stop-opacity="0.26"/>
<stop offset="0.32" stop-color="#ABA6A2" stop-opacity="0"/>
<stop offset="0.59" stop-color="#B9B5B2" stop-opacity="0"/>
<stop offset="0.83" stop-color="white" stop-opacity="0.18"/>
<stop offset="1" stop-color="white" stop-opacity="0.18"/>
</linearGradient>
<linearGradient id="paint2_linear_451_85" x1="279.614" y1="24.6299" x2="308.143" y2="8.15853" gradientUnits="userSpaceOnUse">
<stop stop-color="#514A44"/>
<stop offset="0.36" stop-color="#514A44"/>
<stop offset="0.57" stop-color="#C6C4C2"/>
<stop offset="0.6" stop-color="white"/>
<stop offset="1" stop-color="white"/>
</linearGradient>
<linearGradient id="paint3_linear_451_85" x1="280.919" y1="27.2652" x2="306.833" y2="5.52172" gradientUnits="userSpaceOnUse">
<stop stop-color="#514A44" stop-opacity="0.75"/>
<stop offset="0.49" stop-color="#514A44" stop-opacity="0.75"/>
<stop offset="0.58" stop-color="#C6C4C2" stop-opacity="0"/>
<stop offset="1" stop-color="#C6C4C2" stop-opacity="0"/>
</linearGradient>
<linearGradient id="paint4_linear_451_85" x1="276.937" y1="26.7321" x2="309.813" y2="14.7677" gradientUnits="userSpaceOnUse">
<stop stop-color="#5E5751"/>
<stop offset="0.4" stop-color="#5E5751"/>
<stop offset="0.5" stop-color="#57504A"/>
<stop offset="0.59" stop-color="#776E69"/>
<stop offset="0.7" stop-color="#ACA09A"/>
<stop offset="1" stop-color="#ACA09A"/>
</linearGradient>
<linearGradient id="paint5_linear_451_85" x1="286.85" y1="30.1797" x2="308.347" y2="22.3571" gradientUnits="userSpaceOnUse">
<stop stop-color="#988D8A"/>
<stop offset="0.11" stop-color="#988D8A"/>
<stop offset="0.3" stop-color="#B4AAA5"/>
<stop offset="0.56" stop-color="#C0B6B0"/>
<stop offset="0.89" stop-color="#CEC5BE"/>
<stop offset="1" stop-color="#CEC5BE"/>
</linearGradient>
<linearGradient id="paint6_linear_451_85" x1="312.368" y1="18.1478" x2="336.972" y2="26.1414" gradientUnits="userSpaceOnUse">
<stop stop-color="#3D3731"/>
<stop offset="0.43" stop-color="#3D3731"/>
<stop offset="0.51" stop-color="#5A524C"/>
<stop offset="0.57" stop-color="#887F7A"/>
<stop offset="0.6" stop-color="#C7C0B6"/>
<stop offset="1" stop-color="#C7C0B6"/>
</linearGradient>
<linearGradient id="paint7_linear_451_85" x1="333.301" y1="27.2654" x2="307.387" y2="5.52191" gradientUnits="userSpaceOnUse">
<stop stop-color="#645C57"/>
<stop offset="0.48" stop-color="#645C57"/>
<stop offset="0.53" stop-color="#716863"/>
<stop offset="0.56" stop-color="#9D928C"/>
<stop offset="0.59" stop-color="white"/>
<stop offset="1" stop-color="white"/>
</linearGradient>
<linearGradient id="paint8_linear_451_85" x1="335.937" y1="36.7858" x2="308.628" y2="4.24301" gradientUnits="userSpaceOnUse">
<stop stop-color="#918883"/>
<stop offset="0.24" stop-color="#918883"/>
<stop offset="0.32" stop-color="#4C433E"/>
<stop offset="0.35" stop-color="#544B48"/>
<stop offset="0.47" stop-color="#79706A"/>
<stop offset="1" stop-color="#79706A"/>
</linearGradient>
<linearGradient id="paint9_linear_451_85" x1="327.396" y1="30.2655" x2="305.85" y2="22.4225" gradientUnits="userSpaceOnUse">
<stop stop-color="#A19891"/>
<stop offset="0.16" stop-color="#A19891"/>
<stop offset="0.57" stop-color="#948983"/>
<stop offset="1" stop-color="#948983"/>
</linearGradient>
<linearGradient id="paint10_linear_451_85" x1="323.77" y1="5.04804" x2="332.72" y2="15.7169" gradientUnits="userSpaceOnUse">
<stop stop-color="white"/>
<stop offset="0.35" stop-color="white"/>
<stop offset="0.36" stop-color="white"/>
<stop offset="0.72" stop-color="#9C8F8C"/>
<stop offset="1" stop-color="#9C8F8C"/>
</linearGradient>
</defs>
</svg>
