<svg width="20" height="20" viewBox="0 0 20 20" fill="none" xmlns="http://www.w3.org/2000/svg">
<path d="M11.3621 1.57229C11.4365 1.57229 11.4793 1.57541 11.4793 1.57541H13.1115L13.1031 3.45041H11.4818C10.5896 3.45041 10.6103 4.21227 10.6103 4.21227V7.18477H13.7671L13.3265 9.05727H10.6V18.4279H8.72683L8.72558 9.05727H6.23714L6.23214 7.18477H8.72651V4.27102C8.72679 1.73039 10.8368 1.57229 11.3621 1.57229ZM11.3621 0.322266C10.9128 0.322266 10.0346 0.39666 9.20272 0.89791C8.41522 1.37166 7.47679 2.34195 7.47679 4.27072V5.93445H6.23241C5.90022 5.93445 5.58179 6.06695 5.34679 6.30197C5.23068 6.41855 5.13872 6.5569 5.0762 6.70909C5.01367 6.86128 4.98181 7.02432 4.98243 7.18885L4.98743 9.06135C4.98993 9.74979 5.54899 10.307 6.23743 10.307H7.47587L7.47712 18.4276C7.47712 19.1179 8.03682 19.6776 8.72712 19.6776H10.6003C11.2906 19.6776 11.8503 19.1179 11.8503 18.4276V10.307H13.3268C13.8815 10.307 14.3699 9.94135 14.5262 9.40918L14.9668 7.53666C15.0777 7.15887 15.004 6.75043 14.7677 6.43572C14.6515 6.2801 14.5005 6.15376 14.3269 6.06674C14.1532 5.97972 13.9617 5.93443 13.7674 5.93447H11.8605V4.70104L13.1033 4.70041C13.7912 4.70041 14.3502 4.14447 14.3533 3.45604L14.3618 1.64447C14.363 1.62147 14.3637 1.59844 14.3637 1.57541C14.3637 0.885098 13.8052 0.32541 13.1149 0.32541H11.5146C11.4787 0.323535 11.4268 0.322285 11.3621 0.322266Z" fill="white"/>
</svg>
