<svg width="155" height="38" viewBox="0 0 155 38" fill="none" xmlns="http://www.w3.org/2000/svg">
<path d="M40.9471 23.0814V2.81641H46.071L55.9138 16.3074L54.7269 16.0172C54.6297 15.3034 54.5485 14.6575 54.4802 14.0785C54.4124 13.4995 54.3546 12.9489 54.3071 12.4279C54.2585 11.9069 54.2205 11.3861 54.1907 10.8651C54.1618 10.3443 54.1479 9.7747 54.1479 9.15696C54.1479 8.53923 54.1479 7.84514 54.1479 7.07269V2.81641H59.6766V23.0814H54.495L43.8995 8.60662L45.8971 9.09942C45.9938 9.8909 46.0755 10.5758 46.1438 11.1546C46.2112 11.7338 46.2643 12.2548 46.3034 12.7178C46.3415 13.1802 46.3749 13.6251 46.4044 14.0487C46.4333 14.4734 46.4521 14.9282 46.4622 15.4093C46.4718 15.8918 46.4761 16.4417 46.4761 17.0594V23.0814H40.9471Z" fill="white"/>
<path d="M71.2564 23.371C69.6739 23.371 68.2167 23.1106 66.8852 22.5896C65.5533 22.0679 64.3999 21.3402 63.4258 20.4037C62.4509 19.4676 61.6984 18.3577 61.168 17.0743C60.6367 15.7916 60.3716 14.3779 60.3716 12.8335C60.3716 11.3089 60.6468 9.90533 61.1969 8.6215C61.747 7.33857 62.5143 6.224 63.4983 5.27781C64.4826 4.33206 65.6497 3.59857 67.0014 3.07734C68.352 2.55677 69.8281 2.29639 71.4301 2.29639C72.3956 2.29639 73.3357 2.41684 74.2528 2.65843C75.1694 2.89934 76.033 3.25108 76.8437 3.71477C77.6542 4.17757 78.3779 4.75701 79.0144 5.45177L75.5693 9.44678C75.2413 9.08049 74.8748 8.7518 74.4691 8.46275C74.0636 8.1728 73.6062 7.94622 73.0941 7.78255C72.5825 7.61821 72.0176 7.53559 71.401 7.53559C70.687 7.53559 70.0155 7.65627 69.3891 7.89741C68.7615 8.13877 68.2167 8.49074 67.753 8.9542C67.2898 9.41767 66.9278 9.9772 66.6676 10.6332C66.407 11.2899 66.2767 12.0422 66.2767 12.891C66.2767 13.7017 66.407 14.4301 66.6676 15.0774C66.9278 15.7242 67.3044 16.2746 67.7963 16.7273C68.2879 17.1807 68.8772 17.5335 69.5621 17.7843C70.2477 18.0353 71.0143 18.1607 71.864 18.1607C72.4614 18.1607 73.0258 18.0736 73.5571 17.9003C74.0871 17.7272 74.575 17.4946 75.0185 17.2053C75.4618 16.9153 75.8581 16.597 76.2054 16.249L78.9271 20.5631C78.4439 21.1038 77.7928 21.5856 76.9727 22.011C76.1526 22.4355 75.2451 22.7683 74.2521 23.0094C73.2585 23.2505 72.2597 23.371 71.2564 23.371Z" fill="white"/>
<path d="M76.2352 23.0814L84.3121 2.81641H88.9443L96.9626 23.0814H91.2601L87.7859 13.673C87.5924 13.152 87.4187 12.6701 87.2649 12.2253C87.1102 11.7819 86.9651 11.3474 86.8307 10.9226C86.6955 10.4983 86.5647 10.0642 86.4398 9.62065C86.314 9.17689 86.2036 8.69372 86.1075 8.17271L87.0338 8.14405C86.9181 8.70335 86.7969 9.2051 86.6718 9.64976C86.5462 10.0931 86.4163 10.5185 86.2813 10.9233C86.146 11.329 85.9967 11.7535 85.833 12.1973C85.668 12.6408 85.4894 13.1336 85.2968 13.6737L81.8228 23.0821L76.2352 23.0814ZM80.1727 19.7234L81.8808 15.6702H91.261L92.8527 19.7234H80.1727Z" fill="white"/>
<path d="M96.1232 23.0814V2.81641H105.474C106.844 2.81641 108.069 3.09672 109.151 3.65624C110.231 4.21576 111.076 4.97791 111.684 5.94403C112.291 6.90903 112.595 8.01889 112.595 9.27227C112.595 10.6233 112.291 11.8202 111.684 12.8618C111.075 13.9043 110.231 14.7197 109.151 15.3081C108.069 15.8976 106.844 16.1909 105.474 16.1909H101.508V23.0805L96.1232 23.0814ZM101.508 12.0811H104.693C105.194 12.0811 105.614 11.9801 105.952 11.7775C106.289 11.5748 106.55 11.2956 106.733 10.9381C106.916 10.5807 107.008 10.1611 107.008 9.67887C107.008 9.21562 106.911 8.81529 106.719 8.47721C106.526 8.13979 106.241 7.87985 105.865 7.69581C105.489 7.51333 105.02 7.42087 104.461 7.42087H101.508L101.508 12.0811ZM106.979 23.0814L101.825 13.9336L107.702 13.2102L113.434 23.0821L106.979 23.0814Z" fill="white"/>
<path d="M122.901 23.371C121.338 23.371 119.9 23.1107 118.587 22.5896C117.275 22.068 116.136 21.3349 115.171 20.3896C114.206 19.4439 113.459 18.3295 112.927 17.0455C112.397 15.7623 112.131 14.3587 112.131 12.8335C112.131 11.2897 112.397 9.88097 112.927 8.60677C113.458 7.33323 114.206 6.22383 115.171 5.27831C116.136 4.33256 117.275 3.59907 118.587 3.07784C119.9 2.55728 121.337 2.29688 122.901 2.29688C124.464 2.29688 125.897 2.55728 127.2 3.07784C128.503 3.59907 129.641 4.33256 130.616 5.27831C131.591 6.2245 132.338 7.33391 132.859 8.60677C133.381 9.88097 133.641 11.2803 133.641 12.8049C133.641 14.3489 133.381 15.7623 132.859 17.0455C132.339 18.3289 131.59 19.4439 130.616 20.3896C129.641 21.3354 128.503 22.068 127.2 22.5896C125.897 23.1107 124.464 23.371 122.901 23.371ZM122.901 18.0445C123.596 18.0445 124.242 17.9187 124.841 17.6679C125.438 17.4174 125.959 17.0558 126.404 16.5818C126.847 16.1096 127.19 15.5539 127.431 14.9171C127.672 14.2799 127.793 13.586 127.793 12.8322C127.793 12.0799 127.672 11.3849 127.431 10.7479C127.19 10.1107 126.848 9.55677 126.404 9.083C125.959 8.61035 125.438 8.24809 124.841 7.99732C124.242 7.747 123.595 7.62027 122.901 7.62027C122.187 7.62027 121.53 7.74633 120.932 7.99732C120.333 8.24786 119.813 8.60968 119.369 9.083C118.925 9.5561 118.583 10.106 118.342 10.7331C118.1 11.3605 117.98 12.0599 117.98 12.8315C117.98 13.5847 118.1 14.2792 118.342 14.9162C118.583 15.5532 118.925 16.1082 119.369 16.5811C119.813 17.0544 120.334 17.416 120.932 17.6672C121.53 17.9189 122.186 18.0445 122.901 18.0445Z" fill="white"/>
<path d="M143.889 23.371C142.326 23.371 140.887 23.1107 139.575 22.5896C138.262 22.068 137.124 21.3349 136.159 20.3896C135.194 19.4439 134.446 18.3295 133.915 17.0455C133.385 15.7623 133.119 14.3587 133.119 12.8335C133.119 11.2897 133.385 9.88097 133.915 8.60677C134.446 7.33323 135.194 6.22383 136.159 5.27831C137.124 4.33256 138.262 3.59907 139.575 3.07784C140.887 2.55728 142.325 2.29688 143.889 2.29688C145.452 2.29688 146.885 2.55728 148.188 3.07784C149.49 3.59907 150.629 4.33256 151.603 5.27831C152.578 6.2245 153.326 7.33391 153.847 8.60677C154.369 9.88097 154.629 11.2803 154.629 12.8049C154.629 14.3489 154.369 15.7623 153.847 17.0455C153.326 18.3289 152.578 19.4439 151.603 20.3896C150.629 21.3354 149.49 22.068 148.188 22.5896C146.885 23.1107 145.452 23.371 143.889 23.371ZM143.889 18.0445C144.584 18.0445 145.23 17.9187 145.828 17.6679C146.426 17.4174 146.947 17.0558 147.392 16.5818C147.835 16.1096 148.178 15.5539 148.419 14.9171C148.66 14.2799 148.781 13.586 148.781 12.8322C148.781 12.0799 148.66 11.3849 148.419 10.7479C148.178 10.1107 147.835 9.55677 147.392 9.083C146.947 8.61035 146.426 8.24809 145.828 7.99732C145.23 7.747 144.583 7.62027 143.889 7.62027C143.175 7.62027 142.518 7.74633 141.92 7.99732C141.321 8.24786 140.801 8.60968 140.357 9.083C139.913 9.5561 139.57 10.106 139.329 10.7331C139.088 11.3605 138.968 12.0599 138.968 12.8315C138.968 13.5847 139.088 14.2792 139.329 14.9162C139.57 15.5532 139.913 16.1082 140.357 16.5811C140.801 17.0544 141.322 17.416 141.92 17.6672C142.518 17.9189 143.174 18.0445 143.889 18.0445Z" fill="white"/>
<path d="M41.7872 23.0814L33.7685 2.81641H29.1365L23.7224 16.398L27.4042 21.0285L27.886 19.7234H34.8432L36.0827 23.0814H41.7872ZM29.3832 15.6708L30.121 13.6732C30.3133 13.1332 30.4922 12.6415 30.6568 12.1968C30.8202 11.7531 30.9698 11.3283 31.1054 10.9229C31.2013 10.6369 31.2935 10.3371 31.384 10.0308C31.4724 10.3324 31.5624 10.6316 31.6556 10.9229C31.7908 11.3476 31.935 11.7824 32.0895 12.2255C32.2437 12.6697 32.4175 13.1522 32.6103 13.6732L33.348 15.6708H29.3832Z" fill="white"/>
<path d="M0 30.3724V0H8.59052V30.3724H0ZM6.07413 21.6511L3.38399 14.9694L18.0923 0H27.9855L6.07413 21.6511ZM23.3924 37.5851L5.98681 15.8316L11.627 10.9721L34.1182 37.5851H23.3924Z" fill="white"/>
<path d="M40.1767 36.8748C39.4569 36.8748 38.7939 36.7478 38.1885 36.4937C37.5837 36.2392 37.0601 35.8796 36.6183 35.413C36.1763 34.9475 35.8335 34.3971 35.5888 33.7642C35.343 33.1297 35.2212 32.4389 35.2212 31.69C35.2212 30.9505 35.343 30.2705 35.5888 29.651C35.8342 29.0317 36.1815 28.4892 36.6331 28.0239C37.084 27.5575 37.6077 27.2004 38.2037 26.9508C38.7979 26.7009 39.4515 26.5762 40.1624 26.5762C40.6326 26.5762 41.0989 26.651 41.5595 26.7994C42.0207 26.9487 42.445 27.1532 42.8348 27.4113C43.2235 27.6704 43.5421 27.9688 43.7924 28.3047L43.0146 29.1114C42.7746 28.8237 42.4992 28.5736 42.1869 28.3622C41.8743 28.1506 41.5452 27.9876 41.1999 27.8728C40.8542 27.7572 40.5081 27.6999 40.1622 27.6999C39.6237 27.6999 39.1233 27.7984 38.6564 27.9948C38.1901 28.192 37.7904 28.4672 37.4546 28.8234C37.118 29.1788 36.857 29.601 36.6693 30.0909C36.4819 30.5804 36.3888 31.1132 36.3888 31.6898C36.3888 32.2844 36.4819 32.8321 36.6693 33.3316C36.857 33.8314 37.125 34.2606 37.4763 34.6208C37.8262 34.9811 38.2393 35.26 38.7146 35.4564C39.19 35.6532 39.722 35.7517 40.3061 35.7517C40.652 35.7517 40.998 35.7005 41.3448 35.5999C41.6905 35.4992 42.0071 35.3579 42.2948 35.1754C42.5829 34.9932 42.8279 34.7867 43.0301 34.5554L43.6057 35.492C43.3845 35.7609 43.0901 35.9989 42.72 36.2051C42.3501 36.4118 41.9448 36.5748 41.5035 36.695C41.06 36.8148 40.6185 36.8748 40.1767 36.8748Z" fill="white"/>
<path d="M40.1767 37.2084C39.4157 37.2084 38.703 37.0716 38.0591 36.8016C37.4122 36.5291 36.846 36.1393 36.3758 35.6425C35.9072 35.149 35.5375 34.5573 35.2776 33.884C35.0185 33.2157 34.8873 32.4772 34.8873 31.6896C34.8873 30.9095 35.019 30.1818 35.2785 29.5276C35.5398 28.8682 35.915 28.2839 36.3933 27.7906C36.8722 27.2954 37.4378 26.9089 38.0743 26.6423C38.7073 26.3765 39.4099 26.2417 40.1624 26.2417C40.6646 26.2417 41.1695 26.3221 41.662 26.481C42.1483 26.6389 42.6049 26.8579 43.0193 27.1326C43.4369 27.4109 43.7873 27.7378 44.0607 28.1047L44.2299 28.3322L42.9967 29.6107L42.7585 29.325C42.5384 29.061 42.2829 28.8302 41.9997 28.6385C41.7149 28.446 41.4101 28.2948 41.0945 28.1896C40.7844 28.0864 40.4707 28.0338 40.1624 28.0338C39.6727 28.0338 39.2101 28.1245 38.7865 28.3027C38.3658 28.4807 37.9993 28.733 37.6977 29.0527C37.3936 29.374 37.1525 29.7634 36.9817 30.2107C36.8102 30.6581 36.7235 31.1558 36.7235 31.6898C36.7235 32.2433 36.8106 32.7562 36.9826 33.2143C37.1527 33.6684 37.3995 34.0631 37.7158 34.3876C38.0336 34.7144 38.4124 34.9701 38.8425 35.1477C39.2753 35.3272 39.7677 35.4179 40.3066 35.4179C40.6173 35.4179 40.9355 35.3714 41.2519 35.2796C41.566 35.1882 41.8568 35.0583 42.1168 34.8936C42.3758 34.7297 42.5984 34.542 42.7791 34.336L43.0775 33.9953L44.0156 35.5205L43.8643 35.7047C43.6164 36.0063 43.2862 36.273 42.8825 36.4976C42.4916 36.7161 42.057 36.8912 41.5913 37.0177C41.1213 37.1442 40.6453 37.2084 40.1767 37.2084ZM40.1624 26.91C39.4987 26.91 38.8835 27.0271 38.3327 27.2584C37.7799 27.4902 37.2893 27.8256 36.8733 28.2557C36.4557 28.6862 36.1282 29.1967 35.8991 29.7737C35.6708 30.3493 35.555 30.9942 35.555 31.6898C35.555 32.3946 35.6714 33.0518 35.9 33.6433C36.1289 34.2348 36.4519 34.7527 36.8603 35.1828C37.2667 35.6123 37.757 35.9497 38.3181 36.1857C38.879 36.4214 39.5043 36.5408 40.1765 36.5408C40.5862 36.5408 41.0038 36.4844 41.4173 36.3726C41.8295 36.2605 42.2133 36.1062 42.5574 35.9139C42.8055 35.7759 43.0171 35.621 43.1897 35.4524L42.9671 35.0906C42.8169 35.2225 42.6526 35.3454 42.4743 35.4584C42.1615 35.6564 41.8132 35.8122 41.4384 35.921C41.0611 36.0307 40.6803 36.086 40.3066 36.086C39.6792 36.086 39.1007 35.9779 38.5868 35.7648C38.0725 35.5527 37.6182 35.2462 37.2369 34.8533C36.8558 34.4628 36.5596 33.9904 36.3568 33.449C36.1564 32.9154 36.055 32.3241 36.055 31.69C36.055 31.0736 36.1566 30.4958 36.3575 29.9716C36.5599 29.4423 36.8473 28.9786 37.2123 28.594C37.5775 28.2068 38.0194 27.9014 38.5266 27.6874C39.0328 27.474 39.5832 27.3657 40.1622 27.3657C40.5426 27.3657 40.9272 27.4297 41.3052 27.556C41.6788 27.6802 42.0384 27.8585 42.3738 28.0857C42.6067 28.2431 42.8236 28.4231 43.0216 28.6226L43.3458 28.2863C43.1494 28.0674 42.9161 27.867 42.6494 27.689C42.2861 27.4487 41.8846 27.2557 41.4563 27.1171C41.0306 26.9799 40.5952 26.91 40.1624 26.91Z" fill="white"/>
<path d="M40.1767 37.2134C39.4152 37.2134 38.7017 37.0762 38.057 36.8057C37.4095 36.5328 36.8429 36.1427 36.3725 35.6457C35.9029 35.1515 35.5333 34.5589 35.2729 33.8856C35.0138 33.2171 34.8826 32.478 34.8826 31.6896C34.8826 30.9093 35.0143 30.181 35.2742 29.5254C35.5355 28.866 35.9112 28.281 36.3901 27.7873C36.8693 27.292 37.4351 26.9052 38.0727 26.6378C38.7057 26.3718 39.4092 26.2368 40.1626 26.2368C40.6655 26.2368 41.1708 26.3179 41.6638 26.4764C42.1504 26.6347 42.6075 26.8539 43.0224 27.1288C43.44 27.4071 43.7909 27.7347 44.0647 28.1021L44.2367 28.3327L42.9965 29.6181L42.7551 29.3279C42.5355 29.0644 42.2804 28.8338 41.9974 28.6421C41.7129 28.4494 41.4081 28.2987 41.0931 28.1937C40.7837 28.0905 40.4705 28.0381 40.1626 28.0381C39.6736 28.0381 39.2117 28.1285 38.7888 28.3068C38.369 28.4841 38.0031 28.7357 37.7017 29.0557C37.3979 29.3763 37.1572 29.765 36.9864 30.2121C36.8149 30.6592 36.7284 31.1563 36.7284 31.6896C36.7284 32.2427 36.8156 32.7552 36.9871 33.2126C37.1574 33.6664 37.4037 34.0603 37.7196 34.3836C38.0371 34.7107 38.4153 34.9661 38.8445 35.143C39.2764 35.3221 39.7683 35.4126 40.3068 35.4126C40.6176 35.4126 40.935 35.3662 41.2507 35.2747C41.5649 35.1831 41.8557 35.0537 42.1141 34.8894C42.3734 34.7252 42.5957 34.5381 42.7757 34.3327L43.0787 33.987L44.021 35.5207L43.8681 35.7072C43.6203 36.0088 43.2896 36.2764 42.8852 36.5016C42.4938 36.7204 42.059 36.8955 41.5931 37.022C41.1216 37.1487 40.6453 37.2134 40.1767 37.2134ZM40.1624 26.9143C39.4992 26.9143 38.8844 27.0317 38.3349 27.2629C37.7821 27.4947 37.292 27.8294 36.8767 28.2588C36.4595 28.6892 36.1322 29.199 35.9036 29.7755C35.6757 30.3505 35.5601 30.9946 35.5601 31.6896C35.5601 32.394 35.6764 33.05 35.9045 33.6409C36.1331 34.2318 36.4557 34.7492 36.8637 35.1795C37.2696 35.6085 37.7593 35.9448 38.3199 36.1808C38.8803 36.4165 39.5052 36.5359 40.1765 36.5359C40.5853 36.5359 41.0024 36.4797 41.416 36.368C41.8275 36.256 42.2115 36.102 42.555 35.9094C42.8017 35.772 43.0124 35.6186 43.1839 35.4516L42.9656 35.0976C42.8169 35.2283 42.6535 35.3497 42.4766 35.4618C42.1645 35.6598 41.8156 35.8158 41.4395 35.9253C41.062 36.0346 40.6807 36.0901 40.3063 36.0901C39.6781 36.0901 39.0989 35.9822 38.585 35.7688C38.07 35.5566 37.6155 35.2498 37.2331 34.8562C36.852 34.4655 36.5554 33.9926 36.3518 33.4504C36.1515 32.9168 36.0498 32.3246 36.0498 31.6896C36.0498 31.073 36.1519 30.4942 36.3525 29.9699C36.5552 29.4394 36.8433 28.9755 37.2085 28.5902C37.5748 28.202 38.0174 27.8966 38.5248 27.6825C39.0315 27.4689 39.5822 27.3606 40.1619 27.3606C40.543 27.3606 40.9283 27.4241 41.3065 27.5511C41.6806 27.6756 42.0404 27.8538 42.3765 28.0813C42.608 28.2382 42.8243 28.4171 43.0211 28.6159L43.3393 28.2855C43.1438 28.0683 42.9118 27.8701 42.6463 27.693C42.2836 27.4528 41.8826 27.2598 41.4543 27.1212C41.0295 26.9844 40.5947 26.9143 40.1624 26.9143Z" fill="white"/>
<path d="M40.1767 37.5478C39.3702 37.5478 38.6135 37.4016 37.9279 37.1134C37.2372 36.8226 36.6322 36.4061 36.1298 35.8755C35.6311 35.3507 35.238 34.7217 34.9612 34.0061C34.6876 33.2991 34.5486 32.5195 34.5486 31.6897C34.5486 30.8666 34.6881 30.0976 34.9635 29.4024C35.2416 28.7016 35.6408 28.08 36.1506 27.555C36.6608 27.027 37.2642 26.6146 37.9433 26.3298C38.6184 26.0463 39.3648 25.9028 40.1626 25.9028C40.6995 25.9028 41.2393 25.989 41.7659 26.1587C42.2827 26.3267 42.7672 26.5591 43.2069 26.8506C43.6576 27.1511 44.036 27.5046 44.3327 27.9025L44.6739 28.3606L42.9786 30.1186L42.4983 29.5423C42.2984 29.3029 42.0666 29.0932 41.8103 28.9194C41.5512 28.7441 41.2745 28.6066 40.9874 28.511C40.712 28.4192 40.4342 28.3727 40.1624 28.3727C39.7188 28.3727 39.3001 28.4541 38.9182 28.6154C38.5414 28.7741 38.2136 28.9998 37.9442 29.2853C37.6699 29.5745 37.453 29.9263 37.2981 30.3315C37.1416 30.7404 37.0618 31.1971 37.0618 31.6899C37.0618 32.2024 37.1418 32.6755 37.2992 33.0956C37.453 33.5051 37.6749 33.8602 37.9581 34.1503C38.2438 34.445 38.5846 34.6747 38.9712 34.8343C39.3628 34.9967 39.812 35.0791 40.3063 35.0791C40.5855 35.0791 40.8719 35.037 41.1572 34.9541C41.4417 34.8708 41.7035 34.7544 41.9345 34.6073C42.1678 34.46 42.366 34.2938 42.524 34.1125L43.1257 33.4262L44.4305 35.549L44.1258 35.9193C43.8509 36.2539 43.4882 36.5478 43.0482 36.7932C42.6331 37.025 42.1732 37.2103 41.6808 37.3442C41.1795 37.4792 40.6742 37.5478 40.1767 37.5478ZM40.1624 26.5709C39.454 26.5709 38.7944 26.697 38.2017 26.9458C37.6066 27.1952 37.0777 27.5568 36.6302 28.0198C36.1812 28.4821 35.8297 29.03 35.5841 29.6484C35.3401 30.2644 35.2165 30.9513 35.2165 31.6895C35.2165 32.4368 35.3401 33.135 35.5841 33.765C35.8293 34.3986 36.1759 34.9539 36.6145 35.4154C37.0531 35.8786 37.582 36.2427 38.1869 36.4974C38.7897 36.7509 39.4593 36.8794 40.1765 36.8794C40.6151 36.8794 41.0622 36.8187 41.506 36.6992C41.9455 36.5798 42.3545 36.4148 42.7226 36.2095C43.0703 36.0154 43.3567 35.7897 43.5741 35.5371L43.417 35.6905C43.2251 35.8775 42.99 36.0497 42.7177 36.201C42.3516 36.4059 41.943 36.5704 41.504 36.69C41.062 36.8091 40.6158 36.8698 40.1767 36.8698C39.4602 36.8698 38.7921 36.7415 38.1905 36.4885C37.5871 36.2348 37.0591 35.8714 36.6214 35.4091C36.1832 34.9474 35.8373 34.393 35.5933 33.7614C35.3497 33.1318 35.2259 32.4348 35.2259 31.6897C35.2259 30.9526 35.3497 30.267 35.5933 29.6522C35.8378 29.0356 36.1889 28.4882 36.6371 28.026C37.0836 27.5644 37.6113 27.2039 38.2059 26.9547C38.7961 26.7064 39.4546 26.5803 40.1624 26.5803C40.6281 26.5803 41.0976 26.6553 41.5573 26.8033C42.0136 26.9511 42.4421 27.1567 42.8312 27.4144C43.1199 27.6067 43.3742 27.8243 43.588 28.0621L43.7562 28.2486C43.5112 27.9336 43.2022 27.6504 42.837 27.4065C42.4486 27.1495 42.0187 26.9433 41.5602 26.7944C41.1005 26.6462 40.6299 26.5709 40.1624 26.5709ZM40.1624 27.6949C39.6277 27.6949 39.1206 27.7941 38.6551 27.9904C38.1909 28.1861 37.7864 28.4651 37.4523 28.8193C37.1167 29.1731 36.852 29.6005 36.6655 30.0891C36.4788 30.576 36.3843 31.114 36.3843 31.6895C36.3843 32.2835 36.4788 32.8363 36.6653 33.3327C36.852 33.8313 37.1241 34.2654 37.4727 34.6232C37.8235 34.9841 38.2407 35.2656 38.7129 35.4601C39.1864 35.6565 39.7229 35.7561 40.3066 35.7561C40.6489 35.7561 40.9991 35.7051 41.347 35.6043C41.6923 35.5034 42.0122 35.3605 42.2975 35.1796C42.4598 35.077 42.61 34.9651 42.7453 34.8464L43.043 34.5851L43.6055 35.5C43.6068 35.4984 43.6084 35.4966 43.6099 35.4951L43.6117 35.4928L43.031 34.548L43.0269 34.5527C42.8263 34.7813 42.5794 34.9897 42.2925 35.1715C42.0089 35.352 41.6898 35.4946 41.3441 35.5954C40.998 35.6959 40.6491 35.7469 40.3066 35.7469C39.7242 35.7469 39.1891 35.6478 38.7162 35.4518C38.2451 35.2575 37.8285 34.9765 37.4796 34.6169C37.1315 34.2607 36.8599 33.8275 36.6736 33.3302C36.488 32.8349 36.3937 32.2833 36.3937 31.6901C36.3937 31.1154 36.4882 30.5776 36.6738 30.0931C36.8599 29.6054 37.1243 29.1791 37.4588 28.8265C37.7913 28.4736 38.1952 28.1953 38.6582 27.9996C39.1228 27.8039 39.6288 27.705 40.1622 27.705C40.5058 27.705 40.8547 27.7632 41.1981 27.8776C41.5431 27.9925 41.875 28.157 42.1842 28.3666C42.4929 28.5755 42.771 28.8274 43.011 29.1149L43.0144 29.1191L43.7987 28.3057L43.7962 28.3026C43.7951 28.301 43.794 28.2992 43.7927 28.2979L43.0245 29.0947L42.784 28.852C42.6029 28.6695 42.4031 28.5034 42.1895 28.3588C41.8792 28.1488 41.547 27.9842 41.2013 27.8689C40.858 27.7531 40.5083 27.6949 40.1624 27.6949Z" fill="white"/>
<path d="M46.0535 36.7309L49.9142 26.647H51.1962L55.0273 36.7309H53.8033L51.3398 30.1908C51.2724 30.0088 51.1976 29.7945 51.1168 29.5498C51.0344 29.3042 50.9488 29.0503 50.8561 28.7868C50.7654 28.5223 50.6786 28.2655 50.5978 28.0159C50.5158 27.7665 50.4417 27.545 50.3743 27.3534H50.6622C50.5845 27.5936 50.506 27.8368 50.4245 28.0808C50.3427 28.3262 50.2594 28.5703 50.1724 28.8152C50.0857 29.0606 49.9997 29.3033 49.9131 29.5429C49.8264 29.7827 49.7402 30.0236 49.6531 30.2636L47.2046 36.7311L46.0535 36.7309ZM47.6956 33.9503L48.1134 32.8561H52.8817L53.3434 33.9503H47.6956Z" fill="white"/>
<path d="M55.5119 37.0648H53.5723L52.5246 34.2842H48.4878L47.4352 37.0648H45.5677L49.6845 26.313H51.4264L55.5119 37.0648ZM54.0346 36.3967H54.5431L53.7404 34.2842H53.2384L54.0346 36.3967ZM46.5392 36.3967H46.9736L47.7733 34.2842H47.3479L46.5392 36.3967ZM48.7408 33.6163H52.273L52.1127 33.1902H48.9022L48.7408 33.6163ZM52.5748 32.5219H53.0712L51.0563 27.2196L50.8738 27.7844V27.7851L50.9155 27.9114C50.9959 28.1604 51.0821 28.4152 51.1723 28.6773C51.2648 28.9409 51.351 29.1963 51.4336 29.4431C51.5135 29.6853 51.5872 29.8958 51.6532 30.0747L52.5748 32.5219ZM49.1548 32.5219H51.861L51.027 30.3087C50.9576 30.1213 50.8817 29.9034 50.7993 29.6542C50.718 29.412 50.6329 29.1592 50.5407 28.8972C50.5338 28.8762 50.5266 28.8551 50.519 28.8347C50.5082 28.8656 50.4975 28.8963 50.4865 28.927C50.4003 29.1719 50.3139 29.4155 50.2272 29.6558L49.9666 30.3776L49.1548 32.5219ZM48.0227 32.5219H48.4408L49.599 29.4292C49.6847 29.1908 49.7709 28.9489 49.8569 28.7047C49.9435 28.4604 50.0262 28.2186 50.107 27.9752L50.1697 27.7867C50.1307 27.6709 50.094 27.5635 50.0591 27.4636L50.0112 27.3279L48.0227 32.5219ZM50.1296 27.0192H50.9802L50.9659 26.9811H50.1442L50.1296 27.0192Z" fill="white"/>
<path d="M55.5186 37.0695H53.5689L52.5213 34.2892H48.4907L47.4383 37.0695H45.5607L49.6811 26.3081H51.4295L55.5186 37.0695ZM54.0375 36.3918H54.5361L53.7377 34.2892H53.2463L54.0375 36.3918ZM46.5459 36.3918H46.9704L47.7666 34.2892H47.3513L46.5459 36.3918ZM52.2665 33.6117L52.1095 33.1948H48.9053L48.7475 33.6117H52.2665ZM52.5781 32.5168H53.0642L51.0567 27.2337L50.8785 27.7845L50.879 27.7847L50.8785 27.7852L50.9195 27.9101C51.0001 28.1591 51.0865 28.4136 51.1768 28.6758C51.269 28.9394 51.3552 29.1948 51.4378 29.442C51.5182 29.6845 51.5917 29.8945 51.6577 30.0734L52.5781 32.5168ZM49.1619 32.5168H51.8538L51.0227 30.3103C50.9535 30.1227 50.8776 29.905 50.795 29.6561C50.7137 29.4136 50.6284 29.1606 50.5366 28.8984C50.5308 28.882 50.525 28.8657 50.5192 28.8487C50.5102 28.8755 50.5008 28.9022 50.4912 28.9286C50.4052 29.1735 50.3186 29.4167 50.2319 29.6572L49.9713 30.379L49.1619 32.5168ZM48.0296 32.5168H48.4374L49.5945 29.4272C49.6804 29.1892 49.7664 28.9472 49.8526 28.7031C49.9391 28.4586 50.0217 28.2171 50.1025 27.973L50.1641 27.7867C50.1256 27.6712 50.0888 27.5642 50.0541 27.4648L50.0112 27.3409L48.0296 32.5168ZM50.1363 27.0143H50.9728L50.962 26.9858H50.1473L50.1363 27.0143Z" fill="white"/>
<path d="M56.0029 37.4037H53.3376L52.2902 34.6235H48.7218L47.6694 37.4037H45.0751L49.4514 25.9741H51.6599L56.0029 37.4037ZM53.8004 36.7356H55.0343L51.1996 26.6425H51.1893L51.3693 27.1151L53.5483 32.8512H52.3469L51.3451 30.191C51.2771 30.007 51.2025 29.7936 51.1208 29.5471C51.0389 29.3024 50.9534 29.048 50.8613 28.7863C50.7698 28.5205 50.6831 28.2639 50.6018 28.0129L50.5064 27.7248L50.5776 27.6294L50.6688 27.3484H50.3674L50.3699 27.3549C50.405 27.4554 50.4424 27.564 50.4814 27.6809L50.5167 27.7863L50.4198 28.0783C50.3378 28.3246 50.2548 28.5682 50.1675 28.8147C50.0813 29.0592 49.9948 29.3017 49.9091 29.5404L48.6689 32.8512H47.5436L49.6507 27.3484H49.6476L49.9212 26.6425H49.9109L46.0464 36.7356H47.2078L48.2601 33.9554H52.7526L53.8004 36.7356ZM50.1249 26.6519L50.8965 26.6425H50.1216L50.1249 26.6519ZM55.0207 36.7259H53.8069L52.7631 33.9554H53.9679L55.0207 36.7259ZM47.201 36.7259H46.0603L47.1211 33.9554H48.25L47.201 36.7259ZM52.749 33.9458H48.2639L48.6747 32.8606H52.3406L52.749 33.9458ZM52.3368 32.8512H48.6779L49.659 30.2607L49.9178 29.544C50.004 29.3044 50.0902 29.0624 50.176 28.8181L50.2031 28.741L50.5156 27.8246L50.8512 28.7872C50.9439 29.0518 51.0299 29.3057 51.1114 29.5498C51.1929 29.7963 51.2677 30.0101 51.3362 30.1946L52.3368 32.8512ZM49.6456 32.183H51.3714L50.7104 30.4279C50.6491 30.262 50.583 30.0748 50.5125 29.8641L50.2855 30.4926L49.6456 32.183Z" fill="white"/>
<path d="M58.3126 36.7309V26.647H62.2591C62.8455 26.647 63.3756 26.7833 63.8507 27.0578C64.3263 27.3314 64.7031 27.7031 64.9825 28.1742C65.2604 28.6446 65.4001 29.1777 65.4001 29.7728C65.4001 30.3299 65.2653 30.8345 64.9964 31.2855C64.7271 31.738 64.363 32.0946 63.9011 32.3586C63.4401 32.6226 62.9222 32.7549 62.3455 32.7549H59.4355V36.7302L58.3126 36.7309ZM59.4355 31.6603H62.4465C62.8011 31.6603 63.1134 31.5785 63.383 31.4142C63.6515 31.2512 63.8628 31.0282 64.0167 30.745C64.1689 30.4617 64.2464 30.1375 64.2464 29.7721C64.2464 29.379 64.155 29.0281 63.9725 28.7209C63.7894 28.4129 63.5368 28.1728 63.216 27.9998C62.894 27.8269 62.5266 27.7407 62.1137 27.7407H59.4344L59.4355 31.6603ZM64.4631 36.7309L61.9284 32.2948L63.008 31.9204L65.8025 36.7316L64.4631 36.7309Z" fill="white"/>
<path d="M66.3832 37.0657L64.2692 37.0648L61.9973 33.0886H59.7702V37.0637L57.979 37.065V26.313H62.2593C62.9025 26.313 63.4945 26.4664 64.0178 26.7684C64.5415 27.07 64.9631 27.4858 65.27 28.0041C65.5781 28.5255 65.7344 29.1207 65.7344 29.7729C65.7344 30.3888 65.5824 30.9555 65.2832 31.4568C64.9859 31.9561 64.5768 32.3576 64.0668 32.6486C64.0048 32.6844 63.941 32.7183 63.8758 32.7498L66.3832 37.0657ZM64.6565 36.3967L65.2219 36.3971L63.2384 32.982C63.0816 33.0212 62.9202 33.0499 62.7545 33.0675L64.6565 36.3967ZM58.6469 26.9811V36.3965L59.1016 36.396V32.4207H61.6156L61.4385 32.111L61.7745 31.9944H59.1019L59.1005 27.4065H62.114C62.5808 27.4065 63.0048 27.5073 63.3743 27.7059C63.7491 27.9078 64.0471 28.1922 64.26 28.5504C64.4725 28.9091 64.5804 29.3202 64.5804 29.7722C64.5804 30.1902 64.4897 30.5706 64.3108 30.9033C64.1281 31.2394 63.8747 31.507 63.5565 31.7C63.4849 31.7436 63.4105 31.7824 63.334 31.8164L63.5395 32.1701C63.6062 32.1393 63.6714 32.1055 63.7354 32.069C64.1496 31.8318 64.4682 31.5202 64.7096 31.1147C64.946 30.7182 65.0663 30.2668 65.0663 29.7731C65.0663 29.242 64.9413 28.7613 64.695 28.3444C64.4443 27.9206 64.1134 27.5944 63.6844 27.3474C63.2576 27.1009 62.7913 26.9813 62.2593 26.9813L58.6469 26.9811ZM62.8575 32.3262L62.6177 32.4093C62.7088 32.4017 62.798 32.39 62.8855 32.3746L62.8575 32.3262ZM59.7697 31.3263H62.4467C62.7418 31.3263 62.9914 31.2618 63.2095 31.129C63.4287 30.9958 63.5966 30.8183 63.7233 30.5854C63.8485 30.3525 63.9125 30.0785 63.9125 29.7722C63.9125 29.4415 63.8362 29.1453 63.6855 28.8912C63.533 28.6348 63.3277 28.4396 63.0577 28.294C62.787 28.1485 62.4695 28.0746 62.114 28.0746H59.7691L59.7697 31.3263Z" fill="white"/>
<path d="M66.3913 37.0704L64.2663 37.0695L61.9946 33.0935H59.7751V37.0684L57.9741 37.0695V26.3081H62.2592C62.9039 26.3081 63.4958 26.4619 64.0204 26.7644C64.545 27.0662 64.9671 27.4829 65.2742 28.0014C65.5828 28.524 65.7393 29.1196 65.7393 29.7727C65.7393 30.3898 65.5875 30.9564 65.2872 31.4586C64.9897 31.9588 64.5797 32.3605 64.0697 32.6525C64.009 32.6874 63.9463 32.7208 63.8829 32.7517L66.3913 37.0704ZM64.6594 36.3918L65.2138 36.3922L63.2359 32.9877C63.0823 33.0262 62.9244 33.0539 62.7621 33.0712L64.6594 36.3918ZM58.6511 26.9858V36.3918H59.0971V32.416H61.6075L61.4315 32.1084L61.7467 31.9994H59.0971L59.096 27.4018H62.1139C62.5817 27.4018 63.0062 27.5026 63.3765 27.7014C63.7524 27.9043 64.0507 28.1888 64.2638 28.5478C64.4772 28.9076 64.5853 29.3198 64.5853 29.7722C64.5853 30.1912 64.4946 30.5722 64.3151 30.9054C64.1326 31.2415 63.8787 31.5099 63.559 31.7038C63.4889 31.7468 63.4161 31.7849 63.3409 31.8185L63.5413 32.1639C63.6067 32.1337 63.6705 32.1003 63.7332 32.0647C64.1467 31.8283 64.4646 31.5169 64.7049 31.1123C64.9418 30.7162 65.0613 30.2657 65.0613 29.7732C65.0613 29.243 64.9366 28.7631 64.691 28.3469C64.4407 27.924 64.1104 27.5984 63.6817 27.3517C63.2556 27.1059 62.7906 26.9863 62.259 26.9863H58.6511V26.9858ZM62.8553 32.3316L62.6547 32.4013C62.7303 32.3943 62.8049 32.3838 62.8779 32.371L62.8553 32.3316ZM59.7749 31.3214H62.4466C62.7411 31.3214 62.9898 31.2574 63.207 31.125C63.4257 30.9918 63.5932 30.8143 63.7188 30.5825C63.8442 30.3506 63.908 30.0777 63.908 29.772C63.908 29.438 63.8339 29.1507 63.6817 28.8935C63.5297 28.6378 63.3246 28.4432 63.0557 28.2979C62.7856 28.153 62.4686 28.0794 62.1141 28.0794H59.7737L59.7749 31.3214Z" fill="white"/>
<path d="M66.9718 37.4048L64.0726 37.4037L61.8007 33.4277H60.1089V37.4023L57.64 37.4039V25.9741H62.2592C62.9632 25.9741 63.6118 26.1427 64.1874 26.475C64.7617 26.8055 65.2245 27.2618 65.5617 27.8311C65.9012 28.4061 66.0731 29.059 66.0731 29.7728C66.0731 30.4505 65.9054 31.0754 65.574 31.63C65.2682 32.1441 64.8547 32.5639 64.3431 32.8787L66.9718 37.4048ZM64.4599 36.7356L65.8107 36.7362L63.4139 32.6102L63.7354 32.4519C63.7925 32.4242 63.8485 32.3944 63.9038 32.363C64.3639 32.0993 64.7326 31.7377 65.0002 31.2881C65.2684 30.8381 65.4048 30.3285 65.4048 29.7728C65.4048 29.1803 65.2637 28.6414 64.9865 28.1715C64.7091 27.7028 64.3278 27.3269 63.8536 27.054C63.3805 26.7808 62.8438 26.6425 62.259 26.6425H58.3081V36.7353L59.4408 36.7347V32.7596L60.6232 32.7502H59.4314V36.7257H58.3173V26.6519H62.259C62.8503 26.6519 63.3702 26.7862 63.8485 27.062C64.3285 27.3381 64.6979 27.7028 64.9782 28.1764C65.2552 28.6452 65.3954 29.1826 65.3954 29.773C65.3954 30.3271 65.2597 30.8354 64.9919 31.2836C64.7214 31.7379 64.3639 32.0885 63.8988 32.3548C63.8281 32.3953 63.7558 32.4331 63.6814 32.4672L63.4054 32.5948L63.0102 31.9148L61.9214 32.2923L61.9256 32.2999L63.0066 31.926L63.3973 32.6026L63.3987 32.6024L65.7946 36.7268L64.466 36.7257L62.2183 32.7929L62.7267 32.7394C62.8718 32.724 63.0162 32.6982 63.1544 32.6635L63.1777 32.6577L62.9354 32.7002C62.8539 32.7146 62.77 32.726 62.6849 32.7338L62.1992 32.7786L64.4599 36.7356ZM59.4307 31.6649H62.8653L62.8649 31.6643L63.205 31.5131C63.2679 31.4851 63.3284 31.4533 63.3846 31.4189C63.6539 31.2552 63.8677 31.0291 64.0215 30.7458C64.174 30.4631 64.2515 30.135 64.2515 29.7719C64.2515 29.38 64.159 29.0252 63.9765 28.7178C63.7949 28.4119 63.5395 28.1688 63.2175 27.9948C62.8971 27.8229 62.5257 27.7357 62.1139 27.7357H59.4303L59.4307 31.6649ZM62.4466 31.6557H59.4406L59.4392 27.7456H62.1139C62.525 27.7456 62.8947 27.8323 63.2135 28.0035C63.5377 28.1784 63.7846 28.4137 63.9685 28.7227C64.1523 29.0339 64.2416 29.3767 64.2416 29.7721C64.2416 30.1335 64.1648 30.4595 64.0128 30.7414C63.8579 31.027 63.6512 31.2456 63.3805 31.4104C63.1096 31.5756 62.804 31.6557 62.4466 31.6557ZM60.1085 30.9876H62.4464C62.6777 30.9876 62.8694 30.9391 63.0326 30.8399C63.2023 30.7367 63.3268 30.6043 63.4248 30.4236C63.5231 30.2412 63.5733 30.022 63.5733 29.7723C63.5733 29.5001 63.5144 29.2681 63.3935 29.0637C63.2721 28.8597 63.1141 28.7095 62.8962 28.5924C62.6766 28.4742 62.4131 28.4139 62.1137 28.4139H60.1073L60.1085 30.9876Z" fill="white"/>
<path d="M78.9117 36.8748C78.191 36.8748 77.5284 36.7478 76.9239 36.4937C76.3183 36.2392 75.7955 35.8796 75.3535 35.413C74.912 34.9475 74.5685 34.3971 74.3233 33.7642C74.0786 33.1297 73.9559 32.4389 73.9559 31.69C73.9559 30.9505 74.0786 30.2705 74.3233 29.651C74.569 29.0317 74.9165 28.4892 75.3676 28.0239C75.8188 27.5575 76.3425 27.2004 76.9376 26.9508C77.5336 26.7009 78.1858 26.5762 78.8971 26.5762C79.368 26.5762 79.8335 26.651 80.2949 26.7994C80.755 26.9487 81.1804 27.1532 81.57 27.4113C81.9587 27.6704 82.2778 27.9688 82.5281 28.3047L81.7496 29.1114C81.5098 28.8237 81.2346 28.5736 80.9214 28.3622C80.6091 28.1506 80.2799 27.9876 79.9349 27.8728C79.5892 27.7572 79.2433 27.6999 78.8971 27.6999C78.3591 27.6999 77.8574 27.7984 77.3914 27.9948C76.9255 28.1911 76.5254 28.4672 76.1893 28.8234C75.8523 29.1788 75.5913 29.601 75.4036 30.0909C75.2167 30.5804 75.1236 31.1132 75.1236 31.6898C75.1236 32.2844 75.2167 32.8321 75.4036 33.3316C75.5906 33.8314 75.8595 34.2606 76.2099 34.6208C76.5601 34.9811 76.9738 35.26 77.449 35.4564C77.9247 35.6532 78.4554 35.7517 79.0415 35.7517C79.3868 35.7517 79.732 35.7005 80.0784 35.5999C80.4246 35.4992 80.7414 35.3579 81.0291 35.1754C81.3177 34.9932 81.562 34.7867 81.7637 34.5554L82.3407 35.492C82.1199 35.7609 81.8246 35.9989 81.455 36.2051C81.0857 36.4118 80.6794 36.5748 80.2374 36.695C79.7948 36.8148 79.353 36.8748 78.9117 36.8748Z" fill="white"/>
<path d="M78.9117 37.2084C78.15 37.2084 77.4375 37.0716 76.7942 36.8016C76.1479 36.5296 75.5816 36.1398 75.1108 35.6425C74.6419 35.1484 74.272 34.5566 74.0117 33.8842C73.7533 33.2132 73.6221 32.475 73.6221 31.6896C73.6221 30.9115 73.7535 30.1841 74.0126 29.5281C74.2738 28.8694 74.6491 28.285 75.1278 27.7908C75.6071 27.2954 76.1727 26.9091 76.8084 26.6425C77.4427 26.3765 78.1455 26.2417 78.8971 26.2417C79.3988 26.2417 79.9035 26.3221 80.397 26.481C80.8846 26.6393 81.3409 26.8583 81.7547 27.1326C82.1727 27.4113 82.5229 27.7382 82.7958 28.105L82.9653 28.3325L81.7316 29.6107L81.4934 29.325C81.2727 29.0603 81.0174 28.8295 80.7344 28.639C80.4498 28.446 80.1451 28.2948 79.8294 28.1896C79.5191 28.0864 79.2056 28.0338 78.8971 28.0338C78.4072 28.0338 77.9444 28.1245 77.5217 28.3027C77.1023 28.4791 76.7356 28.7317 76.4322 29.053C76.1279 29.3742 75.8868 29.7634 75.7157 30.2107C75.5447 30.6592 75.4576 31.1569 75.4576 31.6898C75.4576 32.2422 75.5449 32.7553 75.7166 33.2148C75.8857 33.6673 76.1319 34.0618 76.4494 34.3878C76.7667 34.7142 77.1455 34.9699 77.5761 35.1477C78.0098 35.3272 78.5021 35.4179 79.0415 35.4179C79.3514 35.4179 79.6689 35.3714 79.985 35.2796C80.2991 35.1882 80.5904 35.0583 80.8502 34.8936C81.109 34.7303 81.3318 34.5429 81.5122 34.3363L81.8102 33.9951L82.7501 35.5202L82.5986 35.7047C82.3514 36.0052 82.0218 36.2721 81.6177 36.4973C81.227 36.7159 80.7915 36.8912 80.3249 37.0177C79.8563 37.1442 79.3805 37.2084 78.9117 37.2084ZM78.8971 26.91C78.2346 26.91 77.6186 27.0271 77.067 27.2586C76.5151 27.4902 76.024 27.8255 75.6071 28.2559C75.1898 28.6871 74.8622 29.1976 74.6334 29.7737C74.4053 30.3511 74.2897 30.9959 74.2897 31.6898C74.2897 32.3928 74.4059 33.0498 74.6347 33.6435C74.8633 34.234 75.1867 34.7521 75.5955 35.1831C76.0023 35.6127 76.4924 35.9499 77.0529 36.1857C77.6135 36.4214 78.2391 36.5408 78.9114 36.5408C79.3214 36.5408 79.738 36.4844 80.1507 36.3726C80.5645 36.2602 80.9487 36.1062 81.2923 35.9139C81.5406 35.7757 81.7525 35.6208 81.9242 35.4526L81.7012 35.0906C81.5507 35.2229 81.3859 35.3458 81.2075 35.4587C80.8949 35.6564 80.5465 35.8122 80.172 35.921C79.7949 36.0307 79.4147 36.086 79.0417 36.086C78.4141 36.086 77.8354 35.9779 77.3211 35.7648C76.8059 35.5523 76.3516 35.2458 75.9705 34.8535C75.5886 34.4608 75.2926 33.9883 75.091 33.4487C74.8907 32.9143 74.7893 32.3228 74.7893 31.69C74.7893 31.075 74.8911 30.4973 75.0917 29.9721C75.2946 29.4423 75.5821 28.9786 75.9468 28.5937C76.3142 28.2048 76.7569 27.8997 77.2617 27.6872C77.7673 27.474 78.3172 27.3657 78.8971 27.3657C79.2775 27.3657 79.6624 27.4297 80.0405 27.556C80.414 27.6805 80.7734 27.8587 81.1088 28.0857C81.3416 28.2425 81.5583 28.4225 81.7567 28.6226L82.0814 28.2861C81.8852 28.0674 81.6519 27.8672 81.3846 27.689C81.0223 27.4492 80.6207 27.2562 80.1917 27.1171C79.7651 26.9799 79.3292 26.91 78.8971 26.91Z" fill="white"/>
<path d="M78.9117 37.2134C78.1495 37.2134 77.4362 37.0762 76.7925 36.8057C76.1454 36.5332 75.5785 36.1432 75.1077 35.6457C74.6375 35.1504 74.2678 34.5584 74.0076 33.8856C73.749 33.2148 73.6176 32.476 73.6176 31.6896C73.6176 30.9109 73.749 30.183 74.0081 29.5256C74.2696 28.8674 74.6451 28.2823 75.1249 27.7875C75.6045 27.292 76.1703 26.9051 76.8068 26.638C77.4418 26.372 78.145 26.2368 78.8973 26.2368C79.3995 26.2368 79.9049 26.3179 80.399 26.4764C80.8867 26.6351 81.3437 26.8543 81.7574 27.1288C82.1759 27.4069 82.5263 27.7347 82.8001 28.1021L82.9721 28.3327L81.7321 29.6181L81.4901 29.3279C81.27 29.064 81.0152 28.8334 80.7322 28.6424C80.4474 28.4494 80.1433 28.2987 79.8283 28.1937C79.5189 28.0905 79.2059 28.0381 78.8976 28.0381C78.4084 28.0381 77.9462 28.1285 77.524 28.3068C77.1051 28.4832 76.739 28.7351 76.436 29.0559C76.1322 29.3768 75.8915 29.7657 75.7209 30.2121C75.5494 30.6599 75.463 31.1574 75.463 31.6896C75.463 32.2418 75.5501 32.7543 75.7218 33.2128C75.8906 33.6648 76.1367 34.0589 76.4535 34.3842C76.7705 34.7104 77.1494 34.9657 77.579 35.143C78.0118 35.3221 78.5037 35.4126 79.0422 35.4126C79.3516 35.4126 79.6687 35.3662 79.9846 35.2747C80.2992 35.1831 80.5896 35.0535 80.8479 34.8894C81.1072 34.7257 81.3293 34.5389 81.5093 34.333L81.8118 33.9868L82.7571 35.5205L82.6031 35.7072C82.3559 36.0084 82.0254 36.2753 81.6211 36.5012C81.229 36.7204 80.7935 36.8955 80.3269 37.022C79.8563 37.1487 79.3803 37.2134 78.9117 37.2134ZM78.8971 26.9143C78.2353 26.9143 77.6198 27.0317 77.0685 27.2632C76.5173 27.4947 76.027 27.8294 75.6114 28.2588C75.1936 28.6901 74.8661 29.1999 74.6381 29.7755C74.4104 30.3523 74.2947 30.9964 74.2947 31.6896C74.2947 32.3922 74.4107 33.0485 74.6393 33.6411C74.8674 34.2309 75.1905 34.7485 75.5991 35.1795C76.0053 35.609 76.4947 35.9455 77.0544 36.1808C77.6151 36.4165 78.24 36.5359 78.9115 36.5359C79.3205 36.5359 79.7367 36.4797 80.1494 36.368C80.5625 36.256 80.9462 36.102 81.2901 35.9094C81.5366 35.7717 81.7469 35.6184 81.9182 35.4518L81.6999 35.0976C81.5508 35.2283 81.3873 35.3501 81.21 35.4618C80.8983 35.6595 80.5493 35.8158 80.1733 35.9253C79.7956 36.0346 79.415 36.0901 79.0415 36.0901C78.4131 36.0901 77.8338 35.9822 77.3198 35.7688C76.8041 35.5563 76.3489 35.2496 75.9672 34.8562C75.5848 34.4635 75.2883 33.9904 75.0866 33.4501C74.886 32.915 74.785 32.323 74.785 31.6896C74.785 31.0741 74.8864 30.4958 75.0875 29.9701C75.2901 29.4397 75.5781 28.976 75.9432 28.5902C76.3109 28.2011 76.7542 27.8954 77.26 27.6825C77.7658 27.4689 78.3172 27.3606 78.8971 27.3606C79.278 27.3606 79.6635 27.4241 80.0424 27.5511C80.4156 27.6756 80.7752 27.8538 81.1108 28.0813C81.3428 28.238 81.5593 28.4169 81.7565 28.6159L82.0751 28.2855C81.8797 28.0683 81.6473 27.8699 81.3819 27.693C81.0197 27.453 80.6185 27.26 80.1897 27.121C79.7643 26.9844 79.3288 26.9143 78.8971 26.9143Z" fill="white"/>
<path d="M78.9116 37.5478C78.1045 37.5478 77.3479 37.4016 76.6628 37.1134C75.9725 36.823 75.3675 36.4063 74.8649 35.8755C74.3658 35.3489 73.972 34.7202 73.6957 34.0061C73.4219 33.2962 73.2833 32.517 73.2833 31.6897C73.2833 30.8693 73.4223 30.1 73.6975 29.4032C73.9756 28.7024 74.3748 28.0811 74.8846 27.5552C75.3964 27.0268 75.9994 26.6144 76.6778 26.33C77.3542 26.0466 78.1006 25.9028 78.8973 25.9028C79.4335 25.9028 79.9731 25.989 80.5013 26.1587C81.0194 26.3271 81.5039 26.5598 81.9421 26.8508C82.3923 27.1502 82.7707 27.5039 83.0683 27.9025L83.4095 28.3606L81.7139 30.1184L81.2334 29.5425C81.0331 29.3025 80.8015 29.0929 80.5449 28.9199C80.2859 28.7441 80.0089 28.6066 79.7226 28.511C79.4469 28.4192 79.1691 28.3727 78.8973 28.3727C78.4531 28.3727 78.0344 28.4542 77.6533 28.6151C77.2776 28.7732 76.9496 28.9991 76.6785 29.2857C76.4049 29.5743 76.1879 29.9263 76.0323 30.3318C75.876 30.741 75.7965 31.198 75.7965 31.6899C75.7965 32.2022 75.8764 32.6753 76.0343 33.0958C76.1874 33.5044 76.4087 33.8597 76.6923 34.1517C76.9774 34.445 77.3184 34.6745 77.7059 34.8343C78.0978 34.9967 78.5471 35.0791 79.0417 35.0791C79.32 35.0791 79.6062 35.037 79.8912 34.9541C80.1753 34.8713 80.4368 34.7549 80.6688 34.6073C80.9012 34.4607 81.0989 34.2947 81.2574 34.1132L81.8583 33.4262L83.1668 35.549L82.8605 35.92C82.5878 36.2521 82.2255 36.5458 81.7836 36.7926C81.3687 37.0247 80.9081 37.2103 80.4142 37.3442C79.9142 37.4792 79.4087 37.5478 78.9116 37.5478ZM78.8971 26.5709C78.1898 26.5709 77.5299 26.697 76.9357 26.9462C76.3417 27.1949 75.8131 27.5568 75.3642 28.02C74.9155 28.4828 74.5637 29.0309 74.3184 29.6489C74.0748 30.2664 73.9512 30.9533 73.9512 31.6895C73.9512 32.4344 74.0747 33.1327 74.3188 33.7652C74.5633 34.3968 74.9101 34.9521 75.3496 35.4154C75.7882 35.8788 76.3169 36.2429 76.9216 36.4972C77.5239 36.7507 78.1936 36.8792 78.9112 36.8792C79.3495 36.8792 79.7965 36.8185 80.2393 36.699C80.68 36.5796 81.0902 36.4146 81.4571 36.2091C81.8055 36.0143 82.0912 35.7893 82.3073 35.5389L82.151 35.691C81.9591 35.8775 81.7242 36.0492 81.4529 36.201C81.0854 36.4061 80.6762 36.5707 80.2366 36.69C79.7958 36.8091 79.35 36.8698 78.9112 36.8698C78.1949 36.8698 77.5261 36.7415 76.9247 36.4885C76.3222 36.2355 75.7943 35.8721 75.3561 35.4091C74.9175 34.9472 74.5716 34.3926 74.3273 33.7619C74.0835 33.1307 73.9603 32.4335 73.9603 31.6897C73.9603 30.9551 74.0835 30.2697 74.3269 29.6527C74.5716 29.0361 74.9226 28.4889 75.3709 28.0263C75.8178 27.5646 76.3453 27.2044 76.9386 26.9552C77.5311 26.7066 78.19 26.5803 78.8966 26.5803C79.3625 26.5803 79.832 26.6553 80.2919 26.8033C80.7494 26.9518 81.1779 27.1571 81.5659 27.4148C81.855 27.6067 82.1095 27.8246 82.3231 28.0623L82.4944 28.2529C82.2488 27.9356 81.9387 27.651 81.5713 27.407C81.1842 27.1502 80.7545 26.944 80.2949 26.7946C79.8347 26.6462 79.3639 26.5709 78.8971 26.5709ZM78.8973 27.6949C78.3615 27.6949 77.8548 27.7941 77.3904 27.9904C76.9274 28.185 76.5222 28.4642 76.1866 28.8195C75.8512 29.1731 75.5865 29.6007 75.3993 30.0895C75.2137 30.5767 75.1195 31.1147 75.1195 31.6895C75.1195 32.2832 75.2135 32.8361 75.3993 33.3329C75.5854 33.8299 75.8572 34.2641 76.2067 34.6234C76.5567 34.9837 76.974 35.2651 77.4471 35.4601C77.9213 35.6565 78.4575 35.7561 79.0417 35.7561C79.3829 35.7561 79.7326 35.7051 80.0806 35.6043C80.4258 35.5036 80.746 35.3607 81.0312 35.1796C81.1922 35.0784 81.3429 34.966 81.4799 34.8462L81.7773 34.5858L82.3404 35.5C82.3417 35.4984 82.3431 35.4969 82.3446 35.4953L82.3469 35.4924L81.7647 34.5475L81.7603 34.5525C81.5597 34.782 81.3127 34.9904 81.0261 35.1718C80.7418 35.3522 80.4227 35.4948 80.0779 35.5954C79.7315 35.6957 79.3831 35.7467 79.0419 35.7467C78.4591 35.7467 77.924 35.6478 77.4511 35.4516C76.9791 35.2571 76.5627 34.9763 76.2139 34.6174C75.8653 34.2589 75.5941 33.8259 75.4087 33.3298C75.2229 32.8343 75.1289 32.2824 75.1289 31.6897C75.1289 31.1161 75.2229 30.5785 75.409 30.0929C75.5955 29.605 75.8597 29.1787 76.1933 28.8265C76.5287 28.4718 76.9326 28.1935 77.394 27.999C77.8577 27.8035 78.3635 27.7045 78.8975 27.7045C79.2412 27.7045 79.59 27.7627 79.9339 27.8772C80.2789 27.9922 80.6103 28.1566 80.9198 28.3666C81.2276 28.5744 81.5059 28.8265 81.7461 29.1144L81.75 29.1189L82.5347 28.3053L82.5323 28.3021C82.5312 28.3006 82.5296 28.2988 82.5287 28.2974L81.7603 29.094L81.5198 28.8516C81.3387 28.6693 81.1383 28.5032 80.9242 28.3583C80.6141 28.1483 80.2821 27.9837 79.9368 27.8684C79.5927 27.7531 79.2432 27.6949 78.8973 27.6949Z" fill="white"/>
<path d="M84.7888 36.7309L88.649 26.647H89.9312L93.7628 36.7309H92.5379L90.0752 30.1908C90.0067 30.0088 89.9328 29.7945 89.8511 29.5498C89.77 29.3042 89.6829 29.0503 89.5923 28.7868C89.5005 28.5223 89.4138 28.2655 89.3321 28.0159C89.2506 27.7665 89.176 27.545 89.1091 27.3534H89.3966C89.3204 27.5936 89.2407 27.8368 89.1592 28.0808C89.0775 28.3262 88.9933 28.5703 88.9071 28.8152C88.8214 29.0606 88.735 29.3033 88.6476 29.5429C88.5612 29.7827 88.475 30.0236 88.3886 30.2636L85.9389 36.7311L84.7888 36.7309ZM86.4313 33.9503L86.8488 32.8561H91.617L92.0782 33.9503H86.4313Z" fill="white"/>
<path d="M94.2471 37.0648H92.307L91.2597 34.2842H87.2228L86.1698 37.0648H84.3029L88.4191 26.313H90.1614L94.2471 37.0648ZM92.7692 36.3967H93.2781L92.4756 34.2842H91.9737L92.7692 36.3967ZM85.2744 36.3967H85.7083L86.5081 34.2842H86.0829L85.2744 36.3967ZM91.0082 33.6163L90.8477 33.1902H87.6372L87.4758 33.6163H91.0082ZM91.31 32.5219H91.8062L89.7904 27.2173L89.7152 27.4546C89.68 27.5644 89.6444 27.6747 89.6082 27.7858V27.7865L89.6496 27.9123C89.7306 28.1599 89.8168 28.4147 89.908 28.6769C89.9991 28.9429 90.0867 29.1981 90.1684 29.4449C90.2483 29.6847 90.3211 29.8951 90.3878 30.0738L91.31 32.5219ZM87.8902 32.5219H90.596L89.7624 30.3087C89.6928 30.1226 89.6176 29.9048 89.5341 29.6556C89.4532 29.4106 89.3664 29.1574 89.2764 28.8952C89.2692 28.8744 89.2618 28.8536 89.2546 28.8334C89.2441 28.8643 89.2332 28.895 89.2224 28.9254C89.1358 29.1722 89.0493 29.4162 88.9611 29.6576L88.7027 30.377L87.8902 32.5219ZM86.7577 32.5219H87.1757L88.3331 29.4299C88.4211 29.1899 88.5066 28.9487 88.5919 28.7047C88.6777 28.4613 88.7612 28.2188 88.8425 27.975L88.9045 27.7871C88.8653 27.6711 88.8283 27.5632 88.7934 27.4632L88.7462 27.3277L86.7577 32.5219ZM88.8642 27.0192H89.7152L89.7009 26.9811H88.8789L88.8642 27.0192Z" fill="white"/>
<path d="M94.2543 37.0695H92.3032L91.2565 34.2892H87.2261L86.1729 37.0695H84.2962L88.4155 26.3081H90.1643L94.2543 37.0695ZM92.7723 36.3918H93.2714L92.4725 34.2892H91.9808L92.7723 36.3918ZM85.2811 36.3918H85.705L86.5016 34.2892H86.0863L85.2811 36.3918ZM91.0013 33.6117L90.8443 33.1948H87.6406L87.4825 33.6117H91.0013ZM91.3134 32.5168H91.799L89.7909 27.2317L89.7195 27.456C89.6848 27.5653 89.6494 27.6754 89.6129 27.7858H89.6133L89.6129 27.7863L89.6539 27.9103C89.7354 28.1584 89.8211 28.4132 89.9122 28.6754C90.0036 28.9411 90.0909 29.1968 90.1729 29.4431C90.2526 29.6831 90.3253 29.8934 90.3923 30.0727L91.3134 32.5168ZM87.8972 32.5168H90.5891L89.7582 30.3103C89.6883 30.1242 89.6136 29.9066 89.5296 29.6574C89.4488 29.4122 89.3621 29.159 89.2721 28.897C89.2665 28.8802 89.2605 28.8641 89.2551 28.8478C89.2459 28.8742 89.2367 28.9006 89.2269 28.9275C89.1411 29.174 89.054 29.4171 88.9663 29.6587L88.7077 30.3786L87.8972 32.5168ZM86.7645 32.5168H87.1722L88.329 29.4277C88.4164 29.1883 88.5024 28.9472 88.5872 28.7034C88.6732 28.4595 88.7567 28.2177 88.8375 27.9737L88.8991 27.7872C88.8606 27.6716 88.8239 27.5644 88.7887 27.4648L88.746 27.3414L86.7645 32.5168ZM88.8711 27.0143H89.7085L89.6975 26.9858H88.8821L88.8711 27.0143Z" fill="white"/>
<path d="M94.7385 37.4037H92.0724L91.0252 34.6235H87.4569L86.4037 37.4037H83.8105L88.186 25.9741H90.3947L94.7385 37.4037ZM92.5347 36.7356H93.77L89.9339 26.6425H89.9243L90.197 27.3484H90.1928L92.2835 32.8512H91.0823L90.0799 30.1899C90.0112 30.007 89.9368 29.7929 89.8558 29.5484C89.7743 29.3033 89.6872 29.0485 89.5965 28.7838C89.5049 28.521 89.4185 28.2642 89.3363 28.0141L89.2311 27.6957L89.3202 27.6068L89.4028 27.3486H89.1019L89.1042 27.3549C89.1395 27.4554 89.1767 27.5647 89.2159 27.6818L89.2508 27.787L89.1543 28.0785C89.0728 28.325 88.9886 28.5686 88.902 28.8143C88.8169 29.059 88.7302 29.3017 88.6425 29.5426L87.4039 32.8514H86.2788L88.6557 26.6427H88.6454L84.7816 36.7358H85.9418L86.9951 33.9556H91.4871L92.5347 36.7356ZM88.8594 26.6519L89.6278 26.6425H88.8561L88.8594 26.6519ZM93.7561 36.7259H92.541L91.4983 33.9554H92.7031L93.7561 36.7259ZM85.9358 36.7259H84.7955L85.8561 33.9554H86.9852L85.9358 36.7259ZM91.4837 33.9458H86.9986L87.4101 32.8606H91.0756L91.4837 33.9458ZM91.0718 32.8512H87.4128L88.3948 30.2602L88.6517 29.546C88.7392 29.3046 88.8256 29.063 88.9109 28.8178L89.2575 27.8132L89.571 28.741L89.2546 28.8483L89.5766 28.7574L89.5896 28.7943C89.6782 29.052 89.7649 29.3064 89.8464 29.5527C89.9281 29.7965 90.0018 30.0103 90.0705 30.1933L91.0718 32.8512ZM88.3807 32.183H90.1061L89.4456 30.4279C89.3843 30.2642 89.3191 30.0766 89.247 29.8648L89.0213 30.4917L88.3807 32.183Z" fill="white"/>
<path d="M97.0472 36.7309V26.647H100.995C101.58 26.647 102.111 26.7833 102.586 27.0578C103.061 27.3314 103.438 27.7031 103.718 28.1742C103.995 28.6446 104.136 29.1777 104.136 29.7728C104.136 30.3299 104.001 30.8345 103.731 31.2855C103.463 31.738 103.098 32.0946 102.637 32.3586C102.176 32.6226 101.658 32.7549 101.081 32.7549H98.171V36.7302L97.0472 36.7309ZM98.171 31.6603H101.181C101.537 31.6603 101.849 31.5785 102.118 31.4142C102.387 31.2512 102.598 31.0282 102.751 30.745C102.905 30.4617 102.981 30.1375 102.981 29.7721C102.981 29.379 102.89 29.0281 102.707 28.7209C102.524 28.4129 102.273 28.1728 101.951 27.9998C101.63 27.8269 101.262 27.7407 100.849 27.7407H98.1703L98.171 31.6603ZM103.198 36.7309L100.663 32.2948L101.743 31.9204L104.538 36.7316L103.198 36.7309Z" fill="white"/>
<path d="M105.118 37.0657L103.005 37.0648L100.732 33.0886H98.5052V37.0637L96.7131 37.065V26.313H100.995C101.638 26.313 102.23 26.4664 102.753 26.7682C103.275 27.0693 103.697 27.4849 104.005 28.0036C104.314 28.5267 104.47 29.1216 104.47 29.7729C104.47 30.3884 104.318 30.9551 104.018 31.4568C103.723 31.9552 103.314 32.3564 102.803 32.6486C102.74 32.6844 102.677 32.7183 102.611 32.7498L105.118 37.0657ZM103.392 36.3967L103.957 36.3971L101.974 32.982C101.817 33.0216 101.655 33.0499 101.489 33.0675L103.392 36.3967ZM97.381 26.9811V36.3965L97.8367 36.396V32.4207H100.35L100.172 32.111L100.509 31.9944H97.8367L97.8362 27.4065H100.849C101.316 27.4065 101.74 27.5073 102.109 27.7059C102.483 27.9067 102.781 28.191 102.995 28.5504C103.207 28.908 103.315 29.3193 103.315 29.7722C103.315 30.192 103.224 30.5729 103.045 30.9038C102.864 31.2392 102.61 31.5072 102.29 31.7002C102.22 31.7436 102.146 31.7824 102.069 31.8164L102.275 32.1704C102.342 32.1393 102.407 32.1055 102.471 32.069C102.886 31.8312 103.204 31.5193 103.444 31.1151C103.682 30.7177 103.802 30.2663 103.802 29.7731C103.802 29.2429 103.677 28.7622 103.43 28.3444C103.178 27.9201 102.847 27.5937 102.42 27.3474C101.998 27.1045 101.519 26.9813 100.995 26.9813L97.381 26.9811ZM101.593 32.326L101.352 32.4093C101.444 32.4017 101.533 32.3902 101.621 32.3746L101.593 32.326ZM98.505 31.3263H101.181C101.477 31.3263 101.727 31.262 101.943 31.1293C102.164 30.9958 102.332 30.8185 102.457 30.5859C102.583 30.3534 102.647 30.0798 102.647 29.7722C102.647 29.4364 102.573 29.1484 102.42 28.8916C102.267 28.6341 102.062 28.4389 101.793 28.2943C101.522 28.1485 101.205 28.0746 100.849 28.0746H98.5043L98.505 31.3263Z" fill="white"/>
<path d="M105.127 37.0704L103.002 37.0695L100.729 33.0935H98.5099V37.0684L96.7084 37.0695V26.3081H100.995C101.639 26.3081 102.232 26.4619 102.756 26.7644C103.279 27.0658 103.701 27.4822 104.009 28.0012C104.318 28.5249 104.475 29.1207 104.475 29.7727C104.475 30.3893 104.322 30.9564 104.023 31.4586C103.727 31.9577 103.317 32.3596 102.805 32.6525C102.744 32.6874 102.682 32.7208 102.619 32.7517L105.127 37.0704ZM103.395 36.3918L103.95 36.3922L101.972 32.9877C101.818 33.0262 101.659 33.0539 101.497 33.0714L103.395 36.3918ZM97.3857 26.9858V36.3918H97.8324V32.416H100.342L100.166 32.1084L100.481 31.9994H97.8324L97.8317 27.4018H100.849C101.317 27.4018 101.742 27.5026 102.112 27.7014C102.487 27.9029 102.785 28.1882 102.999 28.548C103.212 28.9062 103.32 29.3182 103.32 29.7722C103.32 30.193 103.229 30.5745 103.05 30.9065C102.868 31.2413 102.614 31.5099 102.293 31.704C102.224 31.7466 102.151 31.7846 102.076 31.8182L102.277 32.1637C102.342 32.1335 102.406 32.1001 102.468 32.0645C102.883 31.8274 103.201 31.516 103.44 31.1123C103.677 30.7158 103.797 30.2653 103.797 29.7729C103.797 29.2441 103.672 28.764 103.426 28.3467C103.174 27.9233 102.845 27.5975 102.417 27.3515C101.997 27.109 101.518 26.9861 100.994 26.9861H97.3857V26.9858ZM101.591 32.3316L101.39 32.4013C101.465 32.3943 101.54 32.384 101.614 32.3713L101.591 32.3316ZM98.5097 31.3214H101.181C101.476 31.3214 101.725 31.2574 101.941 31.1253C102.161 30.9918 102.328 30.8149 102.454 30.5832C102.579 30.3519 102.642 30.079 102.642 29.772C102.642 29.4373 102.568 29.1498 102.416 28.8937C102.264 28.6371 102.059 28.4425 101.791 28.2979C101.521 28.153 101.204 28.0794 100.849 28.0794H98.509L98.5097 31.3214Z" fill="white"/>
<path d="M105.707 37.4048L102.808 37.4037L100.536 33.4277H98.844V37.4023L96.3744 37.4039V25.9741H100.995C101.699 25.9741 102.347 26.1427 102.923 26.475C103.495 26.8048 103.958 27.2609 104.296 27.8305C104.636 28.4074 104.809 29.0603 104.809 29.7728C104.809 30.4501 104.641 31.0747 104.31 31.63C104.006 32.1434 103.592 32.5632 103.079 32.8787L105.707 37.4048ZM103.196 36.7356L104.546 36.7362L102.15 32.6098L102.471 32.4519C102.528 32.4242 102.584 32.3946 102.638 32.363C103.1 32.0986 103.469 31.7373 103.735 31.2886C104.004 30.8379 104.14 30.328 104.14 29.7728C104.14 29.1817 103.999 28.6425 103.721 28.171C103.443 27.7024 103.061 27.3262 102.589 27.054C102.116 26.7808 101.579 26.6425 100.994 26.6425H97.0425V36.7353L98.1758 36.7347V32.7596L99.3592 32.7502H98.1667V36.7257H97.0519V26.6519H100.994C101.578 26.6519 102.112 26.7898 102.584 27.062C103.062 27.3372 103.432 27.7019 103.713 28.1762C103.99 28.6461 104.131 29.183 104.131 29.773C104.131 30.3274 103.995 30.8358 103.727 31.2839C103.458 31.7368 103.101 32.0876 102.634 32.3548C102.564 32.3953 102.491 32.4329 102.417 32.4672L102.141 32.5948L101.745 31.9144L100.656 32.2921L100.66 32.3001L101.742 31.926L102.133 32.6031L102.134 32.6026L104.53 36.7268L103.201 36.7257L100.953 32.7936L101.461 32.7394C101.607 32.7237 101.752 32.698 101.891 32.6633L101.908 32.6588L101.671 32.7002C101.589 32.7146 101.505 32.7255 101.421 32.7336L100.935 32.7799L103.196 36.7356ZM98.1664 31.6649H101.601L101.6 31.6647L101.94 31.5131C102.001 31.486 102.061 31.454 102.119 31.4189C102.389 31.2554 102.603 31.0297 102.756 30.7472C102.909 30.4646 102.986 30.1366 102.986 29.7721C102.986 29.3789 102.894 29.0245 102.712 28.7187C102.529 28.411 102.274 28.1676 101.954 27.9952C101.633 27.8231 101.261 27.736 100.849 27.736H98.1658L98.1664 31.6649ZM101.181 31.6557H98.1756L98.1747 27.7456H100.849C101.26 27.7456 101.63 27.8323 101.949 28.0035C102.273 28.178 102.519 28.413 102.703 28.7229C102.887 29.0323 102.976 29.3754 102.976 29.7721C102.976 30.1353 102.899 30.4617 102.747 30.7425C102.593 31.0277 102.386 31.2462 102.114 31.4108C101.845 31.5756 101.539 31.6557 101.181 31.6557ZM98.8437 30.9876H101.181C101.413 30.9876 101.604 30.9391 101.767 30.8403C101.937 30.7369 102.062 30.6048 102.159 30.4243C102.258 30.2425 102.308 30.0233 102.308 29.7723C102.308 29.4989 102.249 29.2674 102.129 29.0644C102.007 28.8593 101.849 28.709 101.632 28.5924C101.412 28.4742 101.148 28.4139 100.849 28.4139H98.8428L98.8437 30.9876Z" fill="white"/>
<path d="M107.995 36.7309V26.647H111.942C112.528 26.647 113.059 26.7833 113.534 27.0578C114.009 27.3314 114.386 27.7031 114.665 28.1742C114.943 28.6446 115.083 29.1777 115.083 29.7728C115.083 30.3299 114.949 30.8345 114.678 31.2855C114.411 31.738 114.045 32.0946 113.583 32.3586C113.123 32.6226 112.606 32.7549 112.028 32.7549H109.119V36.7302L107.995 36.7309ZM109.119 31.6603H112.129C112.484 31.6603 112.797 31.5785 113.066 31.4142C113.335 31.2512 113.546 31.0282 113.699 30.745C113.853 30.4617 113.929 30.1375 113.929 29.7721C113.929 29.379 113.838 29.0281 113.655 28.7209C113.473 28.4129 113.221 28.1728 112.899 27.9998C112.577 27.8269 112.21 27.7407 111.797 27.7407H109.118L109.119 31.6603ZM114.146 36.7309L111.611 32.2948L112.691 31.9204L115.486 36.7316L114.146 36.7309Z" fill="white"/>
<path d="M116.066 37.0657L113.952 37.0648L111.68 33.0886H109.453V37.0637L107.661 37.065V26.313H111.942C112.586 26.313 113.178 26.4664 113.701 26.7684C114.224 27.0698 114.645 27.4853 114.953 28.0039C115.261 28.5262 115.417 29.1213 115.417 29.7729C115.417 30.3895 115.265 30.9562 114.965 31.457C114.671 31.9545 114.262 32.3562 113.749 32.6484C113.687 32.6842 113.623 32.718 113.559 32.7494L116.066 37.0657ZM114.34 36.3967L114.905 36.3971L112.922 32.982C112.765 33.0216 112.603 33.0499 112.437 33.0675L114.34 36.3967ZM108.329 26.9811V36.3965L108.785 36.396V32.4207H111.298L111.121 32.111L111.457 31.9944H108.785L108.784 27.4065H111.797C112.264 27.4065 112.688 27.5073 113.057 27.7059C113.432 27.9074 113.73 28.1917 113.943 28.5508C114.155 28.9089 114.263 29.3202 114.263 29.7722C114.263 30.1918 114.172 30.5727 113.993 30.9038C113.811 31.2394 113.557 31.5074 113.238 31.7002C113.167 31.7436 113.094 31.7824 113.017 31.8164L113.222 32.1699C113.289 32.1388 113.354 32.1054 113.418 32.0692C113.834 31.8314 114.153 31.5195 114.391 31.1156C114.629 30.7184 114.749 30.267 114.749 29.7731C114.749 29.2427 114.624 28.762 114.378 28.3444C114.126 27.9204 113.795 27.5941 113.367 27.3474C112.946 27.1045 112.467 26.9813 111.942 26.9813L108.329 26.9811ZM112.541 32.326L112.3 32.4093C112.392 32.4017 112.481 32.39 112.569 32.3746L112.541 32.326ZM109.453 31.3263H112.129C112.425 31.3263 112.674 31.262 112.891 31.1293C113.111 30.9958 113.279 30.8185 113.405 30.5859C113.531 30.3534 113.595 30.0798 113.595 29.7722C113.595 29.4413 113.518 29.1453 113.368 28.8912C113.216 28.6346 113.011 28.4391 112.741 28.2943C112.47 28.1485 112.152 28.0746 111.797 28.0746H109.452L109.453 31.3263Z" fill="white"/>
<path d="M116.074 37.0704L113.95 37.0695L111.677 33.0935H109.457V37.0684L107.657 37.0695V26.3081H111.942C112.587 26.3081 113.179 26.4619 113.703 26.7644C114.227 27.066 114.649 27.4822 114.957 28.0012C115.266 28.5249 115.423 29.1205 115.423 29.7727C115.423 30.39 115.27 30.9573 114.97 31.4591C114.675 31.9575 114.265 32.3596 113.752 32.6525C113.691 32.6874 113.629 32.7205 113.566 32.7514L116.074 37.0704ZM114.343 36.3918L114.897 36.3922L112.92 32.9877C112.766 33.0262 112.607 33.0539 112.445 33.0714L114.343 36.3918ZM108.334 26.9858V36.3918H108.78V32.416H111.289L111.114 32.1084L111.429 31.9994H108.78L108.779 27.4018H111.797C112.265 27.4018 112.69 27.5026 113.06 27.7014C113.436 27.9038 113.734 28.1888 113.947 28.5484C114.159 28.9076 114.268 29.3198 114.268 29.7722C114.268 30.193 114.177 30.5745 113.997 30.9065C113.816 31.2413 113.561 31.5099 113.241 31.704C113.171 31.7466 113.099 31.7846 113.024 31.8182L113.225 32.1635C113.29 32.1335 113.354 32.1001 113.416 32.0645C113.831 31.8272 114.149 31.516 114.387 31.1127C114.625 30.7162 114.745 30.2655 114.745 29.7729C114.745 29.2438 114.62 28.7638 114.374 28.3467C114.123 27.9233 113.793 27.5978 113.365 27.3515C112.945 27.109 112.467 26.9861 111.942 26.9861H108.334V26.9858ZM112.539 32.3316L112.337 32.4013C112.413 32.3943 112.488 32.3838 112.561 32.371L112.539 32.3316ZM109.457 31.3214H112.129C112.424 31.3214 112.673 31.2574 112.889 31.1253C113.109 30.9918 113.276 30.8149 113.401 30.5832C113.527 30.3519 113.591 30.079 113.591 29.772C113.591 29.438 113.516 29.1507 113.364 28.8935C113.213 28.6375 113.008 28.443 112.739 28.2979C112.469 28.153 112.152 28.0794 111.797 28.0794H109.457L109.457 31.3214Z" fill="white"/>
<path d="M116.655 37.4048L113.756 37.4037L111.483 33.4277H109.791V37.4023L107.322 37.4039V25.9741H111.942C112.646 25.9741 113.295 26.1427 113.871 26.475C114.444 26.8055 114.906 27.2615 115.244 27.8307C115.584 28.4065 115.757 29.0597 115.757 29.7728C115.757 30.451 115.588 31.0759 115.256 31.6309C114.953 32.1432 114.539 32.563 114.026 32.8782L116.655 37.4048ZM114.143 36.7356L115.494 36.7362L113.097 32.6102L113.418 32.4519C113.475 32.4242 113.53 32.3948 113.585 32.3633C114.048 32.0984 114.417 31.7375 114.682 31.289C114.952 30.8378 115.088 30.3283 115.088 29.7728C115.088 29.181 114.947 28.6419 114.669 28.1712C114.391 27.7028 114.009 27.3267 113.536 27.054C113.063 26.7808 112.527 26.6425 111.942 26.6425H107.99V36.7353L109.123 36.7347V32.7596L110.3 32.7502H109.114V36.7257H107.999V26.6519H111.942C112.525 26.6519 113.06 26.7898 113.531 27.062C114.01 27.3379 114.38 27.7026 114.661 28.1764C114.938 28.6463 115.079 29.1832 115.079 29.773C115.079 30.3271 114.942 30.8356 114.673 31.2845C114.406 31.737 114.048 32.0879 113.581 32.3548C113.511 32.3951 113.438 32.4329 113.364 32.4669L113.089 32.5946L112.693 31.9144L111.603 32.2923L111.607 32.2997L112.69 31.926L113.079 32.6031L113.082 32.6026L115.477 36.7268L114.148 36.7257L111.901 32.7936L112.409 32.7394C112.555 32.7237 112.699 32.6978 112.838 32.6633L112.862 32.6572L112.619 32.7C112.537 32.7143 112.453 32.7258 112.368 32.7336L111.881 32.7784L114.143 36.7356ZM109.114 31.6649L112.548 31.6647L112.888 31.5131C112.949 31.486 113.009 31.454 113.068 31.4186C113.336 31.2554 113.55 31.0297 113.703 30.7472C113.856 30.4642 113.934 30.1362 113.934 29.7721C113.934 29.3807 113.842 29.0263 113.659 28.7184C113.477 28.4117 113.223 28.1683 112.901 27.9952C112.581 27.8231 112.209 27.736 111.797 27.736H109.113L109.114 31.6649ZM112.129 31.6557H109.123L109.123 27.7456H111.797C112.208 27.7456 112.578 27.8323 112.897 28.0035C113.222 28.1786 113.468 28.4139 113.651 28.7236C113.834 29.0339 113.924 29.3767 113.924 29.7721C113.924 30.1357 113.847 30.4624 113.695 30.7429C113.541 31.0275 113.334 31.246 113.062 31.4108C112.793 31.5756 112.487 31.6557 112.129 31.6557ZM109.791 30.9876H112.129C112.361 30.9876 112.552 30.9391 112.714 30.8403C112.885 30.7369 113.01 30.6048 113.107 30.4248C113.206 30.2427 113.256 30.0233 113.256 29.7723C113.256 29.5003 113.197 29.2683 113.076 29.0639C112.955 28.8593 112.798 28.7095 112.58 28.5924C112.36 28.4742 112.096 28.4139 111.797 28.4139H109.791L109.791 30.9876Z" fill="white"/>
<path d="M118.467 36.7306V35.6646H120.095V27.7127H118.467V26.6465H122.846V27.7127H121.22V35.6646H122.846V36.7306H118.467Z" fill="white"/>
<path d="M123.181 37.0643H118.133V35.3304H119.761V28.047H118.133V26.3125H123.181V28.047H121.554V35.3304H123.181V37.0643ZM118.801 36.3962H122.512V35.9988H120.885V27.3789H122.512V26.9808H118.801V27.3789H120.429V35.9988H118.801V36.3962Z" fill="white"/>
<path d="M123.185 37.0695H118.128V35.3263H119.756V28.0518H118.128V26.3081H123.185V28.0518H121.558V35.3263H123.185V37.0695ZM118.805 36.3918H122.507V36.004H120.88V27.3747H122.507V26.9861H118.805V27.3747H120.433V36.004H118.805V36.3918Z" fill="white"/>
<path d="M123.519 37.4034H117.794V34.9918H119.422V28.3857H117.794V25.9741H123.519V28.3857H121.892V34.9918H123.519V37.4034ZM118.462 36.7353H122.851V35.6599H121.224V27.7174H122.851V26.642H118.462V27.7174H120.09V35.6599H118.462V36.7353ZM122.842 36.7257H118.471V35.6696H120.099V27.7082H118.471V26.6514H122.842V27.7082H121.215V35.6696H122.842V36.7257Z" fill="white"/>
<path d="M126.779 36.7309V26.647H132.887V27.7421H127.902V35.636H132.858V36.7311L126.779 36.7309ZM127.297 32.0926V30.9975H132.08V32.0926H127.297Z" fill="white"/>
<path d="M133.192 37.0648H126.445V26.313H133.221V28.076H128.236V30.664H132.414V32.427H128.236V35.302H133.192V37.0648ZM127.113 36.3967H132.524V35.9702H127.568V32.427H127.113V36.3967ZM128.237 31.7586H131.746V31.3321H128.237V31.7586ZM127.113 30.664H127.568V27.4079H132.553V26.9813H127.113V30.664Z" fill="white"/>
<path d="M133.196 37.0695H126.44V26.3081H133.226V28.0809H128.241V30.6591H132.418V32.4313H128.241V35.2972H133.196V37.0695ZM127.117 36.3918H132.519V35.9744H127.564V32.4313H127.117V36.3918ZM128.241 31.7538H131.741V31.3364H128.241V31.7538ZM127.117 30.6589H127.564V27.4027H132.548V26.9858H127.117V30.6589Z" fill="white"/>
<path d="M133.531 37.4037H126.106V25.9741H133.56V28.4146H128.575V30.3247H132.753V32.7647H128.575V34.9627H133.531V37.4037ZM126.774 36.7356H132.862V35.6308H127.907V32.0971H132.084V30.993H127.907V27.7465H132.891V26.6422H126.774V36.7356ZM132.853 36.7259H126.783V32.0971H127.898V35.6405H132.853L132.853 36.7259ZM132.075 32.0877H127.907V31.002H132.075V32.0877ZM127.898 30.993H126.783V26.6516H132.882V27.7371H127.898L127.898 30.993Z" fill="white"/>
<path d="M136.848 36.7309V26.647H140.794C141.38 26.647 141.911 26.7833 142.386 27.0578C142.862 27.3314 143.238 27.7031 143.518 28.1742C143.796 28.6446 143.935 29.1777 143.935 29.7728C143.935 30.3299 143.8 30.8345 143.532 31.2855C143.262 31.738 142.898 32.0946 142.437 32.3586C141.976 32.6226 141.457 32.7549 140.881 32.7549H137.97V36.7302L136.848 36.7309ZM137.972 31.6603H140.982C141.337 31.6603 141.649 31.5785 141.919 31.4142C142.187 31.2512 142.399 31.0282 142.552 30.745C142.706 30.4617 142.783 30.1375 142.783 29.7721C142.783 29.379 142.692 29.0281 142.509 28.7209C142.326 28.4129 142.073 28.1728 141.753 27.9998C141.43 27.8269 141.062 27.7407 140.65 27.7407H137.97L137.972 31.6603ZM142.999 36.7309L140.464 32.2948L141.544 31.9204L144.339 36.7316L142.999 36.7309Z" fill="white"/>
<path d="M144.92 37.0657L142.805 37.0648L140.533 33.0886H138.305V37.0637L136.514 37.065V26.313H140.794C141.438 26.313 142.03 26.4664 142.553 26.7684C143.076 27.0698 143.497 27.4853 143.805 28.0041C144.113 28.5246 144.269 29.1195 144.269 29.7729C144.269 30.3882 144.118 30.9548 143.819 31.4566C143.522 31.9557 143.112 32.3569 142.603 32.6486C142.54 32.6842 142.477 32.718 142.412 32.7494L144.92 37.0657ZM143.192 36.3967L143.759 36.3971L141.774 32.9818C141.618 33.0212 141.456 33.0496 141.29 33.0673L143.192 36.3967ZM137.183 26.9811V36.3965L137.637 36.396V32.4207H140.151L139.974 32.111L140.31 31.9944H137.637L137.637 27.4065H140.65C141.116 27.4065 141.54 27.507 141.911 27.7056C142.286 27.9083 142.584 28.1924 142.796 28.5504C143.009 28.9082 143.117 29.3197 143.117 29.7722C143.117 30.1913 143.026 30.572 142.846 30.9038C142.664 31.239 142.411 31.5067 142.092 31.7C142.021 31.7434 141.947 31.7821 141.87 31.8162L142.076 32.1699C142.143 32.1388 142.207 32.1055 142.271 32.069C142.686 31.8316 143.004 31.5197 143.245 31.1147C143.482 30.718 143.601 30.2666 143.601 29.7731C143.601 29.2411 143.477 28.7606 143.231 28.3446C142.979 27.9203 142.648 27.5941 142.22 27.3474C141.799 27.1045 141.32 26.9813 140.795 26.9813L137.183 26.9811ZM141.393 32.3262L141.154 32.4093C141.245 32.4017 141.334 32.39 141.422 32.3744L141.393 32.3262ZM138.306 31.3263H140.982C141.277 31.3263 141.527 31.2618 141.745 31.129C141.965 30.9956 142.132 30.818 142.259 30.5854C142.385 30.3528 142.449 30.079 142.449 29.7722C142.449 29.4368 142.374 29.1489 142.221 28.8916C142.069 28.635 141.864 28.4396 141.594 28.2938C141.323 28.1485 141.004 28.0746 140.65 28.0746H138.304L138.306 31.3263Z" fill="white"/>
<path d="M144.928 37.0704L142.802 37.0695L140.53 33.0935H138.309V37.0684L136.509 37.0695V26.3081H140.794C141.439 26.3081 142.032 26.4619 142.556 26.7644C143.079 27.0658 143.501 27.482 143.809 28.0012C144.118 28.5231 144.274 29.1185 144.274 29.7727C144.274 30.3884 144.122 30.9558 143.823 31.4584C143.526 31.9586 143.116 32.3601 142.605 32.6525C142.544 32.6872 142.482 32.7205 142.419 32.7514L144.928 37.0704ZM143.195 36.3918L143.75 36.3922L141.772 32.9874C141.618 33.0257 141.46 33.0537 141.298 33.0712L143.195 36.3918ZM137.187 26.9858V36.3918H137.632V32.416H140.143L139.967 32.1084L140.282 31.9994H137.633L137.632 27.4018H140.65C141.117 27.4018 141.542 27.5026 141.913 27.7012C142.289 27.9045 142.587 28.1891 142.8 28.548C143.013 28.9071 143.122 29.3193 143.122 29.7722C143.122 30.1923 143.03 30.5738 142.851 30.9065C142.668 31.2413 142.414 31.5097 142.095 31.7038C142.025 31.7466 141.952 31.7847 141.877 31.8185L142.077 32.1637C142.143 32.1335 142.207 32.1001 142.269 32.0647C142.682 31.8279 143 31.5166 143.24 31.1123C143.476 30.7158 143.596 30.2653 143.596 29.7732C143.596 29.2423 143.472 28.7627 143.226 28.3471C142.975 27.9235 142.644 27.5978 142.218 27.3517C141.797 27.1092 141.318 26.9863 140.794 26.9863H137.187V26.9858ZM141.391 32.3316L141.191 32.4013C141.266 32.3943 141.341 32.3838 141.414 32.371L141.391 32.3316ZM138.31 31.3214H140.982C141.277 31.3214 141.525 31.2574 141.743 31.125C141.962 30.9918 142.129 30.8143 142.255 30.5825C142.381 30.351 142.445 30.0781 142.445 29.772C142.445 29.4378 142.37 29.1507 142.218 28.8937C142.066 28.6378 141.861 28.4432 141.592 28.2977C141.321 28.153 141.004 28.0794 140.65 28.0794H138.31L138.31 31.3214Z" fill="white"/>
<path d="M145.508 37.4048L142.608 37.4037L140.336 33.4277H138.643V37.4023L136.176 37.4039V25.9741H140.794C141.498 25.9741 142.147 26.1427 142.723 26.475C143.296 26.8052 143.759 27.2613 144.096 27.8309C144.436 28.4052 144.608 29.0583 144.608 29.7728C144.608 30.4496 144.441 31.0741 144.11 31.6296C143.804 32.1434 143.39 32.5632 142.879 32.8782L145.508 37.4048ZM142.996 36.7356L144.347 36.7362L141.951 32.6107L142.271 32.4522C142.328 32.4239 142.385 32.3939 142.44 32.3626C142.9 32.0989 143.269 31.7372 143.536 31.2879C143.804 30.8376 143.94 30.328 143.94 29.7728C143.94 29.1799 143.8 28.6408 143.522 28.1715C143.244 27.7026 142.863 27.3265 142.389 27.054C141.916 26.7808 141.38 26.6425 140.794 26.6425H136.844V36.7353L137.976 36.7347V32.7596L139.16 32.7502H137.966V36.7257H136.853V26.6519H140.794C141.378 26.6519 141.913 26.7898 142.385 27.062C142.863 27.3377 143.232 27.7024 143.514 28.1764C143.791 28.6448 143.931 29.1819 143.931 29.773C143.931 30.3265 143.795 30.8347 143.528 31.2832C143.258 31.7372 142.9 32.0879 142.435 32.3548C142.364 32.3953 142.292 32.4329 142.218 32.4669L141.942 32.5946L141.546 31.9146L140.457 32.2923L140.461 32.3001L141.543 31.926L141.935 32.6026L144.331 36.7268L143.001 36.7257L140.755 32.7936L141.263 32.7394C141.408 32.7237 141.552 32.698 141.692 32.6633L141.71 32.6586L141.472 32.7002C141.39 32.7146 141.307 32.726 141.222 32.7338L140.736 32.7788L142.996 36.7356ZM137.967 31.6649H141.402L141.74 31.5134C141.803 31.4854 141.864 31.4531 141.921 31.4186C142.19 31.2554 142.403 31.0295 142.557 30.7467C142.711 30.4637 142.788 30.1357 142.788 29.7719C142.788 29.3792 142.696 29.0247 142.513 28.7187C142.331 28.4124 142.076 28.169 141.754 27.9946C141.433 27.8228 141.062 27.7357 140.65 27.7357H137.966L137.967 31.6649ZM140.982 31.6557H137.976L137.975 27.7456H140.65C141.06 27.7456 141.43 27.8323 141.75 28.0031C142.074 28.1786 142.321 28.4139 142.505 28.7229C142.689 29.0337 142.778 29.3767 142.778 29.7721C142.778 30.1346 142.701 30.4608 142.548 30.7423C142.394 31.0271 142.187 31.2456 141.916 31.4106C141.645 31.5756 141.34 31.6557 140.982 31.6557ZM138.645 30.9876H140.982C141.213 30.9876 141.405 30.9391 141.568 30.8399C141.738 30.7367 141.863 30.6043 141.96 30.4239C142.06 30.2414 142.11 30.0222 142.11 29.7723C142.11 29.5001 142.051 29.2683 141.93 29.0641C141.808 28.8597 141.651 28.7095 141.433 28.5919C141.213 28.4742 140.949 28.4139 140.65 28.4139H138.643L138.645 30.9876Z" fill="white"/>
<path d="M150.734 36.8741C150.224 36.8741 149.744 36.8032 149.293 36.6587C148.842 36.515 148.429 36.2987 148.055 36.0106C147.68 35.7226 147.349 35.3675 147.061 34.9446L147.839 34.0797C148.291 34.7231 148.753 35.1747 149.229 35.4345C149.704 35.6935 150.24 35.8232 150.835 35.8232C151.267 35.8232 151.661 35.7515 152.017 35.6069C152.372 35.4627 152.65 35.2618 152.852 35.0021C153.053 34.7426 153.154 34.4455 153.154 34.1088C153.154 33.888 153.118 33.691 153.046 33.5184C152.975 33.3453 152.866 33.1917 152.722 33.0571C152.578 32.9219 152.401 32.8028 152.189 32.6966C151.978 32.5912 151.736 32.4958 151.462 32.4089C151.188 32.3216 150.883 32.2361 150.547 32.1494C150.058 32.0339 149.628 31.8978 149.258 31.7395C148.888 31.5812 148.576 31.3857 148.322 31.156C148.067 30.9254 147.876 30.6594 147.745 30.3562C147.616 30.0533 147.551 29.6962 147.551 29.2833C147.551 28.8895 147.635 28.5245 147.803 28.1885C147.97 27.8522 148.204 27.5615 148.502 27.3168C148.798 27.0717 149.15 26.8825 149.553 26.7479C149.957 26.6133 150.388 26.5464 150.849 26.5464C151.368 26.5464 151.831 26.6169 152.24 26.7562C152.646 26.8943 153.009 27.0985 153.326 27.3672C153.643 27.6363 153.918 27.9581 154.148 28.3326L153.355 29.1109C153.154 28.7937 152.925 28.52 152.671 28.2897C152.416 28.0599 152.138 27.8844 151.836 27.7637C151.533 27.6444 151.199 27.5837 150.835 27.5837C150.412 27.5837 150.039 27.6547 149.718 27.7991C149.396 27.9428 149.143 28.1421 148.962 28.3965C148.78 28.6513 148.688 28.9419 148.688 29.2683C148.688 29.5081 148.731 29.7215 148.817 29.9091C148.904 30.0972 149.04 30.2595 149.228 30.399C149.416 30.5383 149.66 30.6634 149.963 30.7734C150.265 30.8844 150.627 30.9874 151.05 31.0826C151.549 31.1983 151.998 31.3376 152.397 31.5012C152.795 31.6645 153.136 31.8588 153.42 32.0836C153.703 32.3104 153.919 32.5715 154.068 32.869C154.217 33.1673 154.292 33.5081 154.292 33.892C154.292 34.4876 154.142 35.0091 153.845 35.4548C153.547 35.9013 153.132 36.2497 152.599 36.4991C152.066 36.7487 151.444 36.8741 150.734 36.8741Z" fill="white"/>
<path d="M150.734 37.208C150.19 37.208 149.671 37.1303 149.191 36.9772C148.706 36.8225 148.254 36.5863 147.851 36.2755C147.45 35.9676 147.091 35.583 146.785 35.1327L146.637 34.916L147.871 33.5439L148.112 33.8874C148.532 34.4861 148.962 34.9079 149.389 35.1412C149.812 35.3721 150.299 35.4892 150.835 35.4892C151.222 35.4892 151.578 35.4247 151.891 35.2975C152.195 35.1744 152.422 35.0109 152.588 34.7975C152.744 34.5963 152.82 34.3712 152.82 34.1091C152.82 33.9344 152.792 33.7788 152.738 33.6465C152.684 33.5182 152.604 33.4049 152.494 33.301C152.374 33.1895 152.225 33.0894 152.039 32.9956C151.845 32.8989 151.616 32.8089 151.361 32.7278C151.108 32.6475 150.814 32.5642 150.463 32.4733C149.961 32.3548 149.509 32.2111 149.127 32.0472C148.726 31.8757 148.38 31.6594 148.098 31.4042C147.809 31.1426 147.587 30.835 147.438 30.4891C147.291 30.1449 147.217 29.7399 147.217 29.2836C147.217 28.839 147.313 28.4203 147.504 28.039C147.691 27.6633 147.955 27.3332 148.289 27.0592C148.615 26.7901 149.005 26.5787 149.447 26.4314C149.883 26.2861 150.355 26.2124 150.849 26.2124C151.4 26.2124 151.904 26.289 152.347 26.4399C152.792 26.5912 153.194 26.8178 153.542 27.1129C153.886 27.4047 154.185 27.7564 154.432 28.1579L154.571 28.3847L153.295 29.6387L153.073 29.2901C152.889 29.0002 152.678 28.7469 152.447 28.5374C152.223 28.3361 151.976 28.1798 151.712 28.0739C151.449 27.9709 151.154 27.9183 150.835 27.9183C150.46 27.9183 150.13 27.981 149.855 28.1043C149.585 28.2246 149.382 28.3838 149.234 28.5911C149.091 28.7904 149.023 29.0118 149.023 29.2686C149.023 29.4596 149.056 29.6277 149.121 29.769C149.184 29.9067 149.284 30.0252 149.427 30.1308C149.589 30.2511 149.807 30.3615 150.077 30.4595C150.365 30.5654 150.717 30.6653 151.124 30.7564C151.642 30.8769 152.113 31.0233 152.524 31.1923C152.948 31.3665 153.32 31.5786 153.628 31.8217C153.951 32.0808 154.199 32.3826 154.367 32.7202C154.539 33.0646 154.626 33.4589 154.626 33.8921C154.626 34.551 154.457 35.1394 154.123 35.6405C153.792 36.1369 153.327 36.5276 152.741 36.8021C152.165 37.0714 151.49 37.208 150.734 37.208ZM147.489 34.9677C147.72 35.2691 147.977 35.5301 148.259 35.7458C148.601 36.0095 148.983 36.2092 149.395 36.3404C149.809 36.473 150.259 36.5401 150.734 36.5401C151.391 36.5401 151.971 36.4246 152.457 36.1965C152.931 35.9746 153.304 35.6627 153.566 35.2693C153.826 34.8804 153.957 34.4165 153.957 33.8919C153.957 33.5627 153.894 33.269 153.769 33.018C153.644 32.7675 153.456 32.5409 153.211 32.3441C152.954 32.141 152.637 31.9608 152.27 31.8103C151.892 31.6549 151.456 31.5192 150.975 31.4077C150.542 31.3103 150.162 31.2022 149.848 31.0869C149.518 30.9669 149.242 30.8254 149.029 30.6669C148.797 30.4951 148.624 30.2871 148.514 30.0487C148.408 29.8196 148.354 29.5565 148.354 29.2682C148.354 28.8723 148.467 28.5139 148.69 28.202C148.906 27.8995 149.206 27.6613 149.582 27.4938C149.943 27.3317 150.365 27.2497 150.834 27.2497C151.238 27.2497 151.616 27.318 151.958 27.4526C152.298 27.5887 152.613 27.7864 152.895 28.0414C153.077 28.2055 153.246 28.3912 153.403 28.5956L153.717 28.2868C153.539 28.0365 153.336 27.8137 153.11 27.6221C152.826 27.3816 152.498 27.1964 152.132 27.0722C151.758 26.945 151.327 26.8805 150.849 26.8805C150.427 26.8805 150.026 26.9423 149.658 27.0648C149.295 27.1861 148.977 27.3576 148.714 27.5744C148.453 27.7889 148.247 28.0457 148.102 28.3372C147.958 28.6249 147.885 28.9428 147.885 29.2832C147.885 29.6486 147.941 29.9654 148.052 30.2247C148.164 30.4848 148.326 30.7087 148.546 30.9084C148.774 31.1137 149.058 31.2902 149.39 31.4324C149.737 31.5813 150.152 31.7129 150.624 31.8244C150.994 31.92 151.299 32.0064 151.564 32.0908C151.852 32.182 152.112 32.2854 152.338 32.3978C152.584 32.5212 152.783 32.6569 152.95 32.8129C153.129 32.9806 153.265 33.1747 153.355 33.3897C153.443 33.6039 153.488 33.8458 153.488 34.1086C153.488 34.5192 153.363 34.8887 153.116 35.2068C152.88 35.5111 152.552 35.75 152.142 35.9164C151.749 36.076 151.309 36.1571 150.835 36.1571C150.186 36.1571 149.592 36.0124 149.069 35.7272C148.64 35.493 148.219 35.1164 147.814 34.6057L147.489 34.9677Z" fill="white"/>
<path d="M150.734 37.2132C150.19 37.2132 149.671 37.1351 149.19 36.9817C148.704 36.827 148.252 36.5908 147.848 36.2793C147.448 35.9719 147.088 35.587 146.78 35.1361L146.631 34.9163L147.871 33.5373L148.115 33.8854C148.536 34.4835 148.965 34.9048 149.391 35.1381C149.813 35.3681 150.299 35.4849 150.835 35.4849C151.221 35.4849 151.576 35.4211 151.889 35.2937C152.192 35.1706 152.419 35.0076 152.583 34.7954C152.74 34.5943 152.815 34.3702 152.815 34.1093C152.815 33.9356 152.787 33.7804 152.733 33.6481C152.68 33.5211 152.601 33.4083 152.491 33.3051C152.373 33.1947 152.22 33.0924 152.037 33.0001C151.841 32.9027 151.613 32.8127 151.36 32.7328C151.105 32.6513 150.812 32.5685 150.463 32.478C149.959 32.3596 149.507 32.2151 149.125 32.0515C148.724 31.8795 148.378 31.6632 148.095 31.408C147.806 31.1458 147.583 30.8377 147.434 30.4914C147.286 30.1461 147.212 29.7404 147.212 29.2837C147.212 28.839 147.309 28.4196 147.5 28.0374C147.687 27.6606 147.952 27.3299 148.286 27.0554C148.613 26.7863 149.003 26.5745 149.446 26.4267C149.883 26.2819 150.355 26.2075 150.849 26.2075C151.4 26.2075 151.904 26.2843 152.349 26.4354C152.794 26.587 153.197 26.8138 153.546 27.1094C153.89 27.4018 154.19 27.7535 154.436 28.1557L154.577 28.3856L153.294 29.6461L153.07 29.2926C152.886 29.0036 152.675 28.7508 152.443 28.541C152.221 28.3401 151.974 28.1841 151.71 28.0784C151.449 27.9756 151.153 27.9232 150.835 27.9232C150.461 27.9232 150.131 27.9855 149.857 28.1086C149.588 28.2286 149.386 28.3874 149.238 28.594C149.096 28.7922 149.027 29.013 149.027 29.2689C149.027 29.4587 149.06 29.6267 149.125 29.7675C149.189 29.9048 149.289 30.0227 149.43 30.1273C149.592 30.2475 149.809 30.3572 150.079 30.4555C150.368 30.5612 150.719 30.6613 151.125 30.7522C151.645 30.8731 152.116 31.0197 152.526 31.1883C152.952 31.3625 153.323 31.575 153.631 31.8184C153.954 32.0772 154.203 32.3797 154.371 32.7187C154.544 33.0633 154.631 33.4585 154.631 33.8924C154.631 34.5522 154.461 35.1413 154.127 35.6432C153.796 36.1403 153.33 36.5321 152.743 36.8064C152.166 37.0757 151.49 37.2132 150.734 37.2132ZM147.495 34.968C147.725 35.268 147.982 35.5277 148.261 35.7422C148.603 36.0055 148.984 36.2048 149.396 36.3358C149.811 36.4681 150.26 36.5355 150.734 36.5355C151.39 36.5355 151.969 36.4199 152.455 36.192C152.928 35.971 153.301 35.6594 153.563 35.2669C153.821 34.8782 153.953 34.4154 153.953 33.8917C153.953 33.5637 153.89 33.2708 153.765 33.0196C153.64 32.7695 153.453 32.5434 153.208 32.3477C152.952 32.1446 152.635 31.9648 152.268 31.8141C151.892 31.6592 151.456 31.524 150.974 31.4118C150.542 31.3149 150.162 31.2065 149.846 31.0907C149.515 30.9707 149.239 30.8288 149.026 30.6703C148.794 30.4985 148.621 30.2903 148.51 30.051C148.403 29.8201 148.349 29.5566 148.349 29.2677C148.349 28.871 148.462 28.5117 148.686 28.1991C148.903 27.8959 149.204 27.657 149.579 27.4893C149.942 27.3268 150.364 27.2446 150.834 27.2446C151.238 27.2446 151.617 27.3129 151.96 27.4479C152.3 27.5843 152.615 27.7822 152.897 28.0374C153.078 28.2011 153.247 28.3854 153.403 28.588L153.71 28.2857C153.533 28.0372 153.331 27.8155 153.107 27.6252C152.823 27.385 152.495 27.2003 152.131 27.0765C151.756 26.9491 151.326 26.8848 150.849 26.8848C150.428 26.8848 150.027 26.9466 149.66 27.0691C149.297 27.1898 148.979 27.3615 148.717 27.5778C148.456 27.7916 148.251 28.0477 148.106 28.3393C147.962 28.627 147.889 28.9438 147.889 29.2828C147.889 29.6473 147.945 29.9639 148.056 30.2229C148.168 30.4817 148.33 30.7054 148.549 30.9042C148.776 31.1091 149.059 31.2853 149.391 31.4275C149.738 31.5761 150.153 31.708 150.625 31.8191C150.993 31.9144 151.298 32.0011 151.565 32.0855C151.85 32.1757 152.111 32.2799 152.34 32.3934C152.582 32.5149 152.788 32.6549 152.953 32.8091C153.133 32.978 153.269 33.1725 153.358 33.3879C153.448 33.6022 153.493 33.8447 153.493 34.1082C153.493 34.5199 153.367 34.8903 153.119 35.2098C152.883 35.5141 152.555 35.7536 152.144 35.9204C151.749 36.0803 151.308 36.1618 150.835 36.1618C150.184 36.1618 149.589 36.0167 149.066 35.7312C148.638 35.4975 148.218 35.1216 147.814 34.6131L147.495 34.968Z" fill="white"/>
<path d="M150.734 37.5476C150.156 37.5476 149.602 37.4641 149.088 37.3002C148.564 37.1329 148.078 36.8788 147.644 36.5439C147.215 36.215 146.832 35.8043 146.504 35.3245L146.207 34.8879L147.903 33.0018L148.389 33.6937C148.779 34.2485 149.17 34.636 149.552 34.8452C149.924 35.0478 150.356 35.151 150.835 35.151C151.178 35.151 151.491 35.0948 151.763 34.9844C152.01 34.8841 152.192 34.7556 152.319 34.5906C152.429 34.4486 152.481 34.2959 152.481 34.1094C152.481 33.9796 152.462 33.8672 152.424 33.7758C152.39 33.6928 152.338 33.62 152.261 33.5486C152.168 33.461 152.041 33.3766 151.886 33.2985C151.706 33.2094 151.494 33.1256 151.259 33.0513C151.012 32.9723 150.724 32.8908 150.378 32.8014C149.861 32.6798 149.393 32.5303 148.993 32.3585C148.558 32.1723 148.181 31.9358 147.87 31.6557C147.545 31.3609 147.296 31.0138 147.126 30.624C146.961 30.2355 146.877 29.7851 146.877 29.2838C146.877 28.7867 146.986 28.317 147.2 27.8882C147.409 27.4686 147.703 27.1014 148.074 26.7974C148.433 26.502 148.858 26.2703 149.34 26.1102C149.811 25.9535 150.318 25.874 150.848 25.874C151.436 25.874 151.976 25.9566 152.456 26.1196C152.941 26.2846 153.38 26.5321 153.761 26.8547C154.132 27.1699 154.455 27.5488 154.72 27.9809L155 28.4381L153.232 30.1742L152.786 29.4718C152.619 29.2083 152.428 28.9786 152.218 28.7885C152.026 28.6145 151.812 28.4797 151.584 28.3886C151.364 28.3015 151.111 28.2574 150.833 28.2574C150.506 28.2574 150.223 28.3098 149.992 28.4132C149.778 28.5086 149.62 28.6311 149.508 28.7881C149.407 28.9293 149.36 29.0818 149.36 29.2685C149.36 29.41 149.383 29.5309 149.427 29.6272C149.467 29.7132 149.531 29.7869 149.628 29.8587C149.762 29.959 149.952 30.0537 150.192 30.1413C150.47 30.2429 150.807 30.3388 151.197 30.4259C151.735 30.5508 152.223 30.7031 152.651 30.879C153.106 31.0655 153.505 31.2937 153.837 31.5566C154.2 31.8463 154.479 32.187 154.669 32.5699C154.864 32.9595 154.963 33.4048 154.963 33.8918C154.963 34.6186 154.775 35.2697 154.403 35.8276C154.037 36.3775 153.525 36.8085 152.883 37.1085C152.262 37.3998 151.539 37.5476 150.734 37.5476ZM147.054 34.9448L147.056 34.9479C147.344 35.3693 147.678 35.728 148.052 36.0146C148.424 36.3018 148.841 36.5204 149.291 36.6634C149.74 36.8069 150.225 36.8795 150.733 36.8795C151.44 36.8795 152.068 36.753 152.601 36.5036C153.131 36.2559 153.55 35.9037 153.848 35.4575C154.145 35.0115 154.296 34.4847 154.296 33.892C154.296 33.5096 154.221 33.1653 154.072 32.8679C153.925 32.5719 153.706 32.3068 153.421 32.0793C153.14 31.8561 152.796 31.6598 152.399 31.497C152.004 31.3347 151.549 31.1936 151.049 31.0772C150.633 30.984 150.268 30.8801 149.964 30.7686C149.663 30.6596 149.416 30.5336 149.23 30.395C149.042 30.2559 148.909 30.0965 148.821 29.9073C148.736 29.7222 148.693 29.5074 148.693 29.2683C148.693 28.9443 148.785 28.6517 148.966 28.3989C149.149 28.1428 149.396 27.9478 149.72 27.8031C150.037 27.6609 150.412 27.5889 150.835 27.5889C151.195 27.5889 151.531 27.6489 151.832 27.7673C152.135 27.8887 152.415 28.0651 152.667 28.2928C152.922 28.5232 153.151 28.7992 153.351 29.1131L153.355 29.1179L154.154 28.3333L154.151 28.3297C154.15 28.3282 154.149 28.3266 154.148 28.325L153.368 29.0914L153.138 28.7919C152.996 28.6065 152.84 28.4363 152.673 28.2854C152.421 28.0575 152.139 27.8799 151.836 27.7583C151.534 27.6397 151.197 27.5788 150.835 27.5788C150.412 27.5788 150.035 27.6511 149.716 27.7944C149.394 27.9379 149.14 28.1394 148.958 28.3933C148.776 28.6486 148.683 28.9425 148.683 29.2681C148.683 29.5077 148.727 29.7239 148.813 29.9113C148.9 30.0987 149.039 30.2638 149.225 30.4021C149.413 30.5418 149.66 30.6681 149.96 30.7769C150.264 30.8884 150.629 30.9923 151.047 31.0861C151.549 31.2028 152.002 31.3436 152.395 31.5057C152.791 31.668 153.135 31.8635 153.415 32.0863C153.699 32.3129 153.917 32.5766 154.064 32.8708C154.212 33.1684 154.287 33.5116 154.287 33.8918C154.287 34.4827 154.137 35.0073 153.841 35.4519C153.544 35.8968 153.126 36.2477 152.596 36.4948C152.066 36.7434 151.439 36.8696 150.734 36.8696C150.226 36.8696 149.742 36.7973 149.294 36.6543C148.845 36.511 148.429 36.2933 148.057 36.0065C147.756 35.7757 147.478 35.4945 147.23 35.1712L147.062 34.9508L147.83 34.0967L148.076 34.4063C148.452 34.8799 148.839 35.2276 149.227 35.4392C149.7 35.6973 150.241 35.8283 150.835 35.8283C151.266 35.8283 151.664 35.7555 152.019 35.6113C152.374 35.4671 152.656 35.2634 152.855 35.0059C153.057 34.746 153.159 34.4446 153.159 34.109C153.159 33.8898 153.123 33.6905 153.051 33.517C152.98 33.3459 152.87 33.1899 152.725 33.0531C152.583 32.921 152.403 32.7994 152.19 32.6924C151.976 32.5863 151.732 32.4893 151.464 32.4049C151.2 32.3214 150.899 32.2354 150.542 32.1434C150.059 32.0296 149.626 31.8917 149.26 31.7352C148.894 31.5789 148.58 31.3828 148.326 31.1526C148.07 30.9214 147.882 30.6612 147.75 30.3564C147.621 30.0533 147.556 29.6926 147.556 29.2833C147.556 28.8926 147.64 28.5245 147.808 28.1905C147.973 27.8575 148.208 27.5644 148.505 27.3202C148.799 27.0772 149.153 26.8863 149.555 26.7526C149.957 26.6187 150.393 26.5509 150.849 26.5509C151.362 26.5509 151.829 26.6214 152.239 26.7607C152.642 26.8979 153.007 27.103 153.323 27.3708C153.568 27.5792 153.79 27.8222 153.983 28.0928L154.148 28.3244C153.92 27.9551 153.645 27.6321 153.329 27.3641C153.013 27.0961 152.647 26.8898 152.241 26.7519C151.832 26.6127 151.363 26.5419 150.849 26.5419C150.391 26.5419 149.954 26.6097 149.551 26.7436C149.149 26.8778 148.794 27.0696 148.499 27.3132C148.201 27.5575 147.966 27.851 147.799 28.186C147.631 28.5218 147.546 28.8906 147.546 29.2833C147.546 29.6942 147.612 30.0562 147.741 30.3598C147.871 30.6605 148.066 30.9303 148.319 31.16C148.574 31.39 148.89 31.5868 149.256 31.7437C149.622 31.9002 150.053 32.0377 150.539 32.1526C150.904 32.2468 151.204 32.3317 151.462 32.4141C151.728 32.4983 151.972 32.5945 152.185 32.7002C152.399 32.8077 152.578 32.9288 152.719 33.0605C152.864 33.1975 152.97 33.3475 153.042 33.5197C153.113 33.693 153.149 33.8909 153.149 34.1088C153.149 34.4424 153.048 34.7419 152.847 34.9999C152.646 35.2594 152.374 35.4568 152.015 35.6026C151.662 35.7457 151.265 35.8184 150.835 35.8184C150.242 35.8184 149.703 35.6879 149.231 35.4309C148.758 35.1718 148.291 34.7169 147.842 34.0767L147.838 34.072L147.054 34.9448Z" fill="white"/>
</svg>
