<svg width="44" height="51" viewBox="0 0 44 51" fill="none" xmlns="http://www.w3.org/2000/svg">
<path fill-rule="evenodd" clip-rule="evenodd" d="M16.045 36.099C18.081 36.7162 19.9503 36.6783 21.7661 35.7389C21.8986 35.6704 22.1338 35.6881 22.272 35.7603C24.0715 36.7002 25.941 36.5982 27.8844 36.2212C27.2261 37.4342 26.3163 38.4469 24.9922 38.9215C23.0577 39.6149 21.0628 39.6003 19.1198 38.9288C17.7396 38.4519 16.7785 37.4467 16.045 36.099Z" fill="white"/>
<path fill-rule="evenodd" clip-rule="evenodd" d="M30.7139 22.6121C30.5955 22.7224 30.4229 22.9843 30.1838 23.0794C29.9281 23.1812 29.4935 22.6824 29.4968 22.3354C29.4998 22.0073 29.6589 21.7875 30.0125 21.7683C30.3597 21.7497 30.6913 22.0746 30.7139 22.6121Z" fill="white"/>
<path fill-rule="evenodd" clip-rule="evenodd" d="M13.8934 23.1232C13.5793 23.1265 13.0697 22.65 13.2098 22.4148C13.3848 22.1214 13.7196 21.8287 14.0406 21.7437C14.3552 21.6602 14.6915 21.8973 14.7108 22.323C14.7286 22.7163 14.3096 23.1187 13.8934 23.1232Z" fill="white"/>
<path fill-rule="evenodd" clip-rule="evenodd" d="M38.7705 46.8302H43.9808C43.0886 45.5171 42.1096 44.2661 41.0391 43.0811C38.8133 40.6173 36.2801 38.5277 33.4389 36.8045C32.9569 36.5121 32.7048 36.5791 32.3027 36.9758C31.199 38.0645 30.0186 39.0756 28.8652 40.1136C28.7092 40.2541 28.5348 40.3743 28.3489 40.5198C29.4461 40.9967 30.4987 41.415 31.5157 41.9066C32.9045 42.5782 34.219 43.3733 35.3299 44.4689C35.4717 44.6088 35.6766 44.7205 35.8705 44.7645C36.5129 44.9106 37.0464 45.1983 37.4807 45.8381C36.3602 45.3447 35.3368 45.3518 34.4045 46C33.3478 46.7346 32.6211 47.7103 32.5983 49.063C32.5887 49.6365 32.9123 49.9038 33.4755 49.8304C34.1382 49.7441 34.7027 49.4578 35.1038 48.9051C35.3885 48.5129 35.6601 48.1111 35.9375 47.7136C35.9352 47.8954 35.8451 48.0388 35.8113 48.1943C35.6904 48.7518 35.5166 49.3111 35.4983 49.8742C35.4776 50.5139 35.79 50.7098 36.4116 50.5865C37.547 50.3613 38.2159 49.629 38.5152 48.5561C38.6414 48.1034 38.6976 47.6312 38.7706 47.1499L38.7705 46.8302Z" fill="white"/>
<path fill-rule="evenodd" clip-rule="evenodd" d="M18.7209 30.6283C18.519 31.3585 18.6706 31.6136 19.3773 31.8495C19.8086 31.9933 20.2543 32.1257 20.6481 32.3445C21.368 32.7449 21.4866 33.5115 20.9081 34.0839C19.898 35.0831 18.6764 35.544 17.2524 35.2915C16.4842 35.155 16.025 34.6147 15.7478 33.9159C15.2431 32.6443 15.3605 31.3237 15.4581 30.0059C15.4653 29.9105 15.4774 29.8152 15.5002 29.5948C14.0703 31.3938 13.8638 33.208 14.8949 35.1464C12.9707 35.4601 11.051 34.5465 10.2437 32.7889C9.10147 30.3024 8.77142 27.6676 9.56165 25.026C9.84619 24.0753 9.99389 23.13 10.1887 22.1747C10.4328 20.9786 10.865 19.8206 11.2346 18.5835C10.871 18.4345 10.3757 18.2345 9.88255 18.0292C7.18202 16.9046 4.97083 15.1879 3.45396 12.6541C2.2642 10.6667 1.42816 8.52886 0.812352 6.29928C0.332973 4.56319 -0.00499952 2.80811 0.000993988 0.999696C0.00190825 0.719322 0.0349209 0.43905 0.0632631 0C0.867002 0.280882 1.58958 0.492686 2.28005 0.781288C5.7253 2.22135 8.60025 4.48477 11.2435 7.06898C12.6995 8.49259 14.02 10.0324 15.1022 11.7657C15.182 11.8934 15.2743 12.0134 15.3509 12.123C16.134 11.7669 16.882 11.3824 17.6623 11.082C18.8844 10.6113 20.1564 10.491 21.4571 10.6892C21.7382 10.732 22.0369 10.7776 22.3111 10.7293C24.3576 10.3672 26.2416 10.8371 28.0374 11.7981C28.2308 11.9015 28.4248 12.0038 28.6194 12.1054C28.6333 12.1127 28.6528 12.1089 28.6929 12.1123C31.1274 8.36134 34.3156 5.34336 37.9947 2.82324C39.5804 1.737 41.2943 0.896588 43.1169 0.283523C43.367 0.199411 43.632 0.159691 43.9658 0.0818773C43.9658 0.957437 44.0512 1.77408 43.9515 2.56745C43.4217 6.77997 42.0957 10.7041 39.5201 14.1318C38.0154 16.1345 35.9016 17.2994 33.6379 18.2311C33.3281 18.3587 33.0147 18.4772 32.6714 18.6125C32.7346 18.7732 32.776 18.917 32.8442 19.0465C33.5409 20.3715 33.8975 21.7877 33.9941 23.2758C34.0208 23.6857 34.0097 24.0722 34.3081 24.4534C34.5519 24.7649 34.64 25.2328 34.7037 25.6456C35.0703 28.0199 34.8791 30.3508 33.895 32.5552C33.0273 34.4988 31.3049 35.4 29.1089 35.1708C30.1297 33.2516 30.0121 31.4378 28.5384 29.6675C28.5579 29.96 28.5855 30.1667 28.5832 30.373C28.5736 31.2508 28.6294 32.1373 28.5245 33.0039C28.3113 34.7646 27.2431 35.5433 25.4915 35.3171C24.6419 35.2074 23.9 34.8487 23.2751 34.276C22.4612 33.5306 22.587 32.6981 23.579 32.2267C23.9278 32.061 24.3092 31.9632 24.6776 31.8397C25.3777 31.605 25.5388 31.3187 25.3377 30.6278C25.4604 30.5495 25.5867 30.4665 25.715 30.387C26.1405 30.123 26.3395 29.7364 26.1725 29.2637C25.6844 27.8838 25.1622 26.5162 24.6534 25.1438C24.597 25.1627 24.5407 25.1817 24.4844 25.2008C24.6259 25.8196 24.7691 26.4381 24.9078 27.0574C24.9596 27.2885 25.0126 27.5205 25.0442 27.7548C25.1511 28.5479 24.9735 28.7869 24.213 28.9897C23.7405 29.1156 23.2727 29.2684 22.8162 29.4443C22.2676 29.6553 21.7416 29.6703 21.1887 29.448C20.7355 29.2659 20.2615 29.1316 19.7902 28.999C19.0875 28.8014 18.9024 28.601 19.0166 27.8758C19.1531 27.0086 19.3687 26.1538 19.5493 25.2933C19.5626 25.2302 19.569 25.1655 19.5296 25.0845C18.9146 26.5113 18.0723 27.8454 17.8499 29.4252C17.7905 29.8462 17.97 30.1456 18.3057 30.3706C18.4436 30.4635 18.5879 30.5462 18.7209 30.6283ZM40.6373 4.5447C40.5216 4.59844 40.4005 4.64314 40.2911 4.70764C37.4266 6.3969 35.1957 8.705 33.6208 11.6299C32.9119 12.9462 32.4108 14.3507 32.2082 15.8392C32.1729 16.0981 32.3475 16.3856 32.4252 16.6598C32.7269 16.5626 33.1086 16.5474 33.3119 16.3491C33.6297 16.0391 33.8556 15.6207 34.0703 15.2213C35.0628 13.3751 36.0005 11.4984 37.0297 9.67321C38.0559 7.85271 39.2056 6.10758 40.6373 4.5447ZM3.4433 4.49726C3.42054 4.52723 3.39779 4.5572 3.37493 4.58716C3.42186 4.64751 3.46473 4.7116 3.51633 4.76768C5.28086 6.6857 6.65886 8.86561 7.86437 11.164C8.67268 12.7052 9.48048 14.2469 10.3166 15.773C10.4896 16.0886 10.7484 16.3868 11.0351 16.6037C11.4628 16.9272 11.8614 16.7255 11.8544 16.1901C11.8489 15.7573 11.7561 15.3181 11.6489 14.8951C10.6766 11.0586 8.42258 8.09885 5.32069 5.73558C4.72581 5.28231 4.07068 4.90797 3.4433 4.49726ZM32.1327 21.4109C31.5299 21.1633 30.8996 20.8227 30.2263 20.6482C29.3922 20.4322 28.562 20.5573 27.9295 21.2242C26.9859 22.219 26.9911 24.8852 27.916 25.9225C27.923 25.9304 27.9467 25.9235 27.9822 25.9235C27.9982 25.5942 28.0143 25.2597 28.0329 24.8783C29.0507 25.0661 30.0113 25.3021 30.8237 24.5906C31.6778 23.8423 31.5933 22.9472 31.0132 21.9222C31.448 22.0377 31.7452 22.1166 32.0291 22.192C32.0588 21.9682 32.0862 21.7619 32.1327 21.4109ZM12.8805 22.0038C12.7638 22.397 12.6171 22.7103 12.584 23.0351C12.4697 24.1571 13.3284 25.2897 15.0346 25.0307C16.0118 24.8821 16.0145 24.9019 16.0518 25.8713C16.0524 25.8874 16.099 25.9017 16.1584 25.9371C16.8835 24.8257 16.938 23.6124 16.6636 22.3781C16.3827 21.1148 15.5651 20.5377 14.2769 20.5673C13.318 20.5895 12.5449 21.0387 11.8336 21.569C11.9006 21.7892 11.9596 21.9824 12.0104 22.1491C12.3075 22.0996 12.5784 22.0544 12.8805 22.0038Z" fill="white"/>
<path fill-rule="evenodd" clip-rule="evenodd" d="M5.29684 46.83C3.56299 46.8829 1.85281 46.9353 0 46.9921C0.343458 46.5033 0.604531 46.1185 0.87881 45.7433C3.20785 42.5573 6.01768 39.8693 9.28435 37.6594C9.81594 37.2997 10.3701 36.971 10.932 36.6604C11.0507 36.5948 11.3269 36.6071 11.398 36.6929C12.5938 38.1391 14.0068 39.3403 15.5266 40.4258C15.5621 40.451 15.5752 40.5074 15.6126 40.5742C14.9483 40.8456 14.2904 41.1029 13.6418 41.3819C11.8121 42.1684 10.1073 43.1529 8.65036 44.5342C8.51454 44.663 8.30202 44.73 8.11307 44.7802C7.51149 44.9405 7.00844 45.2361 6.59997 45.773C8.92159 45.094 10.8405 46.1575 11.3852 48.3892C11.4406 48.6162 11.4627 48.8576 11.4589 49.0916C11.4511 49.5596 11.1776 49.8166 10.7253 49.8277C10.0194 49.8447 9.44831 49.5377 9.01637 48.9882C8.7302 48.6241 8.47025 48.2394 8.20927 47.8789C8.32579 48.4675 8.50915 49.0515 8.54298 49.6439C8.59408 50.5371 8.18378 50.8098 7.33077 50.5192C6.03607 50.0782 5.57944 49.019 5.37343 47.7935C5.32376 47.4978 5.32416 47.1935 5.29684 46.83Z" fill="white"/>
<path fill-rule="evenodd" clip-rule="evenodd" d="M33.2161 47.1176C32.6955 47.5991 32.2273 48.0323 31.8261 48.4033C25.2421 44.5443 18.7408 44.67 12.1938 48.3949C11.8268 47.9782 11.4164 47.5123 10.9657 47.0003C13.7069 44.9914 16.9339 43.9132 20.4308 43.6581C25.0636 43.3201 29.3638 44.3141 33.2161 47.1176Z" fill="white"/>
</svg>
