<svg width="166" height="166" viewBox="0 0 166 166" fill="none" xmlns="http://www.w3.org/2000/svg">
<g clip-path="url(#clip0_133_35)">
<path d="M166 0H0V166H166V0Z" fill="#D7000C"/>
<path fill-rule="evenodd" clip-rule="evenodd" d="M97.6005 64.5204C97.5301 65.0514 97.4886 65.3636 97.4437 65.7022C97.0143 65.5881 96.5645 65.4686 95.9067 65.2939C96.7843 66.8448 96.9122 68.1989 95.6199 69.3314C94.3907 70.408 92.9373 70.0508 91.3973 69.7667C91.3692 70.3437 91.3448 70.8499 91.3206 71.3482C91.2667 71.3482 91.231 71.3586 91.2204 71.3466C89.8209 69.7772 89.8131 65.7431 91.2409 64.2379C92.198 63.2289 93.454 63.0394 94.7161 63.3663C95.7348 63.6303 96.6886 64.1458 97.6005 64.5204ZM95.4534 66.3379C95.4193 65.5247 94.9177 65.033 94.3924 65.0611C93.8573 65.0901 93.6166 65.4226 93.612 65.9191C93.6071 66.4441 94.2647 67.1988 94.6515 67.0448C95.0132 66.9011 95.2743 66.5048 95.4534 66.3379Z" fill="#D7000C"/>
<path fill-rule="evenodd" clip-rule="evenodd" d="M68.4708 65.4174C68.0137 65.4939 67.6037 65.5623 67.1542 65.6375C67.0773 65.3852 66.9882 65.0929 66.8867 64.7597C67.963 63.9572 69.1325 63.2775 70.5836 63.244C72.5327 63.1993 73.7697 64.0726 74.1949 65.9839C74.61 67.8514 74.5275 69.6873 73.4303 71.3689C73.3406 71.3151 73.27 71.2936 73.2691 71.2693C73.2127 69.8025 73.2085 69.7726 71.7301 69.9974C69.1485 70.3895 67.8492 68.6756 68.0221 66.9779C68.0722 66.4864 68.294 66.0125 68.4708 65.4174ZM70.0029 67.1115C70.6328 67.1046 71.2668 66.4958 71.2398 65.9008C71.2107 65.2566 70.7016 64.8979 70.2256 65.0242C69.7399 65.153 69.2335 65.5958 68.9686 66.0397C68.7567 66.3955 69.5278 67.1166 70.0029 67.1115Z" fill="#D7000C"/>
<path d="M72.4146 86.4113C75.4833 87.3416 78.3005 87.2845 81.0375 85.8685C81.2375 85.7653 81.5918 85.7919 81.8 85.9008C84.5123 87.3174 87.3303 87.1637 90.2596 86.5955C89.2672 88.4239 87.8958 89.9503 85.9002 90.6656C82.9842 91.7108 79.9772 91.6888 77.0485 90.6767C74.9687 89.9578 73.5201 88.4427 72.4146 86.4113Z" fill="white"/>
<path d="M94.5245 66.0828C94.3461 66.2491 94.0861 66.6438 93.7255 66.7872C93.3401 66.9406 92.6851 66.1888 92.69 65.6657C92.6944 65.1713 92.9343 64.84 93.4673 64.811C93.9907 64.7829 94.4905 65.2727 94.5245 66.0828Z" fill="white"/>
<path d="M69.1712 66.8535C68.6977 66.8582 67.93 66.1402 68.1408 65.7855C68.4047 65.3431 68.9092 64.902 69.393 64.7741C69.8672 64.6483 70.3742 65.0056 70.4034 65.6474C70.4301 66.2402 69.7985 66.8467 69.1712 66.8535Z" fill="white"/>
<path d="M106.668 102.587H114.522C113.177 100.607 111.701 98.7222 110.088 96.9361C106.733 93.2224 102.914 90.0728 98.6322 87.4754C97.9057 87.0346 97.5256 87.1357 96.9196 87.7336C95.256 89.3749 93.4768 90.8985 91.7381 92.4635C91.5031 92.6753 91.24 92.8561 90.96 93.0757C92.6138 93.7943 94.2001 94.425 95.7334 95.1658C97.8267 96.178 99.8077 97.3765 101.482 99.0281C101.696 99.239 102.005 99.4074 102.297 99.4734C103.265 99.6936 104.069 100.127 104.724 101.092C103.035 100.348 101.493 100.359 100.088 101.336C98.4952 102.443 97.3995 103.913 97.3653 105.952C97.3506 106.817 97.8388 107.22 98.6876 107.109C99.6861 106.979 100.537 106.548 101.142 105.715C101.571 105.124 101.98 104.518 102.398 103.919C102.395 104.193 102.259 104.409 102.208 104.643C102.026 105.483 101.764 106.327 101.737 107.175C101.705 108.14 102.176 108.435 103.113 108.249C104.825 107.91 105.833 106.806 106.284 105.189C106.474 104.506 106.559 103.795 106.669 103.069L106.668 102.587Z" fill="white"/>
<path d="M76.4478 78.1656C76.1434 79.2662 76.3719 79.6504 77.4371 80.0062C78.0873 80.223 78.759 80.4226 79.3526 80.7524C80.4378 81.3558 80.6165 82.5114 79.7448 83.3742C78.2223 84.8803 76.3809 85.575 74.2347 85.1943C73.0768 84.9885 72.3846 84.1742 71.9667 83.1209C71.2057 81.2042 71.383 79.2137 71.5299 77.2278C71.5406 77.084 71.559 76.9402 71.5933 76.6078C69.438 79.3194 69.1267 82.0539 70.6808 84.9757C67.7806 85.4485 64.887 84.0713 63.6702 81.4223C61.9486 77.6744 61.4511 73.703 62.6422 69.7213C63.0711 68.2883 63.2937 66.8636 63.5874 65.4237C63.9553 63.621 64.6067 61.8753 65.1639 60.0107C64.6157 59.786 63.8693 59.4845 63.1259 59.1751C59.0554 57.4801 55.7222 54.8926 53.4362 51.0734C51.6429 48.0778 50.3827 44.8554 49.4545 41.4948C48.7319 38.878 48.2225 36.2326 48.2316 33.5068C48.2331 33.0842 48.2827 32.6618 48.3254 32C49.5369 32.4234 50.626 32.7426 51.6667 33.1776C56.8597 35.3482 61.1931 38.7598 65.1769 42.655C67.3715 44.8008 69.3619 47.1217 70.993 49.7342C71.1134 49.9268 71.2524 50.1076 71.3679 50.273C72.5483 49.7362 73.6754 49.1566 74.8519 48.7039C76.6938 47.9945 78.6112 47.813 80.5714 48.1118C80.9954 48.1764 81.4453 48.2451 81.8585 48.1722C84.9432 47.6265 87.783 48.3347 90.4898 49.7832C90.7813 49.9391 91.0736 50.0933 91.367 50.2464C91.3883 50.2574 91.4174 50.2517 91.4781 50.2568C95.1476 44.6031 99.9532 40.0541 105.498 36.2556C107.888 34.6183 110.472 33.3516 113.219 32.4275C113.596 32.3007 113.995 32.2409 114.498 32.1236C114.498 33.4433 114.627 34.6742 114.477 35.87C113.678 42.2195 111.679 48.1343 107.798 53.3007C105.529 56.3195 102.343 58.0753 98.9313 59.4796C98.4644 59.672 97.9921 59.8505 97.4745 60.0544C97.5696 60.2967 97.6321 60.5135 97.735 60.7084C98.7849 62.7055 99.3225 64.8401 99.4679 67.0834C99.5084 67.701 99.4914 68.2839 99.9412 68.8584C100.309 69.3275 100.442 70.0331 100.538 70.6551C101.09 74.2339 100.802 77.7471 99.3188 81.0701C98.011 83.9997 95.4148 85.358 92.1048 85.0126C93.6435 82.1194 93.4664 79.3858 91.2449 76.7176C91.2743 77.1584 91.316 77.47 91.3125 77.7807C91.2978 79.1041 91.3821 80.4399 91.224 81.7461C90.9024 84.3999 89.2925 85.5737 86.6523 85.2327C85.3721 85.0674 84.2536 84.527 83.3119 83.6636C82.0849 82.54 82.2747 81.2855 83.7699 80.5746C84.2957 80.3249 84.8705 80.1774 85.4256 79.9914C86.481 79.6374 86.7239 79.206 86.4205 78.1644C86.6055 78.0463 86.7958 77.9212 86.9892 77.8015C87.6305 77.4035 87.9304 76.8211 87.6788 76.1083C86.9431 74.0284 86.1562 71.967 85.3891 69.8984C85.3041 69.9268 85.2196 69.9555 85.1345 69.9843C85.3479 70.9172 85.5638 71.8495 85.7727 72.7828C85.8509 73.131 85.9305 73.4808 85.9785 73.8339C86.1395 75.0293 85.8719 75.3894 84.7255 75.6951C84.0134 75.8848 83.308 76.1151 82.6202 76.3804C81.7933 76.6986 81.0003 76.7211 80.1671 76.3861C79.4839 76.1115 78.7694 75.9091 78.059 75.7093C76.9997 75.4115 76.7209 75.1092 76.893 74.016C77.0988 72.7088 77.4238 71.4206 77.6957 70.1234C77.716 70.0284 77.7253 69.9308 77.6662 69.8088C76.7392 71.9593 75.4697 73.9702 75.1344 76.3513C75.045 76.9862 75.3157 77.4374 75.8214 77.7767C76.0298 77.9171 76.2473 78.0419 76.4478 78.1656ZM109.482 38.8502C109.307 38.9312 109.125 38.9985 108.96 39.0958C104.643 41.6419 101.28 45.1209 98.9062 49.5296C97.8377 51.5136 97.0824 53.6306 96.7769 55.8742C96.7238 56.2645 96.987 56.6978 97.1044 57.1111C97.5592 56.9645 98.1344 56.9416 98.4408 56.6427C98.9199 56.1755 99.2606 55.5448 99.584 54.9428C101.08 52.16 102.493 49.3313 104.045 46.5803C105.591 43.8363 107.324 41.2059 109.482 38.8502ZM53.4201 38.7787C53.3855 38.8238 53.3515 38.869 53.3167 38.9142C53.3875 39.0051 53.4524 39.1017 53.5302 39.1862C56.1898 42.0773 58.2669 45.363 60.0839 48.8273C61.3023 51.1504 62.5198 53.4741 63.7802 55.7744C64.0409 56.2501 64.4309 56.6996 64.8632 57.0266C65.5078 57.5141 66.1086 57.2101 66.098 56.4031C66.0895 55.7508 65.9495 55.0887 65.7883 54.4511C64.3228 48.6685 60.9253 44.2073 56.2498 40.6452C55.3532 39.9619 54.3657 39.3977 53.4201 38.7787ZM96.6631 64.2724C95.7542 63.8991 94.8043 63.3857 93.7894 63.1228C92.5322 62.7971 91.2808 62.9856 90.3276 63.9909C88.9055 65.4904 88.9133 69.5091 90.3071 71.0726C90.3177 71.0846 90.3536 71.0741 90.4069 71.0741C90.431 70.5777 90.4552 70.0735 90.4833 69.4987C92.0174 69.782 93.4653 70.1375 94.6898 69.0651C95.9772 67.9371 95.8498 66.588 94.9755 65.043C95.6308 65.2171 96.0788 65.3361 96.5067 65.4497C96.5518 65.1124 96.5929 64.8014 96.6631 64.2724ZM67.6447 65.166C67.4688 65.7587 67.2476 66.2309 67.1977 66.7204C67.0255 68.4116 68.3198 70.1185 70.8915 69.7284C72.3644 69.5044 72.3685 69.5342 72.4247 70.9954C72.4256 71.0196 72.4959 71.0412 72.5853 71.0944C73.6786 69.4194 73.7608 67.5903 73.3472 65.7302C72.9235 63.8257 71.6914 62.9562 69.7497 63.0007C68.3045 63.0343 67.1391 63.7113 66.067 64.5103C66.168 64.8423 66.2567 65.1335 66.3332 65.3848C66.7809 65.3103 67.1893 65.2422 67.6447 65.166Z" fill="white"/>
<path d="M56.2138 102.586C53.6007 102.666 51.023 102.745 48.23 102.831C48.7477 102.094 49.1412 101.514 49.5546 100.949C53.0651 96.1466 57.3003 92.095 62.2238 88.7641C63.0251 88.2219 63.8603 87.7264 64.7075 87.2583C64.8865 87.1594 65.3029 87.1779 65.41 87.307C67.2124 89.4868 69.3422 91.2975 71.633 92.9335C71.6868 92.9714 71.7064 93.0567 71.7629 93.1572C70.7616 93.5666 69.7697 93.9541 68.7924 94.3746C66.0345 95.56 63.4648 97.0443 61.2688 99.126C61.0641 99.3201 60.7435 99.4212 60.459 99.4968C59.5522 99.7384 58.794 100.184 58.1782 100.993C61.6775 99.9695 64.5699 101.573 65.3909 104.937C65.4744 105.278 65.5077 105.642 65.5019 105.995C65.4903 106.7 65.0779 107.088 64.3962 107.105C63.3322 107.13 62.4714 106.668 61.8203 105.839C61.3893 105.29 60.9972 104.71 60.604 104.167C60.7795 105.054 61.056 105.934 61.1068 106.827C61.184 108.174 60.5656 108.585 59.2797 108.147C57.3282 107.482 56.6399 105.886 56.3293 104.038C56.2544 103.593 56.255 103.134 56.2138 102.586Z" fill="white"/>
<path d="M98.2962 103.02C97.5115 103.746 96.8059 104.398 96.2009 104.958C86.2771 99.141 76.4776 99.3305 66.6094 104.945C66.0563 104.317 65.4377 103.615 64.7583 102.843C68.8897 99.815 73.7541 98.1895 79.0249 97.8054C86.0079 97.2958 92.4895 98.794 98.2962 103.02Z" fill="white"/>
<path d="M58.0024 123.533V109.674H61.5065L68.2377 118.9L67.426 118.702C67.3596 118.214 67.304 117.772 67.2573 117.376C67.2109 116.98 67.1714 116.604 67.1389 116.247C67.1057 115.891 67.0797 115.535 67.0593 115.179C67.0396 114.822 67.0301 114.433 67.0301 114.01C67.0301 113.588 67.0301 113.113 67.0301 112.585V109.674H70.811V123.533H67.2674L60.0215 113.634L61.3876 113.971C61.4537 114.512 61.5096 114.981 61.5563 115.377C61.6024 115.773 61.6387 116.129 61.6655 116.446C61.6915 116.762 61.7143 117.066 61.7345 117.356C61.7543 117.646 61.7671 117.957 61.774 118.286C61.7806 118.616 61.7835 118.992 61.7835 119.415V123.533H58.0024Z" fill="white"/>
<path d="M78.7299 123.731C77.6477 123.731 76.6512 123.553 75.7406 123.197C74.8297 122.84 74.041 122.342 73.3748 121.702C72.7081 121.062 72.1935 120.303 71.8308 119.425C71.4674 118.548 71.2861 117.581 71.2861 116.525C71.2861 115.482 71.4743 114.522 71.8505 113.644C72.2267 112.767 72.7515 112.005 73.4244 111.358C74.0975 110.711 74.8957 110.209 75.8201 109.853C76.7437 109.497 77.7532 109.319 78.8487 109.319C79.509 109.319 80.1519 109.401 80.7791 109.566C81.406 109.731 81.9965 109.972 82.551 110.289C83.1052 110.605 83.6001 111.001 84.0354 111.477L81.6794 114.209C81.4551 113.958 81.2045 113.733 80.927 113.536C80.6497 113.337 80.3369 113.182 79.9867 113.07C79.6368 112.958 79.2505 112.902 78.8288 112.902C78.3405 112.902 77.8814 112.984 77.4529 113.149C77.0237 113.314 76.6512 113.555 76.3341 113.872C76.0173 114.189 75.7697 114.571 75.5918 115.02C75.4136 115.469 75.3245 115.984 75.3245 116.564C75.3245 117.118 75.4136 117.617 75.5918 118.059C75.7697 118.502 76.0273 118.878 76.3637 119.188C76.6999 119.498 77.1029 119.739 77.5713 119.91C78.0401 120.082 78.5644 120.168 79.1455 120.168C79.554 120.168 79.94 120.108 80.3034 119.99C80.6658 119.871 80.9994 119.712 81.3028 119.514C81.6059 119.316 81.8769 119.098 82.1144 118.86L83.9757 121.811C83.6453 122.181 83.2 122.51 82.6392 122.801C82.0783 123.091 81.4577 123.319 80.7786 123.484C80.0991 123.649 79.416 123.731 78.7299 123.731Z" fill="white"/>
<path d="M82.1348 123.533L87.6583 109.674H90.8261L96.3096 123.533H92.4098L90.0339 117.099C89.9016 116.743 89.7828 116.413 89.6776 116.109C89.5718 115.806 89.4726 115.508 89.3807 115.218C89.2882 114.928 89.1988 114.631 89.1134 114.328C89.0273 114.024 88.9518 113.694 88.8861 113.337L89.5196 113.318C89.4404 113.7 89.3576 114.043 89.272 114.348C89.1861 114.651 89.0973 114.942 89.005 115.218C88.9125 115.496 88.8104 115.786 88.6984 116.09C88.5856 116.393 88.4634 116.73 88.3317 117.099L85.9559 123.533L82.1348 123.533ZM84.8275 121.237L85.9956 118.465H92.4105L93.499 121.237H84.8275Z" fill="white"/>
<path d="M95.7358 123.533V109.674H102.131C103.067 109.674 103.906 109.866 104.645 110.249C105.384 110.631 105.962 111.153 106.377 111.813C106.793 112.473 107 113.232 107 114.089C107 115.013 106.793 115.832 106.377 116.544C105.961 117.257 105.384 117.815 104.645 118.217C103.906 118.62 103.067 118.821 102.131 118.821H99.4182V123.532L95.7358 123.533ZM99.4182 116.01H101.596C101.939 116.01 102.226 115.941 102.457 115.803C102.688 115.664 102.867 115.473 102.992 115.229C103.117 114.984 103.18 114.697 103.18 114.367C103.18 114.051 103.114 113.777 102.982 113.546C102.85 113.315 102.655 113.137 102.398 113.011C102.141 112.886 101.82 112.823 101.438 112.823H99.4185L99.4182 116.01ZM103.16 123.533L99.6354 117.277L103.654 116.782L107.575 123.533L103.16 123.533Z" fill="white"/>
<path d="M114.048 123.731C112.979 123.731 111.996 123.553 111.098 123.197C110.201 122.84 109.422 122.339 108.762 121.692C108.102 121.045 107.591 120.283 107.228 119.405C106.865 118.528 106.683 117.568 106.683 116.525C106.683 115.469 106.865 114.506 107.228 113.634C107.591 112.763 108.102 112.004 108.762 111.358C109.422 110.711 110.201 110.21 111.098 109.853C111.996 109.497 112.979 109.319 114.048 109.319C115.117 109.319 116.098 109.497 116.988 109.853C117.879 110.21 118.658 110.711 119.324 111.358C119.991 112.005 120.502 112.764 120.859 113.634C121.215 114.506 121.393 115.462 121.393 116.505C121.393 117.561 121.215 118.528 120.859 119.405C120.503 120.283 119.991 121.045 119.324 121.692C118.658 122.339 117.879 122.84 116.988 123.197C116.097 123.553 115.117 123.731 114.048 123.731ZM114.048 120.088C114.524 120.088 114.965 120.002 115.375 119.831C115.783 119.659 116.14 119.412 116.444 119.088C116.747 118.765 116.981 118.385 117.147 117.95C117.311 117.514 117.394 117.039 117.394 116.524C117.394 116.009 117.311 115.534 117.147 115.098C116.981 114.663 116.748 114.284 116.444 113.96C116.14 113.637 115.783 113.389 115.375 113.217C114.965 113.046 114.523 112.959 114.048 112.959C113.56 112.959 113.111 113.046 112.702 113.217C112.293 113.389 111.936 113.636 111.633 113.96C111.329 114.283 111.095 114.659 110.931 115.088C110.765 115.517 110.683 115.996 110.683 116.523C110.683 117.038 110.765 117.513 110.931 117.949C111.095 118.385 111.329 118.764 111.633 119.088C111.936 119.411 112.293 119.659 112.702 119.83C113.111 120.002 113.56 120.088 114.048 120.088Z" fill="white"/>
<path d="M128.401 123.731C127.332 123.731 126.349 123.553 125.451 123.197C124.553 122.84 123.775 122.339 123.115 121.692C122.455 121.045 121.944 120.283 121.581 119.405C121.218 118.528 121.036 117.568 121.036 116.525C121.036 115.469 121.218 114.506 121.581 113.634C121.944 112.763 122.455 112.004 123.115 111.358C123.775 110.711 124.553 110.21 125.451 109.853C126.349 109.497 127.332 109.319 128.401 109.319C129.47 109.319 130.45 109.497 131.341 109.853C132.232 110.21 133.01 110.711 133.677 111.358C134.344 112.005 134.855 112.764 135.211 113.634C135.568 114.506 135.746 115.462 135.746 116.505C135.746 117.561 135.568 118.528 135.211 119.405C134.855 120.283 134.343 121.045 133.677 121.692C133.01 122.339 132.232 122.84 131.341 123.197C130.45 123.553 129.47 123.731 128.401 123.731ZM128.401 120.088C128.876 120.088 129.318 120.002 129.728 119.831C130.137 119.659 130.493 119.412 130.797 119.088C131.1 118.765 131.334 118.385 131.499 117.95C131.664 117.514 131.747 117.039 131.747 116.524C131.747 116.009 131.664 115.534 131.499 115.098C131.334 114.663 131.1 114.284 130.797 113.96C130.493 113.637 130.137 113.389 129.728 113.217C129.318 113.046 128.876 112.959 128.401 112.959C127.913 112.959 127.464 113.046 127.055 113.217C126.645 113.389 126.289 113.636 125.986 113.96C125.682 114.283 125.448 114.659 125.283 115.088C125.118 115.517 125.036 115.996 125.036 116.523C125.036 117.038 125.118 117.513 125.283 117.949C125.448 118.385 125.682 118.764 125.986 119.088C126.289 119.411 126.646 119.659 127.055 119.83C127.464 120.002 127.912 120.088 128.401 120.088Z" fill="white"/>
<path d="M58.5771 123.533L53.0934 109.674H49.9257L46.2231 118.962L48.741 122.129L49.0705 121.237H53.8283L54.676 123.533H58.5771ZM50.0944 118.465L50.5989 117.099C50.7305 116.73 50.8528 116.393 50.9653 116.089C51.0771 115.786 51.1794 115.495 51.2722 115.218C51.3377 115.023 51.4008 114.818 51.4627 114.608C51.5231 114.814 51.5847 115.019 51.6484 115.218C51.7409 115.509 51.8395 115.806 51.9451 116.109C52.0506 116.413 52.1695 116.743 52.3013 117.099L52.8058 118.465H50.0944Z" fill="white"/>
<path d="M30 128.519V107.748H35.8748V128.519H30ZM34.1539 122.555L32.3142 117.985L42.3728 107.748H49.1384L34.1539 122.555ZM45.9974 133.451L34.0942 118.575L37.9514 115.252L53.3325 133.451H45.9974Z" fill="white"/>
<path d="M57.4758 132.965C56.9836 132.965 56.5302 132.879 56.1162 132.705C55.7026 132.531 55.3445 132.285 55.0424 131.966C54.7401 131.647 54.5057 131.271 54.3383 130.838C54.1702 130.404 54.0869 129.932 54.0869 129.42C54.0869 128.914 54.1702 128.449 54.3383 128.025C54.5061 127.602 54.7436 127.231 55.0525 126.913C55.3608 126.594 55.719 126.349 56.1266 126.179C56.5329 126.008 56.9799 125.923 57.4661 125.923C57.7876 125.923 58.1065 125.974 58.4215 126.075C58.7369 126.177 59.0271 126.317 59.2937 126.494C59.5595 126.671 59.7774 126.875 59.9485 127.105L59.4166 127.656C59.2525 127.46 59.0641 127.289 58.8505 127.144C58.6368 126.999 58.4117 126.888 58.1756 126.809C57.9392 126.73 57.7025 126.691 57.4659 126.691C57.0977 126.691 56.7554 126.758 56.4362 126.893C56.1172 127.028 55.8439 127.216 55.6143 127.459C55.3841 127.702 55.2056 127.991 55.0773 128.326C54.9491 128.661 54.8854 129.025 54.8854 129.42C54.8854 129.826 54.9491 130.201 55.0773 130.542C55.2056 130.884 55.3889 131.178 55.6291 131.424C55.8684 131.67 56.1509 131.861 56.476 131.995C56.8011 132.13 57.1649 132.197 57.5643 132.197C57.8009 132.197 58.0375 132.162 58.2747 132.094C58.5111 132.025 58.7276 131.928 58.9243 131.803C59.1214 131.679 59.2889 131.538 59.4272 131.379L59.8208 132.02C59.6696 132.204 59.4682 132.366 59.2151 132.508C58.9622 132.649 58.685 132.76 58.3832 132.843C58.0799 132.924 57.7779 132.965 57.4758 132.965Z" fill="white"/>
<path d="M57.4756 133.194C56.9552 133.194 56.4678 133.1 56.0275 132.916C55.5851 132.729 55.1979 132.463 54.8763 132.123C54.5559 131.785 54.3031 131.381 54.1253 130.92C53.9481 130.463 53.8584 129.958 53.8584 129.42C53.8584 128.886 53.9484 128.389 54.1259 127.941C54.3046 127.49 54.5612 127.091 54.8883 126.753C55.2158 126.415 55.6026 126.15 56.0379 125.968C56.4707 125.786 56.9512 125.694 57.4658 125.694C57.8093 125.694 58.1546 125.749 58.4914 125.858C58.824 125.966 59.1362 126.115 59.4196 126.303C59.7052 126.494 59.9448 126.717 60.1318 126.968L60.2475 127.124L59.4042 127.998L59.2412 127.803C59.0907 127.622 58.916 127.464 58.7223 127.333C58.5276 127.201 58.3192 127.098 58.1033 127.026C57.8912 126.956 57.6767 126.92 57.4658 126.92C57.131 126.92 56.8146 126.982 56.5249 127.103C56.2372 127.225 55.9866 127.398 55.7803 127.616C55.5724 127.836 55.4075 128.102 55.2907 128.408C55.1734 128.714 55.1141 129.055 55.1141 129.42C55.1141 129.798 55.1737 130.149 55.2913 130.462C55.4076 130.773 55.5764 131.043 55.7927 131.265C56.01 131.488 56.2691 131.663 56.5632 131.785C56.8592 131.907 57.1959 131.969 57.5645 131.969C57.777 131.969 57.9946 131.937 58.2109 131.875C58.4257 131.812 58.6246 131.723 58.8024 131.611C58.9796 131.499 59.1318 131.37 59.2553 131.229L59.4594 130.996L60.101 132.039L59.9975 132.165C59.828 132.372 59.6021 132.554 59.3261 132.708C59.0587 132.857 58.7615 132.977 58.443 133.063C58.1216 133.15 57.7961 133.194 57.4756 133.194ZM57.4658 126.151C57.012 126.151 56.5912 126.231 56.2146 126.389C55.8365 126.548 55.501 126.777 55.2165 127.071C54.931 127.366 54.707 127.715 54.5503 128.109C54.3942 128.503 54.315 128.944 54.315 129.42C54.315 129.902 54.3946 130.351 54.551 130.756C54.7074 131.16 54.9284 131.514 55.2077 131.809C55.4856 132.102 55.8209 132.333 56.2046 132.494C56.5882 132.656 57.0158 132.737 57.4755 132.737C57.7557 132.737 58.0413 132.699 58.3241 132.622C58.606 132.546 58.8684 132.44 59.1037 132.308C59.2734 132.214 59.4181 132.108 59.5361 131.993L59.3839 131.745C59.2812 131.836 59.1688 131.92 59.0469 131.997C58.833 132.132 58.5948 132.239 58.3385 132.313C58.0805 132.388 57.82 132.426 57.5645 132.426C57.1354 132.426 56.7398 132.352 56.3884 132.207C56.0367 132.062 55.726 131.852 55.4652 131.583C55.2046 131.316 55.002 130.993 54.8633 130.623C54.7263 130.258 54.6569 129.854 54.6569 129.42C54.6569 128.998 54.7264 128.603 54.8638 128.245C55.0022 127.883 55.1988 127.566 55.4484 127.303C55.6981 127.038 56.0004 126.829 56.3472 126.683C56.6934 126.537 57.0697 126.463 57.4657 126.463C57.7258 126.463 57.9889 126.506 58.2474 126.593C58.5029 126.678 58.7488 126.8 58.9782 126.955C59.1374 127.063 59.2858 127.186 59.4212 127.322L59.6429 127.092C59.5086 126.942 59.349 126.805 59.1667 126.684C58.9182 126.519 58.6436 126.387 58.3507 126.293C58.0596 126.199 57.7618 126.151 57.4658 126.151Z" fill="white"/>
<path d="M57.4759 133.197C56.9552 133.197 56.4672 133.103 56.0264 132.918C55.5835 132.732 55.196 132.465 54.8743 132.125C54.5532 131.787 54.3004 131.382 54.1224 130.922C53.9452 130.464 53.8555 129.959 53.8555 129.42C53.8555 128.886 53.9455 128.388 54.1233 127.94C54.302 127.489 54.5589 127.089 54.8864 126.751C55.2141 126.412 55.601 126.148 56.0371 125.965C56.47 125.783 56.951 125.691 57.4663 125.691C57.8102 125.691 58.1558 125.746 58.4929 125.855C58.8257 125.963 59.1383 126.113 59.422 126.301C59.7076 126.491 59.9475 126.715 60.1348 126.966L60.2524 127.124L59.4043 128.003L59.2392 127.805C59.089 127.624 58.9146 127.467 58.7211 127.336C58.5265 127.204 58.3181 127.101 58.1026 127.029C57.891 126.958 57.6768 126.923 57.4663 126.923C57.1319 126.923 56.816 126.984 56.5268 127.106C56.2397 127.228 55.9895 127.4 55.7834 127.618C55.5756 127.838 55.411 128.104 55.2942 128.409C55.1769 128.715 55.1178 129.055 55.1178 129.42C55.1178 129.798 55.1773 130.148 55.2946 130.461C55.4111 130.772 55.5796 131.041 55.7956 131.262C56.0127 131.486 56.2714 131.66 56.5649 131.781C56.8603 131.904 57.1967 131.966 57.5649 131.966C57.7774 131.966 57.9945 131.934 58.2104 131.871C58.4253 131.809 58.6242 131.72 58.8009 131.608C58.9782 131.496 59.1302 131.368 59.2533 131.227L59.4605 130.991L60.105 132.04L60.0004 132.167C59.8309 132.374 59.6047 132.557 59.3282 132.711C59.0605 132.86 58.7632 132.98 58.4446 133.066C58.1221 133.153 57.7964 133.197 57.4759 133.197ZM57.4661 126.154C57.0126 126.154 56.5921 126.234 56.2164 126.392C55.8383 126.551 55.5032 126.78 55.2191 127.074C54.9339 127.368 54.71 127.716 54.5537 128.111C54.3978 128.504 54.3188 128.944 54.3188 129.42C54.3188 129.901 54.3983 130.35 54.5543 130.754C54.7106 131.158 54.9313 131.512 55.2103 131.806C55.4879 132.1 55.8227 132.33 56.2061 132.491C56.5894 132.652 57.0167 132.734 57.4758 132.734C57.7554 132.734 58.0406 132.696 58.3234 132.619C58.6049 132.543 58.8675 132.437 59.1024 132.306C59.2711 132.212 59.4152 132.107 59.5325 131.992L59.3832 131.75C59.2815 131.84 59.1697 131.923 59.0487 131.999C58.8353 132.135 58.5967 132.242 58.3395 132.316C58.0814 132.391 57.8206 132.429 57.5646 132.429C57.1349 132.429 56.7388 132.355 56.3874 132.209C56.0352 132.064 55.7244 131.854 55.4629 131.585C55.2023 131.318 54.9994 130.995 54.8602 130.624C54.7232 130.259 54.6537 129.854 54.6537 129.42C54.6537 128.998 54.7235 128.602 54.8607 128.244C54.9993 127.881 55.1963 127.564 55.4461 127.3C55.6966 127.035 55.9993 126.826 56.3462 126.679C56.6927 126.533 57.0694 126.459 57.4658 126.459C57.7264 126.459 57.9899 126.503 58.2486 126.59C58.5044 126.675 58.7505 126.797 58.9803 126.952C59.1386 127.059 59.2865 127.182 59.4211 127.318L59.6387 127.092C59.505 126.943 59.3464 126.808 59.1648 126.687C58.9168 126.522 58.6425 126.39 58.3496 126.296C58.0592 126.202 57.7618 126.154 57.4661 126.154Z" fill="white"/>
<path d="M57.4759 133.426C56.9243 133.426 56.4068 133.326 55.938 133.129C55.4656 132.93 55.0519 132.645 54.7083 132.282C54.3673 131.923 54.0984 131.493 53.9092 131.004C53.722 130.52 53.627 129.987 53.627 129.42C53.627 128.857 53.7223 128.331 53.9107 127.856C54.1009 127.376 54.3739 126.951 54.7225 126.592C55.0715 126.231 55.4841 125.949 55.9485 125.754C56.4102 125.56 56.9207 125.462 57.4662 125.462C57.8334 125.462 58.2026 125.521 58.5627 125.637C58.9161 125.752 59.2474 125.911 59.5482 126.11C59.8564 126.316 60.1151 126.558 60.318 126.83L60.5514 127.143L59.392 128.345L59.0635 127.951C58.9268 127.788 58.7683 127.644 58.593 127.525C58.4158 127.405 58.2266 127.311 58.0303 127.246C57.842 127.183 57.6519 127.151 57.4661 127.151C57.1627 127.151 56.8764 127.207 56.6152 127.317C56.3575 127.426 56.1333 127.58 55.9491 127.775C55.7616 127.973 55.6132 128.214 55.5072 128.491C55.4002 128.771 55.3457 129.083 55.3457 129.42C55.3457 129.77 55.4004 130.094 55.508 130.381C55.6132 130.661 55.7649 130.904 55.9586 131.103C56.154 131.304 56.387 131.461 56.6515 131.57C56.9193 131.681 57.2264 131.738 57.5645 131.738C57.7554 131.738 57.9513 131.709 58.1464 131.652C58.341 131.595 58.52 131.516 58.678 131.415C58.8375 131.314 58.973 131.201 59.0811 131.077L59.4926 130.607L60.3849 132.059L60.1765 132.312C59.9885 132.541 59.7405 132.742 59.4396 132.91C59.1557 133.068 58.8412 133.195 58.5045 133.287C58.1617 133.379 57.8161 133.426 57.4759 133.426ZM57.4661 125.919C56.9816 125.919 56.5305 126.005 56.1252 126.176C55.7182 126.346 55.3566 126.593 55.0505 126.91C54.7435 127.226 54.5031 127.601 54.3351 128.024C54.1682 128.445 54.0837 128.915 54.0837 129.42C54.0837 129.931 54.1682 130.408 54.3351 130.839C54.5028 131.272 54.7398 131.652 55.0398 131.968C55.3397 132.284 55.7014 132.533 56.1151 132.708C56.5273 132.881 56.9853 132.969 57.4757 132.969C57.7757 132.969 58.0814 132.927 58.3849 132.846C58.6855 132.764 58.9652 132.651 59.2169 132.511C59.4547 132.378 59.6506 132.224 59.7993 132.051L59.6918 132.156C59.5606 132.284 59.3998 132.401 59.2136 132.505C58.9632 132.645 58.6838 132.758 58.3835 132.839C58.0813 132.921 57.7761 132.962 57.4759 132.962C56.9859 132.962 56.529 132.875 56.1176 132.702C55.7049 132.528 55.3438 132.28 55.0445 131.963C54.7449 131.648 54.5083 131.269 54.3414 130.837C54.1748 130.406 54.0901 129.929 54.0901 129.42C54.0901 128.916 54.1748 128.447 54.3414 128.026C54.5086 127.605 54.7487 127.23 55.0552 126.914C55.3605 126.599 55.7214 126.352 56.1281 126.182C56.5317 126.012 56.9821 125.926 57.4661 125.926C57.7845 125.926 58.1056 125.977 58.42 126.078C58.732 126.179 59.0251 126.32 59.2912 126.496C59.4886 126.628 59.6625 126.776 59.8087 126.939L59.9237 127.067C59.7562 126.851 59.5449 126.657 59.2952 126.491C59.0295 126.315 58.7356 126.174 58.422 126.072C58.1076 125.971 57.7858 125.919 57.4661 125.919ZM57.4661 126.688C57.1004 126.688 56.7536 126.756 56.4353 126.89C56.1179 127.024 55.8412 127.215 55.6127 127.457C55.3832 127.699 55.2022 127.991 55.0747 128.325C54.947 128.658 54.8824 129.026 54.8824 129.42C54.8824 129.826 54.947 130.204 55.0745 130.543C55.2022 130.884 55.3883 131.181 55.6267 131.426C55.8666 131.673 56.1519 131.865 56.4748 131.998C56.7986 132.133 57.1655 132.201 57.5647 132.201C57.7988 132.201 58.0383 132.166 58.2762 132.097C58.5123 132.028 58.7311 131.93 58.9262 131.806C59.0372 131.736 59.1399 131.66 59.2324 131.579L59.4361 131.4L59.8207 132.026C59.8216 132.024 59.8227 132.023 59.8238 132.022L59.825 132.021L59.4278 131.375L59.425 131.378C59.2878 131.534 59.119 131.677 58.9228 131.801C58.7288 131.924 58.5106 132.022 58.2742 132.091C58.0375 132.16 57.7989 132.194 57.5647 132.194C57.1664 132.194 56.8005 132.127 56.4771 131.993C56.1549 131.86 55.87 131.668 55.6314 131.422C55.3933 131.178 55.2076 130.882 55.0802 130.542C54.9532 130.203 54.8888 129.826 54.8888 129.42C54.8888 129.027 54.9534 128.659 55.0803 128.328C55.2076 127.994 55.3884 127.703 55.6172 127.462C55.8445 127.22 56.1208 127.03 56.4374 126.896C56.7551 126.762 57.1012 126.695 57.4659 126.695C57.7009 126.695 57.9395 126.735 58.1744 126.813C58.4103 126.891 58.6373 127.004 58.8487 127.147C59.0599 127.29 59.25 127.462 59.4142 127.659L59.4165 127.662L59.9528 127.106L59.9512 127.103C59.9504 127.102 59.9496 127.101 59.9487 127.1L59.4234 127.645L59.2589 127.479C59.135 127.354 58.9985 127.241 58.8524 127.142C58.6402 126.998 58.4129 126.886 58.1765 126.807C57.9418 126.728 57.7026 126.688 57.4661 126.688Z" fill="white"/>
<path d="M61.4946 132.867L64.1348 125.971H65.0116L67.6316 132.867H66.7945L65.1097 128.395C65.0636 128.27 65.0125 128.124 64.9572 127.956C64.9009 127.788 64.8424 127.615 64.779 127.434C64.717 127.254 64.6576 127.078 64.6023 126.907C64.5463 126.737 64.4956 126.585 64.4495 126.454H64.6464C64.5933 126.618 64.5395 126.785 64.4838 126.952C64.4279 127.119 64.3709 127.286 64.3114 127.454C64.2521 127.622 64.1933 127.788 64.1341 127.951C64.0748 128.115 64.0159 128.28 63.9563 128.444L62.2818 132.867L61.4946 132.867ZM62.6176 130.966L62.9033 130.217H66.1642L66.48 130.966H62.6176Z" fill="white"/>
<path d="M67.9632 133.096H66.6367L65.9203 131.194H63.1596L62.4398 133.096H61.1626L63.978 125.743H65.1692L67.9632 133.096ZM66.9529 132.639H67.3006L66.7517 131.194H66.4084L66.9529 132.639ZM61.827 132.639H62.124L62.671 131.194H62.38L61.827 132.639ZM63.3326 130.737H65.7482L65.6385 130.446H63.443L63.3326 130.737ZM65.9546 129.989H66.294L64.9161 126.363L64.7913 126.749V126.749L64.8198 126.836C64.8748 127.006 64.9337 127.18 64.9954 127.36C65.0587 127.54 65.1176 127.715 65.1741 127.883C65.2288 128.049 65.2792 128.193 65.3243 128.315L65.9546 129.989ZM63.6157 129.989H65.4664L64.8961 128.475C64.8486 128.347 64.7967 128.198 64.7403 128.028C64.6847 127.862 64.6266 127.689 64.5635 127.51C64.5587 127.496 64.5538 127.481 64.5486 127.467C64.5413 127.488 64.5339 127.509 64.5264 127.53C64.4675 127.698 64.4084 127.864 64.3491 128.029L64.1709 128.522L63.6157 129.989ZM62.8415 129.989H63.1274L63.9195 127.874C63.9781 127.711 64.0371 127.545 64.0959 127.378C64.1551 127.211 64.2116 127.046 64.2669 126.879L64.3098 126.75C64.2831 126.671 64.258 126.598 64.2341 126.53L64.2014 126.437L62.8415 129.989ZM64.2824 126.226H64.8641L64.8543 126.2H64.2923L64.2824 126.226Z" fill="white"/>
<path d="M67.9676 133.099H66.6343L65.9178 131.197H63.1614L62.4418 133.099H61.1577L63.9755 125.739H65.1712L67.9676 133.099ZM66.9547 132.635H67.2957L66.7497 131.197H66.4136L66.9547 132.635ZM61.8314 132.635H62.1217L62.6662 131.197H62.3822L61.8314 132.635ZM65.7436 130.734L65.6362 130.449H63.445L63.337 130.734H65.7436ZM65.9567 129.985H66.2891L64.9163 126.372L64.7944 126.749L64.7947 126.749L64.7944 126.75L64.8224 126.835C64.8776 127.005 64.9366 127.179 64.9984 127.359C65.0614 127.539 65.1204 127.714 65.1769 127.883C65.2319 128.048 65.2821 128.192 65.3273 128.314L65.9567 129.985ZM63.6204 129.985H65.4614L64.893 128.476C64.8457 128.348 64.7938 128.199 64.7373 128.029C64.6817 127.863 64.6234 127.69 64.5606 127.511C64.5566 127.5 64.5526 127.488 64.5486 127.477C64.5425 127.495 64.5361 127.513 64.5295 127.532C64.4707 127.699 64.4115 127.865 64.3522 128.03L64.174 128.523L63.6204 129.985ZM62.8461 129.985H63.125L63.9163 127.873C63.9751 127.71 64.0339 127.544 64.0928 127.377C64.1519 127.21 64.2084 127.045 64.2637 126.878L64.3058 126.751C64.2795 126.672 64.2544 126.598 64.2306 126.53L64.2012 126.446L62.8461 129.985ZM64.2868 126.222H64.8589L64.8515 126.203H64.2943L64.2868 126.222Z" fill="white"/>
<path d="M68.2989 133.327H66.4762L65.7599 131.426H63.3195L62.5998 133.327H60.8257L63.8185 125.511H65.3288L68.2989 133.327ZM66.7927 132.87H67.6365L65.0141 125.968H65.007L65.1301 126.291L66.6203 130.214H65.7986L65.1136 128.395C65.067 128.269 65.016 128.123 64.9601 127.954C64.9041 127.787 64.8456 127.613 64.7827 127.434C64.7201 127.252 64.6608 127.077 64.6052 126.905L64.54 126.708L64.5887 126.643L64.651 126.451H64.4449L64.4466 126.455C64.4706 126.524 64.4962 126.598 64.5229 126.678L64.547 126.75L64.4807 126.95C64.4247 127.118 64.3679 127.285 64.3082 127.454C64.2492 127.621 64.1901 127.787 64.1315 127.95L63.2834 130.214H62.5138L63.9548 126.451H63.9526L64.1397 125.968H64.1327L61.4899 132.87H62.2841L63.0038 130.969H66.0761L66.7927 132.87ZM64.2791 125.974L64.8067 125.968H64.2768L64.2791 125.974ZM67.6271 132.864H66.7971L66.0833 130.969H66.9072L67.6271 132.864ZM62.2795 132.864H61.4994L62.2249 130.969H62.9969L62.2795 132.864ZM66.0736 130.963H63.0064L63.2874 130.22H65.7943L66.0736 130.963ZM65.7917 130.214H63.2895L63.9605 128.442L64.1374 127.952C64.1964 127.788 64.2554 127.623 64.314 127.456L64.3325 127.403L64.5463 126.777L64.7758 127.435C64.8392 127.616 64.898 127.789 64.9537 127.956C65.0095 128.125 65.0606 128.271 65.1075 128.397L65.7917 130.214ZM63.9513 129.757H65.1315L64.6795 128.557C64.6375 128.443 64.5924 128.315 64.5441 128.171L64.3889 128.601L63.9513 129.757Z" fill="white"/>
<path d="M69.8784 132.867V125.971H72.5773C72.9783 125.971 73.3409 126.064 73.6658 126.252C73.991 126.439 74.2487 126.693 74.4398 127.015C74.6298 127.337 74.7253 127.702 74.7253 128.109C74.7253 128.49 74.6332 128.835 74.4493 129.143C74.2651 129.453 74.0161 129.697 73.7002 129.877C73.385 130.058 73.0308 130.148 72.6364 130.148H70.6463V132.867L69.8784 132.867ZM70.6463 129.4H72.7054C72.948 129.4 73.1616 129.344 73.3459 129.231C73.5295 129.12 73.6741 128.967 73.7792 128.774C73.8834 128.58 73.9363 128.358 73.9363 128.108C73.9363 127.839 73.8739 127.599 73.7491 127.389C73.6238 127.179 73.4511 127.015 73.2317 126.896C73.0115 126.778 72.7602 126.719 72.4779 126.719H70.6455L70.6463 129.4ZM74.0846 132.867L72.3511 129.833L73.0895 129.577L75.0005 132.868L74.0846 132.867Z" fill="white"/>
<path d="M75.3973 133.096L73.9516 133.096L72.3979 130.376H70.8748V133.095L69.6499 133.096V125.743H72.5771C73.017 125.743 73.4218 125.848 73.7796 126.054C74.1378 126.26 74.4261 126.545 74.636 126.899C74.8467 127.256 74.9536 127.663 74.9536 128.109C74.9536 128.53 74.8496 128.918 74.6451 129.26C74.4417 129.602 74.162 129.876 73.8132 130.075C73.7708 130.1 73.7271 130.123 73.6826 130.145L75.3973 133.096ZM74.2165 132.639L74.6031 132.639L73.2466 130.303C73.1394 130.33 73.029 130.35 72.9157 130.362L74.2165 132.639ZM70.1067 126.2V132.638L70.4176 132.638V129.92H72.1368L72.0157 129.708L72.2455 129.628H70.4178L70.4169 126.49H72.4777C72.7969 126.49 73.0869 126.559 73.3396 126.695C73.5959 126.833 73.7997 127.028 73.9453 127.273C74.0906 127.518 74.1644 127.799 74.1644 128.108C74.1644 128.394 74.1024 128.654 73.9801 128.882C73.8551 129.112 73.6818 129.295 73.4642 129.427C73.4152 129.457 73.3644 129.483 73.312 129.506L73.4526 129.748C73.4982 129.727 73.5428 129.704 73.5866 129.679C73.8698 129.517 74.0877 129.304 74.2528 129.026C74.4145 128.755 74.4967 128.447 74.4967 128.109C74.4967 127.746 74.4112 127.417 74.2428 127.132C74.0713 126.842 73.845 126.619 73.5516 126.45C73.2598 126.281 72.9409 126.2 72.5771 126.2L70.1067 126.2ZM72.9862 129.855L72.8222 129.912C72.8845 129.907 72.9455 129.899 73.0053 129.888L72.9862 129.855ZM70.8745 129.171H72.7052C72.907 129.171 73.0778 129.127 73.2269 129.036C73.3768 128.945 73.4916 128.824 73.5783 128.664C73.6639 128.505 73.7077 128.318 73.7077 128.108C73.7077 127.882 73.6555 127.68 73.5524 127.506C73.4481 127.331 73.3077 127.197 73.1231 127.097C72.9379 126.998 72.7208 126.947 72.4777 126.947H70.8741L70.8745 129.171Z" fill="white"/>
<path d="M75.4033 133.099L73.95 133.099L72.3965 130.38H70.8786V133.098L69.647 133.099V125.739H72.5775C73.0183 125.739 73.4232 125.845 73.7819 126.051C74.1407 126.258 74.4293 126.543 74.6394 126.897C74.8504 127.255 74.9574 127.662 74.9574 128.109C74.9574 128.531 74.8536 128.918 74.6482 129.262C74.4447 129.604 74.1644 129.879 73.8156 130.078C73.7741 130.102 73.7312 130.125 73.6879 130.146L75.4033 133.099ZM74.2189 132.635L74.598 132.636L73.2454 130.307C73.1403 130.334 73.0324 130.353 72.9214 130.364L74.2189 132.635ZM70.11 126.203V132.635H70.415V129.916H72.1318L72.0114 129.706L72.227 129.632H70.415L70.4142 126.487H72.4781C72.798 126.487 73.0883 126.556 73.3415 126.692C73.5986 126.831 73.8026 127.026 73.9483 127.271C74.0943 127.517 74.1682 127.799 74.1682 128.108C74.1682 128.395 74.1062 128.656 73.9834 128.883C73.8586 129.113 73.685 129.297 73.4663 129.429C73.4184 129.459 73.3686 129.485 73.3172 129.508L73.4542 129.744C73.4989 129.723 73.5426 129.701 73.5855 129.676C73.8683 129.515 74.0857 129.302 74.25 129.025C74.412 128.754 74.4938 128.446 74.4938 128.109C74.4938 127.747 74.4085 127.418 74.2405 127.134C74.0693 126.844 73.8435 126.622 73.5502 126.453C73.2589 126.285 72.9408 126.203 72.5773 126.203H70.11V126.203ZM72.9851 129.859L72.8479 129.906C72.8996 129.902 72.9506 129.894 73.0005 129.886L72.9851 129.859ZM70.8785 129.168H72.7056C72.907 129.168 73.0771 129.124 73.2256 129.034C73.3752 128.942 73.4897 128.821 73.5756 128.663C73.6614 128.504 73.705 128.317 73.705 128.108C73.705 127.88 73.6544 127.683 73.5502 127.507C73.4463 127.333 73.306 127.2 73.1221 127.1C72.9375 127.001 72.7206 126.951 72.4783 126.951H70.8777L70.8785 129.168Z" fill="white"/>
<path d="M75.8002 133.328L73.8175 133.327L72.2638 130.608H71.1069V133.326L69.4185 133.327V125.511H72.5774C73.0588 125.511 73.5024 125.626 73.8961 125.854C74.2888 126.08 74.6053 126.392 74.8359 126.781C75.068 127.174 75.1856 127.621 75.1856 128.109C75.1856 128.572 75.0709 129 74.8443 129.379C74.6351 129.73 74.3524 130.018 74.0025 130.233L75.8002 133.328ZM74.0824 132.87L75.0062 132.871L73.367 130.049L73.5869 129.941C73.626 129.922 73.6642 129.902 73.7021 129.88C74.0167 129.7 74.2689 129.453 74.4519 129.145C74.6353 128.837 74.7286 128.489 74.7286 128.109C74.7286 127.704 74.6321 127.335 74.4425 127.014C74.2528 126.693 73.9921 126.436 73.6678 126.249C73.3442 126.063 72.9772 125.968 72.5773 125.968H69.8754V132.87L70.65 132.87V130.151L71.4586 130.145H70.6435V132.864H69.8816V125.974H72.5773C72.9816 125.974 73.3372 126.066 73.6642 126.255C73.9925 126.444 74.2452 126.693 74.4369 127.017C74.6263 127.338 74.7221 127.705 74.7221 128.109C74.7221 128.488 74.6293 128.835 74.4462 129.142C74.2612 129.453 74.0167 129.692 73.6987 129.875C73.6503 129.902 73.6008 129.928 73.55 129.951L73.3612 130.039L73.091 129.574L72.3464 129.832L72.3493 129.837L73.0885 129.581L73.3557 130.044L73.3566 130.044L74.9951 132.864L74.0865 132.864L72.5494 130.174L72.8971 130.138C72.9963 130.127 73.0951 130.109 73.1896 130.086L73.2055 130.082L73.0398 130.111C72.9841 130.121 72.9267 130.128 72.8685 130.134L72.5364 130.164L74.0824 132.87ZM70.6431 129.403H72.9919L72.9916 129.402L73.2242 129.299C73.2672 129.28 73.3086 129.258 73.347 129.234C73.5312 129.123 73.6774 128.968 73.7826 128.774C73.8869 128.581 73.9398 128.357 73.9398 128.108C73.9398 127.84 73.8766 127.598 73.7518 127.387C73.6276 127.178 73.4529 127.012 73.2327 126.893C73.0136 126.775 72.7596 126.716 72.478 126.716H70.6428L70.6431 129.403ZM72.7056 129.396H70.6498L70.6489 126.722H72.478C72.7592 126.722 73.012 126.782 73.23 126.899C73.4517 127.018 73.6206 127.179 73.7463 127.391C73.872 127.603 73.9331 127.838 73.9331 128.108C73.9331 128.355 73.8806 128.578 73.7766 128.771C73.6707 128.967 73.5293 129.116 73.3442 129.229C73.1589 129.342 72.9499 129.396 72.7056 129.396ZM71.1066 128.94H72.7054C72.8636 128.94 72.9947 128.906 73.1063 128.839C73.2223 128.768 73.3075 128.677 73.3745 128.554C73.4418 128.429 73.4761 128.279 73.4761 128.108C73.4761 127.922 73.4358 127.764 73.3531 127.624C73.2701 127.484 73.162 127.382 73.013 127.302C72.8628 127.221 72.6826 127.18 72.4779 127.18H71.1058L71.1066 128.94Z" fill="white"/>
<path d="M83.9653 132.965C83.4724 132.965 83.0193 132.879 82.6059 132.705C82.1917 132.531 81.8342 132.285 81.5319 131.966C81.23 131.647 80.9951 131.271 80.8274 130.838C80.6601 130.404 80.5762 129.932 80.5762 129.42C80.5762 128.914 80.6601 128.449 80.8274 128.025C80.9954 127.602 81.2331 127.231 81.5416 126.913C81.8501 126.594 82.2083 126.349 82.6152 126.179C83.0228 126.008 83.4689 125.923 83.9553 125.923C84.2773 125.923 84.5957 125.974 84.9112 126.075C85.2259 126.177 85.5168 126.317 85.7832 126.494C86.049 126.671 86.2672 126.875 86.4384 127.105L85.906 127.656C85.742 127.46 85.5539 127.289 85.3396 127.144C85.126 126.999 84.901 126.888 84.665 126.809C84.4286 126.73 84.192 126.691 83.9553 126.691C83.5874 126.691 83.2442 126.758 82.9256 126.893C82.607 127.027 82.3333 127.216 82.1035 127.459C81.8731 127.702 81.6945 127.991 81.5662 128.326C81.4384 128.661 81.3747 129.025 81.3747 129.42C81.3747 129.826 81.4384 130.201 81.5662 130.542C81.6941 130.884 81.878 131.178 82.1176 131.424C82.3571 131.67 82.64 131.861 82.9649 131.995C83.2903 132.13 83.6532 132.197 84.0541 132.197C84.2902 132.197 84.5263 132.162 84.7632 132.094C84.9999 132.025 85.2165 131.928 85.4133 131.803C85.6107 131.679 85.7777 131.538 85.9157 131.379L86.3103 132.02C86.1593 132.204 85.9573 132.366 85.7045 132.508C85.452 132.649 85.1741 132.76 84.8719 132.843C84.5692 132.924 84.2671 132.965 83.9653 132.965Z" fill="white"/>
<path d="M83.9655 133.194C83.4446 133.194 82.9574 133.1 82.5175 132.916C82.0755 132.73 81.6882 132.463 81.3662 132.123C81.0456 131.785 80.7926 131.38 80.6146 130.92C80.4379 130.462 80.3481 129.957 80.3481 129.42C80.3481 128.888 80.438 128.39 80.6152 127.941C80.7939 127.491 81.0505 127.091 81.3779 126.753C81.7057 126.415 82.0924 126.15 82.5271 125.968C82.9609 125.786 83.4416 125.694 83.9556 125.694C84.2987 125.694 84.6438 125.749 84.9813 125.858C85.3148 125.966 85.6269 126.116 85.9098 126.303C86.1957 126.494 86.4352 126.717 86.6218 126.968L86.7377 127.124L85.894 127.998L85.7311 127.803C85.5802 127.622 85.4056 127.464 85.2121 127.333C85.0175 127.201 84.8091 127.098 84.5932 127.026C84.3809 126.956 84.1666 126.92 83.9556 126.92C83.6206 126.92 83.3041 126.982 83.015 127.103C82.7282 127.224 82.4774 127.397 82.2699 127.617C82.0618 127.836 81.8969 128.102 81.7799 128.408C81.663 128.715 81.6034 129.055 81.6034 129.42C81.6034 129.798 81.6631 130.148 81.7806 130.463C81.8962 130.772 82.0646 131.042 82.2817 131.265C82.4987 131.488 82.7577 131.663 83.0522 131.785C83.3488 131.907 83.6855 131.969 84.0543 131.969C84.2663 131.969 84.4834 131.937 84.6996 131.875C84.9144 131.812 85.1136 131.723 85.2912 131.611C85.4682 131.499 85.6206 131.371 85.744 131.23L85.9478 130.996L86.5906 132.039L86.4869 132.165C86.3179 132.371 86.0925 132.553 85.8161 132.708C85.5489 132.857 85.2511 132.977 84.932 133.063C84.6115 133.15 84.2862 133.194 83.9655 133.194ZM83.9556 126.151C83.5025 126.151 83.0813 126.231 82.704 126.389C82.3266 126.548 81.9908 126.777 81.7057 127.071C81.4203 127.366 81.1963 127.715 81.0398 128.109C80.8837 128.504 80.8047 128.945 80.8047 129.42C80.8047 129.901 80.8842 130.35 81.0407 130.756C81.197 131.16 81.4181 131.514 81.6977 131.809C81.9759 132.103 82.3111 132.333 82.6944 132.494C83.0778 132.656 83.5056 132.737 83.9654 132.737C84.2457 132.737 84.5307 132.699 84.8129 132.622C85.0958 132.545 85.3586 132.44 85.5936 132.308C85.7634 132.214 85.9083 132.108 86.0257 131.993L85.8732 131.745C85.7703 131.836 85.6576 131.92 85.5356 131.997C85.3218 132.132 85.0836 132.239 84.8274 132.313C84.5696 132.388 84.3096 132.426 84.0545 132.426C83.6253 132.426 83.2295 132.352 82.8778 132.207C82.5255 132.061 82.2148 131.852 81.9542 131.583C81.693 131.315 81.4905 130.992 81.3527 130.623C81.2157 130.257 81.1463 129.853 81.1463 129.42C81.1463 128.999 81.216 128.604 81.3532 128.245C81.4919 127.883 81.6885 127.566 81.938 127.302C82.1892 127.037 82.4919 126.828 82.8372 126.682C83.183 126.537 83.559 126.463 83.9556 126.463C84.2157 126.463 84.4789 126.506 84.7376 126.593C84.993 126.678 85.2387 126.8 85.4681 126.955C85.6273 127.062 85.7755 127.185 85.9112 127.322L86.1332 127.092C85.9991 126.942 85.8395 126.806 85.6567 126.684C85.409 126.52 85.1343 126.388 84.8409 126.293C84.5492 126.199 84.2511 126.151 83.9556 126.151Z" fill="white"/>
<path d="M83.9657 133.197C83.4445 133.197 82.9566 133.103 82.5164 132.918C82.0739 132.732 81.6862 132.465 81.3642 132.125C81.0427 131.786 80.7899 131.382 80.6119 130.922C80.4351 130.463 80.3452 129.958 80.3452 129.42C80.3452 128.887 80.4351 128.389 80.6123 127.94C80.7911 127.49 81.0479 127.09 81.376 126.751C81.704 126.412 82.0909 126.148 82.5262 125.965C82.9605 125.783 83.4414 125.691 83.9559 125.691C84.2993 125.691 84.6449 125.746 84.9828 125.855C85.3163 125.963 85.6288 126.113 85.9118 126.301C86.198 126.491 86.4376 126.715 86.6249 126.966L86.7425 127.124L85.8945 128.003L85.729 127.805C85.5785 127.624 85.4042 127.466 85.2107 127.336C85.0159 127.204 84.808 127.101 84.5925 127.029C84.3809 126.958 84.1669 126.923 83.956 126.923C83.6215 126.923 83.3054 126.984 83.0167 127.106C82.7302 127.227 82.4798 127.399 82.2727 127.619C82.0649 127.838 81.9003 128.104 81.7836 128.409C81.6663 128.716 81.6072 129.056 81.6072 129.42C81.6072 129.797 81.6668 130.148 81.7842 130.461C81.8997 130.771 82.0679 131.04 82.2846 131.263C82.5014 131.486 82.7605 131.66 83.0543 131.781C83.3503 131.904 83.6867 131.966 84.0549 131.966C84.2666 131.966 84.4834 131.934 84.6994 131.871C84.9145 131.809 85.1131 131.72 85.2898 131.608C85.4671 131.496 85.619 131.368 85.7421 131.227L85.949 130.991L86.5955 132.04L86.4901 132.167C86.3211 132.373 86.0951 132.556 85.8185 132.71C85.5504 132.86 85.2526 132.98 84.9335 133.066C84.6117 133.153 84.2861 133.197 83.9657 133.197ZM83.9557 126.154C83.5031 126.154 83.0822 126.234 82.7052 126.393C82.3282 126.551 81.9929 126.78 81.7087 127.074C81.423 127.368 81.199 127.717 81.0431 128.111C80.8874 128.505 80.8082 128.946 80.8082 129.42C80.8082 129.9 80.8876 130.349 81.0439 130.754C81.1999 131.158 81.4209 131.512 81.7003 131.806C81.9781 132.1 82.3128 132.33 82.6956 132.491C83.079 132.652 83.5063 132.734 83.9655 132.734C84.2453 132.734 84.5299 132.696 84.8121 132.619C85.0946 132.543 85.357 132.437 85.5922 132.306C85.7608 132.211 85.9046 132.106 86.0217 131.993L85.8724 131.75C85.7705 131.84 85.6587 131.923 85.5374 131.999C85.3243 132.135 85.0856 132.242 84.8285 132.316C84.5702 132.391 84.3099 132.429 84.0545 132.429C83.6247 132.429 83.2286 132.355 82.877 132.209C82.5244 132.064 82.2131 131.854 81.952 131.585C81.6905 131.317 81.4878 130.993 81.3498 130.624C81.2126 130.258 81.1436 129.853 81.1436 129.42C81.1436 128.999 81.2129 128.603 81.3504 128.244C81.489 127.881 81.6859 127.564 81.9356 127.3C82.1871 127.034 82.4902 126.825 82.8361 126.679C83.182 126.533 83.5591 126.459 83.9557 126.459C84.2162 126.459 84.4798 126.503 84.7389 126.59C84.9942 126.675 85.2401 126.797 85.4696 126.952C85.6282 127.059 85.7763 127.182 85.9112 127.318L86.1291 127.092C85.9954 126.943 85.8365 126.808 85.655 126.687C85.4073 126.522 85.1329 126.39 84.8397 126.295C84.5487 126.202 84.2509 126.154 83.9557 126.154Z" fill="white"/>
<path d="M83.9653 133.426C83.4133 133.426 82.8959 133.326 82.4274 133.129C81.9553 132.93 81.5416 132.645 81.1978 132.282C80.8565 131.922 80.5872 131.492 80.3983 131.004C80.211 130.518 80.1162 129.986 80.1162 129.42C80.1162 128.859 80.2113 128.333 80.3995 127.856C80.5896 127.377 80.8627 126.952 81.2113 126.592C81.5613 126.231 81.9737 125.949 82.4376 125.754C82.9002 125.561 83.4107 125.462 83.9555 125.462C84.3222 125.462 84.6912 125.521 85.0524 125.637C85.4067 125.752 85.7381 125.912 86.0377 126.111C86.3456 126.315 86.6044 126.557 86.8079 126.83L87.0413 127.143L85.8817 128.345L85.5531 127.951C85.4161 127.787 85.2577 127.644 85.0823 127.526C84.9051 127.405 84.7157 127.311 84.5199 127.246C84.3314 127.183 84.1414 127.151 83.9555 127.151C83.6517 127.151 83.3654 127.207 83.1048 127.317C82.8478 127.425 82.6235 127.58 82.4381 127.776C82.251 127.973 82.1026 128.214 81.9962 128.491C81.8893 128.771 81.8349 129.084 81.8349 129.42C81.8349 129.77 81.8896 130.094 81.9976 130.381C82.1023 130.661 82.2536 130.904 82.4476 131.103C82.6425 131.304 82.8757 131.461 83.1407 131.57C83.4087 131.681 83.716 131.738 84.0542 131.738C84.2446 131.738 84.4403 131.709 84.6352 131.652C84.8295 131.596 85.0083 131.516 85.1669 131.415C85.3259 131.315 85.4611 131.201 85.5695 131.077L85.9805 130.607L86.8753 132.059L86.6658 132.313C86.4793 132.54 86.2316 132.741 85.9293 132.91C85.6456 133.068 85.3306 133.195 84.9928 133.287C84.6509 133.379 84.3052 133.426 83.9653 133.426ZM83.9553 125.919C83.4716 125.919 83.0204 126.005 82.614 126.176C82.2078 126.346 81.8463 126.593 81.5393 126.91C81.2324 127.227 80.9919 127.602 80.8241 128.024C80.6575 128.446 80.573 128.916 80.573 129.42C80.573 129.929 80.6575 130.407 80.8244 130.839C80.9916 131.271 81.2288 131.651 81.5293 131.968C81.8293 132.285 82.1908 132.534 82.6044 132.708C83.0163 132.881 83.4742 132.969 83.965 132.969C84.2648 132.969 84.5704 132.927 84.8733 132.846C85.1746 132.764 85.4551 132.651 85.7061 132.51C85.9443 132.377 86.1397 132.223 86.2875 132.052L86.1806 132.156C86.0494 132.284 85.8887 132.401 85.7032 132.505C85.4519 132.645 85.172 132.758 84.8714 132.839C84.5699 132.921 84.2651 132.962 83.965 132.962C83.4751 132.962 83.0178 132.875 82.6065 132.702C82.1945 132.529 81.8334 132.28 81.5338 131.963C81.2338 131.648 80.9973 131.268 80.8302 130.837C80.6635 130.405 80.5792 129.928 80.5792 129.42C80.5792 128.917 80.6635 128.449 80.8299 128.027C80.9972 127.605 81.2373 127.231 81.5439 126.915C81.8495 126.599 82.2102 126.352 82.616 126.182C83.0212 126.012 83.4718 125.926 83.955 125.926C84.2737 125.926 84.5947 125.977 84.9092 126.078C85.2221 126.18 85.5151 126.32 85.7805 126.496C85.9782 126.628 86.1522 126.777 86.2983 126.939L86.4155 127.069C86.2475 126.852 86.0354 126.658 85.7841 126.491C85.5194 126.315 85.2256 126.174 84.9112 126.072C84.5966 125.971 84.2746 125.919 83.9553 125.919ZM83.9555 126.688C83.5891 126.688 83.2426 126.756 82.925 126.89C82.6083 127.023 82.3312 127.214 82.1017 127.457C81.8723 127.699 81.6913 127.991 81.5633 128.325C81.4364 128.659 81.3719 129.027 81.3719 129.42C81.3719 129.826 81.4362 130.204 81.5633 130.544C81.6906 130.883 81.8764 131.18 82.1155 131.426C82.3548 131.672 82.6402 131.865 82.9637 131.998C83.288 132.133 83.6547 132.201 84.0542 132.201C84.2876 132.201 84.5268 132.166 84.7647 132.097C85.0008 132.028 85.2198 131.93 85.4148 131.806C85.5249 131.737 85.628 131.66 85.7217 131.578L85.925 131.4L86.3101 132.026C86.311 132.024 86.312 132.023 86.313 132.022L86.3146 132.02L85.9164 131.374L85.9134 131.378C85.7762 131.535 85.6073 131.677 85.4113 131.801C85.2169 131.925 84.9987 132.022 84.7629 132.091C84.526 132.159 84.2877 132.194 84.0544 132.194C83.6558 132.194 83.2899 132.127 82.9665 131.992C82.6437 131.859 82.3589 131.667 82.1204 131.422C81.882 131.177 81.6965 130.881 81.5698 130.541C81.4427 130.203 81.3784 129.825 81.3784 129.42C81.3784 129.028 81.4427 128.66 81.5699 128.328C81.6975 127.994 81.8781 127.703 82.1063 127.462C82.3357 127.219 82.6119 127.029 82.9274 126.896C83.2445 126.762 83.5905 126.694 83.9556 126.694C84.1907 126.694 84.4292 126.734 84.6644 126.813C84.9004 126.891 85.127 127.004 85.3386 127.147C85.5491 127.289 85.7394 127.462 85.9037 127.659L85.9063 127.662L86.443 127.105L86.4413 127.103C86.4406 127.102 86.4395 127.101 86.4389 127.1L85.9134 127.645L85.7489 127.479C85.6251 127.354 85.488 127.241 85.3417 127.142C85.1296 126.998 84.9025 126.885 84.6664 126.807C84.4311 126.728 84.192 126.688 83.9555 126.688Z" fill="white"/>
<path d="M87.9849 132.867L90.6248 125.971H91.5016L94.1219 132.867H93.2842L91.6001 128.395C91.5533 128.27 91.5027 128.124 91.4468 127.956C91.3914 127.788 91.3318 127.615 91.2698 127.434C91.2071 127.254 91.1478 127.078 91.0919 126.907C91.0362 126.737 90.9852 126.585 90.9394 126.454H91.136C91.0839 126.618 91.0294 126.785 90.9737 126.952C90.9178 127.119 90.8602 127.286 90.8013 127.454C90.7426 127.622 90.6836 127.788 90.6238 127.951C90.5647 128.115 90.5058 128.28 90.4467 128.444L88.7714 132.867L87.9849 132.867ZM89.1081 130.966L89.3937 130.217H92.6545L92.9699 130.966H89.1081Z" fill="white"/>
<path d="M94.4529 133.096H93.1261L92.4099 131.194H89.6491L88.929 133.096H87.6523L90.4673 125.743H91.6588L94.4529 133.096ZM93.4422 132.639H93.7902L93.2414 131.194H92.8981L93.4422 132.639ZM88.3167 132.639H88.6135L89.1604 131.194H88.8696L88.3167 132.639ZM92.2379 130.737L92.1281 130.446H89.9326L89.8222 130.737H92.2379ZM92.4443 129.989H92.7836L91.4051 126.361L91.3536 126.523C91.3296 126.598 91.3053 126.674 91.2804 126.75V126.75L91.3088 126.836C91.3642 127.006 91.4232 127.18 91.4855 127.359C91.5478 127.541 91.6077 127.716 91.6636 127.884C91.7182 128.048 91.768 128.192 91.8136 128.315L92.4443 129.989ZM90.1056 129.989H91.956L91.386 128.475C91.3383 128.348 91.2869 128.199 91.2298 128.029C91.1745 127.861 91.1151 127.688 91.0535 127.509C91.0486 127.494 91.0436 127.48 91.0387 127.466C91.0315 127.487 91.024 127.508 91.0166 127.529C90.9574 127.698 90.8983 127.865 90.8379 128.03L90.6613 128.522L90.1056 129.989ZM89.3311 129.989H89.617L90.4085 127.874C90.4686 127.71 90.5271 127.545 90.5855 127.378C90.6441 127.212 90.7012 127.046 90.7568 126.879L90.7992 126.751C90.7724 126.671 90.7472 126.598 90.7233 126.529L90.691 126.437L89.3311 129.989ZM90.7716 126.226H91.3536L91.3438 126.2H90.7818L90.7716 126.226Z" fill="white"/>
<path d="M94.458 133.099H93.1237L92.4079 131.197H89.6517L88.9314 133.099H87.6479L90.465 125.739H91.661L94.458 133.099ZM93.4445 132.635H93.7858L93.2395 131.197H92.9032L93.4445 132.635ZM88.3215 132.635H88.6114L89.1562 131.197H88.8721L88.3215 132.635ZM92.2334 130.734L92.126 130.449H89.9351L89.827 130.734H92.2334ZM92.4468 129.985H92.7789L91.4056 126.371L91.3568 126.524C91.333 126.599 91.3088 126.675 91.2839 126.75H91.2842L91.2839 126.75L91.3119 126.835C91.3676 127.005 91.4263 127.179 91.4886 127.358C91.5511 127.54 91.6108 127.715 91.6668 127.883C91.7213 128.048 91.7711 128.191 91.8169 128.314L92.4468 129.985ZM90.1105 129.985H91.9515L91.3832 128.476C91.3355 128.349 91.2843 128.2 91.2269 128.03C91.1716 127.862 91.1124 127.689 91.0508 127.51C91.047 127.498 91.0429 127.487 91.0392 127.476C91.0329 127.494 91.0266 127.512 91.0199 127.531C90.9612 127.699 90.9017 127.866 90.8417 128.031L90.6648 128.523L90.1105 129.985ZM89.3359 129.985H89.6147L90.4059 127.873C90.4656 127.709 90.5244 127.544 90.5824 127.377C90.6412 127.211 90.6983 127.045 90.7536 126.878L90.7957 126.751C90.7694 126.672 90.7443 126.599 90.7203 126.53L90.691 126.446L89.3359 129.985ZM90.7766 126.222H91.3492L91.3418 126.203H90.7841L90.7766 126.222Z" fill="white"/>
<path d="M94.7893 133.327H92.9659L92.2498 131.426H89.8096L89.0893 133.327H87.3159L90.3081 125.511H91.8186L94.7893 133.327ZM93.2821 132.87H94.1269L91.5035 125.968H91.4969L91.6834 126.451H91.6805L93.1103 130.214H92.2888L91.6033 128.394C91.5563 128.269 91.5055 128.123 91.4501 127.955C91.3943 127.788 91.3348 127.613 91.2728 127.432C91.2101 127.253 91.151 127.077 91.0948 126.906L91.0229 126.688L91.0838 126.628L91.1403 126.451H90.9345L90.9361 126.455C90.9603 126.524 90.9857 126.599 91.0125 126.679L91.0364 126.751L90.9704 126.95C90.9146 127.119 90.8571 127.285 90.7978 127.453C90.7396 127.621 90.6804 127.787 90.6203 127.951L89.7733 130.214H89.0039L90.6294 125.968H90.6223L87.98 132.871H88.7734L89.4937 130.969H92.5657L93.2821 132.87ZM90.7687 125.974L91.2942 125.968H90.7664L90.7687 125.974ZM94.1174 132.864H93.2864L92.5733 130.969H93.3973L94.1174 132.864ZM88.7693 132.864H87.9895L88.7148 130.969H89.487L88.7693 132.864ZM92.5634 130.963H89.4962L89.7776 130.22H92.2843L92.5634 130.963ZM92.2816 130.214H89.7794L90.451 128.442L90.6266 127.954C90.6865 127.789 90.7456 127.623 90.8039 127.456L91.041 126.769L91.2553 127.403L91.039 127.477L91.2591 127.414L91.268 127.44C91.3286 127.616 91.3879 127.79 91.4437 127.958C91.4995 128.125 91.5499 128.271 91.5969 128.396L92.2816 130.214ZM90.4413 129.757H91.6213L91.1696 128.557C91.1276 128.445 91.0831 128.317 91.0338 128.172L90.8794 128.6L90.4413 129.757Z" fill="white"/>
<path d="M96.3682 132.867V125.971H99.0676C99.4679 125.971 99.8309 126.064 100.156 126.252C100.481 126.439 100.738 126.693 100.93 127.015C101.12 127.337 101.216 127.702 101.216 128.109C101.216 128.49 101.123 128.835 100.939 129.143C100.756 129.453 100.506 129.697 100.191 129.877C99.8756 130.058 99.521 130.148 99.127 130.148H97.1366V132.867L96.3682 132.867ZM97.1366 129.4H99.195C99.4383 129.4 99.6519 129.344 99.8357 129.231C100.02 129.12 100.164 128.967 100.269 128.774C100.374 128.58 100.426 128.358 100.426 128.108C100.426 127.839 100.364 127.599 100.239 127.389C100.114 127.179 99.9419 127.015 99.722 126.896C99.5019 126.778 99.2504 126.719 98.9681 126.719H97.1362L97.1366 129.4ZM100.575 132.867L98.8405 129.833L99.5798 129.577L101.491 132.868L100.575 132.867Z" fill="white"/>
<path d="M101.888 133.096L100.442 133.096L98.8879 130.376H97.3652V133.095L96.1396 133.096V125.743H99.0677C99.5075 125.743 99.9122 125.848 100.27 126.054C100.627 126.26 100.915 126.544 101.126 126.899C101.338 127.257 101.444 127.663 101.444 128.109C101.444 128.53 101.34 128.917 101.136 129.26C100.933 129.601 100.654 129.876 100.304 130.075C100.261 130.1 100.218 130.123 100.173 130.145L101.888 133.096ZM100.707 132.639L101.094 132.639L99.7373 130.303C99.6301 130.331 99.5196 130.35 99.4058 130.362L100.707 132.639ZM96.5964 126.2V132.638L96.908 132.638V129.92H98.6266L98.5053 129.708L98.7356 129.628H96.908L96.9077 126.49H98.9682C99.2873 126.49 99.5774 126.559 99.8299 126.695C100.086 126.833 100.289 127.027 100.435 127.273C100.581 127.517 100.654 127.799 100.654 128.108C100.654 128.395 100.592 128.656 100.47 128.882C100.346 129.112 100.172 129.295 99.9538 129.427C99.9054 129.457 99.8547 129.483 99.8027 129.506L99.9432 129.748C99.9889 129.727 100.034 129.704 100.077 129.679C100.361 129.516 100.579 129.303 100.743 129.027C100.905 128.755 100.987 128.446 100.987 128.109C100.987 127.746 100.902 127.418 100.733 127.132C100.561 126.842 100.335 126.619 100.042 126.45C99.754 126.284 99.4265 126.2 99.0677 126.2L96.5964 126.2ZM99.4768 129.855L99.3122 129.912C99.3749 129.907 99.4361 129.899 99.496 129.888L99.4768 129.855ZM97.3651 129.171H99.1951C99.3975 129.171 99.5684 129.127 99.7165 129.036C99.8673 128.945 99.982 128.824 100.068 128.665C100.154 128.506 100.198 128.319 100.198 128.108C100.198 127.879 100.147 127.682 100.043 127.506C99.938 127.33 99.7978 127.197 99.6137 127.098C99.4286 126.998 99.2112 126.947 98.9682 126.947H97.3646L97.3651 129.171Z" fill="white"/>
<path d="M101.893 133.099L100.44 133.099L98.8859 130.38H97.3682V133.098L96.1362 133.099V125.739H99.0675C99.5079 125.739 99.9133 125.845 100.272 126.051C100.63 126.258 100.918 126.542 101.129 126.897C101.34 127.255 101.447 127.663 101.447 128.109C101.447 128.53 101.343 128.918 101.138 129.262C100.936 129.603 100.656 129.878 100.306 130.078C100.264 130.102 100.221 130.125 100.178 130.146L101.893 133.099ZM100.709 132.635L101.088 132.636L99.7356 130.307C99.6302 130.334 99.5221 130.353 99.4109 130.365L100.709 132.635ZM96.5994 126.203V132.635H96.9049V129.916H98.621L98.5007 129.706L98.716 129.632H96.9049L96.9044 126.487H98.9681C99.2881 126.487 99.5785 126.556 99.8317 126.692C100.088 126.83 100.292 127.025 100.438 127.271C100.584 127.516 100.658 127.798 100.658 128.108C100.658 128.396 100.596 128.657 100.473 128.884C100.348 129.113 100.175 129.297 99.9556 129.43C99.908 129.459 99.8584 129.485 99.8071 129.508L99.9444 129.744C99.989 129.723 100.033 129.7 100.075 129.676C100.359 129.514 100.576 129.301 100.74 129.025C100.902 128.754 100.984 128.446 100.984 128.109C100.984 127.747 100.898 127.419 100.73 127.134C100.558 126.844 100.333 126.621 100.04 126.453C99.7529 126.287 99.4255 126.203 99.0673 126.203H96.5994V126.203ZM99.4751 129.859L99.3376 129.906C99.3894 129.902 99.4405 129.895 99.4907 129.886L99.4751 129.859ZM97.3681 129.168H99.1949C99.3967 129.168 99.567 129.124 99.7147 129.034C99.8651 128.943 99.9795 128.822 100.065 128.663C100.151 128.505 100.194 128.318 100.194 128.108C100.194 127.879 100.144 127.683 100.04 127.508C99.9355 127.332 99.7956 127.199 99.612 127.1C99.4276 127.001 99.2108 126.951 98.9681 126.951H97.3676L97.3681 129.168Z" fill="white"/>
<path d="M102.29 133.328L100.308 133.327L98.7534 130.608H97.5966V133.326L95.9077 133.327V125.511H99.0674C99.5488 125.511 99.9923 125.626 100.386 125.854C100.778 126.079 101.094 126.391 101.325 126.78C101.558 127.175 101.676 127.622 101.676 128.109C101.676 128.572 101.561 128.999 101.334 129.379C101.127 129.73 100.843 130.017 100.493 130.233L102.29 133.328ZM100.573 132.87L101.496 132.871L99.8572 130.049L100.077 129.941C100.116 129.922 100.154 129.902 100.191 129.88C100.507 129.699 100.76 129.452 100.941 129.145C101.125 128.837 101.219 128.489 101.219 128.109C101.219 127.705 101.122 127.336 100.932 127.013C100.741 126.693 100.481 126.436 100.157 126.249C99.8339 126.063 99.4671 125.968 99.0673 125.968H96.3646V132.87L97.1397 132.87V130.151L97.9489 130.145H97.1334V132.864H96.371V125.974H99.0673C99.466 125.974 99.8317 126.069 100.154 126.255C100.481 126.443 100.734 126.693 100.926 127.017C101.116 127.338 101.212 127.705 101.212 128.109C101.212 128.488 101.119 128.836 100.936 129.142C100.752 129.452 100.508 129.692 100.189 129.875C100.14 129.902 100.091 129.928 100.04 129.951L99.8514 130.039L99.5808 129.573L98.8356 129.832L98.8388 129.837L99.5787 129.581L99.8457 130.044L99.8468 130.044L101.485 132.864L100.576 132.864L99.039 130.175L99.3865 130.138C99.4862 130.127 99.585 130.109 99.6801 130.086L99.6922 130.082L99.5297 130.111C99.4738 130.121 99.4165 130.128 99.359 130.134L99.0262 130.165L100.573 132.87ZM97.1333 129.403H99.4818L99.4816 129.403L99.7141 129.299C99.7556 129.28 99.7969 129.259 99.8365 129.234C100.021 129.123 100.167 128.968 100.272 128.775C100.376 128.582 100.429 128.358 100.429 128.108C100.429 127.839 100.366 127.597 100.242 127.388C100.117 127.178 99.9423 127.011 99.7234 126.893C99.5038 126.775 99.2493 126.716 98.9679 126.716H97.1328L97.1333 129.403ZM99.1948 129.396H97.1395L97.1389 126.722H98.9679C99.2489 126.722 99.5021 126.782 99.72 126.899C99.9413 127.018 100.11 127.179 100.236 127.391C100.361 127.602 100.423 127.837 100.423 128.108C100.423 128.357 100.37 128.58 100.266 128.772C100.16 128.967 100.019 129.116 99.833 129.229C99.649 129.342 99.44 129.396 99.1948 129.396ZM97.5964 128.94H99.1947C99.3533 128.94 99.4844 128.906 99.5952 128.839C99.7121 128.768 99.797 128.678 99.8639 128.554C99.9312 128.43 99.9655 128.28 99.9655 128.108C99.9655 127.922 99.9254 127.763 99.8428 127.624C99.7594 127.484 99.6514 127.381 99.5034 127.302C99.3528 127.221 99.1725 127.18 98.9678 127.18H97.5958L97.5964 128.94Z" fill="white"/>
<path d="M103.855 132.867V125.971H106.554C106.955 125.971 107.318 126.064 107.643 126.252C107.968 126.439 108.225 126.693 108.417 127.015C108.607 127.337 108.703 127.702 108.703 128.109C108.703 128.49 108.61 128.835 108.426 129.143C108.243 129.453 107.993 129.697 107.677 129.877C107.362 130.058 107.008 130.148 106.613 130.148H104.624V132.867L103.855 132.867ZM104.624 129.4H106.682C106.925 129.4 107.139 129.344 107.323 129.231C107.507 129.12 107.651 128.967 107.756 128.774C107.861 128.58 107.913 128.358 107.913 128.108C107.913 127.839 107.851 127.599 107.726 127.389C107.601 127.179 107.429 127.015 107.209 126.896C106.989 126.778 106.738 126.719 106.455 126.719H104.623L104.624 129.4ZM108.061 132.867L106.328 129.833L107.067 129.577L108.978 132.868L108.061 132.867Z" fill="white"/>
<path d="M109.374 133.096L107.929 133.096L106.375 130.376H104.852V133.095L103.626 133.096V125.743H106.554C106.994 125.743 107.399 125.848 107.757 126.054C108.114 126.26 108.403 126.544 108.613 126.899C108.824 127.256 108.931 127.663 108.931 128.109C108.931 128.53 108.827 128.918 108.622 129.261C108.42 129.601 108.14 129.875 107.79 130.075C107.747 130.1 107.704 130.123 107.66 130.144L109.374 133.096ZM108.194 132.639L108.58 132.639L107.224 130.303C107.117 130.331 107.006 130.35 106.893 130.362L108.194 132.639ZM104.083 126.2V132.638L104.395 132.638V129.92H106.114L105.992 129.708L106.222 129.628H104.395L104.394 126.49H106.455C106.774 126.49 107.064 126.559 107.317 126.695C107.573 126.833 107.777 127.027 107.922 127.273C108.067 127.518 108.141 127.799 108.141 128.108C108.141 128.395 108.079 128.656 107.957 128.882C107.832 129.112 107.659 129.295 107.441 129.427C107.392 129.457 107.342 129.483 107.289 129.506L107.43 129.748C107.475 129.727 107.52 129.704 107.563 129.679C107.848 129.517 108.066 129.303 108.229 129.027C108.392 128.755 108.474 128.447 108.474 128.109C108.474 127.746 108.388 127.417 108.22 127.132C108.048 126.842 107.821 126.619 107.529 126.45C107.241 126.284 106.913 126.2 106.554 126.2L104.083 126.2ZM106.964 129.855L106.799 129.912C106.862 129.907 106.923 129.899 106.983 129.888L106.964 129.855ZM104.852 129.171H106.682C106.884 129.171 107.055 129.127 107.203 129.036C107.354 128.945 107.469 128.824 107.555 128.665C107.641 128.506 107.684 128.319 107.684 128.108C107.684 127.882 107.632 127.68 107.529 127.506C107.425 127.33 107.285 127.197 107.101 127.098C106.915 126.998 106.698 126.947 106.455 126.947H104.851L104.852 129.171Z" fill="white"/>
<path d="M109.38 133.099L107.927 133.099L106.373 130.38H104.855V133.098L103.624 133.099V125.739H106.554C106.995 125.739 107.4 125.845 107.759 126.051C108.117 126.258 108.405 126.542 108.616 126.897C108.828 127.255 108.935 127.663 108.935 128.109C108.935 128.531 108.83 128.919 108.625 129.262C108.423 129.603 108.143 129.878 107.792 130.078C107.751 130.102 107.708 130.125 107.665 130.146L109.38 133.099ZM108.196 132.635L108.575 132.636L107.223 130.307C107.118 130.334 107.009 130.353 106.898 130.365L108.196 132.635ZM104.087 126.203V132.635H104.392V129.916H106.108L105.988 129.706L106.203 129.632H104.392L104.391 126.487H106.455C106.775 126.487 107.066 126.556 107.319 126.692C107.576 126.831 107.78 127.026 107.925 127.272C108.071 127.517 108.145 127.799 108.145 128.108C108.145 128.396 108.083 128.657 107.96 128.884C107.835 129.113 107.662 129.297 107.443 129.43C107.395 129.459 107.346 129.485 107.294 129.508L107.431 129.744C107.476 129.723 107.52 129.7 107.562 129.676C107.846 129.514 108.063 129.301 108.227 129.025C108.389 128.754 108.471 128.446 108.471 128.109C108.471 127.747 108.386 127.419 108.218 127.134C108.046 126.844 107.82 126.621 107.527 126.453C107.24 126.287 106.913 126.203 106.555 126.203H104.087V126.203ZM106.962 129.859L106.825 129.906C106.877 129.902 106.928 129.894 106.978 129.886L106.962 129.859ZM104.855 129.168H106.682C106.884 129.168 107.054 129.124 107.202 129.034C107.352 128.943 107.467 128.822 107.552 128.663C107.638 128.505 107.682 128.318 107.682 128.108C107.682 127.88 107.631 127.683 107.527 127.507C107.423 127.332 107.283 127.199 107.099 127.1C106.915 127.001 106.698 126.951 106.455 126.951H104.855L104.855 129.168Z" fill="white"/>
<path d="M109.777 133.328L107.794 133.327L106.24 130.608H105.083V133.326L103.395 133.327V125.511H106.554C107.035 125.511 107.479 125.626 107.873 125.854C108.265 126.08 108.581 126.391 108.812 126.781C109.045 127.174 109.162 127.621 109.162 128.109C109.162 128.573 109.047 129 108.82 129.379C108.613 129.73 108.33 130.017 107.979 130.233L109.777 133.328ZM108.059 132.87L108.983 132.871L107.344 130.049L107.563 129.941C107.602 129.922 107.64 129.902 107.677 129.88C107.994 129.699 108.246 129.452 108.427 129.146C108.612 128.837 108.705 128.489 108.705 128.109C108.705 127.704 108.609 127.335 108.419 127.014C108.228 126.693 107.968 126.436 107.644 126.249C107.321 126.063 106.954 125.968 106.554 125.968H103.851V132.87L104.626 132.87V130.151L105.431 130.145H104.62V132.864H103.858V125.974H106.554C106.953 125.974 107.318 126.069 107.641 126.255C107.968 126.444 108.221 126.693 108.413 127.017C108.603 127.338 108.699 127.706 108.699 128.109C108.699 128.488 108.606 128.836 108.422 129.143C108.239 129.452 107.994 129.692 107.674 129.875C107.627 129.902 107.577 129.928 107.527 129.951L107.338 130.039L107.067 129.573L106.322 129.832L106.325 129.837L107.066 129.581L107.332 130.044L107.333 130.044L108.971 132.864L108.063 132.864L106.526 130.175L106.873 130.138C106.973 130.127 107.072 130.109 107.167 130.086L107.183 130.081L107.017 130.111C106.961 130.12 106.903 130.128 106.845 130.134L106.512 130.164L108.059 132.87ZM104.62 129.403L106.968 129.403L107.201 129.299C107.242 129.28 107.284 129.259 107.324 129.234C107.507 129.123 107.653 128.968 107.758 128.775C107.863 128.582 107.916 128.357 107.916 128.108C107.916 127.841 107.853 127.598 107.728 127.388C107.604 127.178 107.43 127.012 107.21 126.893C106.99 126.775 106.736 126.716 106.455 126.716H104.619L104.62 129.403ZM106.681 129.396H104.626L104.626 126.722H106.455C106.736 126.722 106.989 126.782 107.207 126.899C107.429 127.019 107.598 127.18 107.722 127.391C107.848 127.603 107.909 127.838 107.909 128.108C107.909 128.357 107.857 128.58 107.752 128.772C107.647 128.967 107.505 129.116 107.32 129.229C107.136 129.342 106.927 129.396 106.681 129.396ZM105.083 128.94H106.681C106.84 128.94 106.971 128.906 107.082 128.839C107.199 128.768 107.284 128.678 107.351 128.555C107.418 128.43 107.452 128.28 107.452 128.108C107.452 127.922 107.412 127.764 107.329 127.624C107.247 127.484 107.139 127.382 106.99 127.302C106.84 127.221 106.659 127.18 106.455 127.18H105.083L105.083 128.94Z" fill="white"/>
<path d="M111.016 132.867V132.138H112.129V126.7H111.016V125.971H114.011V126.7H112.899V132.138H114.011V132.867H111.016Z" fill="white"/>
<path d="M114.239 133.096H110.788V131.91H111.901V126.929H110.788V125.743H114.239V126.929H113.127V131.91H114.239V133.096ZM111.245 132.639H113.782V132.367H112.67V126.472H113.782V126.2H111.245V126.472H112.358V132.367H111.245V132.639Z" fill="white"/>
<path d="M114.242 133.099H110.784V131.907H111.897V126.932H110.784V125.739H114.242V126.932H113.13V131.907H114.242V133.099ZM111.247 132.635H113.779V132.37H112.666V126.469H113.779V126.203H111.247V126.469H112.361V132.37H111.247V132.635Z" fill="white"/>
<path d="M114.471 133.327H110.556V131.678H111.669V127.16H110.556V125.511H114.471V127.16H113.359V131.678H114.471V133.327ZM111.013 132.87H114.014V132.135H112.902V126.703H114.014V125.968H111.013V126.703H112.126V132.135H111.013V132.87ZM114.008 132.864H111.019V132.142H112.133V126.697H111.019V125.974H114.008V126.697H112.895V132.142H114.008V132.864Z" fill="white"/>
<path d="M116.7 132.867V125.971H120.877V126.72H117.469V132.118H120.858V132.867L116.7 132.867ZM117.055 129.695V128.946H120.325V129.695H117.055Z" fill="white"/>
<path d="M121.087 133.096H116.472V125.743H121.106V126.948H117.698V128.718H120.554V129.924H117.698V131.89H121.087V133.096ZM116.929 132.639H120.63V132.347H117.241V129.924H116.929V132.639ZM117.698 129.467H120.098V129.175H117.698V129.467ZM116.929 128.718H117.241V126.491H120.649V126.2H116.929V128.718Z" fill="white"/>
<path d="M121.089 133.099H116.469V125.739H121.109V126.952H117.701V128.715H120.557V129.927H117.701V131.887H121.089V133.099ZM116.932 132.635H120.626V132.35H117.238V129.927H116.932V132.635ZM117.701 129.464H120.094V129.178H117.701V129.464ZM116.932 128.715H117.238V126.488H120.646V126.203H116.932V128.715Z" fill="white"/>
<path d="M121.318 133.327H116.24V125.511H121.338V127.18H117.929V128.486H120.786V130.155H117.929V131.658H121.318V133.327ZM116.697 132.87H120.861V132.115H117.472V129.698H120.329V128.943H117.472V126.723H120.881V125.968H116.697V132.87ZM120.854 132.864H116.704V129.698H117.466V132.122H120.854L120.854 132.864ZM120.322 129.692H117.472V128.949H120.322V129.692ZM117.466 128.943H116.703V125.974H120.874V126.717H117.466L117.466 128.943Z" fill="white"/>
<path d="M123.586 132.867V125.971H126.285C126.685 125.971 127.049 126.064 127.374 126.252C127.699 126.439 127.956 126.693 128.147 127.015C128.338 127.337 128.433 127.702 128.433 128.109C128.433 128.49 128.341 128.835 128.157 129.143C127.973 129.453 127.724 129.697 127.408 129.877C127.093 130.058 126.738 130.148 126.344 130.148H124.354V132.867L123.586 132.867ZM124.354 129.4H126.413C126.656 129.4 126.87 129.344 127.054 129.231C127.237 129.12 127.382 128.967 127.487 128.774C127.592 128.58 127.645 128.358 127.645 128.108C127.645 127.839 127.582 127.599 127.457 127.389C127.332 127.179 127.159 127.015 126.94 126.896C126.72 126.778 126.468 126.719 126.186 126.719H124.354L124.354 129.4ZM127.792 132.867L126.059 129.833L126.798 129.577L128.709 132.868L127.792 132.867Z" fill="white"/>
<path d="M129.106 133.096L127.66 133.095L126.106 130.376H124.582V133.095L123.358 133.096V125.743H126.285C126.725 125.743 127.13 125.847 127.488 126.054C127.845 126.26 128.133 126.544 128.344 126.899C128.554 127.255 128.661 127.662 128.661 128.109C128.661 128.53 128.557 128.917 128.353 129.26C128.15 129.601 127.87 129.876 127.521 130.075C127.479 130.1 127.435 130.123 127.391 130.144L129.106 133.096ZM127.925 132.639L128.312 132.639L126.955 130.303C126.848 130.33 126.737 130.35 126.624 130.362L127.925 132.639ZM123.815 126.2V132.638L124.125 132.638V129.919H125.845L125.724 129.708L125.954 129.628H124.126L124.125 126.49H126.186C126.505 126.49 126.795 126.559 127.048 126.695C127.305 126.834 127.508 127.028 127.654 127.273C127.799 127.517 127.873 127.799 127.873 128.108C127.873 128.395 127.811 128.655 127.688 128.882C127.564 129.111 127.39 129.294 127.172 129.427C127.124 129.456 127.073 129.483 127.021 129.506L127.161 129.748C127.207 129.727 127.251 129.704 127.295 129.679C127.578 129.517 127.796 129.303 127.961 129.026C128.123 128.755 128.205 128.446 128.205 128.109C128.205 127.745 128.119 127.416 127.951 127.132C127.779 126.842 127.553 126.619 127.26 126.45C126.972 126.284 126.644 126.2 126.285 126.2L123.815 126.2ZM126.694 129.855L126.531 129.912C126.593 129.906 126.654 129.899 126.714 129.888L126.694 129.855ZM124.583 129.171H126.413C126.615 129.171 126.786 129.127 126.935 129.036C127.085 128.945 127.2 128.823 127.286 128.664C127.372 128.505 127.416 128.318 127.416 128.108C127.416 127.879 127.365 127.682 127.261 127.506C127.157 127.331 127.016 127.197 126.832 127.097C126.646 126.998 126.429 126.947 126.186 126.947H124.582L124.583 129.171Z" fill="white"/>
<path d="M129.112 133.099L127.658 133.099L126.105 130.38H124.586V133.098L123.355 133.099V125.739H126.285C126.726 125.739 127.131 125.845 127.49 126.051C127.848 126.258 128.136 126.542 128.347 126.897C128.558 127.254 128.665 127.661 128.665 128.109C128.665 128.53 128.561 128.918 128.356 129.262C128.153 129.604 127.873 129.878 127.524 130.078C127.482 130.102 127.439 130.125 127.397 130.146L129.112 133.099ZM127.927 132.635L128.307 132.636L126.954 130.307C126.849 130.333 126.74 130.353 126.63 130.364L127.927 132.635ZM123.818 126.203V132.635H124.122V129.916H125.84L125.72 129.706L125.935 129.632H124.123L124.122 126.487H126.186C126.506 126.487 126.797 126.556 127.05 126.692C127.307 126.831 127.511 127.026 127.657 127.271C127.803 127.517 127.877 127.799 127.877 128.108C127.877 128.396 127.815 128.657 127.692 128.884C127.567 129.113 127.393 129.297 127.174 129.429C127.127 129.459 127.077 129.485 127.025 129.508L127.163 129.744C127.207 129.723 127.251 129.7 127.293 129.676C127.576 129.514 127.794 129.301 127.958 129.025C128.12 128.754 128.201 128.446 128.201 128.109C128.201 127.746 128.116 127.418 127.948 127.134C127.777 126.844 127.551 126.621 127.259 126.453C126.971 126.287 126.643 126.203 126.285 126.203H123.818V126.203ZM126.694 129.859L126.556 129.906C126.608 129.902 126.659 129.894 126.709 129.886L126.694 129.859ZM124.586 129.168H126.414C126.615 129.168 126.785 129.124 126.934 129.034C127.084 128.942 127.198 128.821 127.284 128.663C127.37 128.504 127.414 128.318 127.414 128.108C127.414 127.88 127.363 127.683 127.259 127.508C127.155 127.333 127.015 127.2 126.831 127.1C126.646 127.001 126.429 126.951 126.187 126.951H124.586L124.586 129.168Z" fill="white"/>
<path d="M129.509 133.328L127.525 133.327L125.972 130.608H124.814V133.326L123.126 133.327V125.511H126.285C126.767 125.511 127.21 125.626 127.604 125.854C127.996 126.079 128.313 126.391 128.543 126.781C128.776 127.174 128.893 127.62 128.893 128.109C128.893 128.572 128.779 128.999 128.552 129.379C128.344 129.73 128.061 130.017 127.711 130.233L129.509 133.328ZM127.791 132.87L128.715 132.871L127.076 130.05L127.295 129.941C127.334 129.922 127.373 129.901 127.411 129.88C127.725 129.7 127.977 129.452 128.16 129.145C128.343 128.837 128.436 128.489 128.436 128.109C128.436 127.703 128.34 127.335 128.15 127.014C127.96 126.693 127.7 126.436 127.376 126.249C127.052 126.063 126.686 125.968 126.285 125.968H123.583V132.87L124.357 132.87V130.151L125.168 130.145H124.351V132.864H123.59V125.974H126.285C126.684 125.974 127.05 126.069 127.373 126.255C127.7 126.443 127.952 126.693 128.145 127.017C128.334 127.337 128.43 127.705 128.43 128.109C128.43 128.487 128.337 128.835 128.155 129.142C127.97 129.452 127.725 129.692 127.407 129.875C127.359 129.902 127.309 129.928 127.259 129.951L127.07 130.039L126.799 129.573L126.054 129.832L126.057 129.837L126.797 129.581L127.065 130.044L128.704 132.864L127.794 132.864L126.258 130.175L126.605 130.138C126.705 130.127 126.803 130.109 126.899 130.086L126.911 130.082L126.749 130.111C126.692 130.121 126.635 130.128 126.577 130.134L126.245 130.165L127.791 132.87ZM124.351 129.403H126.701L126.932 129.299C126.975 129.28 127.017 129.258 127.055 129.234C127.239 129.123 127.385 128.968 127.491 128.775C127.596 128.581 127.648 128.357 127.648 128.108C127.648 127.84 127.585 127.597 127.46 127.388C127.336 127.178 127.162 127.012 126.941 126.893C126.722 126.775 126.468 126.716 126.186 126.716H124.351L124.351 129.403ZM126.414 129.396H124.358L124.357 126.722H126.186C126.467 126.722 126.72 126.782 126.938 126.899C127.16 127.019 127.329 127.18 127.455 127.391C127.581 127.603 127.642 127.838 127.642 128.108C127.642 128.356 127.589 128.579 127.484 128.772C127.379 128.967 127.237 129.116 127.052 129.229C126.867 129.342 126.658 129.396 126.414 129.396ZM124.815 128.94H126.414C126.571 128.94 126.703 128.906 126.814 128.839C126.931 128.768 127.016 128.677 127.083 128.554C127.15 128.429 127.185 128.279 127.185 128.108C127.185 127.922 127.144 127.764 127.062 127.624C126.978 127.484 126.871 127.382 126.722 127.301C126.571 127.221 126.391 127.18 126.186 127.18H124.814L124.815 128.94Z" fill="white"/>
<path d="M133.082 132.965C132.734 132.965 132.405 132.917 132.097 132.818C131.788 132.72 131.506 132.572 131.25 132.375C130.994 132.178 130.767 131.935 130.57 131.646L131.102 131.054C131.412 131.494 131.728 131.803 132.053 131.981C132.378 132.158 132.744 132.247 133.152 132.247C133.447 132.247 133.716 132.198 133.959 132.099C134.202 132 134.393 131.863 134.531 131.685C134.668 131.508 134.738 131.305 134.738 131.074C134.738 130.923 134.713 130.789 134.664 130.671C134.615 130.552 134.54 130.447 134.442 130.355C134.343 130.263 134.222 130.181 134.077 130.109C133.933 130.037 133.768 129.971 133.58 129.912C133.393 129.852 133.184 129.794 132.955 129.734C132.62 129.655 132.326 129.562 132.073 129.454C131.82 129.346 131.607 129.212 131.433 129.055C131.259 128.897 131.128 128.715 131.038 128.508C130.95 128.301 130.905 128.057 130.905 127.774C130.905 127.505 130.963 127.255 131.078 127.026C131.192 126.796 131.352 126.597 131.556 126.43C131.759 126.262 131.999 126.132 132.275 126.04C132.551 125.948 132.846 125.903 133.161 125.903C133.516 125.903 133.833 125.951 134.112 126.046C134.39 126.141 134.638 126.28 134.855 126.464C135.072 126.648 135.26 126.868 135.417 127.124L134.875 127.656C134.737 127.439 134.581 127.252 134.407 127.095C134.233 126.938 134.042 126.818 133.836 126.735C133.629 126.654 133.4 126.612 133.151 126.612C132.862 126.612 132.607 126.661 132.388 126.759C132.167 126.858 131.995 126.994 131.87 127.168C131.746 127.342 131.683 127.541 131.683 127.764C131.683 127.928 131.712 128.074 131.772 128.202C131.831 128.331 131.924 128.442 132.052 128.537C132.181 128.633 132.348 128.718 132.555 128.793C132.762 128.869 133.009 128.94 133.299 129.005C133.64 129.084 133.947 129.179 134.219 129.291C134.492 129.403 134.725 129.536 134.919 129.689C135.113 129.845 135.261 130.023 135.362 130.227C135.464 130.43 135.515 130.664 135.515 130.926C135.515 131.333 135.413 131.69 135.21 131.995C135.006 132.3 134.722 132.538 134.358 132.709C133.993 132.88 133.568 132.965 133.082 132.965Z" fill="white"/>
<path d="M133.082 133.194C132.71 133.194 132.355 133.141 132.028 133.036C131.695 132.93 131.387 132.769 131.111 132.556C130.837 132.346 130.591 132.082 130.382 131.775L130.281 131.626L131.124 130.688L131.289 130.923C131.577 131.332 131.871 131.621 132.163 131.78C132.452 131.938 132.785 132.018 133.152 132.018C133.417 132.018 133.659 131.974 133.874 131.887C134.081 131.803 134.237 131.691 134.35 131.545C134.457 131.408 134.509 131.254 134.509 131.074C134.509 130.955 134.49 130.849 134.453 130.758C134.416 130.67 134.362 130.593 134.286 130.522C134.204 130.446 134.102 130.377 133.975 130.313C133.843 130.247 133.686 130.185 133.512 130.13C133.338 130.075 133.138 130.018 132.898 129.956C132.554 129.875 132.245 129.777 131.984 129.664C131.71 129.547 131.473 129.399 131.28 129.225C131.082 129.046 130.931 128.835 130.829 128.599C130.728 128.364 130.677 128.087 130.677 127.775C130.677 127.47 130.743 127.184 130.874 126.923C131.002 126.666 131.182 126.441 131.411 126.253C131.634 126.069 131.9 125.925 132.203 125.824C132.501 125.725 132.824 125.674 133.162 125.674C133.538 125.674 133.883 125.727 134.186 125.83C134.49 125.933 134.765 126.088 135.003 126.29C135.238 126.49 135.443 126.73 135.612 127.005L135.707 127.16L134.834 128.017L134.682 127.779C134.556 127.581 134.412 127.407 134.254 127.264C134.101 127.127 133.932 127.02 133.751 126.947C133.572 126.877 133.37 126.841 133.151 126.841C132.895 126.841 132.67 126.884 132.481 126.968C132.297 127.05 132.158 127.159 132.057 127.301C131.959 127.437 131.912 127.589 131.912 127.764C131.912 127.895 131.935 128.01 131.979 128.106C132.023 128.201 132.091 128.282 132.189 128.354C132.299 128.436 132.449 128.512 132.633 128.579C132.83 128.651 133.071 128.719 133.349 128.782C133.704 128.864 134.025 128.964 134.307 129.08C134.597 129.199 134.851 129.344 135.061 129.51C135.282 129.687 135.452 129.894 135.567 130.125C135.685 130.36 135.744 130.63 135.744 130.926C135.744 131.377 135.629 131.779 135.4 132.122C135.174 132.461 134.856 132.728 134.455 132.916C134.062 133.1 133.6 133.194 133.082 133.194ZM130.864 131.662C131.021 131.868 131.197 132.046 131.39 132.194C131.624 132.374 131.885 132.511 132.167 132.6C132.45 132.691 132.758 132.737 133.082 132.737C133.532 132.737 133.928 132.658 134.261 132.502C134.585 132.35 134.84 132.137 135.02 131.868C135.197 131.602 135.287 131.285 135.287 130.926C135.287 130.701 135.244 130.5 135.158 130.328C135.072 130.157 134.944 130.002 134.776 129.867C134.601 129.729 134.384 129.605 134.133 129.502C133.874 129.396 133.576 129.303 133.247 129.227C132.951 129.161 132.691 129.087 132.476 129.008C132.251 128.926 132.062 128.829 131.916 128.72C131.758 128.603 131.639 128.461 131.565 128.298C131.492 128.141 131.455 127.961 131.455 127.764C131.455 127.493 131.532 127.248 131.685 127.035C131.832 126.828 132.038 126.665 132.295 126.55C132.542 126.44 132.83 126.384 133.151 126.384C133.427 126.384 133.685 126.43 133.92 126.522C134.152 126.615 134.367 126.751 134.56 126.925C134.685 127.037 134.8 127.164 134.908 127.304L135.123 127.093C135.001 126.922 134.862 126.769 134.707 126.638C134.514 126.474 134.289 126.347 134.039 126.262C133.783 126.175 133.488 126.131 133.162 126.131C132.873 126.131 132.599 126.173 132.347 126.257C132.098 126.34 131.881 126.457 131.701 126.606C131.523 126.752 131.382 126.928 131.283 127.127C131.184 127.324 131.134 127.541 131.134 127.774C131.134 128.024 131.173 128.241 131.248 128.418C131.325 128.596 131.436 128.749 131.587 128.886C131.742 129.026 131.936 129.147 132.163 129.244C132.401 129.346 132.685 129.436 133.007 129.512C133.26 129.577 133.469 129.637 133.65 129.694C133.847 129.757 134.025 129.827 134.18 129.904C134.348 129.989 134.484 130.081 134.598 130.188C134.721 130.303 134.814 130.436 134.875 130.583C134.936 130.729 134.966 130.894 134.966 131.074C134.966 131.355 134.881 131.608 134.711 131.825C134.55 132.033 134.326 132.197 134.046 132.31C133.777 132.42 133.476 132.475 133.152 132.475C132.708 132.475 132.301 132.376 131.944 132.181C131.651 132.021 131.363 131.763 131.086 131.414L130.864 131.662Z" fill="white"/>
<path d="M133.082 133.197C132.711 133.197 132.356 133.144 132.027 133.039C131.694 132.933 131.385 132.772 131.109 132.559C130.835 132.348 130.589 132.085 130.379 131.777L130.276 131.626L131.124 130.683L131.292 130.922C131.579 131.331 131.873 131.619 132.164 131.778C132.453 131.935 132.785 132.015 133.151 132.015C133.416 132.015 133.658 131.972 133.872 131.885C134.079 131.8 134.235 131.689 134.347 131.544C134.454 131.406 134.506 131.253 134.506 131.075C134.506 130.956 134.487 130.85 134.45 130.759C134.413 130.672 134.359 130.595 134.284 130.525C134.203 130.449 134.099 130.379 133.974 130.316C133.839 130.25 133.684 130.188 133.511 130.133C133.336 130.078 133.136 130.021 132.897 129.959C132.553 129.878 132.243 129.779 131.982 129.667C131.708 129.55 131.471 129.402 131.277 129.227C131.08 129.048 130.928 128.837 130.825 128.6C130.725 128.364 130.674 128.087 130.674 127.775C130.674 127.47 130.74 127.184 130.871 126.922C130.999 126.665 131.18 126.438 131.409 126.251C131.632 126.067 131.899 125.922 132.202 125.821C132.5 125.722 132.823 125.671 133.161 125.671C133.538 125.671 133.883 125.723 134.187 125.827C134.491 125.93 134.767 126.085 135.005 126.288C135.241 126.488 135.446 126.728 135.614 127.003L135.711 127.16L134.833 128.022L134.68 127.781C134.554 127.583 134.41 127.41 134.251 127.267C134.1 127.129 133.931 127.023 133.75 126.95C133.571 126.88 133.369 126.844 133.151 126.844C132.896 126.844 132.67 126.887 132.483 126.971C132.299 127.053 132.16 127.162 132.059 127.303C131.962 127.438 131.915 127.589 131.915 127.764C131.915 127.894 131.938 128.009 131.982 128.105C132.026 128.199 132.094 128.28 132.191 128.351C132.301 128.434 132.45 128.509 132.635 128.576C132.832 128.648 133.072 128.717 133.35 128.779C133.706 128.861 134.028 128.962 134.308 129.077C134.599 129.196 134.853 129.342 135.064 129.508C135.285 129.685 135.455 129.892 135.57 130.124C135.688 130.359 135.748 130.63 135.748 130.926C135.748 131.378 135.631 131.78 135.403 132.124C135.176 132.464 134.858 132.732 134.456 132.919C134.062 133.103 133.6 133.197 133.082 133.197ZM130.868 131.662C131.025 131.867 131.2 132.045 131.392 132.191C131.625 132.371 131.886 132.508 132.168 132.597C132.451 132.688 132.758 132.734 133.082 132.734C133.531 132.734 133.927 132.655 134.259 132.499C134.583 132.348 134.838 132.135 135.017 131.866C135.194 131.6 135.284 131.284 135.284 130.926C135.284 130.702 135.24 130.501 135.155 130.329C135.07 130.158 134.942 130.004 134.774 129.87C134.599 129.731 134.382 129.608 134.132 129.505C133.874 129.399 133.576 129.307 133.246 129.23C132.951 129.164 132.691 129.089 132.475 129.01C132.249 128.928 132.06 128.831 131.914 128.723C131.756 128.605 131.637 128.463 131.561 128.299C131.488 128.141 131.451 127.961 131.451 127.764C131.451 127.492 131.529 127.247 131.682 127.033C131.83 126.825 132.036 126.662 132.293 126.547C132.541 126.436 132.83 126.38 133.151 126.38C133.427 126.38 133.686 126.427 133.921 126.519C134.153 126.612 134.369 126.748 134.562 126.922C134.686 127.034 134.801 127.16 134.908 127.299L135.118 127.092C134.997 126.922 134.859 126.771 134.705 126.64C134.511 126.476 134.287 126.35 134.038 126.265C133.782 126.178 133.487 126.134 133.161 126.134C132.873 126.134 132.599 126.176 132.348 126.26C132.1 126.343 131.882 126.46 131.703 126.608C131.525 126.754 131.384 126.929 131.285 127.129C131.187 127.325 131.137 127.542 131.137 127.774C131.137 128.023 131.175 128.24 131.251 128.417C131.328 128.594 131.438 128.747 131.588 128.883C131.744 129.023 131.937 129.143 132.164 129.241C132.401 129.342 132.685 129.432 133.008 129.508C133.26 129.574 133.468 129.633 133.65 129.691C133.846 129.752 134.024 129.824 134.181 129.901C134.346 129.984 134.487 130.08 134.6 130.185C134.723 130.301 134.816 130.434 134.877 130.581C134.938 130.728 134.969 130.894 134.969 131.074C134.969 131.355 134.883 131.609 134.713 131.827C134.552 132.035 134.328 132.199 134.047 132.313C133.777 132.423 133.475 132.478 133.151 132.478C132.706 132.478 132.3 132.379 131.942 132.184C131.649 132.024 131.362 131.767 131.085 131.419L130.868 131.662Z" fill="white"/>
<path d="M133.082 133.426C132.687 133.426 132.309 133.369 131.957 133.257C131.599 133.142 131.266 132.969 130.97 132.739C130.676 132.515 130.414 132.234 130.19 131.906L129.987 131.607L131.147 130.317L131.479 130.79C131.746 131.17 132.013 131.435 132.274 131.578C132.529 131.716 132.824 131.787 133.152 131.787C133.386 131.787 133.6 131.749 133.787 131.673C133.955 131.604 134.079 131.517 134.167 131.404C134.242 131.307 134.277 131.202 134.277 131.075C134.277 130.986 134.264 130.909 134.238 130.847C134.215 130.79 134.179 130.74 134.127 130.691C134.063 130.631 133.977 130.573 133.871 130.52C133.747 130.459 133.603 130.402 133.442 130.351C133.273 130.297 133.076 130.241 132.839 130.18C132.486 130.097 132.166 129.995 131.892 129.877C131.595 129.75 131.337 129.588 131.124 129.397C130.902 129.195 130.731 128.958 130.616 128.691C130.502 128.425 130.445 128.117 130.445 127.775C130.445 127.435 130.52 127.113 130.666 126.82C130.809 126.533 131.01 126.282 131.264 126.074C131.509 125.872 131.8 125.714 132.129 125.604C132.451 125.497 132.799 125.443 133.161 125.443C133.563 125.443 133.932 125.499 134.26 125.611C134.592 125.724 134.892 125.893 135.153 126.113C135.406 126.329 135.627 126.588 135.809 126.884L136 127.196L134.791 128.383L134.486 127.903C134.372 127.723 134.241 127.566 134.097 127.436C133.966 127.317 133.82 127.225 133.664 127.162C133.513 127.103 133.34 127.073 133.151 127.073C132.927 127.073 132.733 127.108 132.575 127.179C132.429 127.244 132.321 127.328 132.244 127.436C132.175 127.532 132.143 127.636 132.143 127.764C132.143 127.861 132.159 127.944 132.189 128.009C132.216 128.068 132.26 128.119 132.326 128.168C132.418 128.236 132.548 128.301 132.712 128.361C132.902 128.43 133.133 128.496 133.399 128.556C133.767 128.641 134.101 128.745 134.394 128.865C134.705 128.993 134.978 129.149 135.205 129.329C135.453 129.527 135.644 129.76 135.774 130.022C135.907 130.288 135.975 130.593 135.975 130.926C135.975 131.423 135.846 131.868 135.592 132.25C135.341 132.626 134.991 132.92 134.552 133.126C134.128 133.325 133.633 133.426 133.082 133.426ZM130.566 131.646L130.568 131.648C130.764 131.936 130.993 132.182 131.248 132.378C131.503 132.574 131.788 132.723 132.096 132.821C132.403 132.919 132.735 132.969 133.082 132.969C133.565 132.969 133.995 132.882 134.359 132.712C134.722 132.543 135.009 132.302 135.212 131.997C135.416 131.692 135.519 131.331 135.519 130.926C135.519 130.664 135.467 130.429 135.365 130.226C135.265 130.023 135.115 129.842 134.921 129.686C134.728 129.534 134.493 129.399 134.221 129.288C133.951 129.177 133.64 129.081 133.298 129.001C133.014 128.937 132.764 128.866 132.556 128.79C132.35 128.715 132.181 128.629 132.054 128.534C131.926 128.439 131.834 128.33 131.775 128.201C131.716 128.074 131.687 127.927 131.687 127.764C131.687 127.542 131.75 127.342 131.874 127.169C131.998 126.994 132.167 126.861 132.39 126.762C132.606 126.665 132.863 126.615 133.151 126.615C133.398 126.615 133.628 126.656 133.834 126.737C134.041 126.82 134.233 126.941 134.405 127.097C134.579 127.254 134.736 127.443 134.873 127.658L134.875 127.661L135.421 127.125L135.42 127.122C135.419 127.121 135.418 127.12 135.418 127.119L134.884 127.643L134.727 127.438C134.629 127.311 134.523 127.195 134.409 127.092C134.237 126.936 134.044 126.814 133.836 126.731C133.63 126.65 133.399 126.609 133.151 126.609C132.862 126.609 132.605 126.658 132.387 126.756C132.167 126.854 131.992 126.992 131.868 127.166C131.744 127.34 131.68 127.541 131.68 127.764C131.68 127.928 131.71 128.076 131.769 128.204C131.829 128.332 131.923 128.445 132.051 128.539C132.179 128.635 132.348 128.721 132.553 128.796C132.761 128.872 133.011 128.943 133.297 129.007C133.64 129.087 133.95 129.183 134.219 129.294C134.49 129.405 134.724 129.539 134.916 129.691C135.111 129.846 135.259 130.026 135.36 130.228C135.461 130.431 135.512 130.666 135.512 130.926C135.512 131.33 135.41 131.689 135.207 131.993C135.005 132.297 134.718 132.537 134.356 132.706C133.994 132.876 133.565 132.962 133.082 132.962C132.735 132.962 132.404 132.913 132.098 132.815C131.791 132.717 131.506 132.568 131.252 132.372C131.046 132.214 130.856 132.022 130.687 131.801L130.571 131.65L131.097 131.066L131.265 131.278C131.522 131.602 131.787 131.839 132.052 131.984C132.376 132.161 132.746 132.25 133.152 132.25C133.446 132.25 133.719 132.2 133.962 132.102C134.204 132.003 134.397 131.864 134.533 131.688C134.671 131.51 134.741 131.304 134.741 131.074C134.741 130.924 134.716 130.788 134.667 130.669C134.619 130.553 134.544 130.446 134.444 130.352C134.347 130.262 134.224 130.179 134.079 130.106C133.932 130.033 133.765 129.967 133.582 129.909C133.401 129.852 133.195 129.793 132.951 129.73C132.621 129.652 132.325 129.558 132.075 129.451C131.825 129.344 131.61 129.21 131.436 129.053C131.261 128.894 131.132 128.716 131.042 128.508C130.954 128.301 130.909 128.054 130.909 127.774C130.909 127.507 130.967 127.255 131.081 127.027C131.195 126.799 131.355 126.599 131.558 126.432C131.76 126.266 132.001 126.135 132.276 126.044C132.551 125.952 132.849 125.906 133.162 125.906C133.512 125.906 133.832 125.954 134.112 126.049C134.388 126.143 134.637 126.283 134.853 126.466C135.021 126.609 135.173 126.775 135.304 126.96L135.417 127.118C135.262 126.866 135.073 126.645 134.858 126.462C134.641 126.278 134.391 126.137 134.113 126.043C133.833 125.948 133.513 125.899 133.162 125.899C132.848 125.899 132.55 125.946 132.274 126.037C131.998 126.129 131.756 126.26 131.554 126.427C131.35 126.594 131.189 126.795 131.075 127.024C130.961 127.253 130.902 127.506 130.902 127.774C130.902 128.055 130.947 128.303 131.036 128.51C131.125 128.716 131.258 128.901 131.431 129.058C131.606 129.215 131.821 129.349 132.072 129.457C132.322 129.564 132.617 129.658 132.95 129.736C133.199 129.801 133.404 129.859 133.58 129.915C133.763 129.973 133.929 130.039 134.075 130.111C134.221 130.184 134.344 130.267 134.44 130.357C134.54 130.451 134.612 130.554 134.661 130.671C134.71 130.79 134.734 130.925 134.734 131.074C134.734 131.302 134.665 131.507 134.528 131.684C134.39 131.861 134.204 131.996 133.959 132.096C133.717 132.194 133.446 132.243 133.151 132.243C132.746 132.243 132.378 132.154 132.055 131.978C131.732 131.801 131.412 131.49 131.105 131.052L131.102 131.049L130.566 131.646Z" fill="white"/>
</g>
<defs>
<clipPath id="clip0_133_35">
<rect width="166" height="166" fill="white"/>
</clipPath>
</defs>
</svg>
