<svg width="23" height="20" viewBox="0 0 23 20" fill="none" xmlns="http://www.w3.org/2000/svg">
<g clip-path="url(#clip0_291_228)">
<path d="M0.228306 19.9903C0.307134 20.0102 0.390881 19.9992 0.461395 19.9599C0.531909 19.9205 0.583507 19.8559 0.605005 19.7801C1.23899 17.4981 3.81556 16.9066 5.35559 16.5527C5.74152 16.4642 6.04621 16.3942 6.2444 16.3116C7.99864 15.5771 8.57046 14.3954 8.74157 13.5332C8.75175 13.4819 8.74771 13.4289 8.72988 13.3796C8.71205 13.3302 8.68105 13.2863 8.64001 13.2523C7.72658 12.4916 6.95595 11.3497 6.46969 10.0362C6.45597 9.99848 6.43439 9.96392 6.40629 9.93461C5.76307 9.26003 5.39375 8.54685 5.39375 7.97857C5.39375 7.64662 5.52363 7.42394 5.816 7.25589C5.8598 7.23063 5.8964 7.19527 5.9225 7.15297C5.94861 7.11068 5.96341 7.06279 5.96557 7.01361C6.1016 3.98869 8.33471 1.60748 11.0738 1.59204L11.1396 1.59619C13.8922 1.63301 16.1112 4.0653 16.1906 7.13297C16.1917 7.1749 16.2021 7.21612 16.2209 7.2539C16.2398 7.29168 16.2668 7.32515 16.3002 7.35209C16.4928 7.50945 16.5827 7.70897 16.5827 7.97975C16.5827 8.4554 16.3199 9.04032 15.8434 9.62582C15.8207 9.65399 15.8033 9.68573 15.7917 9.71965C15.2993 11.2256 14.4154 12.5551 13.3678 13.3687C13.3244 13.4025 13.2913 13.447 13.272 13.4975C13.2527 13.548 13.248 13.6026 13.2583 13.6555C13.4294 14.5171 14.0012 15.6982 15.7554 16.434C15.9629 16.5207 16.2848 16.5884 16.6929 16.6733C18.2175 16.9916 20.7688 17.5254 21.3948 19.7801C21.4053 19.8178 21.4234 19.8531 21.4481 19.884C21.4727 19.9149 21.5034 19.9409 21.5385 19.9603C21.5735 19.9798 21.6122 19.9924 21.6523 19.9975C21.6924 20.0025 21.7331 19.9999 21.7721 19.9898C21.8112 19.9796 21.8478 19.9622 21.8798 19.9384C21.9119 19.9146 21.9387 19.885 21.9589 19.8512C21.9791 19.8174 21.9922 19.7801 21.9974 19.7414C22.0026 19.7027 21.9999 19.6634 21.9894 19.6257C21.2662 17.0207 18.3757 16.4167 16.8234 16.0925C16.4633 16.0171 16.1524 15.9524 16.001 15.8882C14.8562 15.4084 14.1508 14.6774 13.9015 13.7119C14.9645 12.8313 15.8539 11.4726 16.3623 9.94886C16.9021 9.27191 17.1988 8.57476 17.1988 7.97916C17.1988 7.58189 17.0659 7.25054 16.8024 6.99164C16.6559 3.66387 14.1945 1.04335 11.1396 1.00119L11.0479 1C8.0485 1.01544 5.57656 3.56708 5.36052 6.83725C4.9752 7.1104 4.77947 7.49342 4.77947 7.97975C4.77947 8.68224 5.19125 9.5225 5.91202 10.2933C6.40998 11.6133 7.18184 12.7731 8.10081 13.5848C7.85276 14.5539 7.14676 15.2873 5.99943 15.7677C5.85109 15.83 5.55564 15.8983 5.21341 15.9767C3.64937 16.3354 0.739188 17.0034 0.0104119 19.6269C-0.0106349 19.703 0.000496295 19.784 0.0413576 19.8522C0.082219 19.9203 0.149465 19.97 0.228306 19.9903Z" fill="#040404" stroke="#111111"/>
</g>
<defs>
<clipPath id="clip0_291_228">
<rect width="22.5" height="20" fill="white"/>
</clipPath>
</defs>
</svg>
