<svg width="270" height="75" viewBox="0 0 270 75" fill="none" xmlns="http://www.w3.org/2000/svg">
<path d="M13.3287 6.15114C30.1152 1.26165 67.7557 -4.3484 84.0257 12.3273C104.363 33.172 108.237 54.0167 138.259 57.8768C168.281 61.7369 266.095 36.2601 269 35.4881" stroke="#111111"/>
<path d="M0.73877 21.9597C17.5253 17.0702 55.1658 11.4602 71.4358 28.1359C91.7733 48.9806 95.6471 69.8253 125.669 73.6854C155.691 77.5455 253.505 52.0687 256.41 51.2967" stroke="#111111"/>
<path d="M6.5495 14.2395C23.336 9.35003 60.9765 3.73998 77.2465 20.4157C97.584 41.2604 101.458 62.1051 131.48 65.9652C161.502 69.8253 259.316 44.3485 262.221 43.5765" stroke="#111111" stroke-dasharray="5 5"/>
</svg>
