<svg width="175" height="49" viewBox="0 0 175 49" fill="none" xmlns="http://www.w3.org/2000/svg">
<path d="M9.15381 4.23841C20.0255 1.07174 44.4033 -2.56159 54.9405 8.23841C68.1121 21.7384 70.6209 35.2384 90.0646 37.7384C109.508 40.2384 172.857 23.7384 174.739 23.2384" stroke="#111111"/>
<path d="M1 14.4767C11.8717 11.31 36.2495 7.67669 46.7867 18.4767C59.9583 31.9767 62.4671 45.4767 81.9108 47.9767C101.354 50.4767 164.703 33.9767 166.585 33.4767" stroke="#111111"/>
<path d="M4.76318 9.47669C15.6349 6.31002 40.0127 2.67669 50.5499 13.4767C63.7215 26.9767 66.2303 40.4767 85.674 42.9767C105.118 45.4767 168.466 28.9767 170.348 28.4767" stroke="#111111" stroke-dasharray="5 5"/>
</svg>
