<svg width="172" height="165" viewBox="0 0 172 165" fill="none" xmlns="http://www.w3.org/2000/svg">
<path d="M68.8236 88.29C73.8031 89.7996 78.3744 89.7069 82.8155 87.4092C83.14 87.2418 83.7149 87.285 84.0528 87.4616C88.454 89.7603 93.0265 89.5109 97.7797 88.5889C96.1695 91.5557 93.9441 94.0325 90.706 95.1933C85.9744 96.8893 81.095 96.8535 76.3428 95.2112C72.9681 94.0447 70.6174 91.5862 68.8236 88.29Z" fill="white"/>
<path d="M104.7 55.3042C104.411 55.574 103.989 56.2145 103.404 56.4471C102.779 56.696 101.716 55.4761 101.724 54.6274C101.731 53.8251 102.12 53.2875 102.985 53.2405C103.834 53.1948 104.645 53.9896 104.7 55.3042Z" fill="white"/>
<path d="M63.5611 56.5547C62.7929 56.5624 61.5471 55.3974 61.8892 54.8217C62.3173 54.1039 63.136 53.3881 63.9211 53.1807C64.6906 52.9764 65.5132 53.5563 65.5606 54.5976C65.6039 55.5596 64.579 56.5437 63.5611 56.5547Z" fill="white"/>
<path d="M124.405 114.537H137.148C134.966 111.325 132.572 108.266 129.954 105.368C124.51 99.342 118.313 94.2313 111.365 90.0168C110.186 89.3015 109.57 89.4654 108.586 90.4357C105.887 93.0988 103 95.5712 100.179 98.1107C99.7972 98.4543 99.3703 98.7477 98.9159 99.104C101.599 100.27 104.173 101.293 106.661 102.495C110.058 104.138 113.273 106.083 115.99 108.763C116.337 109.105 116.838 109.378 117.312 109.485C118.883 109.842 120.188 110.546 121.25 112.111C118.51 110.904 116.007 110.921 113.727 112.507C111.143 114.304 109.365 116.69 109.309 119.998C109.286 121.401 110.078 122.054 111.455 121.875C113.075 121.664 114.456 120.964 115.437 119.613C116.134 118.653 116.798 117.671 117.476 116.699C117.471 117.143 117.25 117.494 117.168 117.874C116.872 119.237 116.447 120.605 116.402 121.983C116.352 123.547 117.116 124.026 118.636 123.725C121.413 123.174 123.049 121.383 123.781 118.759C124.089 117.652 124.227 116.497 124.406 115.32L124.405 114.537Z" fill="white"/>
<path d="M75.3687 74.9102C74.8747 76.6961 75.2454 77.3195 76.9739 77.8969C78.0289 78.2487 79.1188 78.5725 80.0821 79.1076C81.8429 80.0868 82.1329 81.9619 80.7184 83.3619C78.248 85.8057 75.2601 86.933 71.7775 86.3153C69.8987 85.9814 68.7754 84.6601 68.0974 82.951C66.8626 79.8408 67.1503 76.6109 67.3886 73.3885C67.406 73.1552 67.4358 72.9219 67.4914 72.3825C63.9942 76.7823 63.4891 81.2195 66.0109 85.9605C61.3049 86.7277 56.6096 84.4931 54.6351 80.1946C51.8415 74.1132 51.0343 67.669 52.967 61.2082C53.6629 58.8829 54.0242 56.5711 54.5007 54.2346C55.0978 51.3096 56.1547 48.4769 57.0588 45.4513C56.1694 45.0868 54.9582 44.5976 53.7519 44.0954C47.147 41.345 41.7384 37.1464 38.029 30.9492C35.1191 26.0885 33.0743 20.8597 31.5681 15.4067C30.3957 11.1606 29.5691 6.86803 29.5837 2.44504C29.5862 1.75931 29.6667 1.07382 29.7361 0C31.7018 0.686976 33.4691 1.205 35.1578 1.91086C43.5841 5.43295 50.6156 10.9688 57.0799 17.2892C60.641 20.771 63.8707 24.5371 66.5175 28.7762C66.7128 29.0888 66.9384 29.3822 67.1257 29.6505C69.041 28.7795 70.8699 27.8391 72.779 27.1044C75.7677 25.9533 78.8791 25.6589 82.0598 26.1436C82.7478 26.2485 83.4777 26.36 84.1483 26.2418C89.1537 25.3563 93.7615 26.5054 98.1537 28.8557C98.6267 29.1087 99.101 29.3589 99.5771 29.6073C99.6116 29.6252 99.6588 29.616 99.7575 29.6242C105.712 20.4503 113.509 13.0689 122.507 6.90529C126.385 4.24857 130.577 2.1931 135.035 0.693683C135.647 0.487962 136.295 0.390817 137.111 0.200501C137.111 2.34193 137.32 4.33925 137.076 6.27968C135.78 16.5826 132.537 26.1801 126.238 34.5635C122.558 39.4618 117.388 42.3108 111.851 44.5896C111.094 44.9017 110.327 45.1914 109.487 45.5223C109.642 45.9154 109.743 46.2672 109.91 46.5835C111.614 49.8241 112.486 53.2878 112.722 56.9279C112.788 57.9299 112.76 58.8757 113.49 59.8079C114.086 60.5692 114.302 61.7141 114.458 62.7233C115.354 68.5304 114.887 74.2312 112.48 79.6232C110.358 84.3768 106.145 86.5809 100.774 86.0204C103.271 81.3258 102.984 76.8902 99.379 72.5606C99.4267 73.2759 99.4943 73.7815 99.4886 74.2856C99.4648 76.433 99.6017 78.6005 99.345 80.7201C98.8233 85.0263 96.211 86.931 91.9269 86.3777C89.8496 86.1093 88.0346 85.2325 86.5066 83.8315C84.5155 82.0083 84.8236 79.9727 87.2498 78.8192C88.103 78.4139 89.0356 78.1747 89.9363 77.8728C91.6489 77.2984 92.0429 76.5985 91.5508 74.9082C91.8509 74.7167 92.1597 74.5137 92.4735 74.3194C93.514 73.6737 94.0007 72.7286 93.5925 71.572C92.3987 68.197 91.1219 64.8521 89.8772 61.4954C89.7393 61.5417 89.6021 61.5881 89.464 61.6348C89.8103 63.1487 90.1606 64.6615 90.4995 66.1758C90.6265 66.7408 90.7557 67.3085 90.8335 67.8815C91.0948 69.8212 90.6605 70.4055 88.8004 70.9014C87.6448 71.2093 86.5002 71.5829 85.3841 72.0135C84.0425 72.5298 82.7557 72.5663 81.4036 72.0227C80.295 71.5772 79.1357 71.2488 77.9829 70.9245C76.2641 70.4413 75.8117 69.9508 76.0909 68.1769C76.4249 66.0558 76.9523 63.9656 77.3936 61.8607C77.4264 61.7064 77.4415 61.5481 77.3456 61.3501C75.8415 64.8396 73.7816 68.1026 73.2374 71.9663C73.0923 72.9964 73.5316 73.7286 74.3522 74.2792C74.6904 74.507 75.0432 74.7095 75.3687 74.9102ZM128.971 11.1154C128.688 11.2468 128.392 11.3561 128.124 11.5139C121.119 15.6454 115.662 21.2906 111.81 28.4443C110.077 31.6635 108.851 35.0987 108.355 38.7393C108.269 39.3726 108.696 40.0757 108.887 40.7463C109.625 40.5085 110.558 40.4712 111.055 39.9863C111.833 39.2282 112.386 38.2048 112.91 37.2279C115.338 32.7125 117.631 28.1226 120.149 23.6586C122.658 19.206 125.469 14.9378 128.971 11.1154ZM38.0029 10.9993C37.9467 11.0726 37.8916 11.1459 37.8352 11.2192C37.9499 11.3668 38.0553 11.5236 38.1815 11.6607C42.4972 16.3518 45.8674 21.6834 48.8159 27.3046C50.7928 31.0742 52.7685 34.8447 54.8135 38.5773C55.2367 39.3492 55.8695 40.0787 56.5709 40.6091C57.6169 41.4002 58.5918 40.907 58.5746 39.5974C58.5607 38.539 58.3336 37.4647 58.072 36.4301C55.6941 27.047 50.1811 19.808 42.5945 14.028C41.1396 12.9194 39.5373 12.0038 38.0029 10.9993ZM108.171 52.3665C106.696 51.7607 105.155 50.9277 103.508 50.5011C101.468 49.9726 99.4372 50.2785 97.8906 51.9098C95.5829 54.3429 95.5956 60.8639 97.8573 63.4008C97.8744 63.4202 97.9328 63.4033 98.0192 63.4033C98.0583 62.5978 98.0975 61.7797 98.1432 60.847C100.632 61.3066 102.982 61.8835 104.969 60.1434C107.058 58.313 106.851 56.1239 105.432 53.617C106.496 53.8994 107.223 54.0925 107.917 54.2769C107.99 53.7295 108.057 53.2249 108.171 52.3665ZM61.0843 53.8165C60.7988 54.7782 60.44 55.5445 60.359 56.3388C60.0795 59.0829 62.1797 61.8527 66.3528 61.2197C68.7426 60.8562 68.7494 60.9046 68.8405 63.2756C68.842 63.3149 68.9561 63.3499 69.1012 63.4361C70.8751 60.7183 71.0085 57.7502 70.3375 54.732C69.65 51.6417 67.6507 50.2308 64.5 50.3031C62.1549 50.3575 60.2639 51.4561 58.5242 52.7526C58.6882 53.2912 58.832 53.7638 58.9563 54.1715C59.6827 54.0508 60.3454 53.9402 61.0843 53.8165Z" fill="white"/>
<path d="M42.5359 114.536C38.2958 114.666 34.113 114.794 29.581 114.933C30.421 113.738 31.0595 112.796 31.7304 111.879C37.4267 104.087 44.2989 97.5126 52.288 92.1077C53.5881 91.228 54.9435 90.424 56.3182 89.6644C56.6086 89.5039 57.2842 89.534 57.4581 89.7434C60.3826 93.2804 63.8386 96.2186 67.5558 98.8731C67.643 98.9348 67.6748 99.0731 67.7664 99.2361C66.1418 99.9005 64.5323 100.529 62.9464 101.212C58.4713 103.135 54.3017 105.544 50.7384 108.921C50.4062 109.236 49.8859 109.4 49.4243 109.523C47.9529 109.915 46.7226 110.638 45.7233 111.951C51.4015 110.29 56.0948 112.891 57.427 118.35C57.5624 118.905 57.6166 119.495 57.6071 120.068C57.5883 121.212 56.9192 121.841 55.813 121.868C54.0865 121.91 52.6897 121.159 51.6333 119.814C50.9339 118.924 50.2976 117.983 49.6596 117.101C49.9443 118.541 50.393 119.969 50.4755 121.418C50.6007 123.603 49.5972 124.27 47.5107 123.559C44.3441 122.48 43.2273 119.89 42.7232 116.893C42.6017 116.17 42.6027 115.425 42.5359 114.536Z" fill="white"/>
<path d="M110.821 115.24C109.547 116.417 108.402 117.477 107.421 118.384C91.3179 108.946 75.4169 109.253 59.4042 118.364C58.5068 117.345 57.503 116.205 56.4006 114.953C63.1044 110.039 70.9976 107.402 79.5501 106.778C90.8811 105.952 101.398 108.383 110.821 115.24Z" fill="white"/>
<path d="M45.4381 148.525V126.038H51.124L62.0463 141.008L60.7292 140.686C60.6214 139.894 60.5312 139.177 60.4554 138.535C60.3802 137.892 60.316 137.281 60.2634 136.703C60.2094 136.125 60.1672 135.547 60.1342 134.969C60.1021 134.391 60.0867 133.759 60.0867 133.074C60.0867 132.388 60.0867 131.618 60.0867 130.761V126.038H66.2218V148.525H60.4718L48.7142 132.463L50.9309 133.01C51.0383 133.888 51.1289 134.648 51.2047 135.29C51.2795 135.933 51.3384 136.511 51.3819 137.025C51.4241 137.538 51.4611 138.032 51.4939 138.502C51.526 138.973 51.5468 139.478 51.558 140.012C51.5687 140.547 51.5734 141.157 51.5734 141.843V148.525H45.4381Z" fill="white"/>
<path d="M79.0716 148.847C77.3155 148.847 75.6986 148.558 74.221 147.979C72.743 147.401 71.4632 146.593 70.3821 145.554C69.3004 144.515 68.4653 143.283 67.8767 141.859C67.2872 140.436 66.993 138.867 66.993 137.153C66.993 135.462 67.2983 133.904 67.9088 132.479C68.5192 131.056 69.3707 129.819 70.4626 128.769C71.5548 127.719 72.85 126.906 74.35 126.327C75.8486 125.749 77.4867 125.461 79.2644 125.461C80.3357 125.461 81.379 125.594 82.3967 125.862C83.4138 126.13 84.3721 126.52 85.2718 127.034C86.1712 127.548 86.9742 128.191 87.6805 128.962L83.8576 133.395C83.4936 132.989 83.0869 132.624 82.6367 132.303C82.1867 131.981 81.6791 131.73 81.1109 131.548C80.5432 131.366 79.9163 131.274 79.2321 131.274C78.4398 131.274 77.6947 131.408 76.9995 131.676C76.3031 131.944 75.6986 132.334 75.184 132.849C74.67 133.363 74.2682 133.984 73.9795 134.712C73.6903 135.44 73.5457 136.275 73.5457 137.217C73.5457 138.117 73.6903 138.925 73.9795 139.643C74.2682 140.361 74.6861 140.972 75.232 141.474C75.7776 141.977 76.4315 142.369 77.1915 142.647C77.9523 142.926 78.803 143.065 79.7459 143.065C80.4088 143.065 81.0351 142.968 81.6247 142.776C82.2128 142.584 82.7542 142.326 83.2464 142.005C83.7383 141.683 84.1781 141.33 84.5634 140.943L87.5836 145.731C87.0475 146.331 86.325 146.865 85.4149 147.337C84.5048 147.808 83.4978 148.178 82.3959 148.445C81.2933 148.713 80.1849 148.847 79.0716 148.847Z" fill="white"/>
<path d="M84.5965 148.525L93.5592 126.038H98.6995L107.597 148.525H101.269L97.414 138.085C97.1993 137.507 97.0065 136.972 96.8358 136.478C96.6642 135.987 96.5032 135.504 96.3541 135.033C96.204 134.562 96.0589 134.08 95.9203 133.588C95.7806 133.096 95.6582 132.56 95.5516 131.981L96.5794 131.95C96.451 132.57 96.3166 133.127 96.1777 133.621C96.0383 134.112 95.8942 134.585 95.7444 135.034C95.5943 135.484 95.4286 135.955 95.247 136.447C95.0639 136.94 94.8656 137.486 94.6519 138.086L90.7969 148.526L84.5965 148.525ZM88.9658 144.799L90.8613 140.301H101.27L103.037 144.799H88.9658Z" fill="white"/>
<path d="M106.666 148.525V126.038H117.042C118.562 126.038 119.922 126.349 121.122 126.97C122.321 127.591 123.258 128.436 123.933 129.508C124.607 130.579 124.944 131.811 124.944 133.202C124.944 134.701 124.607 136.029 123.933 137.185C123.258 138.342 122.321 139.247 121.122 139.899C119.922 140.554 118.562 140.879 117.042 140.879H112.641V148.524L106.666 148.525ZM112.641 136.318H116.175C116.731 136.318 117.197 136.206 117.572 135.982C117.947 135.757 118.236 135.447 118.439 135.05C118.642 134.654 118.745 134.188 118.745 133.653C118.745 133.139 118.637 132.695 118.423 132.319C118.209 131.945 117.893 131.656 117.476 131.452C117.058 131.25 116.539 131.147 115.918 131.147H112.641L112.641 136.318ZM118.712 148.525L112.993 138.374L119.515 137.571L125.876 148.526L118.712 148.525Z" fill="white"/>
<path d="M136.38 148.847C134.646 148.847 133.051 148.558 131.594 147.979C130.137 147.401 128.873 146.587 127.803 145.538C126.731 144.489 125.903 143.252 125.313 141.827C124.724 140.403 124.429 138.846 124.429 137.153C124.429 135.44 124.724 133.877 125.313 132.463C125.902 131.05 126.731 129.819 127.803 128.769C128.873 127.72 130.137 126.906 131.594 126.328C133.05 125.75 134.645 125.461 136.38 125.461C138.115 125.461 139.705 125.75 141.15 126.328C142.596 126.906 143.86 127.72 144.941 128.769C146.023 129.819 146.853 131.05 147.431 132.463C148.01 133.877 148.298 135.43 148.298 137.121C148.298 138.835 148.01 140.403 147.431 141.827C146.853 143.251 146.023 144.489 144.941 145.538C143.86 146.588 142.596 147.401 141.15 147.979C139.705 148.558 138.115 148.847 136.38 148.847ZM136.38 142.936C137.152 142.936 137.868 142.796 138.533 142.518C139.196 142.24 139.774 141.839 140.267 141.313C140.76 140.789 141.14 140.172 141.408 139.465C141.675 138.758 141.809 137.988 141.809 137.152C141.809 136.317 141.675 135.546 141.408 134.839C141.14 134.132 140.76 133.517 140.267 132.991C139.774 132.467 139.196 132.065 138.533 131.787C137.868 131.509 137.151 131.368 136.38 131.368C135.588 131.368 134.86 131.508 134.196 131.787C133.531 132.065 132.953 132.466 132.462 132.991C131.969 133.516 131.589 134.127 131.322 134.823C131.053 135.519 130.919 136.295 130.919 137.151C130.919 137.987 131.053 138.758 131.322 139.464C131.589 140.171 131.969 140.787 132.462 141.312C132.953 141.837 133.532 142.238 134.196 142.517C134.859 142.796 135.587 142.936 136.38 142.936Z" fill="white"/>
<path d="M159.67 148.847C157.936 148.847 156.34 148.558 154.883 147.979C153.427 147.401 152.163 146.587 151.093 145.538C150.021 144.489 149.192 143.252 148.603 141.827C148.014 140.403 147.719 138.846 147.719 137.153C147.719 135.44 148.014 133.877 148.603 132.463C149.192 131.05 150.021 129.819 151.093 128.769C152.163 127.72 153.427 126.906 154.883 126.328C156.339 125.75 157.935 125.461 159.67 125.461C161.405 125.461 162.995 125.75 164.441 126.328C165.886 126.906 167.149 127.72 168.231 128.769C169.312 129.819 170.142 131.05 170.721 132.463C171.299 133.877 171.588 135.43 171.588 137.121C171.588 138.835 171.299 140.403 170.721 141.827C170.143 143.251 169.312 144.489 168.231 145.538C167.149 146.588 165.886 147.401 164.441 147.979C162.995 148.558 161.405 148.847 159.67 148.847ZM159.67 142.936C160.441 142.936 161.158 142.796 161.823 142.518C162.486 142.24 163.064 141.839 163.557 141.313C164.049 140.789 164.429 140.172 164.697 139.465C164.965 138.758 165.098 137.988 165.098 137.152C165.098 136.317 164.965 135.546 164.697 134.839C164.429 134.132 164.049 133.517 163.557 132.991C163.064 132.467 162.486 132.065 161.823 131.787C161.158 131.509 160.441 131.368 159.67 131.368C158.878 131.368 158.149 131.508 157.486 131.787C156.821 132.065 156.244 132.466 155.752 132.991C155.259 133.516 154.878 134.127 154.61 134.823C154.343 135.519 154.209 136.295 154.209 137.151C154.209 137.987 154.343 138.758 154.61 139.464C154.878 140.171 155.258 140.787 155.752 141.312C156.244 141.837 156.822 142.238 157.486 142.517C158.149 142.796 158.877 142.936 159.67 142.936Z" fill="white"/>
<path d="M46.3703 148.525L37.4721 126.038H32.3321L26.3242 141.109L30.4098 146.247L30.9445 144.799H38.6647L40.0401 148.525H46.3703ZM32.6059 140.302L33.4245 138.085C33.638 137.486 33.8365 136.94 34.0191 136.447C34.2005 135.954 34.3664 135.483 34.517 135.033C34.6233 134.716 34.7257 134.383 34.8261 134.043C34.9242 134.378 35.0241 134.71 35.1275 135.033C35.2775 135.505 35.4375 135.987 35.609 136.479C35.7801 136.972 35.973 137.507 36.1869 138.085L37.0055 140.302H32.6059Z" fill="white"/>
<path d="M0 156.616V122.912H9.53271V156.616H0ZM6.74033 146.938L3.75514 139.523L20.0766 122.912H31.0548L6.74033 146.938ZM25.958 164.619L6.64342 140.48L12.9022 135.088L37.8602 164.619H25.958Z" fill="white"/>
<path d="M44.5832 163.831C43.7844 163.831 43.0487 163.69 42.3769 163.408C41.7058 163.125 41.1247 162.726 40.6345 162.209C40.1441 161.692 39.7637 161.081 39.4921 160.379C39.2193 159.675 39.0842 158.908 39.0842 158.077C39.0842 157.257 39.2193 156.502 39.4921 155.815C39.7644 155.127 40.1498 154.525 40.6509 154.009C41.1513 153.492 41.7324 153.095 42.3938 152.818C43.0532 152.541 43.7785 152.403 44.5673 152.403C45.0891 152.403 45.6066 152.486 46.1177 152.65C46.6295 152.816 47.1003 153.043 47.5329 153.329C47.9642 153.617 48.3177 153.948 48.5955 154.321L47.7324 155.216C47.466 154.897 47.1604 154.619 46.8138 154.385C46.467 154.15 46.1018 153.969 45.7186 153.841C45.335 153.713 44.9509 153.65 44.5671 153.65C43.9695 153.65 43.4142 153.759 42.8962 153.977C42.3786 154.196 41.9352 154.501 41.5625 154.896C41.1891 155.291 40.8993 155.759 40.6911 156.303C40.4832 156.846 40.3798 157.437 40.3798 158.077C40.3798 158.737 40.4832 159.345 40.6911 159.899C40.8993 160.454 41.1968 160.93 41.5866 161.33C41.9749 161.729 42.4333 162.039 42.9608 162.257C43.4882 162.475 44.0786 162.585 44.7268 162.585C45.1107 162.585 45.4945 162.528 45.8794 162.416C46.263 162.304 46.6143 162.148 46.9336 161.945C47.2533 161.743 47.5251 161.514 47.7495 161.257L48.3883 162.296C48.1428 162.595 47.8161 162.859 47.4054 163.088C46.9949 163.317 46.5452 163.498 46.0555 163.631C45.5634 163.764 45.0734 163.831 44.5832 163.831Z" fill="white"/>
<path d="M44.5832 164.201C43.7387 164.201 42.9478 164.049 42.2333 163.75C41.5155 163.447 40.8872 163.015 40.3654 162.464C39.8454 161.916 39.4352 161.259 39.1468 160.512C38.8593 159.771 38.7137 158.951 38.7137 158.077C38.7137 157.212 38.8598 156.404 39.1478 155.678C39.4377 154.946 39.8541 154.298 40.3848 153.751C40.9163 153.201 41.5438 152.772 42.2502 152.476C42.9526 152.181 43.7322 152.032 44.5673 152.032C45.1246 152.032 45.6848 152.121 46.2314 152.297C46.7711 152.472 47.2777 152.715 47.7376 153.02C48.2009 153.329 48.5898 153.692 48.8931 154.099L49.081 154.352L47.7125 155.77L47.4481 155.453C47.2039 155.16 46.9204 154.904 46.6061 154.691C46.29 154.478 45.9519 154.31 45.6016 154.193C45.2575 154.079 44.9094 154.02 44.5673 154.02C44.0239 154.02 43.5106 154.121 43.0405 154.319C42.5737 154.516 42.167 154.796 41.8323 155.151C41.4949 155.508 41.2273 155.94 41.0377 156.436C40.8474 156.932 40.7513 157.485 40.7513 158.077C40.7513 158.692 40.8479 159.261 41.0387 159.769C41.2276 160.273 41.5014 160.711 41.8524 161.071C42.205 161.434 42.6254 161.717 43.1026 161.915C43.5829 162.114 44.1293 162.214 44.7273 162.214C45.0722 162.214 45.4252 162.163 45.7763 162.061C46.1248 161.959 46.4476 161.815 46.736 161.633C47.0235 161.451 47.2705 161.242 47.471 161.014L47.8022 160.636L48.8432 162.328L48.6752 162.533C48.4002 162.867 48.0337 163.163 47.5857 163.412C47.1519 163.655 46.6697 163.849 46.1529 163.99C45.6314 164.13 45.1032 164.201 44.5832 164.201ZM44.5673 152.773C43.8309 152.773 43.1481 152.903 42.5369 153.16C41.9235 153.417 41.3791 153.789 40.9175 154.267C40.4541 154.744 40.0906 155.311 39.8365 155.951C39.583 156.59 39.4546 157.305 39.4546 158.077C39.4546 158.86 39.5838 159.589 39.8375 160.245C40.0914 160.902 40.4499 161.476 40.9031 161.954C41.354 162.43 41.8981 162.804 42.5207 163.066C43.1431 163.328 43.8371 163.46 44.5829 163.46C45.0376 163.46 45.501 163.398 45.9599 163.274C46.4173 163.149 46.8431 162.978 47.225 162.765C47.5003 162.612 47.7351 162.44 47.9266 162.253L47.6797 161.851C47.513 161.997 47.3306 162.134 47.1328 162.259C46.7857 162.479 46.3991 162.652 45.9832 162.773C45.5646 162.894 45.142 162.956 44.7273 162.956C44.0311 162.956 43.3891 162.836 42.8189 162.599C42.2482 162.364 41.7441 162.024 41.321 161.588C40.8981 161.154 40.5694 160.63 40.3443 160.029C40.1219 159.437 40.0094 158.781 40.0094 158.078C40.0094 157.394 40.1222 156.752 40.345 156.171C40.5696 155.583 40.8887 155.069 41.2936 154.642C41.6989 154.212 42.1893 153.874 42.7521 153.636C43.3138 153.399 43.9245 153.279 44.567 153.279C44.9892 153.279 45.416 153.35 45.8354 153.49C46.2501 153.628 46.6491 153.826 47.0213 154.078C47.2796 154.253 47.5204 154.452 47.7401 154.674L48.0998 154.301C47.8819 154.058 47.623 153.835 47.3271 153.638C46.9239 153.371 46.4784 153.157 46.0031 153.003C45.5308 152.851 45.0475 152.773 44.5673 152.773Z" fill="white"/>
<path d="M44.5831 164.207C43.7382 164.207 42.9463 164.055 42.231 163.755C41.5125 163.452 40.8837 163.019 40.3617 162.467C39.8407 161.919 39.4305 161.261 39.1415 160.514C38.854 159.772 38.7084 158.952 38.7084 158.077C38.7084 157.211 38.8545 156.403 39.143 155.676C39.4329 154.944 39.8498 154.295 40.3813 153.747C40.913 153.197 41.5408 152.768 42.2484 152.471C42.9508 152.176 43.7314 152.026 44.5675 152.026C45.1255 152.026 45.6863 152.116 46.2334 152.292C46.7733 152.468 47.2806 152.711 47.741 153.016C48.2044 153.325 48.5937 153.689 48.8976 154.096L49.0884 154.352L47.7122 155.779L47.4443 155.457C47.2006 155.164 46.9176 154.908 46.6036 154.696C46.2878 154.482 45.9496 154.315 45.6001 154.198C45.2567 154.083 44.9091 154.025 44.5675 154.025C44.0249 154.025 43.5123 154.126 43.043 154.323C42.5771 154.52 42.1712 154.799 41.8367 155.155C41.4996 155.51 41.2325 155.942 41.0429 156.438C40.8526 156.934 40.7567 157.486 40.7567 158.077C40.7567 158.691 40.8534 159.26 41.0437 159.767C41.2327 160.271 41.506 160.708 41.8566 161.067C42.2089 161.43 42.6286 161.713 43.1049 161.91C43.5841 162.108 44.13 162.209 44.7275 162.209C45.0724 162.209 45.4247 162.157 45.775 162.056C46.1236 161.954 46.4463 161.81 46.733 161.628C47.0207 161.446 47.2675 161.238 47.4672 161.01L47.8034 160.627L48.8491 162.329L48.6794 162.536C48.4044 162.87 48.0374 163.167 47.5887 163.417C47.1544 163.66 46.6719 163.854 46.1549 163.995C45.6316 164.135 45.1032 164.207 44.5831 164.207ZM44.5673 152.778C43.8313 152.778 43.1491 152.909 42.5394 153.165C41.9259 153.422 41.3821 153.794 40.9212 154.27C40.4583 154.748 40.0951 155.314 39.8414 155.953C39.5885 156.591 39.4603 157.306 39.4603 158.077C39.4603 158.859 39.5892 159.587 39.8424 160.243C40.0961 160.898 40.4541 161.472 40.9068 161.95C41.3572 162.426 41.9006 162.799 42.5227 163.061C43.1446 163.323 43.838 163.455 44.5829 163.455C45.0366 163.455 45.4995 163.393 45.9583 163.269C46.415 163.145 46.8411 162.974 47.2222 162.76C47.496 162.607 47.7298 162.437 47.9201 162.252L47.6779 161.859C47.5129 162.004 47.3315 162.139 47.1353 162.263C46.7889 162.483 46.4018 162.656 45.9844 162.778C45.5655 162.899 45.1424 162.96 44.727 162.96C44.0298 162.96 43.3871 162.841 42.8169 162.604C42.2454 162.368 41.7411 162.028 41.3167 161.591C40.8939 161.158 40.5646 160.633 40.3388 160.031C40.1164 159.439 40.0036 158.782 40.0036 158.077C40.0036 157.393 40.1169 156.751 40.3396 156.169C40.5644 155.58 40.8842 155.066 41.2894 154.638C41.6959 154.207 42.1871 153.868 42.7501 153.631C43.3123 153.394 43.9235 153.273 44.5667 153.273C44.9896 153.273 45.4172 153.344 45.8368 153.485C46.252 153.623 46.6513 153.821 47.0242 154.073C47.2811 154.247 47.5211 154.446 47.7395 154.667L48.0926 154.3C47.8757 154.059 47.6183 153.839 47.3236 153.642C46.9211 153.376 46.4761 153.162 46.0008 153.008C45.5295 152.856 45.047 152.778 44.5673 152.778Z" fill="white"/>
<path d="M44.5832 164.578C43.6882 164.578 42.8485 164.416 42.0877 164.096C41.3212 163.773 40.6499 163.311 40.0924 162.722C39.539 162.14 39.1028 161.442 38.7957 160.648C38.4921 159.863 38.3378 158.998 38.3378 158.077C38.3378 157.164 38.4926 156.311 38.7982 155.539C39.1067 154.762 39.5497 154.072 40.1155 153.489C40.6817 152.903 41.3513 152.446 42.1048 152.13C42.8539 151.815 43.6823 151.656 44.5675 151.656C45.1633 151.656 45.7623 151.751 46.3467 151.94C46.9201 152.126 47.4578 152.384 47.9458 152.708C48.4459 153.041 48.8658 153.433 49.195 153.875L49.5736 154.383L47.6923 156.334L47.1594 155.694C46.9375 155.429 46.6804 155.196 46.3959 155.003C46.1084 154.809 45.8013 154.656 45.4828 154.55C45.1772 154.448 44.8689 154.397 44.5673 154.397C44.0751 154.397 43.6105 154.487 43.1866 154.666C42.7685 154.842 42.4047 155.092 42.1058 155.409C41.8015 155.73 41.5607 156.121 41.3888 156.57C41.2151 157.024 41.1267 157.531 41.1267 158.078C41.1267 158.646 41.2154 159.171 41.39 159.637C41.5607 160.092 41.8069 160.486 42.1212 160.808C42.4383 161.135 42.8164 161.39 43.2455 161.567C43.68 161.747 44.1784 161.838 44.727 161.838C45.0368 161.838 45.3546 161.792 45.6711 161.7C45.9869 161.607 46.2774 161.478 46.5338 161.315C46.7927 161.152 47.0125 160.967 47.188 160.766L47.8556 160.004L49.3035 162.36L48.9654 162.771C48.6603 163.142 48.2578 163.468 47.7696 163.741C47.309 163.998 46.7986 164.204 46.2523 164.352C45.696 164.502 45.1352 164.578 44.5832 164.578ZM44.5673 152.397C43.7812 152.397 43.0492 152.537 42.3916 152.813C41.7312 153.09 41.1443 153.491 40.6476 154.005C40.1495 154.518 39.7594 155.126 39.4869 155.812C39.2161 156.496 39.0789 157.258 39.0789 158.077C39.0789 158.906 39.2161 159.681 39.4869 160.38C39.7589 161.083 40.1435 161.7 40.6302 162.212C41.117 162.726 41.7038 163.13 42.3752 163.412C43.044 163.694 43.7871 163.836 44.5829 163.836C45.0696 163.836 45.5658 163.769 46.0582 163.636C46.5459 163.504 46.9999 163.321 47.4083 163.093C47.7942 162.878 48.112 162.627 48.3532 162.347L48.1788 162.517C47.9659 162.724 47.705 162.916 47.4029 163.083C46.9966 163.311 46.5432 163.493 46.056 163.626C45.5655 163.758 45.0704 163.826 44.5832 163.826C43.7881 163.826 43.0467 163.683 42.3791 163.402C41.7095 163.121 41.1237 162.718 40.6379 162.205C40.1517 161.692 39.7679 161.077 39.4971 160.376C39.2267 159.678 39.0893 158.904 39.0893 158.077C39.0893 157.259 39.2267 156.499 39.4971 155.816C39.7684 155.132 40.1579 154.525 40.6554 154.012C41.1508 153.5 41.7364 153.1 42.3963 152.823C43.0512 152.548 43.7819 152.408 44.5673 152.408C45.084 152.408 45.6051 152.491 46.1151 152.655C46.6215 152.819 47.097 153.047 47.5289 153.333C47.8491 153.547 48.1313 153.788 48.3686 154.052L48.5552 154.259C48.2834 153.909 47.9405 153.595 47.5353 153.324C47.1042 153.039 46.6272 152.81 46.1184 152.645C45.6083 152.481 45.086 152.397 44.5673 152.397ZM44.5673 153.644C43.974 153.644 43.4112 153.755 42.8947 153.972C42.3796 154.19 41.9307 154.499 41.56 154.892C41.1875 155.285 40.8939 155.759 40.6869 156.301C40.4797 156.842 40.3748 157.439 40.3748 158.077C40.3748 158.736 40.4797 159.35 40.6867 159.901C40.8939 160.454 41.1957 160.936 41.5826 161.333C41.9719 161.733 42.4348 162.045 42.9588 162.261C43.4843 162.479 44.0796 162.59 44.7273 162.59C45.1072 162.59 45.4957 162.533 45.8818 162.421C46.265 162.309 46.62 162.151 46.9365 161.95C47.1167 161.836 47.2834 161.712 47.4334 161.58L47.7639 161.29L48.388 162.306C48.3895 162.304 48.3912 162.302 48.393 162.3L48.395 162.298L47.7505 161.249L47.746 161.254C47.5234 161.508 47.2493 161.739 46.9311 161.941C46.6163 162.141 46.2622 162.3 45.8786 162.411C45.4945 162.523 45.1074 162.58 44.7273 162.58C44.081 162.58 43.4872 162.47 42.9625 162.252C42.4398 162.036 41.9774 161.725 41.5903 161.326C41.2039 160.93 40.9026 160.45 40.6958 159.898C40.4899 159.348 40.3853 158.736 40.3853 158.078C40.3853 157.44 40.4901 156.843 40.6961 156.306C40.9025 155.765 41.196 155.291 41.5672 154.9C41.9361 154.509 42.3843 154.2 42.8981 153.983C43.4137 153.765 43.9752 153.656 44.567 153.656C44.9484 153.656 45.3355 153.72 45.7166 153.847C46.0995 153.975 46.4677 154.157 46.8108 154.39C47.1534 154.622 47.462 154.901 47.7284 155.22L47.7321 155.225L48.6024 154.322L48.5997 154.319C48.5984 154.317 48.5972 154.315 48.5957 154.314L47.7432 155.198L47.4764 154.928C47.2754 154.726 47.0538 154.542 46.8168 154.381C46.4724 154.148 46.1037 153.965 45.7201 153.838C45.3392 153.709 44.9511 153.644 44.5673 153.644Z" fill="white"/>
<path d="M51.1046 163.671L55.3886 152.481H56.8113L61.0626 163.671H59.7043L56.9706 156.414C56.8958 156.212 56.8128 155.974 56.7231 155.703C56.6317 155.43 56.5367 155.148 56.4339 154.856C56.3333 154.562 56.2369 154.277 56.1472 154C56.0563 153.724 55.974 153.478 55.8992 153.265H56.2187C56.1325 153.532 56.0453 153.802 55.9549 154.073C55.8642 154.345 55.7718 154.616 55.6751 154.887C55.579 155.16 55.4835 155.429 55.3874 155.695C55.2912 155.961 55.1956 156.228 55.099 156.495L52.3819 163.672L51.1046 163.671ZM52.9267 160.586L53.3903 159.372H58.6817L59.194 160.586H52.9267Z" fill="white"/>
<path d="M61.6003 164.042H59.4479L58.2854 160.956H53.8058L52.6378 164.042H50.5654L55.1338 152.111H57.0667L61.6003 164.042ZM59.961 163.3H60.5252L59.6345 160.956H59.0775L59.961 163.3ZM51.6435 163.3H52.1255L53.013 160.956H52.5409L51.6435 163.3ZM54.0865 160.215H58.0061L57.8283 159.742H54.2657L54.0865 160.215ZM58.3411 159.001H58.8919L56.656 153.117L56.4535 153.744V153.744L56.4998 153.884C56.589 154.161 56.6846 154.443 56.7847 154.734C56.8873 155.027 56.983 155.31 57.0747 155.584C57.1634 155.853 57.2451 156.087 57.3184 156.285L58.3411 159.001ZM54.5459 159.001H57.549L56.6235 156.545C56.5465 156.337 56.4622 156.095 56.3708 155.818C56.2806 155.55 56.1862 155.269 56.0839 154.978C56.0762 154.955 56.0682 154.932 56.0598 154.909C56.0478 154.943 56.0359 154.977 56.0237 155.011C55.9281 155.283 55.8322 155.554 55.736 155.82L55.4468 156.621L54.5459 159.001ZM53.2897 159.001H53.7536L55.0389 155.569C55.134 155.304 55.2297 155.036 55.3251 154.765C55.4212 154.494 55.5129 154.225 55.6026 153.955L55.6721 153.746C55.6289 153.618 55.5882 153.498 55.5494 153.388L55.4963 153.237L53.2897 159.001ZM55.6277 152.894H56.5716L56.5557 152.852H55.6439L55.6277 152.894Z" fill="white"/>
<path d="M61.6077 164.047H59.4442L58.2817 160.962H53.809L52.6413 164.047H50.5577L55.1301 152.105H57.0702L61.6077 164.047ZM59.9642 163.295H60.5175L59.6315 160.962H59.0862L59.9642 163.295ZM51.6509 163.295H52.122L53.0055 160.962H52.5446L51.6509 163.295ZM57.999 160.21L57.8248 159.747H54.2691L54.094 160.21H57.999ZM58.3448 158.995H58.8842L56.6565 153.133L56.4588 153.744L56.4593 153.744L56.4588 153.745L56.5043 153.883C56.5937 154.159 56.6896 154.442 56.7897 154.733C56.8921 155.025 56.9877 155.309 57.0794 155.583C57.1686 155.852 57.2501 156.085 57.3234 156.284L58.3448 158.995ZM54.5539 158.995H57.5411L56.6188 156.547C56.542 156.338 56.4578 156.097 56.3661 155.821C56.2759 155.552 56.1813 155.271 56.0794 154.98C56.0729 154.962 56.0665 154.944 56.06 154.925C56.0501 154.955 56.0396 154.984 56.029 155.013C55.9335 155.285 55.8374 155.555 55.7413 155.822L55.452 156.623L54.5539 158.995ZM53.2974 158.995H53.7499L55.0339 155.567C55.1293 155.303 55.2247 155.034 55.3204 154.763C55.4163 154.492 55.508 154.224 55.5976 153.953L55.666 153.746C55.6232 153.618 55.5825 153.499 55.544 153.389L55.4963 153.252L53.2974 158.995ZM55.6352 152.889H56.5634L56.5515 152.858H55.6473L55.6352 152.889Z" fill="white"/>
<path d="M62.1452 164.418H59.1876L58.0253 161.333H54.0654L52.8977 164.418H50.0189L54.8752 151.735H57.3259L62.1452 164.418ZM59.7011 163.677H61.0703L56.8151 152.476H56.8036L57.0034 153.001L59.4214 159.366H58.0882L56.9766 156.414C56.901 156.21 56.8183 155.973 56.7276 155.7C56.6367 155.428 56.5418 155.146 56.4397 154.855C56.3381 154.561 56.2419 154.276 56.1517 153.997L56.0458 153.678L56.1249 153.572L56.226 153.26H55.8916L55.8943 153.267C55.9333 153.379 55.9748 153.499 56.018 153.629L56.0573 153.746L55.9497 154.07C55.8588 154.343 55.7666 154.613 55.6697 154.887C55.5741 155.158 55.4781 155.427 55.383 155.692L54.0068 159.366H52.7581L55.0963 153.26H55.0928L55.3964 152.476H55.385L51.0967 163.677H52.3854L53.5531 160.591H58.5383L59.7011 163.677ZM55.6225 152.487L56.4787 152.476H55.6188L55.6225 152.487ZM61.0552 163.666H59.7083L58.55 160.591H59.887L61.0552 163.666ZM52.3779 163.666H51.1121L52.2892 160.591H53.5419L52.3779 163.666ZM58.5344 160.581H53.5573L54.0133 159.377H58.0812L58.5344 160.581ZM58.077 159.366H54.0167L55.1055 156.491L55.3927 155.696C55.4883 155.43 55.584 155.162 55.6791 154.891L55.7092 154.805L56.056 153.788L56.4285 154.856C56.5313 155.15 56.6267 155.432 56.7172 155.703C56.8076 155.976 56.8906 156.213 56.9666 156.418L58.077 159.366ZM55.0905 158.625H57.0056L56.2722 156.677C56.2041 156.493 56.1308 156.285 56.0526 156.051L55.8006 156.749L55.0905 158.625Z" fill="white"/>
<path d="M64.7082 163.671V152.481H69.0875C69.7382 152.481 70.3265 152.633 70.8537 152.937C71.3814 153.241 71.7996 153.653 72.1097 154.176C72.418 154.698 72.573 155.29 72.573 155.95C72.573 156.568 72.4235 157.128 72.1251 157.629C71.8262 158.131 71.4222 158.527 70.9096 158.819C70.3981 159.112 69.8234 159.259 69.1834 159.259H65.9542V163.671L64.7082 163.671ZM65.9542 158.045H69.2954C69.689 158.045 70.0355 157.954 70.3347 157.772C70.6326 157.591 70.8671 157.343 71.0378 157.029C71.2068 156.715 71.2927 156.355 71.2927 155.949C71.2927 155.513 71.1914 155.124 70.9889 154.783C70.7856 154.441 70.5054 154.175 70.1493 153.983C69.7921 153.791 69.3844 153.695 68.9262 153.695H65.9529L65.9542 158.045ZM71.5333 163.671L68.7205 158.749L69.9185 158.333L73.0195 163.672L71.5333 163.671Z" fill="white"/>
<path d="M73.664 164.043L71.3181 164.042L68.797 159.629H66.3256V164.041L64.338 164.042V152.111H69.0877C69.8015 152.111 70.4585 152.281 71.0391 152.616C71.6202 152.951 72.0881 153.412 72.4287 153.987C72.7706 154.566 72.944 155.226 72.944 155.95C72.944 156.634 72.7753 157.262 72.4434 157.819C72.1134 158.373 71.6595 158.818 71.0935 159.141C71.0247 159.181 70.9539 159.219 70.8816 159.254L73.664 164.043ZM71.7479 163.3L72.3753 163.301L70.1742 159.511C70.0003 159.555 69.8211 159.586 69.6373 159.606L71.7479 163.3ZM65.0792 152.852V163.3L65.5838 163.3V158.888H68.3734L68.1769 158.545L68.5498 158.415H65.584L65.5825 153.324H68.9265C69.4445 153.324 69.9151 153.436 70.325 153.656C70.7409 153.88 71.0716 154.196 71.3079 154.594C71.5437 154.992 71.6634 155.448 71.6634 155.949C71.6634 156.413 71.5628 156.835 71.3643 157.205C71.1616 157.577 70.8803 157.874 70.5273 158.089C70.4478 158.137 70.3653 158.18 70.2803 158.218L70.5084 158.61C70.5824 158.576 70.6547 158.539 70.7258 158.498C71.1854 158.235 71.539 157.889 71.8068 157.439C72.0692 156.999 72.2026 156.498 72.2026 155.95C72.2026 155.361 72.0639 154.828 71.7906 154.365C71.5124 153.895 71.1452 153.533 70.6691 153.259C70.1956 152.985 69.6781 152.852 69.0877 152.852L65.0792 152.852ZM69.7516 158.783L69.4855 158.876C69.5866 158.867 69.6855 158.854 69.7827 158.837L69.7516 158.783ZM66.3252 157.674H69.2957C69.6231 157.674 69.9002 157.602 70.1422 157.455C70.3854 157.307 70.5717 157.11 70.7124 156.852C70.8512 156.593 70.9223 156.289 70.9223 155.949C70.9223 155.582 70.8376 155.254 70.6704 154.972C70.5012 154.687 70.2733 154.471 69.9737 154.309C69.6733 154.148 69.321 154.066 68.9265 154.066H66.3244L66.3252 157.674Z" fill="white"/>
<path d="M73.6729 164.048L71.3148 164.047L68.794 159.635H66.3311V164.046L64.3325 164.047V152.105H69.0877C69.803 152.105 70.4599 152.276 71.042 152.612C71.6242 152.947 72.0925 153.409 72.4334 153.985C72.7757 154.564 72.9494 155.225 72.9494 155.95C72.9494 156.635 72.781 157.264 72.4478 157.821C72.1176 158.376 71.6627 158.822 71.0967 159.146C71.0294 159.184 70.9598 159.221 70.8895 159.256L73.6729 164.048ZM71.7511 163.295L72.3663 163.296L70.1714 159.518C70.001 159.56 69.8258 159.591 69.6457 159.61L71.7511 163.295ZM65.0839 152.858V163.295H65.5788V158.883H68.3644L68.1692 158.542L68.519 158.421H65.5788L65.5775 153.319H68.9264C69.4455 153.319 69.9165 153.431 70.3275 153.652C70.7446 153.877 71.0756 154.193 71.3121 154.591C71.5489 154.99 71.6689 155.447 71.6689 155.95C71.6689 156.414 71.5683 156.837 71.369 157.207C71.1665 157.58 70.8848 157.878 70.53 158.093C70.4522 158.141 70.3714 158.183 70.288 158.22L70.5103 158.604C70.5829 158.57 70.6537 158.533 70.7233 158.494C71.1822 158.231 71.535 157.886 71.8016 157.437C72.0644 156.997 72.1971 156.497 72.1971 155.951C72.1971 155.362 72.0587 154.83 71.7862 154.368C71.5084 153.899 71.1419 153.537 70.6661 153.264C70.1933 152.991 69.6773 152.858 69.0875 152.858H65.0839V152.858ZM69.7491 158.79L69.5265 158.867C69.6104 158.859 69.6932 158.848 69.7742 158.833L69.7491 158.79ZM66.3308 157.669H69.2956C69.6223 157.669 69.8984 157.598 70.1394 157.451C70.3821 157.303 70.568 157.106 70.7074 156.849C70.8465 156.591 70.9173 156.288 70.9173 155.949C70.9173 155.579 70.8351 155.26 70.6661 154.974C70.4974 154.691 70.2698 154.475 69.9715 154.314C69.6718 154.153 69.32 154.071 68.9267 154.071H66.3296L66.3308 157.669Z" fill="white"/>
<path d="M74.3172 164.419L71.0999 164.418L68.5789 160.006H66.7016V164.416L63.9619 164.418V151.735H69.0877C69.8689 151.735 70.5886 151.922 71.2274 152.291C71.8647 152.657 72.3782 153.164 72.7524 153.796C73.1291 154.434 73.3199 155.158 73.3199 155.95C73.3199 156.702 73.1338 157.396 72.7661 158.011C72.4267 158.581 71.9678 159.047 71.4001 159.397L74.3172 164.419ZM71.5298 163.677L73.0287 163.677L70.369 159.099L70.7258 158.923C70.7891 158.892 70.8512 158.859 70.9126 158.824C71.4232 158.532 71.8324 158.131 72.1293 157.632C72.4269 157.132 72.5782 156.567 72.5782 155.95C72.5782 155.293 72.4217 154.695 72.1141 154.173C71.8063 153.653 71.3832 153.236 70.8569 152.933C70.332 152.63 69.7364 152.476 69.0875 152.476H64.7032V163.676L65.9602 163.676V159.264L67.2723 159.254H65.9497V163.666H64.7134V152.487H69.0875C69.7436 152.487 70.3205 152.636 70.8512 152.942C71.3839 153.248 71.7939 153.653 72.1049 154.179C72.4123 154.699 72.5678 155.295 72.5678 155.95C72.5678 156.565 72.4172 157.129 72.1201 157.627C71.82 158.131 71.4232 158.52 70.9071 158.815C70.8286 158.86 70.7484 158.902 70.6659 158.94L70.3596 159.082L69.921 158.327L68.7128 158.746L68.7175 158.754L69.9171 158.339L70.3506 159.09L70.3521 159.09L73.0108 163.667L71.5365 163.666L69.0422 159.302L69.6065 159.242C69.7675 159.225 69.9277 159.196 70.081 159.158L70.1069 159.151L69.838 159.199C69.7476 159.215 69.6544 159.227 69.56 159.236L69.0211 159.286L71.5298 163.677ZM65.949 158.05H69.7603L69.7598 158.049L70.1372 157.881C70.207 157.85 70.2741 157.815 70.3364 157.777C70.6353 157.595 70.8726 157.344 71.0433 157.03C71.2125 156.716 71.2984 156.352 71.2984 155.949C71.2984 155.514 71.1958 155.121 70.9933 154.779C70.7918 154.44 70.5083 154.17 70.1511 153.977C69.7955 153.786 69.3834 153.69 68.9265 153.69H65.9485L65.949 158.05ZM69.2956 158.04H65.9599L65.9584 153.701H68.9265C69.3826 153.701 69.7928 153.797 70.1466 153.987C70.5064 154.181 70.7804 154.442 70.9844 154.785C71.1884 155.13 71.2875 155.511 71.2875 155.949C71.2875 156.35 71.2023 156.712 71.0336 157.025C70.8617 157.342 70.6323 157.584 70.332 157.767C70.0313 157.951 69.6922 158.04 69.2956 158.04ZM66.701 157.298H69.2954C69.5521 157.298 69.7647 157.244 69.9459 157.134C70.1342 157.02 70.2723 156.873 70.3811 156.672C70.4902 156.47 70.5459 156.227 70.5459 155.95C70.5459 155.647 70.4805 155.39 70.3464 155.163C70.2117 154.937 70.0363 154.77 69.7946 154.64C69.5508 154.509 69.2584 154.442 68.9262 154.442H66.6998L66.701 157.298Z" fill="white"/>
<path d="M87.5665 163.831C86.7667 163.831 86.0315 163.69 85.3607 163.408C84.6886 163.125 84.1085 162.726 83.618 162.209C83.1281 161.692 82.747 161.081 82.4749 160.379C82.2034 159.675 82.0672 158.908 82.0672 158.077C82.0672 157.257 82.2034 156.502 82.4749 155.815C82.7475 155.127 83.1331 154.525 83.6337 154.009C84.1344 153.492 84.7155 153.095 85.3759 152.818C86.0373 152.541 86.761 152.403 87.5503 152.403C88.0728 152.403 88.5894 152.486 89.1014 152.65C89.612 152.816 90.0841 153.043 90.5164 153.329C90.9477 153.617 91.3018 153.948 91.5795 154.321L90.7156 155.216C90.4495 154.897 90.1442 154.619 89.7966 154.385C89.45 154.15 89.0848 153.969 88.7019 153.841C88.3183 153.713 87.9344 153.65 87.5503 153.65C86.9533 153.65 86.3965 153.759 85.8795 153.977C85.3624 154.195 84.9185 154.501 84.5455 154.896C84.1716 155.291 83.8819 155.759 83.6737 156.303C83.4662 156.846 83.3629 157.437 83.3629 158.077C83.3629 158.737 83.4662 159.345 83.6737 159.899C83.8812 160.454 84.1796 160.93 84.5684 161.33C84.957 161.729 85.4161 162.039 85.9433 162.257C86.4713 162.475 87.0601 162.585 87.7106 162.585C88.0937 162.585 88.4768 162.528 88.8612 162.416C89.2453 162.304 89.5968 162.148 89.9161 161.945C90.2364 161.743 90.5074 161.514 90.7313 161.257L91.3716 162.296C91.1266 162.595 90.7989 162.859 90.3887 163.088C89.979 163.317 89.528 163.498 89.0376 163.631C88.5464 163.764 88.0562 163.831 87.5665 163.831Z" fill="white"/>
<path d="M87.5665 164.201C86.7212 164.201 85.9306 164.049 85.2168 163.75C84.4995 163.448 83.8712 163.015 83.3487 162.464C82.8284 161.915 82.418 161.259 82.129 160.512C81.8423 159.768 81.6967 158.949 81.6967 158.077C81.6967 157.214 81.8426 156.407 82.13 155.679C82.42 154.948 82.8364 154.299 83.3676 153.751C83.8995 153.201 84.5271 152.772 85.2325 152.476C85.9363 152.181 86.7162 152.032 87.5503 152.032C88.1071 152.032 88.6671 152.121 89.2147 152.297C89.7558 152.473 90.2622 152.716 90.7213 153.02C91.1852 153.33 91.5738 153.692 91.8766 154.099L92.0647 154.352L90.6957 155.77L90.4314 155.453C90.1864 155.16 89.9032 154.903 89.5891 154.692C89.2733 154.478 88.9352 154.31 88.5849 154.193C88.2405 154.079 87.8927 154.02 87.5503 154.02C87.0067 154.02 86.4931 154.121 86.024 154.319C85.5587 154.515 85.1517 154.795 84.8151 155.151C84.4774 155.508 84.2098 155.94 84.02 156.436C83.8302 156.934 83.7335 157.486 83.7335 158.077C83.7335 158.69 83.8304 159.26 84.021 159.77C84.2086 160.272 84.4819 160.71 84.8342 161.071C85.1862 161.433 85.6066 161.717 86.0844 161.915C86.5657 162.114 87.112 162.214 87.7105 162.214C88.0544 162.214 88.4067 162.163 88.7575 162.061C89.1061 161.959 89.4294 161.815 89.7176 161.633C90.0048 161.451 90.252 161.243 90.4522 161.014L90.7829 160.635L91.8259 162.328L91.6577 162.533C91.3834 162.866 91.0177 163.162 90.5693 163.412C90.1357 163.655 89.6525 163.849 89.1347 163.99C88.6147 164.13 88.0867 164.201 87.5665 164.201ZM87.5503 152.773C86.8151 152.773 86.1316 152.903 85.5194 153.16C84.907 153.417 84.3621 153.789 83.8995 154.267C83.4364 154.745 83.0729 155.312 82.819 155.951C82.5658 156.592 82.4376 157.307 82.4376 158.077C82.4376 158.858 82.5665 159.586 82.8205 160.245C83.0741 160.901 83.4329 161.475 83.8866 161.954C84.338 162.431 84.8819 162.805 85.5038 163.066C86.1259 163.328 86.8201 163.46 87.5662 163.46C88.0211 163.46 88.4835 163.398 88.9414 163.274C89.4005 163.149 89.8269 162.978 90.2082 162.765C90.4838 162.611 90.7188 162.439 90.9094 162.253L90.6619 161.851C90.495 161.998 90.3121 162.134 90.1141 162.26C89.7672 162.479 89.3806 162.652 88.965 162.773C88.5466 162.894 88.1247 162.956 87.7108 162.956C87.0144 162.956 86.3721 162.836 85.8014 162.599C85.2297 162.363 84.7256 162.023 84.3028 161.588C83.8789 161.152 83.5504 160.628 83.3268 160.029C83.1044 159.436 82.9919 158.78 82.9919 158.078C82.9919 157.395 83.1049 156.754 83.3276 156.171C83.5527 155.583 83.8717 155.069 84.2764 154.642C84.6841 154.21 85.1753 153.872 85.7356 153.636C86.2966 153.399 86.9068 153.279 87.5503 153.279C87.9724 153.279 88.3995 153.35 88.8192 153.49C89.2336 153.628 89.6323 153.826 90.0045 154.078C90.2629 154.252 90.5034 154.452 90.7235 154.674L91.0838 154.3C90.8662 154.058 90.6073 153.836 90.3106 153.638C89.9086 153.372 89.4629 153.157 88.9868 153.003C88.5135 152.851 88.0298 152.773 87.5503 152.773Z" fill="white"/>
<path d="M87.5665 164.207C86.7207 164.207 85.9291 164.055 85.2148 163.755C84.4968 163.452 83.8677 163.019 83.3452 162.467C82.8235 161.918 82.4133 161.261 82.1246 160.514C81.8376 159.77 81.6918 158.95 81.6918 158.077C81.6918 157.213 81.8376 156.405 82.1251 155.676C82.4153 154.946 82.8319 154.296 83.3644 153.747C83.8965 153.197 84.5244 152.768 85.2308 152.472C85.9354 152.177 86.7158 152.026 87.5506 152.026C88.1078 152.026 88.6686 152.116 89.2169 152.292C89.7581 152.468 90.2652 152.712 90.7243 153.016C91.1887 153.325 91.5775 153.689 91.8814 154.096L92.0722 154.352L90.6962 155.779L90.4277 155.457C90.1834 155.164 89.9007 154.908 89.5867 154.696C89.2706 154.482 88.9332 154.315 88.5837 154.198C88.2403 154.083 87.893 154.025 87.5508 154.025C87.008 154.025 86.4951 154.126 86.0266 154.323C85.5617 154.519 85.1555 154.799 84.8193 155.155C84.4822 155.511 84.2151 155.942 84.0258 156.438C83.8354 156.935 83.7395 157.487 83.7395 158.077C83.7395 158.69 83.8362 159.259 84.0267 159.768C84.2141 160.269 84.4871 160.706 84.8387 161.067C85.1905 161.429 85.6109 161.713 86.0877 161.91C86.5679 162.108 87.1138 162.209 87.7113 162.209C88.0547 162.209 88.4065 162.157 88.7571 162.056C89.1062 161.954 89.4284 161.81 89.7151 161.628C90.0028 161.446 90.2493 161.239 90.449 161.011L90.7847 160.626L91.8337 162.328L91.6627 162.536C91.3884 162.87 91.0217 163.166 90.573 163.417C90.138 163.66 89.6547 163.854 89.1369 163.995C88.6147 164.135 88.0865 164.207 87.5665 164.207ZM87.5503 152.778C86.8159 152.778 86.1329 152.908 85.5212 153.165C84.9095 153.422 84.3654 153.794 83.9043 154.27C83.4407 154.749 83.0771 155.315 82.8242 155.953C82.5715 156.593 82.4431 157.308 82.4431 158.077C82.4431 158.857 82.5718 159.585 82.8255 160.243C83.0786 160.897 83.4372 161.472 83.8906 161.95C84.3413 162.427 84.8844 162.8 85.5055 163.061C86.1277 163.323 86.8211 163.455 87.5662 163.455C88.0202 163.455 88.482 163.393 88.9399 163.269C89.3983 163.145 89.8242 162.974 90.2058 162.76C90.4793 162.607 90.7127 162.437 90.9027 162.252L90.6605 161.859C90.495 162.004 90.3136 162.139 90.1169 162.263C89.771 162.483 89.3837 162.656 88.9665 162.778C88.5474 162.899 88.125 162.96 87.7106 162.96C87.0132 162.96 86.3704 162.841 85.8 162.604C85.2278 162.368 84.7227 162.028 84.2991 161.591C83.8747 161.155 83.5457 160.63 83.3219 160.031C83.0993 159.437 82.9872 158.78 82.9872 158.077C82.9872 157.394 83.0997 156.753 83.3229 156.169C83.5477 155.581 83.8672 155.066 84.2725 154.638C84.6804 154.206 85.1724 153.867 85.7336 153.631C86.2949 153.394 86.9068 153.273 87.5503 153.273C87.9729 153.273 88.4008 153.344 88.8212 153.485C89.2353 153.623 89.6344 153.821 90.0068 154.073C90.2642 154.247 90.5044 154.446 90.7233 154.667L91.0769 154.3C90.86 154.059 90.6021 153.839 90.3077 153.642C89.9057 153.376 89.4605 153.162 88.9847 153.008C88.5126 152.856 88.0293 152.778 87.5503 152.778Z" fill="white"/>
<path d="M87.5665 164.578C86.6708 164.578 85.8312 164.416 85.071 164.096C84.305 163.774 83.6337 163.311 83.0759 162.722C82.5221 162.138 82.0851 161.44 81.7785 160.648C81.4746 159.86 81.3208 158.995 81.3208 158.077C81.3208 157.167 81.4751 156.313 81.7804 155.54C82.089 154.762 82.532 154.073 83.0977 153.489C83.6657 152.903 84.3348 152.445 85.0876 152.13C85.8382 151.815 86.6665 151.656 87.5505 151.656C88.1456 151.656 88.7444 151.751 89.3305 151.94C89.9054 152.127 90.443 152.385 90.9293 152.708C91.4289 153.04 91.8488 153.433 92.179 153.875L92.5577 154.383L90.6761 156.334L90.1429 155.695C89.9206 155.428 89.6636 155.196 89.3789 155.004C89.0915 154.809 88.7841 154.656 88.4664 154.55C88.1605 154.448 87.8522 154.397 87.5505 154.397C87.0576 154.397 86.593 154.487 86.1701 154.666C85.7532 154.841 85.3893 155.092 85.0884 155.41C84.7848 155.73 84.544 156.121 84.3713 156.571C84.1979 157.025 84.1097 157.532 84.1097 158.078C84.1097 158.646 84.1984 159.171 84.3736 159.638C84.5435 160.091 84.789 160.485 85.1038 160.809C85.4201 161.135 85.7985 161.39 86.2285 161.567C86.6633 161.747 87.162 161.838 87.7108 161.838C88.0196 161.838 88.3372 161.792 88.6534 161.7C88.9687 161.608 89.2589 161.479 89.5163 161.315C89.7742 161.152 89.9936 160.968 90.1695 160.767L90.8364 160.004L92.2883 162.36L91.9484 162.772C91.6458 163.14 91.2438 163.466 90.7534 163.74C90.293 163.998 89.7819 164.204 89.2338 164.352C88.679 164.502 88.118 164.578 87.5665 164.578ZM87.5503 152.397C86.7654 152.397 86.0332 152.537 85.3738 152.814C84.7147 153.09 84.1281 153.491 83.63 154.005C83.132 154.519 82.7417 155.127 82.4694 155.813C82.1991 156.498 82.0619 157.26 82.0619 158.077C82.0619 158.904 82.1991 159.679 82.4699 160.381C82.7412 161.081 83.1261 161.698 83.6138 162.212C84.1005 162.726 84.6871 163.13 85.3582 163.412C86.0265 163.693 86.7696 163.836 87.5659 163.836C88.0524 163.836 88.5483 163.769 89.0398 163.636C89.5287 163.504 89.9839 163.321 90.3911 163.092C90.7777 162.876 91.0948 162.627 91.3345 162.349L91.1611 162.517C90.9482 162.724 90.6875 162.915 90.3864 163.083C89.9787 163.311 89.5245 163.494 89.0368 163.626C88.5476 163.758 88.0529 163.826 87.5659 163.826C86.7711 163.826 86.029 163.683 85.3617 163.402C84.6931 163.122 84.1072 162.719 83.621 162.205C83.1343 161.692 82.7504 161.077 82.4794 160.377C82.2088 159.676 82.0721 158.903 82.0721 158.077C82.0721 157.262 82.2088 156.502 82.4788 155.817C82.7504 155.133 83.14 154.525 83.6374 154.012C84.1333 153.5 84.7187 153.1 85.3771 152.824C86.0345 152.548 86.7657 152.408 87.5498 152.408C88.0668 152.408 88.5878 152.491 89.0982 152.655C89.6058 152.82 90.0813 153.048 90.5119 153.334C90.8326 153.547 91.1151 153.788 91.3521 154.052L91.5422 154.264C91.2697 153.912 90.9255 153.596 90.5178 153.325C90.0883 153.04 89.6115 152.811 89.1014 152.645C88.5908 152.481 88.0683 152.397 87.5503 152.397ZM87.5505 153.644C86.956 153.644 86.3937 153.755 85.8784 153.972C85.3646 154.188 84.915 154.498 84.5425 154.892C84.1703 155.285 83.8767 155.759 83.669 156.302C83.463 156.842 83.3584 157.439 83.3584 158.077C83.3584 158.736 83.4627 159.349 83.669 159.901C83.8754 160.452 84.177 160.934 84.5649 161.333C84.9532 161.733 85.4163 162.045 85.9413 162.261C86.4675 162.479 87.0626 162.59 87.7108 162.59C88.0894 162.59 88.4775 162.533 88.8636 162.421C89.2467 162.31 89.602 162.151 89.9186 161.95C90.0972 161.838 90.2644 161.713 90.4165 161.58L90.7464 161.291L91.3713 162.306C91.3728 162.304 91.3743 162.302 91.376 162.3L91.3785 162.297L90.7325 161.249L90.7276 161.254C90.5049 161.509 90.2309 161.74 89.9129 161.941C89.5973 162.142 89.2433 162.3 88.8607 162.411C88.4763 162.523 88.0897 162.579 87.711 162.579C87.0643 162.579 86.4705 162.47 85.9458 162.252C85.422 162.036 84.9599 161.724 84.5728 161.326C84.186 160.928 83.8851 160.448 83.6794 159.897C83.4732 159.347 83.3688 158.735 83.3688 158.077C83.3688 157.441 83.4732 156.844 83.6796 156.305C83.8866 155.764 84.1798 155.291 84.55 154.9C84.9222 154.507 85.3704 154.198 85.8824 153.982C86.397 153.765 86.9582 153.655 87.5508 153.655C87.9322 153.655 88.3193 153.72 88.7009 153.847C89.0838 153.974 89.4515 154.157 89.7948 154.39C90.1365 154.62 90.4453 154.9 90.7119 155.22L90.7161 155.225L91.587 154.322L91.5842 154.318C91.583 154.317 91.5812 154.315 91.5802 154.313L90.7276 155.197L90.4607 154.928C90.2597 154.726 90.0373 154.541 89.7998 154.381C89.4557 154.148 89.0872 153.965 88.7041 153.837C88.3223 153.709 87.9344 153.644 87.5505 153.644Z" fill="white"/>
<path d="M94.0882 163.671L98.3718 152.481H99.7947L104.046 163.671H102.687L99.9544 156.414C99.8784 156.212 99.7964 155.974 99.7057 155.703C99.6158 155.43 99.5192 155.148 99.4185 154.856C99.3167 154.562 99.2205 154.277 99.1298 154C99.0394 153.724 98.9566 153.478 98.8823 153.265H99.2014C99.1169 153.532 99.0284 153.802 98.938 154.073C98.8473 154.345 98.7539 154.616 98.6582 154.887C98.5631 155.16 98.4672 155.429 98.3703 155.695C98.2744 155.961 98.1787 156.228 98.0828 156.495L95.3645 163.672L94.0882 163.671ZM95.9108 160.586L96.3742 159.372H101.665L102.177 160.586H95.9108Z" fill="white"/>
<path d="M104.584 164.042H102.431L101.269 160.956H96.7891L95.6206 164.042H93.549L98.1166 152.111H100.05L104.584 164.042ZM102.944 163.3H103.509L102.618 160.956H102.061L102.944 163.3ZM94.6271 163.3H95.1086L95.996 160.956H95.5242L94.6271 163.3ZM100.99 160.215L100.812 159.742H97.249L97.0699 160.215H100.99ZM101.325 159.001H101.875L99.6384 153.114L99.5549 153.378C99.5159 153.499 99.4764 153.622 99.4361 153.745V153.746L99.4821 153.885C99.572 154.16 99.6677 154.443 99.7688 154.734C99.8699 155.029 99.9671 155.312 100.058 155.586C100.146 155.852 100.227 156.086 100.301 156.284L101.325 159.001ZM97.5297 159.001H100.532L99.6073 156.545C99.5301 156.338 99.4466 156.096 99.3539 155.82C99.2642 155.548 99.1678 155.267 99.0679 154.976C99.06 154.953 99.0518 154.93 99.0438 154.908C99.0321 154.942 99.02 154.976 99.0081 155.01C98.9119 155.284 98.816 155.554 98.7181 155.822L98.4314 156.62L97.5297 159.001ZM96.2731 159.001H96.7369L98.0212 155.569C98.1188 155.303 98.2137 155.036 98.3084 154.765C98.4036 154.495 98.4962 154.226 98.5864 153.955L98.6552 153.747C98.6118 153.618 98.5708 153.498 98.532 153.387L98.4796 153.237L96.2731 159.001ZM98.6105 152.894H99.5549L99.539 152.852H98.6269L98.6105 152.894Z" fill="white"/>
<path d="M104.592 164.047H102.427L101.265 160.962H96.7929L95.6241 164.047H93.5416L98.1126 152.105H100.053L104.592 164.047ZM102.947 163.295H103.501L102.615 160.962H102.069L102.947 163.295ZM94.6345 163.295H95.1048L95.9888 160.962H95.528L94.6345 163.295ZM100.982 160.21L100.808 159.747H97.2527L97.0773 160.21H100.982ZM101.328 158.995H101.867L99.6389 153.13L99.5596 153.379C99.5211 153.501 99.4819 153.623 99.4414 153.745H99.4419L99.4414 153.746L99.4868 153.883C99.5773 154.159 99.6724 154.441 99.7735 154.732C99.8749 155.027 99.9718 155.311 100.063 155.584C100.151 155.851 100.232 156.084 100.306 156.283L101.328 158.995ZM97.5375 158.995H100.525L99.6026 156.547C99.5251 156.34 99.4421 156.099 99.3489 155.822C99.2593 155.55 99.1631 155.269 99.0632 154.978C99.057 154.96 99.0503 154.942 99.0443 154.924C99.0342 154.953 99.024 154.982 99.013 155.012C98.9179 155.286 98.8212 155.556 98.7238 155.824L98.4369 156.622L97.5375 158.995ZM96.2805 158.995H96.733L98.0167 155.567C98.1136 155.302 98.209 155.034 98.3032 154.763C98.3986 154.493 98.4913 154.225 98.581 153.954L98.6493 153.747C98.6066 153.619 98.5658 153.5 98.5268 153.389L98.4794 153.252L96.2805 158.995ZM98.6182 152.889H99.5474L99.5353 152.858H98.6304L98.6182 152.889Z" fill="white"/>
<path d="M105.129 164.418H102.171L101.009 161.333H97.049L95.8803 164.418H93.0027L97.858 151.735H100.309L105.129 164.418ZM102.684 163.677H104.054L99.7977 152.476H99.787L100.09 153.26H100.085L102.405 159.366H101.072L99.9597 156.413C99.8834 156.21 99.8009 155.972 99.711 155.701C99.6205 155.429 99.5238 155.146 99.4232 154.853C99.3216 154.561 99.2257 154.276 99.1345 153.999L99.0178 153.645L99.1166 153.547L99.2083 153.26H98.8744L98.8769 153.267C98.9161 153.379 98.9574 153.5 99.0009 153.63L99.0396 153.747L98.9325 154.07C98.8421 154.344 98.7487 154.614 98.6525 154.886C98.5581 155.158 98.462 155.427 98.3646 155.695L96.9901 159.366H95.7416L98.3792 152.477H98.3678L94.0802 163.677H95.3677L96.5365 160.592H101.521L102.684 163.677ZM98.6053 152.487L99.458 152.476H98.6016L98.6053 152.487ZM104.039 163.666H102.691L101.534 160.591H102.871L104.039 163.666ZM95.361 163.666H94.0956L95.2726 160.591H96.5255L95.361 163.666ZM101.517 160.581H96.5404L96.9971 159.377H101.065L101.517 160.581ZM101.06 159.366H97.0001L98.0898 156.491L98.3748 155.698C98.4719 155.431 98.5678 155.163 98.6625 154.89L99.0471 153.776L99.3949 154.805L99.0438 154.924L99.4011 154.823L99.4155 154.864C99.5139 155.15 99.6101 155.433 99.7005 155.706C99.7912 155.976 99.8729 156.214 99.9492 156.417L101.06 159.366ZM98.0741 158.625H99.9887L99.2558 156.677C99.1877 156.495 99.1154 156.287 99.0354 156.052L98.785 156.748L98.0741 158.625Z" fill="white"/>
<path d="M107.691 163.671V152.481H112.071C112.721 152.481 113.31 152.633 113.838 152.937C114.365 153.241 114.782 153.653 115.093 154.176C115.401 154.698 115.557 155.29 115.557 155.95C115.557 156.568 115.407 157.128 115.108 157.629C114.811 158.131 114.405 158.527 113.894 158.819C113.382 159.112 112.807 159.259 112.168 159.259H108.938V163.671L107.691 163.671ZM108.938 158.045H112.278C112.673 158.045 113.019 157.954 113.318 157.772C113.616 157.591 113.851 157.343 114.021 157.029C114.191 156.715 114.276 156.355 114.276 155.949C114.276 155.513 114.175 155.124 113.972 154.783C113.769 154.441 113.49 154.175 113.133 153.983C112.776 153.791 112.368 153.695 111.91 153.695H108.937L108.938 158.045ZM114.517 163.671L111.703 158.749L112.902 158.333L116.003 163.672L114.517 163.671Z" fill="white"/>
<path d="M116.648 164.043L114.302 164.042L111.78 159.629H109.309V164.041L107.32 164.042V152.111H112.072C112.785 152.111 113.442 152.281 114.023 152.616C114.602 152.95 115.07 153.411 115.412 153.987C115.755 154.567 115.928 155.227 115.928 155.95C115.928 156.633 115.759 157.262 115.427 157.819C115.099 158.372 114.645 158.817 114.078 159.141C114.009 159.181 113.938 159.219 113.866 159.254L116.648 164.043ZM114.732 163.3L115.359 163.301L113.158 159.511C112.984 159.555 112.805 159.586 112.62 159.606L114.732 163.3ZM108.062 152.852V163.3L108.567 163.3V158.888H111.356L111.159 158.545L111.533 158.415H108.567L108.567 153.324H111.91C112.428 153.324 112.899 153.436 113.308 153.656C113.724 153.879 114.054 154.195 114.291 154.594C114.527 154.99 114.646 155.447 114.646 155.949C114.646 156.415 114.546 156.838 114.347 157.205C114.145 157.577 113.864 157.875 113.509 158.089C113.431 158.137 113.349 158.18 113.264 158.218L113.492 158.611C113.566 158.576 113.639 158.539 113.709 158.498C114.17 158.234 114.524 157.888 114.79 157.44C115.053 156.999 115.186 156.498 115.186 155.95C115.186 155.362 115.048 154.829 114.774 154.365C114.494 153.894 114.127 153.532 113.653 153.259C113.185 152.989 112.654 152.852 112.072 152.852L108.062 152.852ZM112.735 158.783L112.468 158.876C112.57 158.867 112.669 158.855 112.767 158.837L112.735 158.783ZM109.309 157.674H112.278C112.607 157.674 112.884 157.603 113.124 157.455C113.369 157.307 113.555 157.11 113.694 156.852C113.834 156.594 113.905 156.291 113.905 155.949C113.905 155.577 113.823 155.257 113.653 154.972C113.484 154.686 113.256 154.47 112.958 154.309C112.657 154.148 112.304 154.066 111.91 154.066H109.308L109.309 157.674Z" fill="white"/>
<path d="M116.657 164.048L114.299 164.047L111.777 159.635H109.314V164.046L107.315 164.047V152.105H112.072C112.786 152.105 113.444 152.276 114.026 152.612C114.606 152.946 115.074 153.408 115.417 153.984C115.759 154.565 115.933 155.227 115.933 155.95C115.933 156.634 115.764 157.264 115.432 157.821C115.103 158.375 114.649 158.821 114.081 159.146C114.013 159.184 113.944 159.221 113.874 159.256L116.657 164.048ZM114.735 163.295L115.35 163.296L113.156 159.518C112.985 159.56 112.809 159.591 112.629 159.611L114.735 163.295ZM108.067 152.858V163.295H108.562V158.883H111.347L111.152 158.542L111.501 158.421H108.562L108.562 153.319H111.91C112.43 153.319 112.901 153.431 113.312 153.652C113.728 153.875 114.058 154.192 114.296 154.591C114.532 154.989 114.652 155.446 114.652 155.95C114.652 156.416 114.551 156.84 114.352 157.208C114.15 157.58 113.868 157.878 113.513 158.093C113.435 158.14 113.355 158.183 113.272 158.22L113.494 158.603C113.567 158.57 113.638 158.533 113.707 158.493C114.167 158.23 114.52 157.885 114.785 157.437C115.048 156.997 115.181 156.497 115.181 155.95C115.181 155.363 115.043 154.831 114.769 154.368C114.49 153.898 114.124 153.536 113.65 153.263C113.184 152.994 112.652 152.858 112.071 152.858H108.067V152.858ZM112.733 158.79L112.51 158.867C112.594 158.859 112.677 158.848 112.758 158.834L112.733 158.79ZM109.314 157.669H112.278C112.606 157.669 112.882 157.598 113.122 157.451C113.366 157.303 113.551 157.107 113.691 156.849C113.83 156.593 113.9 156.29 113.9 155.949C113.9 155.578 113.818 155.259 113.649 154.975C113.48 154.69 113.253 154.474 112.955 154.314C112.656 154.153 112.304 154.071 111.91 154.071H109.313L109.314 157.669Z" fill="white"/>
<path d="M117.301 164.419L114.084 164.418L111.562 160.006H109.685V164.416L106.944 164.418V151.735H112.072C112.853 151.735 113.572 151.922 114.211 152.291C114.847 152.657 115.36 153.163 115.735 153.795C116.113 154.435 116.304 155.16 116.304 155.95C116.304 156.702 116.117 157.395 115.75 158.011C115.413 158.581 114.953 159.047 114.384 159.397L117.301 164.419ZM114.514 163.677L116.012 163.677L113.353 159.098L113.71 158.923C113.773 158.892 113.835 158.86 113.895 158.824C114.408 158.531 114.817 158.13 115.112 157.632C115.411 157.132 115.562 156.566 115.562 155.95C115.562 155.294 115.406 154.696 115.097 154.173C114.788 153.653 114.365 153.235 113.84 152.933C113.315 152.63 112.72 152.476 112.071 152.476H107.686V163.676L108.943 163.676V159.264L110.257 159.254H108.933V163.666H107.696V152.487H112.071C112.718 152.487 113.312 152.64 113.835 152.942C114.366 153.247 114.776 153.652 115.088 154.178C115.396 154.7 115.552 155.296 115.552 155.95C115.552 156.566 115.401 157.13 115.103 157.627C114.806 158.13 114.409 158.519 113.891 158.815C113.812 158.86 113.732 158.902 113.65 158.94L113.344 159.082L112.905 158.327L111.695 158.746L111.701 158.755L112.901 158.339L113.334 159.091L113.336 159.09L115.995 163.667L114.52 163.666L112.025 159.302L112.589 159.242C112.751 159.225 112.911 159.196 113.066 159.158L113.085 159.153L112.822 159.199C112.731 159.215 112.638 159.227 112.545 159.236L112.005 159.287L114.514 163.677ZM108.933 158.05H112.744L112.744 158.05L113.121 157.881C113.188 157.851 113.255 157.816 113.32 157.777C113.618 157.595 113.856 157.345 114.026 157.031C114.196 156.718 114.281 156.354 114.281 155.949C114.281 155.513 114.179 155.12 113.977 154.78C113.774 154.439 113.491 154.169 113.136 153.978C112.78 153.787 112.367 153.69 111.91 153.69H108.932L108.933 158.05ZM112.278 158.04H108.943L108.942 153.701H111.91C112.366 153.701 112.777 153.797 113.13 153.987C113.489 154.18 113.763 154.441 113.967 154.785C114.171 155.128 114.27 155.509 114.27 155.949C114.27 156.352 114.185 156.715 114.016 157.026C113.845 157.343 113.615 157.585 113.314 157.768C113.015 157.951 112.676 158.04 112.278 158.04ZM109.685 157.298H112.278C112.535 157.298 112.748 157.244 112.928 157.135C113.118 157.02 113.255 156.873 113.364 156.673C113.473 156.471 113.529 156.228 113.529 155.95C113.529 155.646 113.464 155.389 113.33 155.164C113.194 154.936 113.019 154.77 112.779 154.64C112.535 154.509 112.242 154.442 111.91 154.442H109.684L109.685 157.298Z" fill="white"/>
<path d="M119.84 163.671V152.481H124.22C124.869 152.481 125.459 152.633 125.986 152.937C126.513 153.241 126.931 153.653 127.241 154.176C127.55 154.698 127.705 155.29 127.705 155.95C127.705 156.568 127.556 157.128 127.256 157.629C126.959 158.131 126.554 158.527 126.041 158.819C125.53 159.112 124.956 159.259 124.315 159.259H121.087V163.671L119.84 163.671ZM121.087 158.045H124.426C124.821 158.045 125.168 157.954 125.466 157.772C125.765 157.591 125.999 157.343 126.17 157.029C126.34 156.715 126.424 156.355 126.424 155.949C126.424 155.513 126.323 155.124 126.121 154.783C125.918 154.441 125.639 154.175 125.282 153.983C124.924 153.791 124.517 153.695 124.059 153.695H121.086L121.087 158.045ZM126.665 163.671L123.852 158.749L125.051 158.333L128.152 163.672L126.665 163.671Z" fill="white"/>
<path d="M128.796 164.043L126.45 164.042L123.929 159.629H121.458V164.041L119.469 164.042V152.111H124.22C124.934 152.111 125.591 152.281 126.172 152.616C126.752 152.951 127.219 153.412 127.56 153.987C127.903 154.567 128.076 155.227 128.076 155.95C128.076 156.634 127.907 157.263 127.574 157.819C127.248 158.371 126.793 158.817 126.225 159.141C126.156 159.181 126.085 159.218 126.014 159.253L128.796 164.043ZM126.88 163.3L127.508 163.301L125.307 159.511C125.133 159.555 124.953 159.586 124.769 159.606L126.88 163.3ZM120.21 152.852V163.3L120.716 163.3V158.888H123.505L123.308 158.545L123.681 158.415H120.716L120.715 153.324H124.059C124.576 153.324 125.047 153.436 125.457 153.656C125.873 153.88 126.204 154.196 126.44 154.594C126.675 154.991 126.795 155.448 126.795 155.949C126.795 156.415 126.694 156.838 126.495 157.205C126.294 157.577 126.012 157.875 125.658 158.089C125.579 158.137 125.497 158.18 125.413 158.218L125.64 158.61C125.714 158.576 125.787 158.539 125.857 158.498C126.319 158.234 126.672 157.888 126.937 157.44C127.201 156.999 127.335 156.498 127.335 155.95C127.335 155.362 127.196 154.828 126.922 154.365C126.643 153.894 126.276 153.532 125.801 153.259C125.334 152.989 124.802 152.852 124.22 152.852L120.21 152.852ZM124.884 158.783L124.617 158.876C124.718 158.867 124.818 158.854 124.915 158.837L124.884 158.783ZM121.457 157.674H124.426C124.755 157.674 125.032 157.603 125.273 157.455C125.517 157.307 125.704 157.11 125.843 156.852C125.983 156.594 126.054 156.291 126.054 155.949C126.054 155.582 125.969 155.254 125.802 154.972C125.633 154.687 125.406 154.47 125.106 154.309C124.805 154.148 124.453 154.066 124.059 154.066H121.456L121.457 157.674Z" fill="white"/>
<path d="M128.805 164.048L126.447 164.047L123.925 159.635H121.462V164.046L119.464 164.047V152.105H124.22C124.935 152.105 125.592 152.276 126.174 152.612C126.755 152.947 127.223 153.408 127.565 153.984C127.908 154.565 128.082 155.226 128.082 155.95C128.082 156.635 127.912 157.265 127.579 157.821C127.252 158.374 126.797 158.821 126.228 159.146C126.161 159.184 126.092 159.221 126.022 159.256L128.805 164.048ZM126.884 163.295L127.498 163.296L125.304 159.518C125.134 159.56 124.958 159.591 124.778 159.611L126.884 163.295ZM120.216 152.858V163.295H120.711V158.883H123.495L123.3 158.542L123.65 158.421H120.711L120.71 153.319H124.059C124.578 153.319 125.049 153.431 125.46 153.652C125.877 153.876 126.208 154.193 126.444 154.592C126.68 154.99 126.801 155.447 126.801 155.95C126.801 156.416 126.7 156.84 126.5 157.208C126.299 157.58 126.017 157.878 125.662 158.093C125.584 158.14 125.503 158.183 125.42 158.22L125.643 158.603C125.715 158.57 125.786 158.533 125.855 158.493C126.316 158.23 126.668 157.885 126.933 157.437C127.197 156.997 127.33 156.497 127.33 155.95C127.33 155.363 127.191 154.831 126.918 154.368C126.64 153.898 126.273 153.537 125.799 153.263C125.333 152.994 124.802 152.858 124.22 152.858H120.216V152.858ZM124.882 158.79L124.658 158.867C124.742 158.859 124.825 158.848 124.907 158.833L124.882 158.79ZM121.462 157.669H124.427C124.755 157.669 125.031 157.598 125.27 157.451C125.514 157.303 125.7 157.107 125.839 156.849C125.978 156.593 126.049 156.29 126.049 155.949C126.049 155.579 125.966 155.26 125.797 154.974C125.629 154.69 125.403 154.475 125.104 154.314C124.804 154.153 124.453 154.071 124.059 154.071H121.462L121.462 157.669Z" fill="white"/>
<path d="M129.449 164.419L126.232 164.418L123.71 160.006H121.833V164.416L119.093 164.418V151.735H124.22C125.001 151.735 125.721 151.922 126.36 152.291C126.996 152.657 127.509 153.163 127.884 153.795C128.261 154.434 128.452 155.159 128.452 155.95C128.452 156.703 128.265 157.396 127.897 158.012C127.561 158.58 127.102 159.046 126.532 159.396L129.449 164.419ZM126.662 163.677L128.161 163.677L125.502 159.099L125.858 158.923C125.92 158.892 125.982 158.86 126.043 158.825C126.556 158.531 126.965 158.13 127.26 157.633C127.559 157.132 127.711 156.567 127.711 155.95C127.711 155.293 127.554 154.695 127.245 154.173C126.937 153.653 126.514 153.236 125.988 152.933C125.464 152.63 124.868 152.476 124.219 152.476H119.834V163.676L121.092 163.676V159.264L122.398 159.254H121.082V163.666H119.844V152.487H124.219C124.866 152.487 125.46 152.64 125.983 152.942C126.515 153.248 126.925 153.653 127.236 154.179C127.544 154.7 127.7 155.296 127.7 155.95C127.7 156.565 127.549 157.13 127.25 157.628C126.953 158.13 126.556 158.519 126.038 158.815C125.96 158.86 125.88 158.902 125.798 158.94L125.492 159.081L125.053 158.327L123.843 158.746L123.848 158.754L125.05 158.339L125.482 159.091L125.484 159.09L128.142 163.667L126.668 163.666L124.174 159.302L124.738 159.242C124.9 159.225 125.06 159.196 125.214 159.158L125.24 159.151L124.97 159.198C124.88 159.214 124.786 159.227 124.692 159.236L124.152 159.285L126.662 163.677ZM121.082 158.05L124.892 158.05L125.269 157.881C125.337 157.851 125.404 157.816 125.468 157.777C125.767 157.595 126.004 157.345 126.174 157.031C126.344 156.717 126.43 156.353 126.43 155.949C126.43 155.515 126.327 155.122 126.125 154.78C125.923 154.44 125.641 154.17 125.284 153.978C124.928 153.787 124.515 153.69 124.058 153.69H121.081L121.082 158.05ZM124.426 158.04H121.092L121.091 153.701H124.058C124.514 153.701 124.925 153.797 125.279 153.987C125.639 154.181 125.913 154.442 126.116 154.786C126.319 155.13 126.419 155.511 126.419 155.949C126.419 156.353 126.333 156.715 126.164 157.027C125.993 157.342 125.764 157.585 125.462 157.768C125.164 157.951 124.824 158.04 124.426 158.04ZM121.833 157.298H124.426C124.684 157.298 124.897 157.244 125.077 157.135C125.266 157.02 125.404 156.873 125.512 156.674C125.622 156.472 125.678 156.228 125.678 155.95C125.678 155.648 125.612 155.39 125.478 155.164C125.344 154.936 125.169 154.77 124.928 154.64C124.683 154.509 124.391 154.442 124.058 154.442H121.832L121.833 157.298Z" fill="white"/>
<path d="M131.46 163.671V162.488H133.267V153.664H131.46V152.481H136.32V153.664H134.515V162.488H136.32V163.671H131.46Z" fill="white"/>
<path d="M136.691 164.042H131.089V162.118H132.896V154.036H131.089V152.111H136.691V154.036H134.885V162.118H136.691V164.042ZM131.831 163.3H135.949V162.859H134.144V153.294H135.949V152.852H131.831V153.294H133.637V162.859H131.831V163.3Z" fill="white"/>
<path d="M136.696 164.047H131.084V162.113H132.891V154.04H131.084V152.106H136.696V154.04H134.89V162.113H136.696V164.047ZM131.836 163.295H135.944V162.865H134.138V153.289H135.944V152.858H131.836V153.289H133.642V162.865H131.836V163.295Z" fill="white"/>
<path d="M137.066 164.418H130.713V161.742H132.52V154.411H130.713V151.735H137.066V154.411H135.261V161.742H137.066V164.418ZM131.455 163.677H136.325V162.483H134.52V153.67H136.325V152.476H131.455V153.67H133.261V162.483H131.455V163.677ZM136.315 163.666H131.465V162.494H133.272V153.659H131.465V152.487H136.315V153.659H134.509V162.494H136.315V163.666Z" fill="white"/>
<path d="M140.683 163.671V152.481H147.461V153.697H141.93V162.456H147.429V163.672L140.683 163.671ZM141.259 158.524V157.309H146.566V158.524H141.259Z" fill="white"/>
<path d="M147.8 164.042H140.313V152.111H147.832V154.067H142.301V156.939H146.936V158.895H142.301V162.086H147.8V164.042ZM141.054 163.3H147.059V162.827H141.56V158.895H141.054V163.3ZM142.301 158.154H146.195V157.68H142.301V158.154ZM141.054 156.939H141.56V153.326H147.091V152.852H141.054V156.939Z" fill="white"/>
<path d="M147.805 164.047H140.307V152.105H147.838V154.073H142.306V156.934H146.942V158.9H142.306V162.08H147.805V164.047ZM141.059 163.295H147.053V162.832H141.555V158.9H141.059V163.295ZM142.306 158.148H146.19V157.685H142.306V158.148ZM141.059 156.933H141.555V153.32H147.085V152.858H141.059V156.933Z" fill="white"/>
<path d="M148.176 164.418H139.937V151.735H148.208V154.443H142.677V156.563H147.313V159.27H142.677V161.709H148.176V164.418ZM140.678 163.677H147.434V162.451H141.936V158.529H146.571V157.304H141.936V153.702H147.466V152.476H140.678V163.677ZM147.424 163.666H140.688V158.529H141.926V162.461H147.424L147.424 163.666ZM146.56 158.519H141.936V157.314H146.56V158.519ZM141.925 157.304H140.688V152.487H147.456V153.691H141.925L141.925 157.304Z" fill="white"/>
<path d="M151.858 163.671V152.481H156.236C156.886 152.481 157.476 152.633 158.003 152.937C158.53 153.241 158.948 153.653 159.258 154.176C159.567 154.698 159.721 155.29 159.721 155.95C159.721 156.568 159.572 157.128 159.274 157.629C158.975 158.131 158.571 158.527 158.059 158.819C157.547 159.112 156.972 159.259 156.332 159.259H153.103V163.671L151.858 163.671ZM153.104 158.045H156.445C156.838 158.045 157.185 157.954 157.484 157.772C157.782 157.591 158.016 157.343 158.187 157.029C158.357 156.715 158.443 156.355 158.443 155.949C158.443 155.513 158.341 155.124 158.138 154.783C157.936 154.441 157.655 154.175 157.3 153.983C156.942 153.791 156.533 153.695 156.076 153.695H153.103L153.104 158.045ZM158.682 163.671L155.87 158.749L157.068 158.333L160.17 163.672L158.682 163.671Z" fill="white"/>
<path d="M160.814 164.043L158.467 164.042L155.946 159.629H153.473V164.041L151.487 164.042V152.111H156.236C156.951 152.111 157.607 152.281 158.188 152.616C158.768 152.951 159.236 153.412 159.577 153.987C159.919 154.565 160.092 155.225 160.092 155.95C160.092 156.633 159.924 157.262 159.592 157.818C159.262 158.372 158.809 158.818 158.243 159.141C158.174 159.181 158.103 159.218 158.031 159.253L160.814 164.043ZM158.897 163.3L159.526 163.301L157.324 159.511C157.15 159.555 156.97 159.586 156.786 159.606L158.897 163.3ZM152.228 152.852V163.3L152.732 163.3V158.888H155.522L155.326 158.545L155.699 158.415H152.733L152.732 153.324H156.076C156.594 153.324 157.064 153.436 157.475 153.656C157.891 153.881 158.222 154.196 158.457 154.594C158.693 154.991 158.813 155.447 158.813 155.949C158.813 156.414 158.713 156.837 158.513 157.205C158.311 157.577 158.03 157.874 157.676 158.089C157.597 158.137 157.515 158.18 157.43 158.218L157.658 158.61C157.732 158.576 157.804 158.539 157.875 158.498C158.335 158.235 158.688 157.889 158.956 157.439C159.218 156.999 159.351 156.498 159.351 155.95C159.351 155.36 159.213 154.827 158.94 154.365C158.661 153.894 158.293 153.532 157.818 153.259C157.351 152.989 156.819 152.852 156.237 152.852L152.228 152.852ZM156.901 158.783L156.635 158.876C156.736 158.867 156.835 158.854 156.932 158.837L156.901 158.783ZM153.474 157.674H156.445C156.772 157.674 157.049 157.602 157.291 157.455C157.535 157.307 157.721 157.11 157.861 156.852C158.001 156.594 158.072 156.29 158.072 155.949C158.072 155.577 157.99 155.258 157.82 154.972C157.651 154.687 157.423 154.471 157.124 154.309C156.823 154.148 156.469 154.066 156.076 154.066H153.473L153.474 157.674Z" fill="white"/>
<path d="M160.823 164.048L158.464 164.047L155.943 159.635H153.479V164.046L151.481 164.047V152.105H156.236C156.952 152.105 157.609 152.276 158.191 152.612C158.772 152.946 159.24 153.408 159.582 153.984C159.924 154.563 160.098 155.224 160.098 155.95C160.098 156.633 159.929 157.263 159.597 157.821C159.267 158.376 158.812 158.821 158.246 159.146C158.178 159.184 158.109 159.221 158.039 159.256L160.823 164.048ZM158.9 163.295L159.516 163.296L157.321 159.517C157.151 159.56 156.975 159.591 156.795 159.61L158.9 163.295ZM152.233 152.858V163.295H152.727V158.883H155.513L155.318 158.542L155.668 158.421H152.728L152.727 153.319H156.076C156.594 153.319 157.066 153.431 157.477 153.651C157.894 153.877 158.225 154.193 158.461 154.591C158.699 154.99 158.819 155.447 158.819 155.95C158.819 156.416 158.718 156.839 158.518 157.208C158.316 157.58 158.034 157.878 157.679 158.093C157.602 158.14 157.521 158.183 157.437 158.22L157.66 158.603C157.732 158.57 157.803 158.533 157.872 158.494C158.331 158.231 158.684 157.885 158.951 157.437C159.213 156.997 159.345 156.497 159.345 155.951C159.345 155.361 159.207 154.829 158.935 154.368C158.656 153.898 158.289 153.537 157.815 153.264C157.349 152.994 156.817 152.858 156.236 152.858H152.233V152.858ZM156.899 158.79L156.676 158.867C156.76 158.859 156.843 158.848 156.924 158.833L156.899 158.79ZM153.48 157.669H156.445C156.772 157.669 157.047 157.598 157.288 157.451C157.532 157.303 157.718 157.106 157.857 156.849C157.996 156.592 158.067 156.289 158.067 155.949C158.067 155.578 157.985 155.26 157.816 154.975C157.647 154.691 157.42 154.475 157.122 154.313C156.821 154.153 156.469 154.071 156.076 154.071H153.479L153.48 157.669Z" fill="white"/>
<path d="M161.467 164.419L158.249 164.418L155.728 160.006H153.849V164.416L151.111 164.418V151.735H156.236C157.017 151.735 157.738 151.922 158.376 152.291C159.013 152.657 159.526 153.163 159.9 153.795C160.277 154.433 160.468 155.157 160.468 155.95C160.468 156.701 160.282 157.394 159.915 158.011C159.576 158.581 159.117 159.047 158.55 159.396L161.467 164.419ZM158.679 163.677L160.179 163.677L157.52 159.099L157.875 158.923C157.938 158.892 158.001 158.859 158.062 158.824C158.572 158.531 158.982 158.13 159.279 157.631C159.576 157.132 159.727 156.566 159.727 155.95C159.727 155.292 159.571 154.694 159.263 154.173C158.954 153.653 158.532 153.235 158.006 152.933C157.481 152.63 156.886 152.476 156.236 152.476H151.852V163.676L153.108 163.676V159.264L154.423 159.254H153.098V163.666H151.863V152.487H156.236C156.884 152.487 157.478 152.64 158.001 152.942C158.532 153.248 158.942 153.653 159.254 154.179C159.561 154.698 159.716 155.294 159.716 155.95C159.716 156.565 159.566 157.129 159.27 157.626C158.97 158.13 158.573 158.519 158.057 158.815C157.978 158.86 157.898 158.902 157.816 158.94L157.51 159.081L157.071 158.327L155.862 158.746L155.867 158.755L157.067 158.339L157.502 159.09L160.161 163.667L158.685 163.666L156.192 159.302L156.756 159.242C156.917 159.225 157.077 159.196 157.232 159.158L157.252 159.152L156.989 159.199C156.897 159.215 156.805 159.227 156.711 159.236L156.171 159.286L158.679 163.677ZM153.099 158.05H156.911L157.286 157.882C157.356 157.851 157.423 157.815 157.486 157.777C157.784 157.595 158.022 157.345 158.193 157.031C158.363 156.717 158.449 156.353 158.449 155.949C158.449 155.513 158.346 155.12 158.143 154.78C157.942 154.44 157.659 154.17 157.301 153.977C156.945 153.786 156.533 153.69 156.076 153.69H153.098L153.099 158.05ZM156.445 158.04H153.109L153.108 153.701H156.076C156.531 153.701 156.941 153.797 157.296 153.986C157.656 154.181 157.93 154.442 158.134 154.785C158.338 155.13 158.438 155.511 158.438 155.949C158.438 156.352 158.352 156.714 158.182 157.026C158.011 157.342 157.781 157.584 157.481 157.768C157.18 157.951 156.841 158.04 156.445 158.04ZM153.851 157.298H156.445C156.701 157.298 156.914 157.244 157.095 157.134C157.284 157.02 157.422 156.873 157.53 156.673C157.64 156.47 157.696 156.227 157.696 155.95C157.696 155.647 157.631 155.39 157.497 155.164C157.361 154.937 157.186 154.77 156.945 154.64C156.7 154.509 156.407 154.442 156.076 154.442H153.849L153.851 157.298Z" fill="white"/>
<path d="M167.266 163.831C166.701 163.831 166.167 163.752 165.667 163.592C165.166 163.432 164.708 163.192 164.293 162.873C163.877 162.553 163.51 162.159 163.19 161.69L164.053 160.73C164.555 161.444 165.068 161.945 165.596 162.233C166.123 162.521 166.718 162.665 167.379 162.665C167.858 162.665 168.295 162.585 168.689 162.425C169.084 162.265 169.393 162.042 169.616 161.753C169.84 161.466 169.952 161.136 169.952 160.762C169.952 160.517 169.912 160.299 169.832 160.107C169.753 159.915 169.632 159.744 169.473 159.595C169.312 159.445 169.115 159.313 168.881 159.195C168.646 159.078 168.378 158.972 168.074 158.876C167.77 158.779 167.431 158.684 167.059 158.588C166.516 158.46 166.039 158.309 165.629 158.133C165.218 157.957 164.872 157.74 164.59 157.486C164.307 157.23 164.094 156.934 163.949 156.598C163.806 156.262 163.734 155.866 163.734 155.407C163.734 154.97 163.827 154.565 164.014 154.193C164.2 153.819 164.458 153.497 164.789 153.225C165.118 152.953 165.508 152.743 165.956 152.594C166.404 152.445 166.882 152.37 167.394 152.37C167.969 152.37 168.484 152.449 168.937 152.603C169.388 152.756 169.791 152.983 170.143 153.281C170.494 153.58 170.799 153.937 171.054 154.353L170.175 155.216C169.951 154.864 169.698 154.56 169.416 154.305C169.133 154.05 168.824 153.855 168.489 153.721C168.153 153.589 167.782 153.521 167.378 153.521C166.909 153.521 166.495 153.6 166.139 153.76C165.781 153.92 165.501 154.141 165.3 154.423C165.098 154.706 164.996 155.029 164.996 155.391C164.996 155.657 165.043 155.894 165.139 156.102C165.236 156.311 165.387 156.491 165.595 156.646C165.803 156.8 166.074 156.939 166.411 157.061C166.746 157.184 167.148 157.298 167.617 157.404C168.171 157.533 168.669 157.687 169.111 157.869C169.553 158.05 169.931 158.265 170.247 158.515C170.561 158.767 170.801 159.056 170.965 159.386C171.131 159.717 171.214 160.096 171.214 160.522C171.214 161.183 171.048 161.761 170.718 162.256C170.388 162.751 169.927 163.138 169.336 163.415C168.744 163.692 168.054 163.831 167.266 163.831Z" fill="white"/>
<path d="M167.266 164.201C166.662 164.201 166.086 164.115 165.554 163.945C165.015 163.773 164.515 163.511 164.067 163.166C163.622 162.825 163.224 162.398 162.884 161.898L162.72 161.658L164.089 160.135L164.357 160.516C164.823 161.181 165.3 161.649 165.774 161.908C166.243 162.164 166.783 162.294 167.378 162.294C167.808 162.294 168.202 162.222 168.55 162.081C168.887 161.945 169.14 161.763 169.323 161.526C169.497 161.303 169.581 161.053 169.581 160.762C169.581 160.569 169.55 160.396 169.489 160.249C169.43 160.107 169.341 159.981 169.219 159.866C169.086 159.742 168.921 159.631 168.714 159.527C168.499 159.42 168.245 159.32 167.962 159.23C167.681 159.14 167.355 159.048 166.966 158.947C166.409 158.816 165.907 158.656 165.483 158.474C165.038 158.284 164.654 158.044 164.341 157.761C164.02 157.471 163.774 157.129 163.609 156.745C163.446 156.364 163.363 155.914 163.363 155.408C163.363 154.914 163.47 154.45 163.682 154.027C163.89 153.61 164.183 153.243 164.553 152.939C164.915 152.641 165.348 152.406 165.838 152.243C166.322 152.081 166.846 152 167.394 152C168.005 152 168.564 152.085 169.056 152.252C169.55 152.42 169.996 152.671 170.383 152.999C170.764 153.323 171.096 153.713 171.37 154.158L171.524 154.41L170.108 155.802L169.862 155.415C169.657 155.093 169.423 154.812 169.167 154.58C168.919 154.356 168.644 154.183 168.351 154.065C168.06 153.951 167.732 153.893 167.378 153.893C166.962 153.893 166.596 153.962 166.291 154.099C165.991 154.233 165.766 154.409 165.602 154.639C165.443 154.86 165.367 155.106 165.367 155.391C165.367 155.603 165.404 155.79 165.476 155.946C165.546 156.099 165.657 156.231 165.816 156.348C165.995 156.481 166.238 156.604 166.537 156.713C166.857 156.83 167.247 156.941 167.699 157.042C168.274 157.176 168.796 157.338 169.252 157.526C169.723 157.719 170.136 157.954 170.477 158.224C170.836 158.512 171.111 158.847 171.298 159.221C171.488 159.603 171.585 160.041 171.585 160.522C171.585 161.253 171.397 161.906 171.027 162.462C170.66 163.013 170.144 163.446 169.493 163.751C168.855 164.05 168.105 164.201 167.266 164.201ZM163.665 161.715C163.921 162.05 164.207 162.339 164.519 162.579C164.899 162.871 165.323 163.093 165.78 163.239C166.239 163.386 166.739 163.46 167.266 163.46C167.996 163.46 168.639 163.332 169.178 163.079C169.704 162.833 170.119 162.486 170.409 162.05C170.697 161.618 170.843 161.104 170.843 160.521C170.843 160.156 170.773 159.83 170.634 159.552C170.495 159.274 170.287 159.022 170.015 158.804C169.73 158.578 169.378 158.378 168.971 158.212C168.551 158.039 168.067 157.889 167.533 157.765C167.053 157.657 166.631 157.537 166.283 157.409C165.917 157.276 165.61 157.119 165.374 156.943C165.117 156.752 164.924 156.521 164.803 156.257C164.685 156.003 164.625 155.711 164.625 155.391C164.625 154.951 164.751 154.554 164.998 154.207C165.237 153.872 165.571 153.607 165.988 153.422C166.388 153.242 166.856 153.151 167.378 153.151C167.825 153.151 168.244 153.227 168.624 153.376C169.001 153.527 169.351 153.746 169.664 154.029C169.866 154.211 170.054 154.417 170.228 154.644L170.577 154.302C170.379 154.024 170.154 153.777 169.903 153.564C169.588 153.297 169.223 153.092 168.818 152.954C168.403 152.813 167.924 152.741 167.394 152.741C166.926 152.741 166.481 152.81 166.073 152.946C165.669 153.08 165.316 153.271 165.025 153.511C164.735 153.749 164.507 154.034 164.346 154.358C164.185 154.677 164.105 155.03 164.105 155.407C164.105 155.813 164.167 156.164 164.29 156.452C164.415 156.741 164.594 156.989 164.839 157.211C165.091 157.439 165.406 157.634 165.775 157.792C166.16 157.957 166.621 158.103 167.144 158.227C167.555 158.333 167.893 158.429 168.187 158.523C168.506 158.624 168.795 158.739 169.046 158.863C169.319 159 169.54 159.151 169.726 159.324C169.924 159.51 170.075 159.726 170.174 159.964C170.273 160.202 170.323 160.47 170.323 160.762C170.323 161.218 170.184 161.628 169.909 161.981C169.647 162.318 169.284 162.583 168.829 162.768C168.393 162.945 167.904 163.035 167.379 163.035C166.658 163.035 165.998 162.875 165.418 162.558C164.942 162.298 164.475 161.88 164.026 161.313L163.665 161.715Z" fill="white"/>
<path d="M167.266 164.207C166.663 164.207 166.087 164.12 165.553 163.95C165.013 163.778 164.512 163.516 164.064 163.171C163.619 162.83 163.22 162.402 162.879 161.902L162.713 161.658L164.089 160.128L164.36 160.514C164.827 161.178 165.303 161.645 165.776 161.904C166.245 162.159 166.784 162.289 167.378 162.289C167.807 162.289 168.2 162.218 168.548 162.077C168.884 161.94 169.136 161.759 169.318 161.524C169.492 161.301 169.576 161.052 169.576 160.763C169.576 160.57 169.545 160.398 169.484 160.251C169.426 160.11 169.338 159.985 169.215 159.87C169.084 159.748 168.915 159.634 168.712 159.532C168.494 159.424 168.241 159.324 167.961 159.235C167.678 159.145 167.352 159.053 166.965 158.952C166.407 158.821 165.904 158.661 165.48 158.479C165.035 158.288 164.651 158.048 164.337 157.765C164.017 157.474 163.77 157.132 163.604 156.748C163.44 156.365 163.358 155.915 163.358 155.408C163.358 154.914 163.465 154.449 163.677 154.025C163.885 153.607 164.179 153.24 164.55 152.935C164.913 152.636 165.346 152.401 165.837 152.237C166.321 152.077 166.846 151.994 167.394 151.994C168.005 151.994 168.565 152.079 169.058 152.247C169.552 152.415 169.999 152.667 170.386 152.995C170.768 153.319 171.101 153.71 171.375 154.156L171.531 154.411L170.107 155.81L169.858 155.418C169.654 155.097 169.42 154.816 169.163 154.584C168.916 154.361 168.642 154.188 168.349 154.07C168.059 153.956 167.732 153.898 167.378 153.898C166.963 153.898 166.597 153.967 166.293 154.104C165.994 154.237 165.77 154.413 165.606 154.642C165.448 154.862 165.372 155.107 165.372 155.391C165.372 155.602 165.409 155.788 165.481 155.945C165.551 156.097 165.662 156.228 165.819 156.344C165.998 156.477 166.24 156.599 166.539 156.708C166.86 156.825 167.25 156.936 167.7 157.037C168.277 157.171 168.8 157.334 169.255 157.521C169.727 157.715 170.14 157.95 170.481 158.22C170.84 158.508 171.116 158.843 171.302 159.22C171.494 159.602 171.591 160.04 171.591 160.522C171.591 161.254 171.402 161.908 171.031 162.465C170.664 163.016 170.147 163.451 169.496 163.756C168.855 164.054 168.105 164.207 167.266 164.207ZM163.672 161.715C163.927 162.048 164.212 162.337 164.522 162.575C164.901 162.867 165.325 163.088 165.781 163.233C166.241 163.38 166.74 163.455 167.266 163.455C167.994 163.455 168.636 163.327 169.176 163.074C169.701 162.829 170.114 162.483 170.405 162.047C170.692 161.616 170.838 161.102 170.838 160.521C170.838 160.157 170.768 159.832 170.629 159.553C170.49 159.276 170.283 159.025 170.011 158.808C169.727 158.582 169.375 158.383 168.969 158.216C168.551 158.044 168.067 157.894 167.532 157.769C167.053 157.662 166.631 157.541 166.281 157.413C165.914 157.28 165.607 157.122 165.37 156.946C165.114 156.756 164.921 156.525 164.798 156.259C164.68 156.003 164.619 155.711 164.619 155.39C164.619 154.95 164.745 154.551 164.993 154.204C165.234 153.868 165.568 153.603 165.985 153.417C166.387 153.236 166.856 153.145 167.377 153.145C167.826 153.145 168.246 153.221 168.626 153.371C169.004 153.522 169.353 153.742 169.667 154.025C169.867 154.206 170.055 154.411 170.228 154.636L170.569 154.3C170.372 154.025 170.148 153.779 169.899 153.567C169.585 153.301 169.22 153.096 168.816 152.958C168.401 152.817 167.923 152.746 167.394 152.746C166.926 152.746 166.482 152.814 166.074 152.95C165.671 153.084 165.319 153.275 165.027 153.515C164.739 153.752 164.511 154.036 164.35 154.36C164.19 154.679 164.109 155.031 164.109 155.407C164.109 155.811 164.171 156.163 164.294 156.45C164.418 156.737 164.598 156.985 164.842 157.206C165.093 157.433 165.408 157.629 165.776 157.787C166.161 157.952 166.621 158.098 167.145 158.221C167.554 158.327 167.892 158.423 168.188 158.517C168.505 158.617 168.794 158.733 169.048 158.858C169.317 158.993 169.545 159.149 169.729 159.32C169.928 159.507 170.079 159.723 170.178 159.962C170.277 160.2 170.327 160.469 170.327 160.761C170.327 161.218 170.188 161.629 169.912 161.984C169.651 162.321 169.286 162.587 168.831 162.772C168.392 162.95 167.904 163.04 167.378 163.04C166.656 163.04 165.996 162.879 165.415 162.562C164.94 162.303 164.474 161.886 164.025 161.322L163.672 161.715Z" fill="white"/>
<path d="M167.266 164.578C166.625 164.578 166.011 164.485 165.44 164.303C164.858 164.118 164.319 163.836 163.837 163.464C163.362 163.099 162.936 162.643 162.573 162.111L162.243 161.627L164.125 159.534L164.664 160.301C165.097 160.917 165.531 161.347 165.954 161.579C166.367 161.804 166.847 161.918 167.378 161.918C167.759 161.918 168.106 161.856 168.408 161.734C168.682 161.622 168.884 161.48 169.025 161.297C169.147 161.139 169.205 160.97 169.205 160.763C169.205 160.619 169.183 160.494 169.141 160.392C169.103 160.3 169.046 160.22 168.961 160.14C168.857 160.043 168.717 159.949 168.545 159.863C168.345 159.764 168.11 159.671 167.849 159.588C167.574 159.501 167.255 159.41 166.871 159.311C166.298 159.176 165.778 159.01 165.334 158.82C164.852 158.613 164.433 158.351 164.088 158.04C163.728 157.713 163.451 157.328 163.263 156.895C163.079 156.464 162.986 155.964 162.986 155.408C162.986 154.856 163.107 154.335 163.345 153.859C163.577 153.394 163.903 152.986 164.314 152.649C164.712 152.321 165.185 152.064 165.719 151.886C166.242 151.712 166.805 151.624 167.393 151.624C168.045 151.624 168.645 151.716 169.177 151.897C169.715 152.08 170.202 152.354 170.625 152.712C171.037 153.062 171.395 153.482 171.689 153.962L172 154.469L170.038 156.396L169.544 155.616C169.358 155.324 169.146 155.069 168.913 154.858C168.7 154.665 168.463 154.516 168.21 154.414C167.965 154.318 167.684 154.269 167.377 154.269C167.013 154.269 166.699 154.327 166.443 154.442C166.206 154.548 166.03 154.683 165.906 154.858C165.793 155.014 165.741 155.184 165.741 155.391C165.741 155.548 165.767 155.682 165.816 155.789C165.86 155.884 165.931 155.966 166.039 156.046C166.188 156.157 166.398 156.262 166.665 156.359C166.973 156.472 167.347 156.578 167.78 156.675C168.377 156.814 168.919 156.983 169.394 157.178C169.899 157.385 170.342 157.638 170.71 157.93C171.112 158.251 171.422 158.629 171.633 159.054C171.849 159.487 171.96 159.981 171.96 160.521C171.96 161.328 171.751 162.05 171.338 162.669C170.931 163.28 170.363 163.758 169.651 164.091C168.962 164.414 168.159 164.578 167.266 164.578ZM163.183 161.69L163.185 161.693C163.504 162.161 163.876 162.559 164.289 162.877C164.703 163.196 165.166 163.438 165.665 163.597C166.163 163.756 166.701 163.837 167.265 163.837C168.05 163.837 168.747 163.696 169.338 163.419C169.926 163.145 170.391 162.754 170.722 162.259C171.052 161.764 171.219 161.179 171.219 160.521C171.219 160.097 171.135 159.715 170.97 159.385C170.807 159.057 170.564 158.762 170.248 158.51C169.936 158.262 169.554 158.044 169.113 157.864C168.675 157.684 168.171 157.527 167.616 157.398C167.155 157.295 166.749 157.179 166.411 157.055C166.078 156.934 165.804 156.795 165.597 156.641C165.389 156.487 165.241 156.31 165.144 156.1C165.049 155.894 165.001 155.656 165.001 155.391C165.001 155.031 165.103 154.706 165.304 154.426C165.507 154.142 165.781 153.925 166.141 153.765C166.493 153.607 166.909 153.527 167.378 153.527C167.778 153.527 168.151 153.594 168.485 153.725C168.821 153.86 169.132 154.055 169.412 154.308C169.694 154.564 169.949 154.87 170.171 155.218L170.174 155.224L171.061 154.353L171.058 154.349C171.057 154.347 171.056 154.346 171.055 154.344L170.189 155.194L169.934 154.862C169.776 154.656 169.603 154.467 169.418 154.3C169.139 154.047 168.826 153.85 168.489 153.715C168.154 153.583 167.78 153.516 167.378 153.516C166.908 153.516 166.491 153.596 166.137 153.755C165.78 153.914 165.497 154.138 165.295 154.42C165.093 154.703 164.99 155.029 164.99 155.39C164.99 155.656 165.039 155.896 165.135 156.104C165.231 156.312 165.385 156.495 165.591 156.649C165.8 156.804 166.074 156.944 166.407 157.065C166.744 157.188 167.15 157.304 167.613 157.408C168.171 157.537 168.674 157.694 169.11 157.873C169.549 158.054 169.93 158.27 170.242 158.518C170.557 158.769 170.798 159.062 170.961 159.388C171.126 159.718 171.209 160.099 171.209 160.521C171.209 161.177 171.042 161.759 170.714 162.252C170.385 162.746 169.92 163.135 169.333 163.41C168.744 163.685 168.049 163.826 167.266 163.826C166.703 163.826 166.166 163.745 165.669 163.587C165.17 163.428 164.708 163.186 164.296 162.868C163.962 162.612 163.653 162.3 163.378 161.941L163.191 161.696L164.044 160.749L164.317 161.092C164.734 161.618 165.163 162.003 165.594 162.238C166.119 162.525 166.72 162.67 167.379 162.67C167.856 162.67 168.298 162.589 168.692 162.429C169.086 162.269 169.398 162.043 169.62 161.757C169.844 161.469 169.957 161.135 169.957 160.762C169.957 160.519 169.917 160.298 169.837 160.105C169.758 159.915 169.637 159.742 169.475 159.59C169.318 159.444 169.118 159.309 168.882 159.19C168.645 159.072 168.373 158.965 168.077 158.871C167.783 158.779 167.449 158.683 167.053 158.581C166.518 158.455 166.037 158.302 165.631 158.128C165.225 157.955 164.876 157.737 164.594 157.482C164.31 157.225 164.101 156.936 163.955 156.598C163.811 156.262 163.739 155.861 163.739 155.407C163.739 154.974 163.833 154.565 164.019 154.195C164.202 153.825 164.463 153.5 164.793 153.229C165.119 152.959 165.512 152.747 165.957 152.599C166.404 152.45 166.887 152.375 167.394 152.375C167.963 152.375 168.482 152.453 168.936 152.608C169.384 152.76 169.789 152.988 170.139 153.285C170.411 153.516 170.658 153.786 170.871 154.086L171.055 154.343C170.802 153.933 170.496 153.575 170.146 153.277C169.795 152.98 169.388 152.751 168.939 152.598C168.484 152.444 167.965 152.365 167.394 152.365C166.886 152.365 166.401 152.44 165.954 152.589C165.507 152.738 165.114 152.951 164.786 153.221C164.455 153.492 164.194 153.818 164.009 154.19C163.823 154.562 163.728 154.971 163.728 155.407C163.728 155.863 163.801 156.265 163.945 156.602C164.089 156.935 164.305 157.235 164.587 157.49C164.869 157.745 165.219 157.963 165.626 158.138C166.032 158.311 166.511 158.464 167.05 158.591C167.455 158.696 167.787 158.79 168.074 158.881C168.37 158.975 168.64 159.082 168.877 159.199C169.114 159.318 169.312 159.453 169.469 159.599C169.63 159.751 169.748 159.917 169.827 160.108C169.906 160.301 169.946 160.52 169.946 160.762C169.946 161.132 169.833 161.465 169.611 161.751C169.388 162.039 169.086 162.258 168.687 162.42C168.296 162.578 167.855 162.659 167.378 162.659C166.721 162.659 166.122 162.514 165.598 162.229C165.074 161.942 164.556 161.437 164.057 160.726L164.053 160.721L163.183 161.69Z" fill="white"/>
</svg>
