<svg width="20" height="20" viewBox="0 0 20 20" fill="none" xmlns="http://www.w3.org/2000/svg">
<g clip-path="url(#clip0_247_745)">
<rect width="20" height="20" fill="white"/>
<path fill-rule="evenodd" clip-rule="evenodd" d="M6.5625 6.87131C6.31386 6.87131 6.0754 6.77254 5.89959 6.59672C5.72377 6.42091 5.625 6.18245 5.625 5.93381V5.00006C5.12772 5.00006 4.65081 5.1976 4.29917 5.54923C3.94754 5.90086 3.75 6.37778 3.75 6.87506V8.12506H16.25V6.87506C16.25 6.37778 16.0525 5.90086 15.7008 5.54923C15.3492 5.1976 14.8723 5.00006 14.375 5.00006V5.93756C14.375 6.1862 14.2762 6.42466 14.1004 6.60047C13.9246 6.77629 13.6861 6.87506 13.4375 6.87506C13.1889 6.87506 12.9504 6.77629 12.7746 6.60047C12.5988 6.42466 12.5 6.1862 12.5 5.93756V5.00006H7.5V5.93381C7.5 6.18245 7.40123 6.42091 7.22541 6.59672C7.0496 6.77254 6.81114 6.87131 6.5625 6.87131ZM12.5 3.12506H7.5V2.18506C7.5 1.93642 7.40123 1.69796 7.22541 1.52215C7.0496 1.34633 6.81114 1.24756 6.5625 1.24756C6.31386 1.24756 6.0754 1.34633 5.89959 1.52215C5.72377 1.69796 5.625 1.93642 5.625 2.18506V3.12506C4.63044 3.12506 3.67661 3.52015 2.97335 4.22341C2.27009 4.92667 1.875 5.8805 1.875 6.87506V14.3751C1.875 15.3696 2.27009 16.3234 2.97335 17.0267C3.67661 17.73 4.63044 18.1251 5.625 18.1251H14.375C15.3696 18.1251 16.3234 17.73 17.0267 17.0267C17.7299 16.3234 18.125 15.3696 18.125 14.3751V6.87506C18.125 5.8805 17.7299 4.92667 17.0267 4.22341C16.3234 3.52015 15.3696 3.12506 14.375 3.12506V2.18756C14.375 1.93892 14.2762 1.70046 14.1004 1.52465C13.9246 1.34883 13.6861 1.25006 13.4375 1.25006C13.1889 1.25006 12.9504 1.34883 12.7746 1.52465C12.5988 1.70046 12.5 1.93892 12.5 2.18756V3.12506ZM3.75 10.0001V14.3751C3.75 14.8723 3.94754 15.3493 4.29917 15.7009C4.65081 16.0525 5.12772 16.2501 5.625 16.2501H14.375C14.8723 16.2501 15.3492 16.0525 15.7008 15.7009C16.0525 15.3493 16.25 14.8723 16.25 14.3751V10.0001H3.75Z" fill="#D7000C"/>
</g>
<defs>
<clipPath id="clip0_247_745">
<rect width="20" height="20" fill="white"/>
</clipPath>
</defs>
</svg>
