<svg width="10" height="10" viewBox="0 0 10 10" fill="none" xmlns="http://www.w3.org/2000/svg">
<path d="M5 8.21003L1.36375 4.6717C1.33445 4.64256 1.29966 4.61953 1.2614 4.60394C1.22313 4.58834 1.18216 4.58048 1.14084 4.58083C1.09952 4.58117 1.05868 4.5897 1.02068 4.60594C0.98268 4.62217 0.948277 4.64577 0.919461 4.67539C0.890646 4.705 0.867989 4.74004 0.852803 4.77847C0.837617 4.81689 0.830203 4.85795 0.830989 4.89927C0.831776 4.94058 0.840748 4.98132 0.857386 5.01915C0.874023 5.05697 0.897997 5.09112 0.927919 5.11961L4.78209 8.86961C4.84043 8.92637 4.91861 8.95813 5 8.95813C5.0814 8.95813 5.15958 8.92637 5.21792 8.86961L9.07209 5.11961C9.10201 5.09112 9.12598 5.05697 9.14262 5.01915C9.15926 4.98132 9.16823 4.94058 9.16901 4.89927C9.1698 4.85795 9.16239 4.81689 9.1472 4.77847C9.13202 4.74004 9.10936 4.705 9.08054 4.67539C9.05173 4.64577 9.01732 4.62217 8.97933 4.60594C8.94133 4.5897 8.90049 4.58117 8.85917 4.58083C8.81785 4.58048 8.77687 4.58834 8.73861 4.60394C8.70035 4.61953 8.66556 4.64256 8.63625 4.6717L5 8.21003Z" fill="#D7000C"/>
</svg>
