<svg width="20" height="20" viewBox="0 0 20 20" fill="none" xmlns="http://www.w3.org/2000/svg">
<path d="M17.875 9.35588H16.7167C16.5653 7.78051 15.8705 6.30692 14.7514 5.18784C13.6323 4.06876 12.1587 3.37393 10.5834 3.22254V2.06421C10.5834 1.89845 10.5175 1.73948 10.4003 1.62227C10.2831 1.50506 10.1241 1.43921 9.95837 1.43921C9.79261 1.43921 9.63364 1.50506 9.51643 1.62227C9.39922 1.73948 9.33337 1.89845 9.33337 2.06421V3.22254C7.76491 3.3815 6.30021 4.07985 5.18927 5.19839C4.07832 6.31694 3.38997 7.78636 3.24171 9.35588H2.08337C2.0013 9.35588 1.92003 9.37204 1.8442 9.40345C1.76837 9.43486 1.69947 9.4809 1.64143 9.53893C1.5834 9.59697 1.53736 9.66587 1.50595 9.7417C1.47454 9.81753 1.45837 9.8988 1.45837 9.98088C1.45837 10.063 1.47454 10.1442 1.50595 10.2201C1.53736 10.2959 1.5834 10.3648 1.64143 10.4228C1.69947 10.4809 1.76837 10.5269 1.8442 10.5583C1.92003 10.5897 2.0013 10.6059 2.08337 10.6059H3.24171C3.3931 12.1812 4.08792 13.6548 5.207 14.7739C6.32608 15.893 7.79968 16.5878 9.37504 16.7392V17.8975C9.37504 18.0633 9.44089 18.2223 9.5581 18.3395C9.67531 18.4567 9.83428 18.5225 10 18.5225C10.1658 18.5225 10.3248 18.4567 10.442 18.3395C10.5592 18.2223 10.625 18.0633 10.625 17.8975V16.7392C12.1998 16.5863 13.6726 15.891 14.7913 14.7722C15.9101 13.6534 16.6054 12.1807 16.7584 10.6059H17.9167C17.9988 10.6059 18.0801 10.5897 18.1559 10.5583C18.2317 10.5269 18.3006 10.4809 18.3586 10.4228C18.4167 10.3648 18.4627 10.2959 18.4941 10.2201C18.5255 10.1442 18.5417 10.063 18.5417 9.98088C18.5417 9.8988 18.5255 9.81753 18.4941 9.7417C18.4627 9.66587 18.4167 9.59697 18.3586 9.53893C18.3006 9.4809 18.2317 9.43486 18.1559 9.40345C18.0801 9.37204 17.9988 9.35588 17.9167 9.35588H17.875ZM9.95837 15.5142C8.86398 15.5142 7.79417 15.1897 6.88422 14.5817C5.97427 13.9737 5.26504 13.1095 4.84624 12.0984C4.42744 11.0873 4.31786 9.97474 4.53136 8.90138C4.74487 7.82801 5.27187 6.84207 6.04572 6.06822C6.81957 5.29437 7.80551 4.76737 8.87887 4.55386C9.95224 4.34036 11.0648 4.44994 12.0759 4.86874C13.087 5.28755 13.9512 5.99677 14.5592 6.90672C15.1672 7.81667 15.4917 8.88649 15.4917 9.98088C15.4917 11.4492 14.909 12.8575 13.8715 13.8965C12.8341 14.9355 11.4267 15.5203 9.95837 15.5225V15.5142Z" fill="#D7000C"/>
</svg>
