<svg width="85" height="91" viewBox="0 0 85 91" fill="none" xmlns="http://www.w3.org/2000/svg">
<rect width="85" height="90.913" rx="5" fill="white"/>
<rect x="6.65222" y="7.39111" width="71.6956" height="76.1304" rx="5" fill="#FFCECE"/>
<path fill-rule="evenodd" clip-rule="evenodd" d="M21.0003 62.8537C21.1684 62.2375 21.274 61.5958 21.5153 61.0097C22.6897 58.1589 24.844 56.5188 27.8642 55.9872C27.9763 55.9675 28.0885 55.9478 28.1996 55.923C28.2236 55.9177 28.2427 55.8898 28.2706 55.8672C25.1433 55.3006 23.6194 52.6628 23.8574 50.2699C24.1205 47.6217 26.3037 45.6269 28.924 45.5986C31.5678 45.5701 33.7542 47.4853 34.1002 50.1924C34.3869 52.4359 33.0221 55.2362 29.7044 55.8989C31.6276 56.1535 33.3334 56.8776 34.773 58.2549C35.701 57.0992 36.7693 56.1492 38.0544 55.4486C39.3258 54.7556 40.6851 54.3675 42.1363 54.1805C40.0463 53.8196 38.3727 52.8126 37.2232 51.0338C36.0706 49.2501 35.8042 47.3122 36.4281 45.2826C37.3932 42.1433 40.4563 40.1013 43.6943 40.4959C47.2354 40.9275 49.7592 43.7146 49.8436 47.1559C49.9232 50.4026 47.6248 53.5768 43.8235 54.1765C46.8283 54.52 49.2832 55.8548 51.1801 58.254C52.6135 56.8979 54.3065 56.1456 56.2493 55.8944C54.7951 55.6073 53.614 54.9108 52.7678 53.7066C51.9102 52.4858 51.6275 51.1254 51.941 49.6684C52.4868 47.1328 54.8368 45.3983 57.3943 45.6117C59.9577 45.8255 62.0185 47.9583 62.1175 50.5006C62.2217 53.1688 60.4104 55.371 57.7013 55.9065C57.8237 55.9327 57.9448 55.967 58.0684 55.9838C62.0173 56.5164 64.9487 59.8545 64.958 63.8318C64.9591 64.2895 64.9646 64.7475 64.9564 65.2052C64.9446 65.8555 64.6212 66.1805 63.9797 66.2016C63.8939 66.2042 63.808 66.2022 63.7221 66.2022C49.8867 66.2022 36.0512 66.2003 22.2157 66.2096C21.6826 66.21 21.2671 66.0808 21 65.6012C21.0003 64.6852 21.0003 63.7696 21.0003 62.8537ZM34.4149 64.4548C40.1449 64.4548 45.8435 64.4548 51.5416 64.4548C51.589 60.122 48.0831 55.9396 43.0252 55.9091C38.0869 55.8792 34.3839 59.9337 34.4149 64.4548ZM37.8292 47.3165C37.8308 50.1531 40.1557 52.4708 42.9927 52.4638C45.8118 52.4569 48.1198 50.1512 48.1293 47.3324C48.1389 44.4951 45.8238 42.1679 42.9873 42.1637C40.1503 42.1596 37.8279 44.4798 37.8292 47.3165ZM32.6784 64.4665C32.7137 62.8646 33.0557 61.3609 33.73 59.9325C33.7759 59.8351 33.6803 59.6146 33.5847 59.5144C31.5326 57.3679 27.97 56.9928 25.4794 58.6887C23.456 60.0666 22.5547 62.0028 22.736 64.4665C26.0473 64.4665 29.3309 64.4665 32.6784 64.4665ZM63.2964 64.4706C63.2299 63.7555 63.2493 63.0712 63.0917 62.4304C62.5094 60.0634 60.9908 58.5247 58.6649 57.8746C56.2695 57.2049 54.1547 57.8336 52.3434 59.5271C52.1607 59.698 52.1827 59.8346 52.2524 60.0485C52.5695 61.0214 52.8894 61.9955 53.1468 62.9851C53.2698 63.4582 53.256 63.9669 53.3054 64.4705C56.6186 64.4706 59.9023 64.4706 63.2964 64.4706ZM32.4159 50.7582C32.425 48.9005 30.8887 47.3452 29.0165 47.317C27.1509 47.2888 25.563 48.8575 25.5537 50.7378C25.5447 52.5955 27.0809 54.1508 28.9531 54.1791C30.8188 54.2073 32.4067 52.6386 32.4159 50.7582ZM60.4049 50.749C60.4058 48.8886 58.8648 47.337 56.9963 47.317C55.1278 47.2969 53.5437 48.8703 53.5427 50.7469C53.5418 52.6073 55.0828 54.1589 56.9513 54.1791C58.8198 54.1991 60.404 52.6258 60.4049 50.749Z" fill="#D7000C"/>
<path fill-rule="evenodd" clip-rule="evenodd" d="M38.3883 37.1854C38.5494 36.241 38.6992 35.2076 38.9113 34.1871C39.0139 33.6941 38.9571 33.3508 38.5508 32.9975C37.8179 32.3603 37.1531 31.6454 36.4509 30.9724C36.1564 30.6901 36.0069 30.3683 36.139 29.9724C36.2727 29.572 36.6023 29.4241 36.9985 29.37C38.0462 29.2269 39.0917 29.0664 40.14 28.9286C40.4265 28.891 40.5815 28.7595 40.7041 28.498C41.1525 27.5411 41.6329 26.5993 42.0899 25.6462C42.2706 25.2695 42.5189 24.9948 42.9618 25.0001C43.3852 25.0051 43.626 25.2726 43.7996 25.6327C44.2648 26.5977 44.7487 27.5537 45.2036 28.5235C45.3214 28.7744 45.4751 28.8904 45.7434 28.9263C46.7773 29.0646 47.8083 29.2257 48.8422 29.3637C49.2498 29.4182 49.6028 29.539 49.7531 29.9593C49.9104 30.3992 49.7081 30.7262 49.3973 31.0243C48.654 31.7372 47.9323 32.4732 47.1763 33.1719C46.9291 33.4002 46.8871 33.6224 46.9424 33.9258C47.1295 34.9518 47.2907 35.9826 47.4824 37.0077C47.5581 37.4125 47.4922 37.7576 47.1587 38.0028C46.8368 38.2394 46.4867 38.193 46.1464 38.0137C45.1857 37.5076 44.2207 37.0096 43.2664 36.4919C43.0417 36.3701 42.8702 36.3628 42.6404 36.4879C41.6746 37.0142 40.7016 37.5281 39.721 38.0263C39.0421 38.371 38.3706 37.9794 38.3883 37.1854ZM40.3815 35.7381C40.9739 35.4272 41.5262 35.1874 42.0239 34.8636C42.6677 34.4448 43.2482 34.4591 43.8864 34.8718C44.3735 35.1868 44.912 35.4222 45.5077 35.7351C45.4236 35.2042 45.3612 34.7566 45.2806 34.3122C44.9834 32.672 44.9714 32.9568 46.0997 31.8341C46.4157 31.5196 46.7097 31.1829 47.0301 30.839C46.3579 30.743 45.7106 30.6268 45.0581 30.5643C44.4697 30.508 44.0918 30.2445 43.8594 29.6913C43.5982 29.0695 43.2728 28.4748 42.9468 27.8101C42.622 28.4728 42.2965 29.0465 42.0553 29.6537C41.8105 30.2696 41.3818 30.5181 40.7524 30.575C40.1244 30.6318 39.5019 30.7511 38.918 30.8369C39.4275 31.3813 39.9126 31.9215 40.4229 32.4369C40.7199 32.7368 40.8441 33.0552 40.763 33.4782C40.6238 34.2042 40.5152 34.9359 40.3815 35.7381Z" fill="#D7000C"/>
<path fill-rule="evenodd" clip-rule="evenodd" d="M24.8415 41.5144C24.941 40.9416 25.0478 40.2495 25.186 39.5636C25.254 39.2266 25.2095 38.9786 24.9321 38.7359C24.4483 38.3128 24.0084 37.84 23.5419 37.3966C23.2443 37.1138 23.1164 36.7838 23.2499 36.3904C23.3804 36.0053 23.6999 35.8622 24.0776 35.8105C24.7288 35.7214 25.3786 35.6211 26.0305 35.5377C26.3051 35.5026 26.4876 35.4051 26.6093 35.1254C26.8651 34.5367 27.1736 33.9711 27.4514 33.3916C27.629 33.0211 27.8671 32.7295 28.3132 32.7261C28.7578 32.7228 29.0043 33.0003 29.1823 33.3765C29.457 33.9573 29.7654 34.5229 30.0251 35.1102C30.1524 35.3979 30.3399 35.508 30.6357 35.5429C31.2741 35.6178 31.9086 35.7247 32.5463 35.8079C32.9434 35.8598 33.2645 36.0143 33.4035 36.4136C33.544 36.8174 33.3757 37.1341 33.0879 37.4112C32.6037 37.8776 32.13 38.3549 31.6386 38.8134C31.4548 38.9849 31.3787 39.1394 31.4362 39.4073C31.5802 40.0771 31.6757 40.7574 31.7947 41.4326C31.8618 41.8132 31.7951 42.1512 31.4731 42.3927C31.1503 42.635 30.8094 42.6041 30.4657 42.4213C29.8477 42.0928 29.2204 41.781 28.6102 41.4386C28.3939 41.3171 28.2315 41.3318 28.0234 41.446C27.3847 41.7964 26.7442 42.1455 26.0869 42.4586C25.4321 42.7706 24.8091 42.3444 24.8415 41.5144ZM26.7662 40.0898C27.3688 39.8566 27.8554 39.5217 28.3422 39.5216C28.8174 39.5215 29.2927 39.8634 29.8912 40.1049C29.3138 38.8814 29.7074 37.9954 30.7377 37.3493C30.1394 37.1944 29.5441 37.1846 29.1514 36.8974C28.7654 36.6148 28.5851 36.0509 28.2954 35.5795C28.1644 35.8421 28.0181 36.0873 27.9161 36.3498C27.718 36.8598 27.3591 37.1179 26.8164 37.1581C26.532 37.1791 26.2506 37.2424 25.9679 37.2866C25.9443 37.3158 25.9206 37.3448 25.897 37.3739C27.0028 38.0136 27.2849 38.9215 26.7662 40.0898Z" fill="#D7000C"/>
<path fill-rule="evenodd" clip-rule="evenodd" d="M54.0314 41.5185C54.133 40.9365 54.2446 40.2307 54.3835 39.5303C54.4477 39.2063 54.39 38.9723 54.1293 38.7428C53.6576 38.3274 53.2282 37.8643 52.7695 37.4336C52.4616 37.1446 52.2997 36.8146 52.4381 36.399C52.5729 35.9939 52.9087 35.8581 53.3022 35.8066C53.9539 35.7211 54.603 35.6158 55.255 35.5339C55.5213 35.5004 55.6803 35.39 55.7955 35.1333C56.0699 34.5213 56.3879 33.929 56.6795 33.3245C56.8476 32.976 57.0931 32.7348 57.4952 32.7268C57.9186 32.7182 58.1751 32.9669 58.3502 33.3302C58.6415 33.935 58.9557 34.5291 59.2313 35.1408C59.3466 35.3965 59.5115 35.5012 59.7756 35.5344C60.4276 35.6162 61.0766 35.7222 61.7284 35.8072C62.1245 35.8588 62.4481 36.0065 62.5911 36.4056C62.7357 36.8088 62.5728 37.1268 62.2852 37.4048C61.7812 37.8917 61.2701 38.3722 60.7856 38.8782C60.6804 38.988 60.6137 39.2021 60.6346 39.3536C60.7303 40.0466 60.8608 40.735 60.9842 41.4239C61.0523 41.8038 60.9907 42.1428 60.6713 42.3875C60.3511 42.6332 60.01 42.6081 59.6651 42.4249C59.0345 42.0897 58.4071 41.7471 57.7646 41.4363C57.6273 41.3699 57.4033 41.3683 57.2666 41.4345C56.5983 41.7581 55.9549 42.1329 55.2858 42.4545C54.6301 42.7697 54.0039 42.3514 54.0314 41.5185ZM57.5582 35.4411C57.3346 35.8887 57.1786 36.1906 57.0325 36.4971C56.8596 36.8597 56.5976 37.0806 56.1819 37.1225C55.8395 37.157 55.5009 37.2297 55.1606 37.2855C55.1331 37.3142 55.1056 37.3428 55.078 37.3714C56.2198 38.0047 56.4483 38.9409 56.023 40.1411C57.0321 39.3053 57.9934 39.3328 59.0139 40.1262C58.5092 38.8875 58.8888 37.9965 59.934 37.278C58.6219 37.3497 57.8481 36.7824 57.5582 35.4411Z" fill="#D7000C"/>
<path fill-rule="evenodd" clip-rule="evenodd" d="M46.3628 58.6162C46.4628 58.6574 46.6626 58.7033 46.8206 58.8108C47.8183 59.4896 48.5911 60.3718 49.133 61.4508C49.3735 61.93 49.2442 62.4051 48.8277 62.6429C48.4077 62.8829 47.9184 62.7707 47.6588 62.2941C47.1922 61.438 46.5794 60.729 45.7918 60.1572C45.444 59.9046 45.3329 59.5405 45.4972 59.1317C45.6321 58.7952 45.9013 58.6291 46.3628 58.6162Z" fill="#D7000C"/>
<path fill-rule="evenodd" clip-rule="evenodd" d="M42.968 57.6231C43.4171 57.6158 43.8238 58.0117 43.831 58.4635C43.8382 58.9128 43.4424 59.3194 42.9906 59.3266C42.5411 59.3336 42.1349 58.9382 42.1277 58.4862C42.1204 58.0368 42.516 57.6307 42.968 57.6231Z" fill="#D7000C"/>
</svg>
